<?xml version="1.0" encoding="UTF-8"?>
<!DOCTYPE svg PUBLIC "-//W3C//DTD SVG 1.1//EN" "http://www.w3.org/Graphics/SVG/1.1/DTD/svg11.dtd">
<!-- Creator: CorelDRAW -->
<svg xmlns="http://www.w3.org/2000/svg" xml:space="preserve" width="115mm" height="115mm" version="1.1" shape-rendering="geometricPrecision" text-rendering="geometricPrecision" image-rendering="optimizeQuality" fill-rule="evenodd" clip-rule="evenodd"
viewBox="0 0 11500 11500"
 xmlns:xlink="http://www.w3.org/1999/xlink"
 xmlns:xodm="http://www.corel.com/coreldraw/odm/2003">
 <g id="Camada_x0020_1">
  <metadata id="CorelCorpID_0Corel-Layer"/>
  <g id="_3054933108400">
   <path fill="#6DA4FD" fill-rule="nonzero" d="M179.07 1014.52l1031.37 0 988.63 1775.89 970.33 -1775.89 1037.46 0 173.39 3730.69c-163.8,97.34 -316.47,211.38 -455.7,339.81l-620.89 0 -97.65 -2386.15 -714.01 1391.41 -591.96 0 -793.36 -1391.41 -76.54 2302.37 -996.67 0c-16.48,0 -31.16,7.73 -40.61,19.75l186.21 -4006.47zm849.34 4038.36l-1.06 32.14 -993.88 0 0 -32.14 994.94 0z"/>
   <path fill="#6DA4FD" fill-rule="nonzero" d="M4615.78 1014.52l2929.28 0 0 933.72 -1849.12 0 0 628.57 1519.58 0 0 878.79 -1519.58 0 0 695.7 1977.28 0 0 933.72 -65.9 0c-484.09,-446.59 -1130.82,-719.52 -1841.39,-719.52 -411.15,0 -800.86,91.51 -1150.15,255l0 -3605.98z"/>
   <path fill="#6DA4FD" fill-rule="nonzero" d="M7844.13 1014.52l1080.18 0 0 2386.16c0,223.76 51.87,406.84 155.62,549.24 103.75,142.39 275.64,213.59 515.68,213.59 240.04,0 410.91,-72.21 512.63,-216.64 101.7,-144.43 152.56,-326.5 152.56,-546.19l0 -2386.16 1092.38 0 0 2483.8c0,260.38 -42.71,495.33 -128.15,704.86 -85.44,209.53 -206.48,387.52 -363.11,533.99 -113.59,106.22 -242.16,194.24 -385.7,264.07l-209.99 0 0 0.18c-18.22,0.02 -35.86,9.73 -45.19,26.85l-47.49 86.93c-177.07,49.04 -367.69,73.57 -571.84,73.57 -256.31,0 -492.29,-38.65 -707.92,-115.96 -215.62,-77.3 -401.76,-188.16 -558.39,-332.6 -156.64,-144.43 -277.67,-321.4 -363.11,-530.93 -85.43,-209.52 -128.16,-446.51 -128.16,-710.96l0 -2483.8zm2514.94 4038.36c-17.3,6.88 -34.8,13.53 -52.49,19.93 -20.79,7.52 -41.78,14.67 -62.97,21.46l22.62 -41.39 92.84 0z"/>
   <path fill="#6DA4FD" fill-rule="nonzero" d="M-6.31 5052.88l1602.08 0c313.26,0 603.14,40.68 869.63,122.05 266.48,81.37 497.37,205.46 692.65,372.27 81.69,69.77 155.89,147.75 222.63,233.89 -211.14,386.33 -331.23,829.58 -331.23,1300.89 0,470.54 119.66,913.08 330.16,1298.97 -68.27,87.09 -144.14,166.74 -227.66,238.95 -195.29,168.84 -427.19,294.96 -695.71,378.36 -268.52,83.41 -557.38,125.11 -866.58,125.11l-1595.97 0 0 -4070.49zm1559.35 3118.48c353.96,0 627.57,-100.7 820.82,-302.1 193.25,-201.38 289.87,-462.79 289.87,-784.19 0,-162.74 -22.37,-310.22 -67.13,-442.44 -44.75,-132.23 -112.9,-246.15 -204.43,-341.75 -91.55,-95.62 -206.48,-169.86 -344.81,-222.76 -138.33,-52.89 -303.1,-79.33 -494.32,-79.33l-439.39 0 0 2172.57 439.39 0z"/>
   <path fill="#6DA4FD" fill-rule="nonzero" d="M7607.32 5085.02l65.9 0 0 -32.14 634.04 0 988.64 1775.88 970.33 -1775.88 1037.45 0 189.18 4070.49 -1092.37 0 -97.65 -2386.15 -714.02 1391.41 -591.96 0 -517.91 -908.32 0.02 -0.44c1.1,-22.14 1.95,-44.34 2.53,-66.62l0.05 -1.83c0.58,-23.08 0.88,-46.22 0.88,-69.44 0,-22.53 -0.3,-45 -0.86,-67.41l-0.07 -3.79c-0.55,-21.33 -1.38,-42.62 -2.42,-63.83l-0.34 -7.2c-1.06,-20.54 -2.38,-41.03 -3.89,-61.46l-0.67 -8.89c-1.55,-20.01 -3.32,-39.97 -5.3,-59.86l-0.97 -9.64c-2.02,-19.51 -4.25,-38.97 -6.68,-58.37l-1.38 -10.93c-2.48,-19.2 -5.15,-38.34 -8.03,-57.4l-1.72 -11.1c-2.93,-18.9 -6.04,-37.73 -9.36,-56.5l-2.07 -11.46c-3.42,-18.87 -7,-37.68 -10.81,-56.41l-2.01 -9.59c-3.94,-19.03 -8.04,-38.01 -12.38,-56.89l-2.22 -9.39c-4.26,-18.16 -8.66,-36.3 -13.26,-54.33l-2.31 -8.95c-4.56,-17.59 -9.32,-35.11 -14.22,-52.56l-3.05 -10.98c-4.96,-17.36 -10.13,-34.66 -15.43,-51.89 -1.4,-4.54 -2.76,-9.09 -4.19,-13.63 -5.14,-16.44 -10.48,-32.79 -15.93,-49.09l-5.45 -16.22c-5.29,-15.48 -10.73,-30.89 -16.29,-46.25 -2.19,-6.07 -4.39,-12.14 -6.63,-18.19 -5.56,-15.02 -11.24,-29.97 -17.05,-44.86l-7.12 -18.02c-5.8,-14.55 -11.72,-29.04 -17.76,-43.47l-8.41 -19.79c-6.02,-14.05 -12.1,-28.04 -18.35,-41.97 -2.89,-6.45 -5.85,-12.88 -8.8,-19.32 -5.83,-12.73 -11.74,-25.43 -17.76,-38.06 -3.84,-8.05 -7.76,-16.09 -11.68,-24.1 -4.91,-10.03 -9.88,-20.02 -14.89,-29.97 -5.1,-10.1 -10.25,-20.17 -15.48,-30.2 -4.66,-8.97 -9.39,-17.92 -14.16,-26.84 -5.83,-10.89 -11.71,-21.72 -17.66,-32.51 -4.56,-8.25 -9.14,-16.47 -13.79,-24.66 -6.43,-11.34 -12.93,-22.62 -19.51,-33.87 -4.43,-7.57 -8.88,-15.13 -13.39,-22.65 -7.07,-11.83 -14.25,-23.57 -21.5,-35.29 -4.37,-7.05 -8.75,-14.09 -13.18,-21.11 -7.42,-11.75 -14.95,-23.43 -22.55,-35.06 -4.47,-6.83 -8.94,-13.66 -13.47,-20.46 -6.7,-10.08 -13.49,-20.08 -20.33,-30.06 -5.71,-8.32 -11.46,-16.63 -17.25,-24.88 -6.27,-8.93 -12.61,-17.83 -18.99,-26.7l-5.73 -7.86c-11.34,-15.61 -22.83,-31.13 -34.49,-46.5l-6.95 -9.07c-11.4,-14.89 -22.93,-29.68 -34.63,-44.32l-6.6 -8.2c-12.02,-14.93 -24.16,-29.73 -36.49,-44.39l-6.32 -7.48c-12.48,-14.73 -25.08,-29.33 -37.86,-43.79l-6.48 -7.3c-12.76,-14.33 -25.67,-28.53 -38.73,-42.6l-7.16 -7.69c-13.29,-14.23 -26.74,-28.28 -40.34,-42.2l-5.68 -5.82c-14.07,-14.33 -28.31,-28.5 -42.7,-42.52l-5.57 -5.43c-15.92,-15.44 -32.05,-30.68 -48.36,-45.73zm541.32 3302.42l-24.47 735.93 -566.18 0 0.1 -0.08c6.18,-5.43 12.34,-10.9 18.46,-16.38 10.58,-9.47 21.07,-19.01 31.49,-28.63 5.77,-5.33 11.54,-10.69 17.26,-16.07 9.74,-9.15 19.4,-18.35 29.01,-27.64 5.63,-5.45 11.24,-10.93 16.82,-16.43 10.26,-10.09 20.43,-20.26 30.52,-30.5 5.94,-6.03 11.86,-12.09 17.73,-18.17 8.95,-9.26 17.82,-18.58 26.64,-27.97 5.52,-5.87 11.03,-11.79 16.5,-17.72 9.07,-9.82 18.07,-19.71 27,-29.67 5.99,-6.68 11.96,-13.4 17.89,-20.16 8.49,-9.67 16.92,-19.4 25.28,-29.2 5.83,-6.82 11.64,-13.69 17.4,-20.58 7.92,-9.47 15.77,-18.98 23.57,-28.55 6.19,-7.62 12.36,-15.26 18.47,-22.94 7.21,-9.05 14.36,-18.15 21.44,-27.29 6.4,-8.24 12.75,-16.53 19.05,-24.85 6.71,-8.86 13.39,-17.77 20,-26.72 6.23,-8.43 12.4,-16.91 18.53,-25.41 6.33,-8.79 12.61,-17.6 18.84,-26.46 6.64,-9.45 13.23,-18.95 19.75,-28.49 5.86,-8.57 11.66,-17.18 17.43,-25.81 6.48,-9.73 12.91,-19.48 19.27,-29.29 5.22,-8.07 10.42,-16.15 15.56,-24.27 6.65,-10.5 13.25,-21.06 19.77,-31.65 4.94,-8.06 9.85,-16.12 14.71,-24.23 6.29,-10.46 12.51,-20.98 18.66,-31.54 4.92,-8.46 9.79,-16.95 14.62,-25.46 6.21,-10.92 12.33,-21.87 18.38,-32.87l0.5 -0.9z"/>
   <path fill="#6DA4FD" fill-rule="nonzero" d="M5765.88 9221.02c-305.12,0 -586.87,-53.91 -845.21,-161.73 -258.35,-107.81 -482.12,-256.31 -671.3,-445.49 -189.19,-189.18 -336.67,-414.98 -442.44,-677.39 -105.79,-262.42 -158.67,-548.23 -158.67,-857.43 0,-309.21 52.88,-595.01 158.67,-857.43 105.77,-262.41 253.25,-488.21 442.44,-677.39 189.18,-189.19 412.95,-336.67 671.3,-442.44 258.34,-105.79 540.09,-158.68 845.21,-158.68 305.14,0 587.9,52.89 848.28,158.68 260.38,105.77 484.15,253.25 671.29,442.44 187.15,189.18 333.61,414.98 439.4,677.39 105.77,262.42 158.66,548.22 158.66,857.43 0,309.2 -52.89,595.01 -158.66,857.43 -105.79,262.41 -252.25,488.21 -439.4,677.39 -187.14,189.18 -410.91,337.68 -671.29,445.49 -260.38,107.82 -543.14,161.73 -848.28,161.73zm0 -1013.05c158.68,0 300.05,-29.5 424.14,-88.49 124.09,-58.99 228.86,-139.34 314.29,-241.05 85.44,-101.71 150.53,-221.74 195.28,-360.06 44.76,-138.33 67.13,-284.79 67.13,-439.39 0,-154.6 -22.37,-301.07 -67.13,-439.4 -44.75,-138.32 -109.84,-258.34 -195.28,-360.06 -85.43,-101.7 -190.2,-182.05 -314.29,-241.05 -124.09,-58.99 -265.46,-88.49 -424.14,-88.49 -158.67,0 -300.04,29.5 -424.13,88.49 -124.08,59 -228.85,139.35 -314.29,241.05 -85.44,101.72 -150.53,221.74 -195.28,360.06 -44.76,138.33 -67.13,284.8 -67.13,439.4 0,154.6 22.37,301.06 67.13,439.39 44.75,138.32 109.84,258.35 195.28,360.06 85.44,101.71 190.21,182.06 314.29,241.05 124.09,58.99 265.46,88.49 424.13,88.49z"/>
   <path fill="#6DA4FD" fill-rule="nonzero" d="M849.04 9354.72l-291.14 820.81 -250.22 0 -291.12 -820.81 212.79 0 203.44 619.7 204.62 -619.7 211.63 0zm183.56 100.56c-35.08,0 -63.72,-10.34 -85.92,-30.99 -22.23,-20.66 -33.33,-46.19 -33.33,-76.58 0,-31.18 11.1,-57.1 33.33,-77.76 22.2,-20.65 50.84,-30.98 85.92,-30.98 34.3,0 62.56,10.33 84.77,30.98 22.22,20.66 33.33,46.58 33.33,77.76 0,30.39 -11.11,55.92 -33.33,76.58 -22.21,20.65 -50.47,30.99 -84.77,30.99zm99.39 67.81l0 652.44 -199.94 0 0 -652.44 199.94 0zm438.45 465.36l141.48 -465.36 212.79 0 -231.49 652.44 -246.71 0 -231.51 -652.44 213.97 0 141.47 465.36zm398.71 -140.31c0,-67.03 12.67,-125.89 38,-176.56 25.33,-50.67 59.82,-89.63 103.48,-116.92 43.65,-27.28 92.37,-40.92 146.15,-40.92 45.99,0 86.33,9.35 121.02,28.06 34.68,18.71 61.38,43.26 80.09,73.66l0 -92.37 199.94 0 0 652.44 -199.94 0 0 -92.37c-19.49,30.4 -46.58,54.95 -81.27,73.66 -34.68,18.71 -75.02,28.06 -121.01,28.06 -53.01,0 -101.33,-13.84 -144.98,-41.5 -43.66,-27.68 -78.15,-67.04 -103.48,-118.1 -25.33,-51.06 -38,-110.1 -38,-177.14zm488.74 1.17c0,-49.88 -13.84,-89.25 -41.51,-118.1 -27.67,-28.83 -61.38,-43.26 -101.13,-43.26 -39.76,0 -73.47,14.23 -101.14,42.68 -27.68,28.46 -41.52,67.62 -41.52,117.51 0,49.88 13.84,89.45 41.52,118.68 27.67,29.22 61.38,43.85 101.14,43.85 39.75,0 73.46,-14.43 101.13,-43.27 27.67,-28.84 41.51,-68.2 41.51,-118.09zm858.21 335.57c-56.9,0 -107.57,-9.75 -152,-29.24 -44.43,-19.48 -79.5,-46.18 -105.23,-80.09 -25.72,-33.9 -40.14,-71.91 -43.26,-113.99l197.6 0c2.34,22.6 12.87,40.92 31.57,54.95 18.7,14.03 41.7,21.05 68.99,21.05 24.94,0 44.23,-4.88 57.87,-14.62 13.65,-9.74 20.46,-22.42 20.46,-38 0,-18.7 -9.74,-32.54 -29.22,-41.51 -19.49,-8.96 -51.06,-18.9 -94.72,-29.81 -46.76,-10.92 -85.74,-22.41 -116.92,-34.5 -31.18,-12.08 -58.07,-31.17 -80.68,-57.29 -22.6,-26.11 -33.9,-61.38 -33.9,-105.81 0,-37.42 10.33,-71.52 30.98,-102.31 20.66,-30.79 51.06,-55.15 91.2,-73.08 40.15,-17.93 87.89,-26.89 143.24,-26.89 81.84,0 146.34,20.27 193.5,60.79 47.16,40.54 74.25,94.33 81.26,161.36l-184.74 0c-3.12,-22.61 -13.05,-40.53 -29.81,-53.78 -16.77,-13.25 -38.78,-19.87 -66.07,-19.87 -23.38,0 -41.31,4.48 -53.77,13.44 -12.48,8.97 -18.72,21.24 -18.72,36.83 0,18.7 9.94,32.74 29.82,42.09 19.88,9.35 50.86,18.71 92.96,28.06 48.32,12.47 87.69,24.75 118.08,36.83 30.41,12.09 57.1,31.57 80.1,58.47 22.99,26.89 34.88,62.94 35.66,108.15 0,38.2 -10.72,72.3 -32.16,102.3 -21.43,30.01 -52.22,53.6 -92.37,70.75 -40.14,17.14 -86.71,25.72 -139.72,25.72zm1002.02 -346.1c0,18.72 -1.16,38.2 -3.5,58.47l-452.49 0c3.11,40.53 16.17,71.52 39.16,92.95 23,21.44 51.26,32.16 84.77,32.16 49.89,0 84.58,-21.05 104.06,-63.15l212.81 0c-10.91,42.87 -30.6,81.47 -59.05,115.77 -28.45,34.28 -64.11,61.18 -106.98,80.66 -42.87,19.49 -90.81,29.24 -143.82,29.24 -63.91,0 -120.82,-13.64 -170.71,-40.93 -49.88,-27.27 -88.85,-66.25 -116.91,-116.91 -28.06,-50.67 -42.09,-109.92 -42.09,-177.73 0,-67.81 13.84,-127.06 41.5,-177.73 27.68,-50.67 66.45,-89.63 116.33,-116.92 49.89,-27.28 107.18,-40.92 171.88,-40.92 63.14,0 119.27,13.25 168.37,39.76 49.11,26.5 87.5,64.3 115.17,113.4 27.68,49.12 41.5,106.41 41.5,171.88zm-204.61 -52.61c0,-34.3 -11.69,-61.58 -35.08,-81.85 -23.38,-20.26 -52.61,-30.39 -87.69,-30.39 -33.51,0 -61.77,9.73 -84.77,29.22 -22.99,19.49 -37.22,47.16 -42.67,83.02l250.21 0zm954.09 -263.08l0 652.44 -199.95 0 0 -88.86c-20.26,28.83 -47.74,52.03 -82.43,69.56 -34.68,17.54 -73.08,26.31 -115.15,26.31 -49.9,0 -93.93,-11.1 -132.13,-33.32 -38.2,-22.21 -67.82,-54.37 -88.86,-96.47 -21.05,-42.08 -31.57,-91.58 -31.57,-148.49l0 -381.17 198.77 0 0 354.28c0,43.65 11.3,77.56 33.91,101.73 22.59,24.16 52.99,36.24 91.19,36.24 38.97,0 69.76,-12.08 92.37,-36.24 22.61,-24.17 33.9,-58.08 33.9,-101.73l0 -354.28 199.95 0zm591.62 92.37c19.49,-30.4 46.38,-54.95 80.68,-73.66 34.3,-18.71 74.44,-28.06 120.43,-28.06 53.79,0 102.5,13.64 146.16,40.92 43.65,27.29 78.13,66.25 103.47,116.92 25.33,50.67 38,109.53 38,176.56 0,67.04 -12.67,126.08 -38,177.14 -25.34,51.06 -59.82,90.42 -103.47,118.1 -43.66,27.66 -92.37,41.5 -146.16,41.5 -45.21,0 -85.16,-9.35 -119.84,-28.06 -34.69,-18.71 -61.78,-42.88 -81.27,-72.5l0 402.22 -199.93 0 0 -963.45 199.93 0 0 92.37zm285.3 232.68c0,-49.89 -13.84,-89.05 -41.52,-117.51 -27.66,-28.45 -61.77,-42.68 -102.3,-42.68 -39.75,0 -73.47,14.43 -101.14,43.26 -27.67,28.85 -41.51,68.22 -41.51,118.1 0,49.89 13.84,89.25 41.51,118.09 27.67,28.84 61.39,43.27 101.14,43.27 39.75,0 73.66,-14.63 101.72,-43.85 28.06,-29.23 42.1,-68.8 42.1,-118.68zm508.61 -216.31c23.38,-35.86 52.62,-64.11 87.68,-84.77 35.09,-20.65 74.06,-30.98 116.93,-30.98l0 211.63 -54.95 0c-49.89,0 -87.3,10.71 -112.24,32.15 -24.94,21.44 -37.42,59.04 -37.42,112.83l0 302.84 -199.94 0 0 -652.44 199.94 0 0 108.74zm597.47 553.05c-63.91,0 -121.41,-13.64 -172.46,-40.93 -51.06,-27.27 -91.2,-66.25 -120.43,-116.91 -29.23,-50.67 -43.85,-109.92 -43.85,-177.73 0,-67.04 14.81,-126.08 44.43,-177.14 29.62,-51.06 70.16,-90.22 121.61,-117.51 51.44,-27.28 109.12,-40.92 173.04,-40.92 63.91,0 121.6,13.64 173.05,40.92 51.45,27.29 91.97,66.45 121.6,117.51 29.62,51.06 44.43,110.1 44.43,177.14 0,67.03 -15,126.08 -45.02,177.14 -30.01,51.06 -70.93,90.23 -122.77,117.5 -51.83,27.29 -109.71,40.93 -173.63,40.93zm0 -173.05c38.19,0 70.74,-14.03 97.63,-42.09 26.89,-28.06 40.34,-68.2 40.34,-120.43 0,-52.23 -13.06,-92.37 -39.16,-120.43 -26.12,-28.06 -58.27,-42.1 -96.47,-42.1 -38.97,0 -71.33,13.84 -97.04,41.51 -25.73,27.68 -38.6,68.02 -38.6,121.02 0,52.23 12.68,92.37 38.01,120.43 25.33,28.06 57.1,42.09 95.29,42.09zm647.75 -396.37c19.49,-30.4 46.38,-54.95 80.68,-73.66 34.29,-18.71 74.44,-28.06 120.43,-28.06 53.78,0 102.5,13.64 146.15,40.92 43.66,27.29 78.14,66.25 103.47,116.92 25.34,50.67 38.01,109.53 38.01,176.56 0,67.04 -12.67,126.08 -38.01,177.14 -25.33,51.06 -59.81,90.42 -103.47,118.1 -43.65,27.66 -92.37,41.5 -146.15,41.5 -45.22,0 -85.16,-9.35 -119.84,-28.06 -34.69,-18.71 -61.78,-42.88 -81.27,-72.5l0 402.22 -199.94 0 0 -963.45 199.94 0 0 92.37zm285.3 232.68c0,-49.89 -13.84,-89.05 -41.52,-117.51 -27.67,-28.45 -61.77,-42.68 -102.3,-42.68 -39.76,0 -73.47,14.43 -101.14,43.26 -27.67,28.85 -41.51,68.22 -41.51,118.1 0,49.89 13.84,89.25 41.51,118.09 27.67,28.84 61.38,43.27 101.14,43.27 39.75,0 73.66,-14.63 101.72,-43.85 28.06,-29.23 42.1,-68.8 42.1,-118.68zm605.65 336.74c-63.92,0 -121.41,-13.64 -172.46,-40.93 -51.05,-27.27 -91.2,-66.25 -120.42,-116.91 -29.24,-50.67 -43.85,-109.92 -43.85,-177.73 0,-67.04 14.81,-126.08 44.43,-177.14 29.62,-51.06 70.15,-90.22 121.59,-117.51 51.44,-27.28 109.12,-40.92 173.04,-40.92 63.92,0 121.61,13.64 173.05,40.92 51.45,27.29 91.98,66.45 121.61,117.51 29.62,51.06 44.43,110.1 44.43,177.14 0,67.03 -15.01,126.08 -45.02,177.14 -30.01,51.06 -70.93,90.23 -122.78,117.5 -51.83,27.29 -109.71,40.93 -173.62,40.93zm0 -173.05c38.19,0 70.73,-14.03 97.62,-42.09 26.9,-28.06 40.34,-68.2 40.34,-120.43 0,-52.23 -13.05,-92.37 -39.16,-120.43 -26.12,-28.06 -58.27,-42.1 -96.47,-42.1 -38.96,0 -71.32,13.84 -97.04,41.51 -25.72,27.68 -38.59,68.02 -38.59,121.02 0,52.23 12.67,92.37 38,120.43 25.34,28.06 57.11,42.09 95.3,42.09zm154.33 -655.94l-281.77 118.09 0 -137.96 281.77 -135.63 0 155.5zm558.9 828.99c-56.91,0 -107.57,-9.75 -152,-29.24 -44.43,-19.48 -79.5,-46.18 -105.23,-80.09 -25.73,-33.9 -40.14,-71.91 -43.26,-113.99l197.6 0c2.34,22.6 12.86,40.92 31.57,54.95 18.7,14.03 41.7,21.05 68.99,21.05 24.93,0 44.22,-4.88 57.86,-14.62 13.64,-9.74 20.46,-22.42 20.46,-38 0,-18.7 -9.74,-32.54 -29.23,-41.51 -19.49,-8.96 -51.05,-18.9 -94.7,-29.81 -46.76,-10.92 -85.74,-22.41 -116.92,-34.5 -31.18,-12.08 -58.07,-31.17 -80.68,-57.29 -22.61,-26.11 -33.9,-61.38 -33.9,-105.81 0,-37.42 10.32,-71.52 30.98,-102.31 20.65,-30.79 51.06,-55.15 91.2,-73.08 40.14,-17.93 87.89,-26.89 143.23,-26.89 81.84,0 146.34,20.27 193.5,60.79 47.16,40.54 74.25,94.33 81.26,161.36l-184.74 0c-3.12,-22.61 -13.05,-40.53 -29.82,-53.78 -16.76,-13.25 -38.77,-19.87 -66.05,-19.87 -23.38,0 -41.31,4.48 -53.78,13.44 -12.47,8.97 -18.71,21.24 -18.71,36.83 0,18.7 9.93,32.74 29.82,42.09 19.88,9.35 50.86,18.71 92.94,28.06 48.33,12.47 87.7,24.75 118.09,36.83 30.4,12.09 57.1,31.57 80.1,58.47 22.99,26.89 34.88,62.94 35.66,108.15 0,38.2 -10.72,72.3 -32.16,102.3 -21.43,30.01 -52.23,53.6 -92.37,70.75 -40.14,17.14 -86.71,25.72 -139.71,25.72zm487.56 -729.6c-35.08,0 -63.72,-10.34 -85.93,-30.99 -22.23,-20.66 -33.33,-46.19 -33.33,-76.58 0,-31.18 11.1,-57.1 33.33,-77.76 22.21,-20.65 50.85,-30.98 85.93,-30.98 34.3,0 62.56,10.33 84.77,30.98 22.22,20.66 33.33,46.58 33.33,77.76 0,30.39 -11.11,55.92 -33.33,76.58 -22.21,20.65 -50.47,30.99 -84.77,30.99zm99.39 67.81l0 652.44 -199.95 0 0 -652.44 199.95 0zm508.6 482.9l0 169.54 -101.73 0c-72.48,0 -128.99,-17.74 -169.53,-53.2 -40.52,-35.47 -60.79,-93.35 -60.79,-173.64l0 -259.56 -79.51 0 0 -166.04 79.51 0 0 -159.01 199.93 0 0 159.01 130.95 0 0 166.04 -130.95 0 0 261.91c0,19.48 4.68,33.51 14.02,42.08 9.36,8.58 24.95,12.87 46.78,12.87l71.32 0zm408.06 178.89c-63.92,0 -121.41,-13.64 -172.46,-40.93 -51.06,-27.27 -91.2,-66.25 -120.43,-116.91 -29.24,-50.67 -43.85,-109.92 -43.85,-177.73 0,-67.04 14.81,-126.08 44.43,-177.14 29.62,-51.06 70.15,-90.22 121.61,-117.51 51.44,-27.28 109.12,-40.92 173.04,-40.92 63.91,0 121.6,13.64 173.04,40.92 51.46,27.29 91.98,66.45 121.61,117.51 29.62,51.06 44.43,110.1 44.43,177.14 0,67.03 -15.01,126.08 -45.02,177.14 -30.01,51.06 -70.93,90.23 -122.77,117.5 -51.84,27.29 -109.71,40.93 -173.63,40.93zm0 -173.05c38.19,0 70.73,-14.03 97.63,-42.09 26.89,-28.06 40.34,-68.2 40.34,-120.43 0,-52.23 -13.06,-92.37 -39.16,-120.43 -26.12,-28.06 -58.27,-42.1 -96.47,-42.1 -38.97,0 -71.33,13.84 -97.04,41.51 -25.73,27.68 -38.6,68.02 -38.6,121.02 0,52.23 12.68,92.37 38.01,120.43 25.33,28.06 57.1,42.09 95.29,42.09zm541.35 173.05c-35.08,0 -63.73,-10.33 -85.94,-30.98 -22.22,-20.67 -33.32,-46.19 -33.32,-76.59 0,-31.18 11.1,-57.3 33.32,-78.33 22.21,-21.05 50.86,-31.58 85.94,-31.58 34.3,0 62.56,10.53 84.77,31.58 22.22,21.03 33.32,47.15 33.32,78.33 0,30.4 -11.1,55.92 -33.32,76.59 -22.21,20.65 -50.47,30.98 -84.77,30.98z"/>
  </g>
 </g>
</svg>
