<?xml version="1.0" encoding="UTF-8"?>
<!DOCTYPE svg PUBLIC "-//W3C//DTD SVG 1.1//EN" "http://www.w3.org/Graphics/SVG/1.1/DTD/svg11.dtd">
<!-- Creator: CorelDRAW -->
<svg xmlns="http://www.w3.org/2000/svg" xml:space="preserve" width="115mm" height="115mm" version="1.1" shape-rendering="geometricPrecision" text-rendering="geometricPrecision" image-rendering="optimizeQuality" fill-rule="evenodd" clip-rule="evenodd"
viewBox="0 0 11500 11500"
 xmlns:xlink="http://www.w3.org/1999/xlink"
 xmlns:xodm="http://www.corel.com/coreldraw/odm/2003">
 <g id="Camada_x0020_1">
  <metadata id="CorelCorpID_0Corel-Layer"/>
  <polygon fill="#EBEBEB" fill-rule="nonzero" points="5917.06,5391.08 5917.06,5391.35 5917.84,5391.35 "/>
  <polygon fill="#EBEBEB" fill-rule="nonzero" points="5914.73,5391.35 5916.81,5391.35 5915.25,5390.56 "/>
  <polygon fill="#EBEBEB" fill-rule="nonzero" points="5912.4,5389.79 5911.1,5391.35 5914.47,5391.35 "/>
  <polygon fill="#EBEBEB" fill-rule="nonzero" points="5909.56,5389.27 5910.07,5389.02 5909.29,5388.75 "/>
  <polygon fill="#EBEBEB" fill-rule="nonzero" points="5909.04,5384.87 5909.04,5385.13 5909.56,5385.65 "/>
  <polygon fill="#EBEBEB" fill-rule="nonzero" points="5916.54,5389.27 5916.02,5389.79 5916.54,5390.05 "/>
  <polygon fill="#EBEBEB" fill-rule="nonzero" points="5908.25,5390.31 5908,5388.5 5898.67,5385.65 5906.96,5391.08 "/>
  <polygon fill="#EBEBEB" fill-rule="nonzero" points="5908.52,5388.5 5908.25,5390.31 5909.56,5389.54 "/>
  <polygon fill="#EBEBEB" fill-rule="nonzero" points="5915.77,5388.5 5914.47,5389.02 5915.25,5389.27 "/>
  <polygon fill="#EBEBEB" fill-rule="nonzero" points="5914.99,5390.56 5914.21,5390.31 5914.73,5391.08 "/>
  <path fill="#EBEBEB" fill-rule="nonzero" d="M5136.68 22.35l388.38 2696.93 11.14 -1.56 376.99 2643.08 373.88 -2643.6 5.7 0 371.54 -2652.65c-303.91,-48.99 -614.41,-73.8 -922.78,-73.8 -201.32,0 -404.77,11.34 -604.68,31.9l-0.17 -0.3z"/>
  <path fill="#EBEBEB" fill-rule="nonzero" d="M9417.42 1319.03c-392.02,-326.13 -826.63,-600.41 -1290.79,-812.09l-1101.19 2426.1 5.96 2.85 -1113.37 2447.07 3499.39 -4063.93z"/>
  <path fill="#EBEBEB" fill-rule="nonzero" d="M3329.39 4633.48l0 0 2563.33 750.87 -10.09 0 25.89 7.25 0 0 1.29 0 0 0 1.81 0 0 0 0 0 0 0 0 0 1.29 -1.55 2.08 1.55 -3.37 0 1.81 1.56 1.29 0 0 0 1.3 0 1.56 0 0 0 0 0 0 0 -1.81 0 10.62 4.4 -8.55 -5.44 2577.83 754.76 -1.56 5.44 2860.57 840.98c90.72,-410.87 138,-832.14 138,-1253.39 0,-119.88 -4.14,-238.99 -11.4,-357.06l-2876.35 0.21 0 4.66 -2686.06 2.84 0 0 -1.29 0 0 -2.59 11.91 -3.36 -9.58 6.21 23.82 -6.99 -11.65 0.01 5236.18 -1550.93c-172.62,-490.8 -413.58,-958.7 -711.97,-1385.28l-4526.03 2936.2 -8.28 0 3.89 -4.4 -6.99 4.4 -0.01 0 0 0 0 0 2.6 -14.5 -5.18 10.87 0 3.62 -3.11 2.33 0 -2.33 -2.33 0.01 0 -3.62 -4.14 -9.32 1.81 11.9 0 0 0 0.01 -5.44 -3.36 2.85 3.11 -9.84 -0.01 -4770.12 -3070.29c-329.38,441.95 -593.43,930.12 -783.24,1447.02l2986.66 874.21zm2587.67 757.6l0 0zm-2.33 0l0 0 1.56 0 -1.56 0zm1.81 -2.06l0 0 0 0zm0 0l0 0 0 0zm0 1.81l0 0 0 0zm-5.44 0l0 0 0 0zm0 -4.4l0 0 0 0zm0 3.62l0 0 0 0zm0 0l0 1.81 -1.29 0 -8.29 -5.44 9.58 3.63z"/>
  <path fill="#EBEBEB" fill-rule="nonzero" d="M4146.81 3352.6l0 0 1758.6 2029.42 -1115.44 -2444.22 0.01 0.01 -1165.16 -2544.42c-490.54,193.5 -953.76,456.6 -1372.2,777.07l1894.19 2182.14z"/>
  <path fill="#EBEBEB" fill-rule="nonzero" d="M8177.96 6850.11l-1.55 2.33 -2252.62 -1449.97 1756.78 2026.58 -4.4 3.62 2090.27 2416.52c397.43,-389.1 737.99,-835.43 1008.05,-1321.95l-2596.53 -1677.13z"/>
  <polygon fill="#EBEBEB" fill-rule="nonzero" points="5916.29,5397.04 5915.77,5396.78 5916.02,5397.04 "/>
  <polygon fill="#EBEBEB" fill-rule="nonzero" points="5909.81,5391.87 5909.56,5392.64 5908.52,5392.12 5908.77,5393.93 5909.04,5393.68 5908.77,5393.93 5910.59,5393.41 5909.81,5392.9 5910.33,5392.12 5910.85,5392.12 5910.59,5391.87 5911.1,5391.35 5908.25,5391.35 "/>
  <polygon fill="#EBEBEB" fill-rule="nonzero" points="5907.74,5394.45 5908,5391.6 5907.48,5391.35 5896.86,5397.56 "/>
  <path fill="#EBEBEB" fill-rule="nonzero" d="M5901.27 5403.51l-2247.19 1457.99c-1.81,-2.85 -3.36,-5.69 -5.17,-8.29l-2842.45 1838.61c298.93,498.13 671.47,950.24 1104.57,1336.86l2579.63 -2987.96 1410.61 -1637.21z"/>
  <path fill="#EBEBEB" fill-rule="nonzero" d="M3330.95 6154.39l2575.49 -762.78 -5903.41 6.22c-6.9,113.57 -10.35,227.67 -10.35,342.28 0,0.89 0,1.6 0,2.3 0,454.41 54.26,907.43 159.94,1349.18l3178.33 -937.2z"/>
  <path fill="#EBEBEB" fill-rule="nonzero" d="M5905.15 5411.8l-2534.07 5569.14c532.67,241.46 1099.95,399.66 1680.49,468.66l853.58 -6037.8z"/>
  <polygon fill="#EBEBEB" fill-rule="nonzero" points="5916.81,5392.64 5916.02,5393.16 5916.54,5393.68 "/>
  <path fill="#EBEBEB" fill-rule="nonzero" d="M5919.66 5411.28l854.44 5987.56c565.03,-101.6 1114.97,-290.74 1624.43,-556.63l-2478.87 -5430.93z"/>
  <polygon fill="#EBEBEB" fill-rule="nonzero" points="5909.81,5401.45 5912.66,5421.64 5915.51,5402.22 5912.4,5395.75 "/>
  <polygon fill="#EBEBEB" fill-rule="nonzero" points="5915.77,5393.41 5915.25,5393.68 5915.77,5393.68 "/>
  <g>
   <path fill="#6DA4FD" fill-rule="nonzero" d="M9670.39 9498.1c-42.4,-18.39 -76.27,-52.17 -94.75,-94.52 -7.5,-17.35 -7.77,-44.27 10.62,-48.15 11.39,-2.6 21.76,6.47 30.03,14.5l82.86 82.08c-7.22,-19.33 -10.92,-39.81 -10.92,-60.44 0,-25.55 5.68,-50.87 16.6,-73.95 6.99,-15.02 21.75,-30.81 37.03,-25.89 15.27,4.92 16.31,19.42 18.39,32.36 6.47,39.36 13.2,78.98 19.93,118.59 10.94,-46.18 33.33,-88.96 64.97,-124.28 11.39,-12.69 29.78,-25.9 44.27,-16.05 14.5,9.84 12.18,25.89 9.58,41.42 -6.75,37.03 -17.3,73.67 -31.03,108.72 35.69,-31.88 81.54,-50.26 129.43,-51.75 2.23,-0.35 4.49,-0.51 6.74,-0.51 11.69,0 22.93,4.55 31.34,12.68 12.68,16.31 1.55,40.13 -12.18,55.67 -40.39,45.83 -135.67,57.74 -196.77,53.6l-156.14 -24.08zm0 0l0 0 0 0z"/>
  </g>
  <path fill="#455A64" fill-rule="nonzero" d="M10036.25 9595.71c-148.1,-116.51 -408.57,-133.09 -579.99,-54.63 -193.41,88.55 -320.03,294.65 -338.93,491.95 -18.12,187.72 72.25,378.02 149.14,549.95l748.03 3.63c89.84,-148.37 183.05,-314.33 189.27,-487.3 6.21,-172.97 -31.33,-396.4 -167.52,-503.6z"/>
  <path fill="#263238" fill-rule="nonzero" d="M9700.69 9492.67l-3.37 0 -9.83 2.33 -15.8 3.36c-7.29,1.39 -14.49,3.29 -21.5,5.68 -45.28,13.15 -88.1,33.75 -126.6,60.86 -56.85,40.5 -105.83,91.36 -144.22,149.63 -22.73,34.26 -43.1,70.52 -60.56,107.73 -18.16,40.24 -33.91,81.98 -46.38,124.29 -14.15,50.2 -21.38,102.36 -21.38,154.59 0,33.18 2.92,66.56 8.69,99.17 12.12,68.81 31.09,136.4 56.39,201.61 20.71,55.93 39.09,100.72 51.79,132.06l13.98 35.73 3.62 9.58c0,2.07 0,3.11 0,3.36l-1.56 -3.11 -4.13 -9.06 -15.28 -35.48c-12.95,-30.81 -32.11,-75.34 -53.6,-131.53 -25.8,-65.22 -45.38,-133.01 -57.99,-202.11 -5.99,-33.56 -9.07,-67.78 -9.07,-101.86 0,-52.28 7.21,-104.42 21.27,-154.74 12.63,-42.72 28.61,-84.93 47.18,-125.34 17.59,-37.52 38.38,-74.01 61.36,-108.53 39.15,-58.65 89.01,-109.63 146.8,-150.1 39.23,-27.25 83.13,-47.36 129.42,-59.33 7.13,-2.24 14.42,-3.99 21.77,-5.17l16.32 -2.6 9.83 -1.81 2.85 0.79z"/>
  <path fill="#263238" fill-rule="nonzero" d="M9918.7 10581.95c0.71,-3.83 1.85,-7.57 3.37,-11.15 2.85,-7.77 6.47,-18.39 11.13,-31.59 9.84,-27.45 24.09,-67.06 40.91,-116.26 16.82,-49.19 35.73,-107.96 51.79,-174.76 18.02,-71.91 29.39,-145.93 33.16,-220.09 0.4,-10.89 0.69,-22.06 0.69,-33.04 0,-63.29 -8.01,-126.56 -23.55,-187.79 -14.71,-58.9 -38.47,-115.32 -70.09,-167.03 -21.7,-34.98 -47.83,-67.01 -77.7,-95.3 -9.83,-10.61 -19.16,-17.35 -24.6,-22.52l-8.54 -8.03c3.44,1.97 6.66,4.32 9.57,7.01 8.93,6.63 17.7,13.91 25.89,21.5 29.93,27.95 56.1,59.89 77.68,94.73 32.58,51.89 57.02,108.71 72.2,168.06 16.09,61.93 24.3,125.95 24.3,189.96 0,10.88 -0.27,21.95 -0.73,32.74 -3.8,74.56 -15.24,149.01 -33.88,221.29 -16.83,66.8 -36.25,125.84 -53.6,175.04 -17.35,49.19 -32.36,88.29 -42.98,115.47l-12.42 31.07c-0.79,5.77 -2.6,10.69 -2.6,10.69z"/>
  <path fill="#263238" fill-rule="nonzero" d="M9773.96 9497.07c-0.64,3.76 -1.61,7.5 -2.84,11.13 -2.33,7.5 -5.7,17.87 -9.58,30.81 -3.89,12.95 -9.58,29.78 -15.28,49.2 -5.69,19.41 -12.68,40.9 -19.16,65.25 -13.98,48.16 -28.74,106.41 -43.5,171.4 -14.75,64.99 -28.22,136.71 -39.61,212.84 -11.39,76.12 -18.39,148.88 -23.05,215.16 -1.55,33.4 -3.88,64.99 -4.14,94.51 0,14.75 0,28.99 0,42.72 0,13.73 0,25.9 0,39.62 0,25.89 0,47.9 1.81,67.83 1.81,19.94 1.3,37.29 2.6,51.79 1.3,14.5 1.29,24.34 1.81,32.63 0.1,1.82 0.16,3.7 0.16,5.55 0,1.85 -0.06,3.72 -0.17,5.56 -0.83,-3.66 -1.35,-7.39 -1.55,-11.13 0,-8.03 -2.07,-18.9 -3.36,-32.36 -1.3,-13.47 -2.85,-31.08 -3.63,-51.79 -0.77,-20.72 -2.59,-42.73 -2.84,-68.1 0,-12.43 0,-25.9 0,-39.62 0,-13.72 0,-27.97 0,-42.72 0,-29.78 1.81,-61.37 3.36,-94.77 4.41,-66.55 11.39,-139.82 22.53,-215.94 11.14,-76.11 25.89,-148.1 40.4,-213.35 14.5,-65.26 30.29,-122.99 45.05,-171.41 6.73,-24.33 13.99,-45.82 19.94,-64.98 5.95,-19.17 11.65,-35.48 16.56,-48.68 4.92,-13.2 8.03,-23.05 10.88,-30.55 2.84,-7.51 3.61,-10.6 3.61,-10.6z"/>
  <path fill="#263238" fill-rule="nonzero" d="M9141.15 10092.84c-16.07,11.08 -33.47,20.28 -51.76,27.19 -17.09,8.91 -35.2,15.92 -53.87,20.72 16.05,-10.76 33.52,-19.52 51.77,-25.89 16.93,-9.55 35.08,-17 53.85,-22.04l0.01 0.02z"/>
  <path fill="#263238" fill-rule="nonzero" d="M9164.72 9877.94c-19.67,-7.46 -38.56,-17.06 -56.18,-28.5 -18.45,-9.52 -35.85,-21.14 -51.79,-34.41 19.76,7.12 38.68,16.63 56.2,28.2 18.43,9.59 35.89,21.28 51.78,34.7l-0.01 0.01z"/>
  <path fill="#263238" fill-rule="nonzero" d="M9301.17 9701.62c-10.03,-13.56 -18.34,-28.4 -24.61,-44.03 -8.27,-14.68 -14.46,-30.48 -18.38,-46.87 10.14,13.45 18.45,28.34 24.61,44.02 8.27,14.67 14.46,30.48 18.38,46.87l0 0.01z"/>
  <path fill="#263238" fill-rule="nonzero" d="M9488.89 9532.8c-10.74,-8.64 -19.97,-19.08 -27.2,-30.83 -9.02,-10.27 -16.3,-22.02 -21.48,-34.69 10.37,8.55 19.15,18.93 25.89,30.55 9.53,10.27 17.25,22.11 22.8,34.95l-0.01 0.02z"/>
  <path fill="#263238" fill-rule="nonzero" d="M9225.82 10355.14c-15.88,12.76 -33.3,23.66 -51.78,32.34 -17.46,10.78 -36.21,19.48 -55.67,25.89 33.61,-23.51 69.93,-43.31 107.96,-58.53l-0.51 0.3z"/>
  <path fill="#263238" fill-rule="nonzero" d="M9449.01 10224.63c-16.74,-5.57 -32.78,-13.28 -47.63,-22.79 -16.01,-7.56 -30.96,-17.35 -44.29,-28.99 16.79,5.44 32.85,13.12 47.64,22.77 16,7.56 30.95,17.36 44.28,28.99l0 0.02z"/>
  <path fill="#263238" fill-rule="nonzero" d="M9511.42 9925.84c-13.66,11.02 -29.33,19.37 -46.1,24.59 -16.26,7.6 -33.85,12.12 -51.77,13.2 15.31,-7.93 31.38,-14.54 47.88,-19.67 16.06,-7.47 32.87,-13.58 49.98,-18.13l0.01 0.01z"/>
  <path fill="#263238" fill-rule="nonzero" d="M9582.36 9701.62c-9.21,-10.52 -15.86,-23.02 -19.42,-36.52 -4.87,-11.17 -7.41,-23.26 -7.41,-35.45 0,-1.73 0.06,-3.49 0.15,-5.21 6.09,12.2 10.8,25.11 13.98,38.34 5.58,12.41 9.86,25.48 12.7,38.82l0 0.02z"/>
  <path fill="#263238" fill-rule="nonzero" d="M9423.9 10517.73c4.4,-17.53 11.14,-34.45 19.94,-50.23 6.73,-16.72 15.48,-32.68 25.9,-47.38 -4.29,17.54 -11.04,34.49 -19.96,50.22 -6.58,16.76 -15.34,32.76 -25.88,47.39z"/>
  <path fill="#263238" fill-rule="nonzero" d="M9800.89 10437.47c-32.63,-22.12 -58.78,-52.65 -75.62,-88.29 13.11,14.11 25.66,29.19 37.29,44.55 20.72,24.32 39.62,42.19 38.33,43.74z"/>
  <path fill="#263238" fill-rule="nonzero" d="M9931.38 10108.64c-15.87,13.26 -33.29,24.67 -51.77,33.9 -17.46,11.32 -36.19,20.72 -55.67,27.98 15.83,-13.3 33.25,-24.74 51.77,-33.91 17.49,-11.28 36.2,-20.72 55.66,-27.97l0.01 0z"/>
  <path fill="#263238" fill-rule="nonzero" d="M9843.61 9906.42c11.67,-15.88 25.26,-30.36 40.37,-42.99 13.5,-14.38 28.77,-27.16 45.33,-37.81 -11.83,15.73 -25.41,30.21 -40.38,43.01 -13.65,14.22 -28.88,26.94 -45.31,37.78l-0.01 0.01z"/>
  <path fill="#263238" fill-rule="nonzero" d="M9847.49 9691.77c-28.68,-17.44 -54.88,-38.86 -77.67,-63.46 15.01,7.63 28.92,17.46 41.17,29.04 13.69,9.71 25.98,21.32 36.5,34.41l0 0.01z"/>
  <path fill="#263238" fill-rule="nonzero" d="M10096.84 9549.89c-12.23,11.9 -26.05,22.33 -40.92,30.79 -13.66,10.65 -28.74,19.4 -44.78,25.91 12.17,-12.05 25.96,-22.45 40.91,-30.84 13.5,-10.79 28.66,-19.55 44.79,-25.87l0 0.01z"/>
  <path fill="#263238" fill-rule="nonzero" d="M10194.19 9746.41c-13.53,4.44 -27.72,6.72 -41.96,6.72 -0.25,0 -0.51,0 -0.76,0 -7.15,1.08 -14.39,1.65 -21.62,1.65 -7.24,0 -14.48,-0.57 -21.62,-1.65 12.9,-4.29 26.45,-6.5 40.05,-6.5 0.88,0 1.81,0.02 2.67,0.03 7.41,-1.21 14.94,-1.84 22.44,-1.84 6.95,0 13.95,0.54 20.81,1.58l-0.01 0.01z"/>
  <path fill="#263238" fill-rule="nonzero" d="M10255.56 9978.92c-5.07,0.14 -10.41,0.29 -15.54,0.29 -31.18,0 -62.35,-3.64 -92.69,-10.68 6.58,-0.55 13.17,-0.85 19.77,-0.85 11.58,0 23.18,0.9 34.6,2.68 18.22,0.62 36.35,3.53 53.86,8.57l0 -0.01z"/>
  <path fill="#263238" fill-rule="nonzero" d="M10224.49 10279.01c-18.18,-13.57 -35.09,-28.97 -50.25,-45.86 -16.63,-15.26 -31.77,-32.23 -45.06,-50.47 35.06,28.52 67.13,60.97 95.29,96.34l0.02 -0.01z"/>
  <path fill="#263238" fill-rule="nonzero" d="M10142.41 10509.97c-37.12,-29 -67.72,-65.74 -89.6,-107.47 1.56,0 19.68,24.34 44.54,54.12 24.85,29.78 46.61,51.8 45.06,53.35z"/>
  <g id="_1951681507376">
   <path fill="black" fill-rule="nonzero" fill-opacity="0.301961" d="M9857.59 9513.12c1.29,-1.81 16.05,5.18 40.65,22.01 33.78,24.97 63.83,55.02 88.8,88.81 37.86,50.63 65.98,108.04 82.63,169.04 18.48,68.09 27.9,138.46 27.9,209.03 0,6.12 -0.1,12.53 -0.19,18.56 -1.11,76.34 -11.45,152.82 -30.37,226.81 -15.3,59.84 -35.5,119.28 -59.73,176.17 -41.68,97.1 -77.68,152.25 -80.52,150.18 -2.85,-2.08 22.26,-61.37 57.21,-159.24 47.4,-126 73.85,-259.56 77.71,-394.16 0.09,-6.59 0.19,-13.49 0.19,-20.19 0,-66.89 -8.12,-133.78 -24.05,-198.64 -14.43,-57.9 -38.73,-113.11 -71.46,-163.07 -22.41,-33.42 -48.53,-64.47 -77.68,-92.2 -21.51,-19.91 -33.68,-31.04 -31.09,-33.11z"/>
  </g>
  <g id="_1951681507328">
   <path fill="black" fill-rule="nonzero" fill-opacity="0.301961" d="M9768.53 9485.93c4.92,1.3 -4.66,62.92 -23.05,161.83 -18.39,98.9 -45.57,235.1 -69.13,386.31 -11.39,75.6 -20.2,147.84 -25.89,213.61 -2.85,32.88 -5.96,64.21 -7.77,93.46 -1.81,29.25 -3.62,56.97 -4.66,81.82 -4.4,100.2 -3.62,162.34 -9.06,162.61 -5.44,0.26 -13.99,-61.62 -15.8,-162.86 0,-25.89 0,-53.08 0,-82.86 0,-29.78 2.6,-61.62 4.66,-95.02 4.92,-66.8 13.2,-139.82 24.6,-216.2 23.57,-152.51 54.64,-288.45 79.23,-386.32 24.59,-97.87 42.2,-157.41 46.87,-156.38z"/>
  </g>
  <g id="_1951681505600">
   <path fill="black" fill-rule="nonzero" fill-opacity="0.301961" d="M9681.01 9478.16c0,2.6 -16.57,9.33 -46.61,23.05 -42.29,18.74 -82.74,42 -120.41,68.88 -55.54,39.65 -104.33,88.26 -144.19,143.67 -48.32,67.98 -82.47,145.18 -100.19,226.6 -8.99,41.95 -13.79,84.97 -14.02,127.92 0.01,0.39 0.01,1.07 0.01,1.55 0,39.84 3.07,79.7 9.02,119.07 10.78,68.01 27.42,135.5 49.27,200.7 18.12,56.18 35.21,101.24 46.34,132.83 7.41,15.79 12.26,32.8 14.21,50.19 -2.33,0 -11.91,-15.02 -25.89,-45.05 -13.99,-30.04 -35.48,-73.8 -57.22,-129.46 -25.82,-65.81 -45.27,-134.24 -57.72,-203.73 -7.27,-41.5 -11.34,-83.8 -11.72,-125.9 0.05,-0.25 0.05,-0.48 0.05,-0.72 0,-45.2 4.79,-90.48 14.23,-134.66 18.83,-86.22 55.85,-167.47 108.5,-238.25 42.66,-57.16 95.42,-106.32 155.36,-144.98 40.21,-26.03 83.82,-46.74 129.43,-61.34 16.05,-6.85 33.34,-10.38 50.77,-10.38 0.25,0 0.52,0 0.77,0l0.01 0.01z"/>
  </g>
  <rect fill="#6DA4FD" fill-rule="nonzero" x="8916.93" y="10578.06" width="1383.94" height="245.2"/>
  <polygon fill="#6DA4FD" fill-rule="nonzero" points="9020.24,10774.59 9188.54,11507.85 10013.46,11507.85 10197.55,10774.59 "/>
  <path fill="#263238" fill-rule="nonzero" d="M10300.09 10823.78c0,2.59 -310.7,4.66 -697.02,4.66 -386.31,0 -697.27,-2.08 -697.27,-4.66 0,-2.58 312,-4.92 697.27,-4.92 385.28,0 697.02,2.07 697.02,4.92z"/>
  <circle fill="white" fill-rule="nonzero" cx="1965.4" cy="2687.69" r="1279.84"/>
  <path fill="#263238" fill-rule="nonzero" d="M3306.87 3605.82c0,1.29 -13.72,2.33 -36.25,11.39 -31.98,13.42 -59.15,36.43 -77.67,65.76 -12.55,19.82 -20.63,42.23 -23.55,65.52 -0.65,5.33 -0.97,10.73 -0.97,16.11 0,21.37 5.05,42.5 14.68,61.57 23.96,55.64 78.77,91.72 139.37,91.72 67.17,0 126.35,-44.19 145.45,-108.56 5.35,-15.02 8.1,-30.91 8.1,-46.87 0,-10.35 -1.17,-20.71 -3.44,-30.8 -5.68,-22.75 -16.42,-44.03 -31.33,-62.15 -21.45,-27 -50.78,-46.73 -83.88,-56.43 -23.56,-6.47 -37.54,-5.69 -37.28,-6.98l9.83 0c2.01,-0.25 4.05,-0.38 6.08,-0.38 2.03,0 4.07,0.13 6.09,0.37 5.51,0.3 10.98,1.18 16.31,2.59 34.96,8.34 66.33,27.8 89.34,55.4 16.13,18.86 27.83,41.22 34.15,65.24 2.99,11.84 4.5,24.04 4.5,36.25 0,16.48 -2.76,32.86 -8.11,48.43 -10.22,30.25 -28.61,57.19 -53.08,77.68 -28.06,24.99 -64.39,38.84 -101.99,38.84 -31.29,0 -61.87,-9.6 -87.54,-27.45 -26.61,-17.4 -48.06,-41.8 -61.87,-70.44 -9.82,-20.08 -14.94,-42.19 -14.94,-64.56 0,-6.28 0.41,-12.58 1.21,-18.82 9.14,-61.1 50.68,-112.54 108.48,-134.36 5.11,-2.01 10.41,-3.57 15.79,-4.67 3.97,-1.07 8.07,-1.78 12.17,-2.06 3.31,-1.3 6.81,-2.08 10.36,-2.34l-0.01 0z"/>
  <path fill="#263238" fill-rule="nonzero" d="M3708.2 4005.34c0,0 -8.54,2.07 -22.53,8.02 -19.59,8.7 -36.14,23.17 -47.37,41.43 -9.59,14.6 -14.7,31.7 -14.7,49.17 0,13.55 3.08,26.95 9,39.13 15.01,33.9 48.62,55.79 85.71,55.79 41.14,0 77.49,-26.84 89.58,-66.15 3.29,-9.45 4.98,-19.41 4.98,-29.42 0,-21.07 -7.45,-41.47 -21.04,-57.58 -13.3,-16.81 -31.35,-29.26 -51.79,-35.73 -14.5,-4.14 -23.3,-3.88 -23.3,-5.17 3.99,-1.02 8.09,-1.53 12.19,-1.53 4.1,0 8.2,0.51 12.17,1.52 38.78,9.22 69.37,39.11 79.47,77.69 1.91,7.57 2.89,15.41 2.89,23.25 0,10.58 -1.76,21.11 -5.21,31.11 -12.49,44.74 -53.28,75.7 -99.74,75.7 -41.93,0 -79.74,-25.29 -95.73,-64.05 -6.18,-12.84 -9.41,-26.93 -9.41,-41.19 0,-4.23 0.3,-8.48 0.86,-12.67 2.31,-15.75 8.17,-30.82 17.08,-44.01 12.29,-19 30.51,-33.47 51.78,-41.17 6.44,-2.87 13.43,-4.36 20.47,-4.36 1.56,0 3.11,0.08 4.65,0.22l-0.01 0z"/>
  <path fill="#263238" fill-rule="nonzero" d="M3239.55 2788.41l0 -20.72c0,-13.99 0,-34.44 0,-60.85 0,-13.2 0,-28.22 0,-44.54 0,-16.31 -2.33,-34.43 -3.89,-53.85 -1.55,-19.42 -3.11,-40.4 -4.65,-62.91 -0.67,-11.45 -2.27,-22.97 -4.66,-34.19l-6.47 -36.51c-20.29,-121.2 -59.04,-239.09 -114.49,-348.79 -71.37,-146.21 -170.9,-277.7 -292.2,-386.34 -16.83,-15.03 -34.18,-30.04 -51.79,-45.06 -17.6,-15.02 -37.54,-27.45 -56.7,-41.42l-28.99 -20.72c-9.59,-7.23 -19.69,-13.93 -30.1,-19.87l-63.72 -36.51c-10.62,-6.21 -21.24,-12.68 -32.11,-18.64l-34.18 -15.54 -69.39 -31.59c-23.57,-9.83 -48.43,-17.08 -73.02,-25.89l-37.28 -12.69c-6.22,-2.07 -12.43,-4.4 -18.9,-6.21l-19.16 -4.4c-52.15,-13.85 -105.34,-24.46 -158.95,-31.05 -25.9,-3.12 -54.38,-8.03 -82.34,-9.58l-84.15 -2.33c-13.99,0 -28.23,0 -42.47,0l-42.72 3.11c-28.74,2.59 -57.74,3.62 -86.48,7.25 -58.18,8.22 -116.18,20.48 -172.68,36.23l-43.25 12.17 -21.75 6.22 -20.97 8.28 -84.93 33.15c-27.97,12.43 -54.89,25.89 -82.59,40.91 -13.72,7.25 -27.97,13.2 -41.17,21.75l-39.36 25.89c-53.26,33.44 -104.89,70.92 -153.27,111.13l-69.91 65.77 -16.61 14.43c-5.69,5.96 -10.87,12.17 -16.05,18.12l-32.1 36.51 -32.11 36.77 -28.74 39.61 -28.75 39.88 -14.5 20.2c-4.4,6.99 -8.29,14.24 -12.68,21.24l-49.97 85.96c-13.72,30.29 -27.7,60.58 -41.69,91.13 -65.97,155.63 -100.38,323.35 -100.38,492.47 0,103.37 12.75,206.74 37.94,306.88l27.18 96.57c11.91,31.07 24.09,61.89 36,92.7l9.06 23.04 11.14 22.01 22.26 44.02 22.26 43.75 25.9 41.17 25.89 41.17 12.95 20.45 14.75 18.9 59.85 76.33c41.58,46.99 86.84,92.08 134.22,133.27l35.21 30.81c11.66,10.36 25.89,18.39 37.29,27.71 25.89,17.87 49.45,36.76 75.08,53.33l77.68 45.83 19.68 11.39 20.46 9.58 40.9 18.64c53.13,24.64 108.86,45.73 164.92,62.73 27.97,8.29 56.44,13.72 84.15,20.46l41.94 9.83c13.72,3.11 27.97,4.14 41.94,6.21l83.63 10.88c27.71,2.33 55.41,1.81 82.86,3.11 11.54,0.24 23.37,0.54 35.06,0.54 42.21,0 84.86,-2.34 126.78,-6.73l19.68 0 19.68 -3.11 38.58 -6.99c25.89,-4.65 51.79,-8.02 77.68,-13.98l73.28 -20.45 36.25 -10.1 34.69 -13.47 68.1 -25.89c11.23,-4.07 22.25,-9.05 32.81,-14.78l31.84 -16.05c20.98,-10.87 42.21,-20.97 62.4,-32.1l58 -36.52c137.2,-87.96 256.47,-201.96 350.64,-335.01 10.36,-14.5 20.98,-28.74 30.82,-42.98 9.85,-14.24 17.35,-29.52 25.89,-44.02 8.55,-14.5 16.84,-28.48 25.9,-42.46 3.88,-6.99 8.29,-13.47 11.91,-20.72l9.58 -21.23 37.03 -80.01c11.13,-25.9 18.39,-51.79 25.89,-75.35l11.91 -34.95c4.1,-10.83 7.52,-22.05 10.02,-33.4 5.18,-21.76 9.84,-42.21 14.51,-61.1 4.66,-18.9 9.06,-36.52 11.91,-51.79 2.84,-15.28 4.4,-31.07 6.21,-44.27 3.62,-25.9 6.21,-46.35 8.29,-60.07 2.07,-13.72 3.11,-20.45 3.11,-20.45 0,0 0,6.98 -1.81,20.45 -1.81,13.46 -4.14,34.18 -7.25,60.33 -1.56,13.47 -3.62,28.22 -5.44,44.54 -1.82,16.31 -7.51,33.66 -11.66,51.78 -4.15,18.13 -9.06,39.62 -13.98,61.63 -2.39,11.33 -5.72,22.54 -9.85,33.39 -3.62,11.39 -7.77,23.04 -11.65,34.95 -8.55,24.09 -15.8,49.97 -25.9,75.86l-36.51 80.79 -9.83 21.49c-3.37,6.98 -7.77,13.72 -11.66,20.71l-25.89 42.73c-8.54,14.5 -17.09,29.26 -25.9,44.54 -8.8,15.27 -20.45,28.47 -30.81,43.24 -94.75,133.86 -215.05,248.57 -353.23,336.85l-58.25 37.03c-20.46,11.14 -41.69,21.49 -62.92,32.37l-32.11 16.31c-10.51,5.67 -21.56,10.76 -32.82,15l-68.61 25.9c-11.65,4.65 -23.3,9.32 -34.95,13.46l-36.52 10.35 -73.79 20.72c-25.9,6.22 -51.79,9.58 -77.68,14.5l-38.84 6.99 -19.68 3.11 -19.94 1.56c-42.4,4.55 -85.26,6.99 -127.98,6.99 -11.62,0 -23.65,-0.29 -35.12,-0.58 -27.45,0 -55.41,0 -83.38,-3.11l-82.59 -10.04c-13.99,-2.08 -28.48,-3.11 -42.46,-5.96l-41.95 -9.84c-28.22,-6.73 -56.96,-12.43 -84.92,-20.45 -56.93,-17.13 -112.73,-38.35 -166.76,-63.12l-41.17 -18.64 -20.72 -9.58 -19.68 -11.39 -79.49 -46.35c-25.9,-16.57 -51.79,-35.73 -75.86,-53.6 -12.43,-9.32 -25.9,-17.6 -37.81,-27.97l-35.47 -31.07c-48.01,-41.78 -93.5,-87.09 -135.45,-134.69l-59.55 -76.38 -14.75 -19.42 -13.21 -20.45 -25.89 -41.42 -25.89 -41.69 -22.53 -44.02 -22.53 -44.54 -11.13 -22.01 -9.33 -23.3c-11.91,-31.07 -24.08,-62.14 -36.25,-93.46 -12.16,-31.33 -18.39,-64.99 -27.45,-97.62 -25.21,-100.98 -38.23,-205.38 -38.23,-309.61 0,-170.63 34.59,-340 101.28,-496.98 14.24,-30.82 28.23,-61.62 42.21,-92.17l49.64 -86.19c4.13,-6.99 8.28,-14.5 12.68,-21.49l14.5 -20.2 29 -40.39 29.26 -39.88 32.36 -37.03 31.59 -37.27c5.44,-6.21 10.62,-12.43 16.31,-18.39l17.61 -16.83c23.82,-22.01 47.12,-44.27 70.68,-66.28 49.24,-40.48 101.21,-78.19 155.3,-111.83l39.87 -25.9c13.21,-8.54 27.71,-14.5 41.43,-21.75 28.22,-13.72 55.41,-28.74 83.37,-41.43l85.71 -33.14 21.49 -8.29c6.99,-2.33 14.5,-4.14 21.76,-6.21l43.49 -12.18c57.12,-15.85 115.72,-28.29 174.5,-36.48 28.99,-3.62 58.25,-4.66 87,-7.25l43.24 -3.11c14.24,0 28.48,0 42.73,0l84.92 2.33c27.97,1.81 55.67,6.73 83.11,9.83 54.09,6.89 107.62,17.57 160.13,31.61l19.42 4.66c6.46,1.81 12.68,4.14 18.89,6.21l37.54 12.95c25.9,8.81 49.72,16.05 73.53,25.89l69.65 32.11 34.44 15.54c11.14,6.21 21.75,12.68 32.36,18.9l63.7 37.03c10.58,5.8 20.76,12.63 30.28,20.16l29.26 20.97c19.16,13.98 38.57,27.45 56.96,41.69l51.79 45.57c122.36,108.88 222.66,241.18 294.67,388.3 55.19,110.33 93.4,229.25 112.8,351.13 2.07,12.68 4.4,25.9 6.21,36.51 2.5,11.42 3.98,23.1 4.46,34.73 1.55,22.27 3.11,43.25 4.4,62.92 1.29,19.67 3.11,37.54 3.37,53.85 0.25,16.31 0,31.59 -1.56,44.79 0,25.89 -1.81,46.87 -2.33,60.85 -0.52,13.98 -1.3,23.57 -1.3,23.57z"/>
  <path fill="#263238" fill-rule="nonzero" d="M1627.76 2687.69c0.01,60.76 -49.27,110.04 -110.03,110.04 -60.76,0 -110.05,-49.28 -110.05,-110.04 0,-60.76 49.29,-110.05 110.05,-110.05 60.76,0 110.04,49.29 110.04,110.05l-0.01 0z"/>
  <path fill="#263238" fill-rule="nonzero" d="M2068.71 2687.69c0.01,0.08 0.01,0.17 0.01,0.25 0,60.91 -49.39,110.3 -110.3,110.3 -60.91,0 -110.3,-49.39 -110.3,-110.3 0,-60.91 49.39,-110.3 110.3,-110.3 0,0 0,0 0,0 60.81,0 110.16,49.24 110.3,110.05l-0.01 0z"/>
  <path fill="#263238" fill-rule="nonzero" d="M2508.1 2633.05c9.59,16.69 14.67,35.64 14.67,54.89 0,60.76 -49.28,110.05 -110.04,110.05 -60.76,0 -110.05,-49.29 -110.05,-110.05 0,-39.3 20.98,-75.62 54.99,-95.27 16.73,-9.66 35.74,-14.77 55.06,-14.77 39.36,0 75.74,21.05 95.37,55.16l0 -0.01z"/>
  <g>
   <path fill="#BD8F7C" fill-rule="nonzero" d="M4800.85 5737.26l473.83 639.29 647.3 625.55 365.6 -519.14 -6.47 -517.85 -5.18 -433.69c0,0 574.55,-88.56 582.58,-662.84 3.62,-277.31 -34.96,-849.01 -75.86,-1366.07 -44.08,-556.28 -508.66,-985.45 -1066.78,-985.45 -0.26,0 -0.78,0 -1.04,0l-54.36 0c-597.59,33.92 -903.64,560.56 -851.85,1156.86l-7.77 1918.09 0 145.25zm0 0l0 0 0 0z"/>
  </g>
  <path fill="#9B7264" fill-rule="nonzero" d="M6275.15 5532.97c0,0 -362.49,29 -748.29,-213.87 0,0 176.33,414.27 749.58,362.49l-1.29 -148.62z"/>
  <path fill="#263238" fill-rule="nonzero" d="M6336.26 3896.85c9.06,-11.66 75.34,28.22 163.12,19.68 87.78,-8.55 148.1,-59.04 158.72,-48.94 4.92,4.14 -3.37,24.33 -29.52,47.64 -35.6,29.64 -79.45,47.73 -125.57,51.78 -7.02,0.68 -14.21,1.05 -21.28,1.05 -38.65,0 -76.66,-10.3 -110.01,-29.78 -27.96,-17.87 -39.08,-36.51 -35.46,-41.43z"/>
  <path fill="#263238" fill-rule="nonzero" d="M5486.21 3928.96c9.84,-11.14 73.8,32.1 161.82,28.22 88.03,-3.89 150.95,-51.79 161.05,-40.65 4.93,4.66 -4.4,24.33 -31.84,46.09 -37.3,28.33 -82.6,44.3 -129.44,45.56 -3.39,0.17 -6.86,0.25 -10.28,0.25 -42.39,0 -83.89,-12.55 -119.19,-35.98 -26.94,-18.89 -36.52,-38.57 -32.12,-43.49z"/>
  <path fill="#263238" fill-rule="nonzero" d="M6109.18 4453.79c0,-4.92 54.64,-14.5 143.44,-25.89 22.53,-2.33 44.02,-6.74 47.64,-22.01 0.3,-3.33 0.45,-6.73 0.45,-10.07 0,-19.92 -5.24,-39.49 -15.19,-56.73l-66.55 -171.92c-92.17,-244.43 -158.97,-445.35 -148.88,-448.98 10.09,-3.63 92.43,191.6 184.61,436.03l63.7 172.7c9.64,18.67 14.7,39.37 14.7,60.38 0,9.48 -1.04,18.93 -3.07,28.18 -6.71,16.08 -20.47,28.21 -37.27,32.88 -12.38,3.4 -25.2,5.17 -38.06,5.17 -89.59,4.92 -145,5.44 -145.52,0.26z"/>
  <path fill="#263238" fill-rule="nonzero" d="M5332.42 3609.96c4.14,-25.89 92.69,-30.03 192.12,-61.37 99.42,-31.33 176.58,-74.57 194.19,-55.92 8.02,8.8 -2.33,33.66 -31.07,62.91 -38.9,36.28 -85.84,62.95 -136.95,77.69 -32.44,10.23 -66.42,15.51 -100.49,15.51 -19.06,0 -38.18,-1.66 -56.95,-4.92 -40.92,-6.97 -62.66,-21.98 -60.85,-33.9z"/>
  <path fill="#263238" fill-rule="nonzero" d="M6338.85 3570.09c16.57,-19.16 76.38,4.66 149.14,9.58 72.76,4.93 135.67,-6.47 148.88,15.28 5.7,10.35 -5.17,30.03 -33.14,47.38 -32.13,17.94 -68.39,27.39 -105.2,27.39 -49,0 -96.59,-16.72 -134.82,-47.34 -24.86,-21.74 -32.11,-42.97 -24.86,-52.29z"/>
  <path fill="#BD8F7C" fill-rule="nonzero" d="M4854.7 4099.33c-9.58,-4.14 -394.34,-117.3 -382.43,275.5 11.91,392.79 403.67,299.57 404.18,288.44 0.51,-11.13 -21.75,-563.94 -21.75,-563.94z"/>
  <path fill="#9B7264" fill-rule="nonzero" d="M4751.91 4518c-1.81,0 -6.73,4.93 -18.12,10.62 -9,4.37 -18.91,6.65 -28.93,6.65 -7.79,0 -15.54,-1.38 -22.84,-4.06 -41.95,-13.99 -77.68,-77.69 -83.12,-149.4 -0.23,-4.46 -0.4,-9 -0.4,-13.48 0,-29.1 5.69,-57.99 16.71,-84.91 6.45,-25.22 25.13,-45.56 49.72,-54.11 3.25,-0.99 6.65,-1.49 10.05,-1.49 13,0 24.92,7.28 30.86,18.84 5.69,10.87 3.36,18.89 5.44,19.41 2.07,0.52 8.29,-6.73 4.66,-23.04 -2.44,-9.62 -8.12,-18.13 -16.05,-24.09 -8.75,-6.17 -19.19,-9.49 -29.9,-9.49 -2.82,0 -5.66,0.24 -8.43,0.69 -32.55,7.62 -58.91,31.51 -69.65,63.18 -13.58,30.11 -20.63,62.83 -20.63,95.86 0,4.73 0.15,9.5 0.43,14.2 4.92,78.97 47.64,151.99 104.87,166.49 6.05,1.57 12.3,2.38 18.56,2.38 15.8,0 31.19,-5.12 43.83,-14.57 12.43,-10.09 14.24,-18.9 12.94,-19.68z"/>
  <path fill="#263238" fill-rule="nonzero" d="M6242.27 4716.59c-2.07,7.51 -84.4,-9.58 -186.94,-18.89 -102.54,-9.32 -186.68,-8.03 -187.2,-15.8 -0.52,-7.77 84.41,-20.97 189.79,-11.14 105.39,9.84 186.42,39.1 184.35,45.83z"/>
  <path fill="#263238" fill-rule="nonzero" d="M7368.05 3320.24l37.29 -237.43c-236.39,46.34 -463.47,-181.25 -575.84,-316.67 -75.19,-90.48 -159.37,-174.43 -250.33,-248.92 -189.79,-157.42 -343.06,-262.03 -494.8,-304.74 -196,-55.41 -513.69,-51.79 -704,20.72 -190.31,72.5 -349.03,250.89 -354.73,454.4 -121.95,-82.34 -290.77,-61.62 -419.71,9.83 -128.94,71.46 -228.11,185.14 -328.83,292.32 -100.72,107.19 -211.07,212.93 -348.82,263.16l174.25 2.85 -129.46 113.41c38.51,53.2 100.27,84.76 165.95,84.76 44.49,0 87.76,-14.5 123.28,-41.26 -14.9,57.42 -45.09,109.93 -87.24,151.71 39.1,62.91 138.79,92.44 162.61,85.7 0,0 172.18,-41.94 163.89,-109.78l168.82 545.81c59.04,-8.81 103.57,-8.03 145.52,22.26 57.22,41.43 112.89,99.95 196,57.22 41.97,-22.97 71.6,-63.54 80.76,-110.52 31.71,-150.05 47.88,-303.67 47.88,-457.29 0,-162.52 -18.05,-325.04 -53.64,-483.51 52.76,-70.24 119.25,-129.6 195.06,-174.11 151.47,-71.98 323.65,-145 481.08,-87.26 121.95,44.8 203.26,157.43 300.09,244.17 183.83,163.89 440.16,237.42 684.84,221.37 25.9,157.69 36,369.49 61.63,527.17l108.48 -317.44c81.31,169.34 294.66,146.81 294.66,146.81l51.79 -202.22c-139.31,-6.21 -277.83,-164.68 -277.83,-164.68 0,0 250.6,123.49 381.35,12.16z"/>
  <path fill="#9B7264" fill-rule="nonzero" d="M6228.29 3351.04c-16.58,6.39 -34.08,10.51 -51.79,12.18 -40.51,6.03 -81.76,9.09 -122.81,9.09 -2.14,0 -4.48,0 -6.61,0 -43.36,-0.32 -86.77,-4.12 -129.46,-10.88 -17.85,-1.77 -35.34,-6.25 -51.82,-13.23 0,-3.88 81.31,10.1 181.25,10.62 99.94,0.52 180.46,-11.92 181.24,-7.78z"/>
  <path fill="#9B7264" fill-rule="nonzero" d="M5792.53 4615.87c2.59,2.85 -7.26,16.05 -13.47,34.7 -6.21,18.64 -6.99,35.21 -10.87,35.99 -3.89,0.78 -9.58,-18.12 -2.08,-40.4 7.51,-22.27 24.59,-33.13 26.42,-30.29z"/>
  <path fill="#9B7264" fill-rule="nonzero" d="M5705.01 4704.43c-1.69,-8.42 -2.55,-17 -2.55,-25.58 0,-41.86 20.26,-81.16 54.34,-105.44 2.84,2.85 -19.16,25.9 -33.4,62.66 -14.24,36.77 -14.52,68.36 -18.39,68.36z"/>
  <path fill="#9B7264" fill-rule="nonzero" d="M5656.32 4052.72c-20.89,4.46 -42.28,6.73 -63.67,6.73 -21.4,0 -42.79,-2.27 -63.7,-6.73 20.91,-4.45 42.3,-6.72 63.7,-6.72 21.39,0 42.78,2.27 63.69,6.73l-0.02 -0.01z"/>
  <path fill="#455A64" fill-rule="nonzero" d="M7336.73 3088.24c-1.62,1.69 -3.45,3.18 -5.43,4.4l-16.83 11.66c-21.77,14.53 -44.76,27.44 -68.6,38.31 -77.35,34.8 -161.39,52.88 -246.25,52.88 -12.08,0 -24.23,-0.44 -36.24,-1.09 -66.83,-4.11 -132.79,-18.91 -194.98,-43.73 -71.62,-28.5 -136.73,-71.98 -190.57,-127.16 -56.9,-62.41 -107.44,-131.05 -149.93,-204.07 -44.89,-77.56 -98.2,-150.87 -158.19,-217.52 -122.75,-124.2 -287.2,-199.14 -461.63,-209.9 -14.46,-0.89 -29.19,-1.4 -43.75,-1.4 -60.94,0 -121.64,8.05 -180.47,23.87 -63.44,17.82 -124.57,44.17 -181.23,77.74 -82.54,48.47 -155.5,112.21 -214.72,187.41 -10.88,12.95 -19.42,25.9 -25.9,36 -6.48,10.1 -13.98,19.68 -18.64,27.45l-10.87 17.08c-2.6,3.89 -4.14,5.7 -4.41,5.44 16.06,-31.39 35.12,-61.44 56.77,-89.31 58.27,-77.04 130.99,-142.63 213.81,-192.42 57.38,-34.16 119.37,-61.02 183.6,-79.24 60.7,-16.65 123.43,-25.27 186.41,-25.27 13.74,0 27.82,0.43 41.48,1.19 177.64,10.35 345.5,86.34 470.46,213.13 60.45,66.7 114.09,140.23 159.21,218.01 42.14,72.26 91.68,140.27 147.82,202.27 52.38,54.31 115.76,97.17 185.65,125.53 60.97,24.95 125.76,39.98 191.38,44.51 14.56,1.09 29.26,1.61 43.88,1.61 81.04,0 161.36,-16.26 236.01,-47.65 23.73,-10.31 47.06,-22.49 69.14,-35.98l17.61 -10.62c1.66,-1.26 3.49,-2.31 5.41,-3.13z"/>
  <path fill="#455A64" fill-rule="nonzero" d="M4526.39 3494.74c40.76,-15.46 79.97,-35.03 117.02,-58.01 40.49,-26.29 76.9,-58.65 107.74,-95.77 39.2,-46.49 69.05,-100.33 87.76,-158.2l6.21 -19.16 6.22 19.16c14.96,46.76 23.75,95.42 25.93,144.48 0.34,8.28 0.6,16.84 0.6,25.21 0,15.74 -0.83,31.66 -2.21,47.27l-11.39 -4.92c85.01,-94.1 147.13,-206.69 181.28,-328.8 10.16,-36.12 18.15,-73.18 23.55,-110.36 1.32,-13.57 3.44,-27.26 6.22,-40.63 2.78,-13.38 0,3.62 0,10.61 0,7 0,17.36 -1.81,30.56 -3.66,37.79 -10.31,75.35 -19.67,112.1 -31.85,124.45 -93.64,239.74 -179.49,335.34l-13.2 14.76 1.56 -19.68c0.75,-11.78 1.21,-23.66 1.21,-35.48 0,-11.83 -0.46,-23.72 -1.17,-35.47 -2.43,-47.86 -11.3,-95.3 -25.92,-140.86l12.44 0c-35.51,106.81 -107.68,197.98 -203.48,257.12 -27.59,16.95 -57,31.05 -87.51,41.7 -8.48,2.85 -17.18,5.29 -25.91,7.22 -1.94,0.8 -3.93,1.42 -5.97,1.82l-0.01 -0.01z"/>
  <path fill="#6DA4FD" fill-rule="nonzero" d="M2742.16 8423.32c0,0 73.54,-1893.5 685.89,-2135.06l122.2 -70.17 495.32 2160.18 -100.98 112.38 -1202.43 -67.33z"/>
  <path fill="#6DA4FD" fill-rule="nonzero" d="M8731.29 8490.64c0,0 -237.18,-1446.08 -369.75,-1699.05 -67.61,-127.56 -149.28,-248.1 -242.76,-358.31 -145.74,-173.09 -342.29,-296.91 -561.24,-353.75l-1270.27 -336.6c0,0 -799.55,720.58 -1513.15,-32.11 0,0 -1133.04,414.27 -1290.46,549.96 -157.42,135.68 67.58,881.88 67.58,881.88l292.07 1033.88 57.22 3340.09 3913.91 0.03 -298.79 -2977.6 1215.64 -48.42z"/>
  <path fill="black" fill-rule="nonzero" fill-opacity="0.301961" d="M7294.27 9508.2c-358.52,-610.02 -730.24,-1211.92 -1115.18,-1805.72 -117.03,-181.25 -258.92,-375.69 -471.23,-410.65 -148.37,-24.34 -300.87,40.13 -414.27,139.3 -113.41,99.18 -193.93,229.67 -269.02,360.17 -495.84,862.21 -809.65,1717.43 -1141.59,2654.98l1.81 69.13c721.47,-329.17 1258.19,-964.09 1462.7,-1730.26 25.89,-96.58 46.09,-196.26 96.32,-282.49 50.23,-86.22 138.79,-158.2 238.47,-157.94 156.9,0 256.33,163.38 325.46,304.24 175.81,357.05 364.3,712.03 621.41,1016.78 257.11,304.76 586.46,559.02 970.44,664.91 -4.46,-296.06 -156.7,-567.41 -305.32,-822.45z"/>
  <path fill="#263238" fill-rule="nonzero" d="M6445.26 9799.49c-3.78,6.04 -8.24,11.7 -13.2,16.82l-39.61 46.86c-17.35,20.46 -38.58,45.06 -64.47,72.76 -25.9,27.71 -54.12,60.07 -87.52,93.99 -65.76,69.13 -146.81,148.88 -239.25,234.32 -92.44,85.45 -198.33,175.3 -312.26,265.92 -113.93,90.62 -227.85,169.86 -332.46,240.02 -104.61,70.17 -201.96,129.46 -284.81,176.07 -41.17,24.34 -79.23,44.27 -112.63,62.4 -33.4,18.12 -61.89,33.4 -85.96,45.05l-54.89 27.45c-6.25,3.31 -12.8,6.27 -19.41,8.78 5.59,-4.35 11.7,-8.1 18.13,-11.12l53.85 -29.51c23.3,-12.68 51.79,-28.22 84.67,-47.12 32.88,-18.9 70.68,-39.36 111.33,-64.22 82.08,-48.15 178.14,-108.23 282.75,-178.13 104.61,-69.9 216.72,-150.95 331.16,-240.28 114.44,-89.32 219.31,-179.69 312.52,-263.84 93.21,-84.15 174.51,-163.64 240.79,-231.73 33.92,-33.67 62.92,-65.25 89.07,-92.69 26.16,-27.44 48.16,-51.79 66.03,-70.95l41.42 -45.06c4.55,-5.61 9.5,-10.89 14.75,-15.81l0 0.02z"/>
  <path fill="#263238" fill-rule="nonzero" d="M7834.63 6174.33c-5.7,12.15 -12.61,23.8 -20.46,34.69 -14.24,21.49 -33.92,53.33 -57.48,92.96 -121.83,207.01 -208.57,434.12 -255.37,669.93 -9.06,45.31 -15.54,82.07 -19.41,107.45 -1.45,13.25 -4.06,26.57 -7.67,39.51 -0.08,-2.15 -0.12,-4.39 -0.12,-6.55 0,-11.24 0.9,-22.52 2.68,-33.6 2.07,-25.89 7.25,-62.91 15.27,-108.75 42.67,-238.36 130.83,-467.49 259.01,-673.13 24.6,-39.1 45.57,-70.43 61.1,-91.14 6.56,-11.06 14.14,-21.57 22.46,-31.37l-0.01 0z"/>
  <path fill="#263238" fill-rule="nonzero" d="M3896.18 7197.58c-6.07,-11.58 -11.24,-23.79 -15.27,-36.26 -8.8,-23.81 -22.26,-57.73 -39.35,-99.68 -44.78,-108.57 -97.02,-214.76 -155.38,-316.87 -58.77,-101.77 -124.84,-200.38 -196.28,-293.61 -27.7,-35.73 -50.48,-64.47 -66.54,-84.15 -8.68,-9.85 -16.71,-20.34 -23.79,-31.38 10.18,8.33 19.47,17.71 27.71,27.95 17.35,18.64 41.43,46.35 70.17,81.56 148.54,184.55 268.13,391.8 353.27,612.78 16.05,42.46 28.23,77.68 35.48,101.5 4.45,12.42 7.87,25.2 9.99,38.16l-0.01 0z"/>
  <path fill="#263238" fill-rule="nonzero" d="M3870.02 7443.82c0.32,2.04 0.48,4.13 0.48,6.2 0,2.08 -0.16,4.16 -0.47,6.22l0 36.24c0,31.33 0,77.68 -2.33,132.57 -3.36,113.67 -8.02,267.21 -12.94,437.07 -4.93,169.85 -6.74,325.21 -5.44,437.06 0,55.93 0,101.24 2.07,132.31 0,14.5 0,25.89 0,36.24 0.19,2.06 0.29,4.14 0.29,6.22 0,2.07 -0.1,4.16 -0.29,6.21 -1.36,-3.91 -2.06,-8.03 -2.06,-12.17 0,-0.09 0,-0.18 0,-0.27 0,-9.83 -1.82,-21.49 -3.12,-35.99 -2.33,-31.07 -4.65,-76.38 -6.21,-132.3 -3.62,-112.11 -3.37,-266.96 0,-437.84 3.37,-170.88 11.91,-325.21 17.09,-437.06 2.84,-54.12 4.92,-98.91 6.73,-132.31 0,-14.24 1.81,-25.89 2.33,-35.99 0.64,-4.31 1.95,-8.51 3.88,-12.42l-0.01 0.01z"/>
  <path fill="#263238" fill-rule="nonzero" d="M7471.11 7309.44c1.08,4.57 1.79,9.25 2.08,13.96l3.88 39.61c3.11,34.7 6.73,84.67 10.87,146.81 8.55,123.77 18.13,295.18 25.9,484.45 7.77,189.27 10.87,360.94 12.17,484.96 0,62.14 0,112.37 0,147.06 0,16.05 0,29.26 0,39.88 0.3,2.31 0.47,4.67 0.47,7 0,2.33 -0.17,4.68 -0.47,6.99 -1.05,-3.96 -1.58,-8.06 -1.58,-12.16 0,-0.52 0.01,-1.05 0.01,-1.56 0,-10.87 0,-23.82 -1.81,-40.13 -1.29,-36.51 -2.84,-86.22 -4.65,-146.81 -3.62,-124.03 -8.81,-295.43 -16.05,-484.7 -7.24,-189.27 -15.28,-360.42 -21.24,-484.45 -2.85,-60.58 -5.18,-110.3 -6.73,-146.81 0,-16.31 0,-29.51 -1.29,-40.13 -1.07,-3.89 -1.61,-7.91 -1.61,-11.94 0,-0.68 0.02,-1.37 0.05,-2.04l0 0.01z"/>
  <path fill="#BD8F7C" fill-rule="nonzero" d="M8669.92 8492.71c0,0 43.75,485.99 61.37,782.46 27.18,457.25 -219.05,1333.71 -432.66,1389.89 -213.61,56.18 -359.39,51.79 -595.52,-151.73 -236.14,-203.52 -792.04,-758.64 -1050.44,-1275.45l-758.64 -1483.1 421.52 -400.3c0,0 1045.78,1281.4 1129.16,1332.93 83.38,51.54 85.44,78.98 85.44,78.98l-6.21 -243.91 1145.98 -29.77z"/>
  <path fill="#BD8F7C" fill-rule="nonzero" d="M2754.07 8423.84c0,0 -27.18,224.48 -45.57,516.29 -25.89,403.66 -67.32,1786.56 533.64,1825.91 600.96,39.35 1252.93,-1067.53 1410.35,-1421.48 157.43,-353.94 719.03,-1550.68 719.03,-1550.68l-578.7 -189.53 -860.39 992.7 -21.49 -105.12 -1156.87 -68.09z"/>
  <path fill="#BD8F7C" fill-rule="nonzero" d="M4792.82 7607.98c0,0 178.66,-255.55 218.79,-317.44 40.13,-61.89 79.75,-152.51 76.13,-210.51 -3.62,-58 0,-276.01 0,-276.01 0,0 -43.76,-7.25 -65.51,-76.13 -9.08,-35.81 -13.7,-72.66 -13.7,-109.61 0,-16.73 0.98,-33.53 2.83,-50.15 -11.86,-43.91 -17.97,-89.36 -17.97,-134.92 0,-19.2 1.13,-38.39 3.21,-57.47 13.48,-69.06 33.17,-137.45 58.27,-203.28 25.11,-65.83 199.63,-283.26 264.88,-315.89 65.26,-32.62 98.14,-36.24 163.38,0 65.24,36.25 98.13,58.01 98.13,58.01 0,0 105.39,-90.62 159.76,-65.26 54.37,25.37 290.51,203.26 323.14,286.63 32.62,83.36 32.62,40.13 54.37,155.35 21.74,115.22 14.5,330.38 0,334.01l-14.51 3.62 -39.87 -3.62c0,0 23.82,301.39 68.1,385.02 44.28,83.63 183.05,347.99 183.05,347.99l-421.28 401.38c0,0 -29.26,-113.15 -87.52,-171.15 -58.26,-58 -177.88,-100.98 -192.38,-193.93 -14.51,-92.94 -3.62,-16.56 -3.62,-16.56 0,0 25.89,134.11 -32.63,203.25 -58.52,69.14 -135.94,67.58 -207.14,217.75l-577.91 -191.08z"/>
  <path fill="#9B7264" fill-rule="nonzero" d="M5599.1 7347.76c-1.17,-4.4 -1.79,-8.93 -1.8,-13.48 0,-10.35 -1.55,-23.04 -2.84,-38.84 -1.81,-35.47 -4.14,-83.89 -7.26,-142.67 -4.92,-122.47 -11.9,-288.7 -19.41,-473.04l2.59 5.17 -12.68 -10.35c-37.9,-31.97 -68.58,-71.79 -89.85,-116.51l6.47 3.62c-7.72,0.62 -15.54,0.97 -23.28,0.97 -51.39,0 -101.91,-14.15 -145.8,-40.85l8.81 -3.37c-20.3,57.42 -69.63,99.75 -129.47,111.1l3.62 -6.47c5.42,14.29 8.2,29.5 8.2,44.81 0,12.62 -1.9,25.2 -5.61,37.26 -5.91,20.01 -16.5,38.41 -30.8,53.6 -8.88,9.5 -19.3,17.49 -30.81,23.56 -4,2.09 -8.29,3.66 -12.69,4.65 14.69,-8.55 28.18,-19.22 39.88,-31.59 12.32,-15.12 21.19,-32.84 25.87,-51.79 3,-10.45 4.53,-21.3 4.53,-32.19 0,-15.15 -2.94,-30.16 -8.66,-44.18l-2.33 -5.44 5.96 0c55.87,-11.49 101.62,-51.51 120.4,-105.37l2.59 -6.99 6.22 3.62c41.67,24.89 89.36,38.06 137.94,38.06 7.88,0 15.76,-0.36 23.61,-1.05l4.65 0.02 2.08 4.14c20.72,42.82 50.24,80.98 86.47,111.84l12.42 10.09 2.6 2.08 0 2.85c5.96,184.61 11.39,350.84 15.27,473.31 0,58.77 2.33,107.19 3.11,142.92l0 38.84c0.27,1.94 0.4,3.89 0.4,5.84 0,1.94 -0.13,3.89 -0.38,5.82l-0.02 0.01z"/>
  <path fill="#9B7264" fill-rule="nonzero" d="M5125.02 6400.36c-5.03,-7.97 -8.71,-16.75 -10.86,-25.91 -2.92,-11.15 -4.49,-22.67 -4.67,-34.17 1.48,-15.93 7.52,-31.13 17.35,-43.77 11.98,-15.7 27.05,-28.86 44.27,-38.56 20.34,-11.31 41.99,-20.51 64.24,-27.2 46.86,-16.05 101.23,-32.62 161.57,-48.42 60.33,-15.79 127.64,-30.55 200.4,-41.94 25.47,-4.25 51.43,-6.42 77.33,-6.42 12.53,0 25.16,0.52 37.63,1.49 40.72,4.14 80.44,16.34 116.51,35.75 37.29,18.89 73.02,41.94 111.34,60.84 19.16,9.59 39.36,18.39 58.77,30.04 20.67,11.56 37.47,29.08 48.13,50.24 8.07,20.38 12.24,42.2 12.24,64.15 0,1.63 -0.02,3.35 -0.07,4.98l2.33 68.87c1.56,46.35 3.11,93.47 4.66,141.12l1.29 46.61 0 5.44 -5.44 1.29c-7.86,1.48 -15.88,2.24 -23.91,2.24 -24.88,0 -49.25,-7.26 -70.06,-20.89 -26.89,-16.71 -48.97,-40.23 -63.95,-68.11 -24.88,-53.68 -38.87,-111.97 -40.92,-171.14l5.7 5.69c-142.41,-11.91 -268.77,-53.33 -383.47,-77.68 -39.4,-11.56 -80.37,-17.47 -121.5,-17.47 -13.59,0 -27.34,0.69 -40.82,1.95 -45.78,10.42 -89,30.4 -126.61,58.51 -35.48,24.6 -67.58,46.35 -93.73,67.59 -22.42,17.78 -43.01,38.08 -61.1,60.33 -14.86,19.08 -27.3,40.01 -37.02,62.13 1.48,-6.14 3.56,-12.13 6.19,-17.86 7.07,-16.73 16.33,-32.53 27.45,-46.89 17.58,-23.08 37.87,-44.04 60.32,-62.38 25.89,-22.01 58,-44.54 93.21,-69.65 38.35,-29.3 82.56,-50.24 129.49,-61.37 15.46,-1.65 31.12,-2.5 46.73,-2.5 40.48,0 80.85,5.69 119.73,16.77 115.47,24.08 241.83,64.73 382.17,76.13l5.43 -0.02 0 5.44c2.33,57.33 15.93,113.81 39.89,165.94 13.92,25.84 34.39,47.68 59.29,63.2 18.71,12.25 40.62,18.79 62.99,18.79 7.08,0 14.2,-0.68 21.16,-1.97l-5.44 6.99 0 -46.62c-1.55,-47.63 -3.11,-94.76 -4.65,-141.11 0,-23.3 -1.56,-46.35 -2.08,-69.13 0.02,-1.47 0.06,-3.01 0.06,-4.5 0,-20.31 -3.71,-40.47 -10.93,-59.43 -9.7,-18.79 -24.77,-34.31 -43.26,-44.55 -18.12,-11.13 -38.05,-19.68 -57.48,-29.51 -39.09,-19.68 -74.82,-42.73 -111.08,-61.37 -34.82,-18.76 -73.02,-30.79 -112.34,-35.22 -12.79,-1.06 -25.82,-1.57 -38.68,-1.57 -24.55,0 -49.22,1.96 -73.43,5.73 -72.24,10.87 -139.04,25.89 -199.37,40.4 -60.33,14.5 -114.7,31.07 -161.82,46.09 -21.87,6.51 -43.27,15.23 -63.46,25.87 -16.63,9.21 -31.29,21.76 -42.98,36.78 -9.49,11.74 -15.6,25.91 -17.6,40.9 0,0.71 -0.02,1.47 -0.02,2.19 0,10.42 1.23,20.83 3.65,30.96 1.89,8.71 4.32,17.42 7.23,25.88l0 0.01z"/>
  <path fill="#9B7264" fill-rule="nonzero" d="M5318.43 6112.7c3.62,0 10.36,23.57 4.92,53.6 -5.43,30.04 -19.16,51.79 -22.26,48.94 -3.1,-2.85 4.4,-23.56 9.06,-51.79 4.66,-28.22 4.4,-50.23 8.28,-50.75z"/>
  <path fill="#9B7264" fill-rule="nonzero" d="M5055.11 6172.52c4.63,-8.97 10.49,-17.26 17.36,-24.62 16.33,-22.03 34.73,-42.76 54.65,-61.63 13.2,-11.65 27.96,-23.3 43.49,-36.25 15.53,-12.94 32.11,-25.89 51.79,-40.9 39.56,-31.8 86.66,-53.12 136.69,-61.87 9.33,-1.03 18.69,-1.58 28.07,-1.58 41.6,0 82.62,10.35 119.25,30.05 36.39,19.27 69.16,44.91 96.59,75.61 18.35,20.38 35.09,42.38 49.73,65.51 5.98,7.9 10.86,16.64 14.49,25.88 -2.08,1.55 -24.09,-35.99 -71.21,-85.44 -27.51,-28.76 -59.84,-52.85 -95.3,-70.94 -34.64,-17.98 -73.24,-27.44 -112.33,-27.44 -9.16,0 -18.38,0.54 -27.49,1.54 -47.83,8.51 -92.94,28.61 -131.26,58.5 -18.12,13.21 -34.69,27.19 -51.78,39.62 -17.1,12.43 -31.07,23.82 -44.28,34.69 -20.08,17.93 -39.26,37.41 -56.96,57.76 -6.36,7.89 -13.59,15.13 -21.49,21.49l-0.01 0.02z"/>
  <path fill="#9B7264" fill-rule="nonzero" d="M5663.06 5854.29c-23.95,22.66 -49.61,44.33 -75.86,64.24 -41.42,35.73 -71.2,68.87 -74.05,66.55 15.64,-30.39 37.89,-56.96 64.98,-77.71 24.18,-23.55 53.15,-41.67 84.93,-53.09l0 0.01z"/>
  <path fill="#9B7264" fill-rule="nonzero" d="M5785.01 6152.05c0,0 -10.1,-1.29 -22.26,-11.13 -24.96,-21.11 -39.36,-52.13 -39.36,-84.82 0,-8.39 0.96,-16.79 2.84,-24.96 3.89,-15.02 9.84,-22.78 11.14,-22.01 -1.1,8.76 -1.67,17.6 -1.67,26.44 0,17.27 2.13,34.49 6.32,51.22 10.05,24.27 24.67,46.45 42.98,65.26l0.01 0z"/>
  <path fill="#9B7264" fill-rule="nonzero" d="M5970.14 6177.69c2.85,2.08 -3.36,16.05 -18.9,25.9 -15.53,9.84 -31.07,8.02 -31.32,4.4 -0.25,-3.62 11.39,-8.29 24.34,-16.05 12.94,-7.76 22.52,-16.32 25.88,-14.25z"/>
  <path fill="#9B7264" fill-rule="nonzero" d="M5594.18 6508.33c3.11,1.56 -14.76,31.59 -53.08,45.83 -10.95,5.2 -22.94,7.92 -35.07,7.92 -12.13,0 -24.12,-2.72 -35.08,-7.94 22.03,-3.06 44.09,-7.63 65.51,-13.48 19.79,-9.54 39.25,-20.48 57.71,-32.35l0.01 0.02z"/>
  <path fill="#9B7264" fill-rule="nonzero" d="M5711.48 6628.21c-12.95,23.37 -35.3,40.16 -61.36,46.08 -12.23,5.38 -25.46,8.16 -38.83,8.16 -13.37,0 -26.6,-2.78 -38.84,-8.17 24.4,-2.27 48.84,-6.35 72.74,-11.89 22.68,-10.01 44.99,-21.53 66.26,-34.18l0.03 0z"/>
  <path fill="#9B7264" fill-rule="nonzero" d="M5727.27 6375.51c-3.11,1.81 -17.6,-17.35 -25.89,-45.31 -8.29,-27.96 -8.54,-51.79 -4.92,-51.79 3.62,0 9.06,21.76 17.6,47.9 8.54,26.15 16.58,47.39 13.21,49.2z"/>
  <path fill="#9B7264" fill-rule="nonzero" d="M3938.38 8588.25c0,0 -2.08,4.14 -7.25,11.39 -5.18,7.26 -12.69,17.61 -23.82,30.04 -30.28,36.18 -64.56,69.34 -101.5,98.64 -55.36,42.95 -114.94,80.55 -177.55,112.06 -69.91,36.77 -149.14,71.98 -230.18,112.37 -76.49,36.97 -150.41,79.67 -220.59,127.36 -57.63,38.95 -109.99,85.52 -155.4,138.06 -40.66,49.28 -73.8,104.59 -97.91,163.7 0.57,-4.47 1.71,-8.83 3.38,-12.98 3.11,-8.02 6.21,-20.97 13.2,-35.99 18.94,-43.51 43.89,-84.34 74.08,-120.94 44.9,-54.11 97.35,-101.97 155.33,-141.83 70.22,-48.71 144.92,-92.31 221.83,-129.45 81.55,-40.65 160.79,-75.61 230.69,-111.6 62.39,-30.39 121.97,-66.97 177.39,-108.53 37.11,-28.29 72.02,-60.23 103.67,-94.54 10.85,-13.08 22.48,-25.83 34.61,-37.77l0.02 0.01z"/>
  <path fill="#9B7264" fill-rule="nonzero" d="M8526.47 9412.92c-19.2,-57.6 -47.69,-111.89 -84.15,-160.51 -67.06,-90.62 -197.04,-184.61 -356.79,-247.79 -80.01,-31.85 -157.95,-59.04 -227.85,-85.96 -69.9,-26.92 -132.31,-53.34 -183.06,-78.98 -40.06,-19.87 -79.29,-42.2 -116.98,-66.24 -13.47,-8.54 -23.3,-16.05 -30.03,-20.71 -3.75,-2.28 -7.16,-4.99 -10.14,-8.11 14.67,7.26 29.09,15.37 42.94,24.11 27.18,16.05 67.32,38.05 118.32,62.39 51.01,24.34 113.15,49.71 183.32,75.86 70.18,26.15 147.85,53.08 228.63,84.93 161.32,63.95 292.84,160.79 359.13,254.52 27.08,36.03 48.72,76.15 63.95,118.58 4.12,11.48 7.54,23.29 10.11,35.21 1.3,4.13 2.18,8.39 2.6,12.69l0 0.01z"/>
  <path fill="#9B7264" fill-rule="nonzero" d="M6315.54 7354.49c0,0 -2.85,-4.14 -7.25,-12.17l-19.94 -36c-17.35,-32.36 -42.2,-79.22 -74.31,-138.78l-53.34 -99.95 -30.29 -56.96c-10.2,-21.15 -18.25,-43.44 -23.82,-66.26 -23.34,-105.82 -39.73,-214.45 -47.51,-322.54l0 -6.21 6.47 0 39.87 3.62 -2.19 -0.09 14.5 -3.62c0,0 -1.55,0 -1.55,0l0 0 0 -2.59c0.66,-2.22 1.18,-4.48 1.54,-6.75 1.93,-9.66 3.32,-19.46 4.13,-29.24 1.81,-20.2 2.6,-40.65 3.12,-61.37 0,-41.68 0,-84.4 -2.08,-129.45 -2.26,-44.45 -8.3,-88.82 -17.81,-132.29 -3.49,-22.35 -10.55,-44.11 -20.77,-64.26 -11.2,-20.75 -21.42,-42.34 -30.25,-64.23 -11.3,-20.53 -25.38,-39.59 -41.72,-56.41 -16.2,-18.03 -33.75,-35.59 -51.81,-51.8 -35.99,-33.14 -74.57,-64.99 -114.7,-95.54 -20.2,-15.27 -40.91,-30.29 -61.89,-44.79 -10.61,-6.98 -21.23,-14.24 -32.36,-20.45 -9.52,-7.1 -20.97,-11.25 -32.85,-11.91 -25,1.79 -49.26,9.84 -70.42,23.3 -22.59,12.93 -44.11,28.01 -63.97,44.78l-3.89 3.11 -4.4 -2.59 -63.18 -37.54c-21.13,-13.65 -43.46,-25.77 -66.51,-35.98 -13.93,-6.01 -28.94,-9.13 -44.1,-9.13 -7.27,0 -14.55,0.71 -21.67,2.13 -22.21,5.39 -43.58,14.17 -63.2,25.9 -19.01,12.92 -36.43,28.19 -51.76,45.29 -15.54,16.84 -30.56,34.19 -45.31,51.79 -58.26,70.43 -111.86,142.67 -162.86,213.61l0 0c-24.99,64.07 -44.34,130.92 -57.24,198.58 -2.7,20.99 -4.13,42.23 -4.13,63.4 0,43.84 5.95,87.58 17.61,129.81l0 2.33c-1.98,17.22 -3.03,34.78 -3.03,52.19 0,27.35 2.49,54.81 7.41,81.67 3.64,20.93 11.23,41.1 22.28,59.28 9.89,17.24 25.73,30.32 44.54,36.76l4.66 0 0 4.4c-1.39,67.33 -2.17,131.54 -2.34,192.65 0,30.55 0,60.06 1.55,89.07 -0.9,28.55 -6.64,56.91 -16.83,83.62 -17.06,47.97 -40.49,93.58 -69.64,135.38l-73.27 105.39c-44.28,62.91 -78.98,112.1 -103.57,146.54l-27.45 38.06c-6.21,8.81 -9.83,12.95 -9.83,12.95 0,0 2.59,-4.93 8.54,-13.72l25.89 -39.1 100.2 -148.36c41.17,-64.99 105.39,-137.49 140.08,-240.03 9.5,-25.75 14.77,-53.01 15.54,-80.49 0,-28.74 -1.81,-58.77 -1.81,-89.32 0,-61.11 0,-125.58 1.29,-192.9l4.4 5.45c-21.9,-6.74 -40.44,-21.56 -51.79,-41.44 -11.72,-19.32 -19.92,-40.68 -24.07,-62.91 -5.22,-28.56 -7.91,-57.62 -7.91,-86.69 0,-17.01 0.94,-34.15 2.75,-51.05l0 2.33c-12.24,-43.6 -18.43,-88.78 -18.43,-134.08 0,-21.43 1.46,-42.99 4.19,-64.24 12.94,-68.57 32.37,-136.33 57.46,-201.26l0 0 0 0c51.79,-71.21 103.57,-143.7 163.38,-214.65 14.5,-17.87 29.78,-35.47 45.83,-51.79 15.62,-18.1 33.6,-34.25 53.34,-47.83 20.91,-11.92 43.53,-20.68 67.03,-25.9 7.97,-1.57 16.11,-2.36 24.23,-2.36 16.95,0 33.75,3.46 49.32,10.13 23.72,10.43 46.64,22.75 68.35,36.75l63.95 38.06 -8.02 0c20.57,-17.45 42.89,-33.02 66.32,-46.33 23.33,-14.88 50.04,-23.81 77.64,-25.9l10.87 0 10.62 3.36c6.13,2.73 12.14,5.87 17.87,9.32 11.39,6.73 22.26,13.98 33.15,21.24 21.23,14.75 41.94,29.78 62.39,45.05 40.4,31.07 79.23,62.92 115.48,96.58 18.12,17.09 35.99,33.92 51.78,51.79 17.06,17.81 31.75,37.89 43.5,59.55 8.65,21.71 18.76,43.07 29.79,63.66 10.75,21.26 18.12,44.14 21.74,67.62 9.34,44.06 15.47,89.15 17.61,134.13 2.33,44.02 2.85,87.25 1.81,129.46 0,20.97 -1.81,41.69 -3.62,62.14 -0.85,10.21 -2.35,20.47 -4.41,30.55 0,2.6 0,5.18 -1.81,7.77 -1.81,2.6 0,2.85 -1.81,4.41l-1.56 2.33c-1.22,1.32 -2.73,2.38 -4.4,3.09l-14.51 3.37 2.86 0 -39.88 -3.62 5.7 -5.69c7.14,108.08 22.65,215.53 45.37,321.31 5.1,22.28 12.67,44.03 22.45,64.73 10.35,19.93 20.19,39.09 29.77,57.22l51.79 100.71c31.07,60.07 55.16,107.2 71.98,139.83l18.39 36.76c4.93,9.59 6.74,14.25 6.74,14.25z"/>
  <path fill="#9B7264" fill-rule="nonzero" d="M5577.88 7576.12c-1.29,0 6.21,-8.8 13.72,-25.89 10.74,-24.53 16.94,-50.91 18.13,-77.68 0.5,-9.02 0.79,-18.14 0.79,-27.21 0,-30.93 -3.07,-61.87 -9.07,-92.18l0 -4.14 -0.02 -3.59c0,0 0,0 0,-3.11 0.44,-1.48 1.35,-2.76 2.61,-3.64 0.78,-0.28 1.61,-0.42 2.45,-0.42 0.84,0 1.68,0.14 2.46,0.43 2.33,0 2.59,0 2.85,1.29 1.09,1.24 1.82,2.77 2.08,4.4l-0.02 1.05 0 4.4c0,5.96 2.08,11.66 2.85,17.61 1.59,11.69 4.03,23.48 7.02,34.94 7.81,23.61 21.33,44.98 39.33,62.14 37.22,31.85 76.63,61.76 117.3,89.03 33.35,24.74 60.14,57.43 77.67,95.06 12.14,24.93 22.24,50.99 30.01,77.66 3.7,9.43 5.8,19.44 6.24,29.54 -2.07,0 -12.68,-41.17 -44.54,-101.76 -17.88,-35.47 -44.01,-66.25 -76.13,-89.6 -41.59,-26.98 -81.75,-57.07 -119.32,-89.34 -19.46,-18.41 -34.05,-41.37 -42.48,-66.79 -2.92,-12.08 -5.31,-24.38 -6.99,-36.73l-2.59 -17.61 0 -4.14 -0.01 -4.41 0 1.29 0 0 0 0 4.14 -3.88c0,0 -4.66,6.73 0,5.96 0.79,0.27 1.62,0.42 2.46,0.42 0.84,0 1.68,-0.15 2.46,-0.43 1.27,-0.76 2.2,-1.96 2.59,-3.38l0 1.29 0 4.14c4.8,26.69 7.28,53.79 7.28,80.9 0,13.61 -0.6,27.28 -1.83,40.83 -2.18,27.72 -9.94,54.78 -22.79,79.46 -3.54,6.63 -7.93,12.83 -12.96,18.4 -3.36,4.14 -5.44,5.96 -5.69,5.69z"/>
  <path fill="#263238" fill-rule="nonzero" d="M10781.68 11517.18c0,3.88 -2268.67,6.73 -5066.58,6.73 -2797.91,0 -5067.1,-2.85 -5067.1,-6.73 0,-3.89 2268.15,-6.74 5067.1,-6.74 2798.95,0 5066.58,3.63 5066.58,6.74z"/>
 </g>
</svg>
