<?xml version="1.0" encoding="UTF-8"?>
<!DOCTYPE svg PUBLIC "-//W3C//DTD SVG 1.0//EN" "http://www.w3.org/TR/2001/REC-SVG-20010904/DTD/svg10.dtd">
<!-- Creator: CorelDRAW -->
<svg xmlns="http://www.w3.org/2000/svg" xml:space="preserve" width="115mm" height="115mm" version="1.0" shape-rendering="geometricPrecision" text-rendering="geometricPrecision" image-rendering="optimizeQuality" fill-rule="evenodd" clip-rule="evenodd"
viewBox="0 0 11500 11500"
 xmlns:xlink="http://www.w3.org/1999/xlink"
 xmlns:xodm="http://www.corel.com/coreldraw/odm/2003">
 <g id="Camada_x0020_1">
  <metadata id="CorelCorpID_0Corel-Layer"/>
  <g id="_1764625495328">
   <g id="freepik--background-simple--inject-2">
    <path fill="#6DA4FD" fill-rule="nonzero" d="M7640.09 610.36c0,0 -1868.83,-664.45 -3703.34,393.47 -1834.5,1057.92 -2760.28,3158.2 -3555.14,4840.55 -794.86,1682.36 -337.41,3393.6 1062.12,4174.38 1399.53,780.79 2352.73,-370.51 4317.15,-426.08 1964.43,-55.58 2494,223.54 4123.99,-885.26 1629.99,-1108.8 1924.91,-3729.77 639.01,-5670.24 -1285.91,-1940.48 -2883.79,-2426.82 -2883.79,-2426.82z"/>
    <path fill="white" fill-rule="nonzero" fill-opacity="0.701961" d="M7640.09 610.36c0,0 -1868.83,-664.45 -3703.34,393.47 -1834.5,1057.92 -2760.28,3158.2 -3555.14,4840.55 -794.86,1682.36 -337.41,3393.6 1062.12,4174.38 1399.53,780.79 2352.73,-370.51 4317.15,-426.08 1964.43,-55.58 2494,223.54 4123.99,-885.26 1629.99,-1108.8 1924.91,-3729.77 639.01,-5670.24 -1285.91,-1940.48 -2883.79,-2426.82 -2883.79,-2426.82z"/>
   </g>
   <g id="freepik--Plants--inject-2">
    <path fill="#6DA4FD" fill-rule="nonzero" d="M10916.86 5085.84c0,0 0,-138.82 -194.14,-332.97 -194.15,-194.14 -319.13,-305.3 -319.13,-305.3 0,0 -97.07,319.13 83.23,513.53 132.61,136.12 276.73,261.91 430.02,374.37l0.02 -249.63z"/>
    <path fill="#6DA4FD" fill-rule="nonzero" d="M10635.03 5952.32c0,0 0,-138.82 -194.15,-332.96 -194.14,-194.14 -319.13,-305.3 -319.13,-305.3 0,0 -97.07,319.13 83.24,513.27 131.98,136.36 276.91,262.6 430.15,374.72l-0.11 -249.73z"/>
    <path fill="#6DA4FD" fill-rule="nonzero" d="M10905.5 5322.22c0,0 14.57,-138.08 228.23,-310.74 213.67,-172.66 349.52,-269.73 349.52,-269.73 0,0 62.99,327.53 -136.84,501.66 -145.94,121.83 -303.35,231.49 -467.43,327.02l26.52 -248.21z"/>
    <path fill="#6DA4FD" fill-rule="nonzero" d="M10564.13 6345.31c0,0 29.15,-135.35 259.85,-283.56 230.7,-148.2 375.94,-231.69 375.94,-231.69 0,0 27.92,332.47 -188.96,484.62 -158.43,105.47 -325.82,198.33 -499.03,276.19l52.2 -245.56z"/>
    <path fill="#6DA4FD" fill-rule="nonzero" d="M10628.11 7461.03c0,0 0,-138.82 194.39,-332.96 194.4,-194.15 319.13,-305.3 319.13,-305.3 0,0 97.07,319.12 -83.23,513.27 -132.39,136.32 -277.01,262.18 -430.39,374.71l0.1 -249.72z"/>
    <path fill="#6DA4FD" fill-rule="nonzero" d="M10624.9 7733.23c0,0 19.76,-137.34 -144.75,-357.17 -164.51,-219.84 -271.71,-347.29 -271.71,-347.29 0,0 -141.28,301.84 9.64,518.72 111.38,153.37 236.73,299.07 372.45,431.88l34.37 -246.14z"/>
    <path fill="#6DA4FD" fill-rule="nonzero" d="M10433.47 8540.44c0,0 0,-138.82 194.14,-332.96 194.15,-194.14 319.13,-305.3 319.13,-305.3 0,0 97.07,319.13 -83.23,513.27 -131.95,136.3 -277.03,262.14 -430.05,374.61l0.01 -249.62z"/>
    <path fill="#6DA4FD" fill-rule="nonzero" d="M10563.14 9272.81c0,0 -35.07,-134.37 103.5,-370.51 138.56,-236.14 231.44,-376.19 231.44,-376.19 0,0 174.88,284.06 49.4,518.72 -93.12,165.43 -201.72,323.74 -321.18,471.18l-63.16 -243.2z"/>
    <path fill="none" fill-rule="nonzero" stroke="#263238" stroke-width="26.46" stroke-linecap="round" stroke-linejoin="round" stroke-miterlimit="22.9256" d="M10934.64 5050.27c-9.77,144.07 -28.15,288.68 -53.79,430.88 -76.82,396.69 -268.74,652.59 -345.81,1011 -77.06,358.4 143.76,819.8 84.72,1279.97 -59.04,460.17 -238.11,716.31 -186.98,1023.34 51.13,307.03 319.87,1138.7 319.87,1138.7"/>
    <line fill="none" fill-rule="nonzero" stroke="#263238" stroke-width="26.46" stroke-linecap="round" stroke-linejoin="round" stroke-miterlimit="22.9256" x1="10902.77" y1="5414.35" x2="11112.23" y2= "5253.8" />
    <line fill="none" fill-rule="nonzero" stroke="#263238" stroke-width="26.46" stroke-linecap="round" stroke-linejoin="round" stroke-miterlimit="22.9256" x1="10912.66" y1="5229.35" x2="10824.97" y2= "5073.49" />
    <path fill="none" fill-rule="nonzero" stroke="#263238" stroke-width="26.46" stroke-linecap="round" stroke-linejoin="round" stroke-miterlimit="22.9256" d="M10547.58 6475.48c0,0 175.13,-131.41 355.19,-262.81"/>
    <path fill="none" fill-rule="nonzero" stroke="#263238" stroke-width="26.46" stroke-linecap="round" stroke-linejoin="round" stroke-miterlimit="22.9256" d="M10635.03 6202.05c0,0 -145.99,-286.28 -311.48,-476.23"/>
    <path fill="none" fill-rule="nonzero" stroke="#263238" stroke-width="26.46" stroke-linecap="round" stroke-linejoin="round" stroke-miterlimit="22.9256" d="M10635.03 7658.39c99.86,-184.31 226.66,-353.47 374.91,-501.46"/>
    <path fill="none" fill-rule="nonzero" stroke="#263238" stroke-width="26.46" stroke-linecap="round" stroke-linejoin="round" stroke-miterlimit="22.9256" d="M10600.93 7853.02c-52.67,-124.56 -116.75,-245.87 -189.47,-360.02 -102.27,-150.92 -116.84,-170.43 -116.84,-170.43"/>
    <path fill="none" fill-rule="nonzero" stroke="#263238" stroke-width="26.46" stroke-linecap="round" stroke-linejoin="round" stroke-miterlimit="22.9256" d="M10433.47 8795.35c43.97,-110 97.37,-217.06 157.82,-319.04 60.49,-94.66 129.16,-184.46 204.53,-267.8"/>
    <path fill="none" fill-rule="nonzero" stroke="#263238" stroke-width="26.46" stroke-linecap="round" stroke-linejoin="round" stroke-miterlimit="22.9256" d="M10626.38 9513.64c0,0 -20.5,-166.23 52.62,-307.27 73.11,-141.04 155.61,-326.29 189.7,-399.16"/>
    <path fill="#6DA4FD" fill-rule="nonzero" d="M9645.77 6939.36c0,0 -15.07,-87.2 85.71,-229.97 100.78,-142.77 166.98,-226 166.98,-226 0,0 95.58,189.46 3.45,330.98 -67.96,99.78 -145.16,194.37 -228.94,281.31l-27.2 -156.32z"/>
    <path fill="#6DA4FD" fill-rule="nonzero" d="M9915.99 7451.89c0,0 -15.07,-86.94 85.47,-229.71 100.53,-142.77 166.97,-226.01 166.97,-226.01 0,0 95.59,189.46 3.71,330.75 -68.11,99.87 -145.52,194.71 -229.27,281.63l-26.88 -156.66z"/>
    <path fill="#6DA4FD" fill-rule="nonzero" d="M9678.38 7086.08c0,0 -24.7,-84.98 -176.86,-169.94 -152.15,-84.96 -248.48,-131.16 -248.48,-131.16 0,0 -3.95,212.18 140.29,299.62 104.88,60.31 215.17,112.39 328.64,154.38l-43.59 -152.9z"/>
    <path fill="#6DA4FD" fill-rule="nonzero" d="M10002.94 7691.99c0,0 -32.85,-81.77 -193.65,-150.43 -160.8,-68.66 -260.84,-104.48 -260.84,-104.48 0,0 18.28,211.43 170.93,283.31 110.62,49.02 225.66,89.04 342.81,118.99l-59.25 -147.39z"/>
    <path fill="#6DA4FD" fill-rule="nonzero" d="M10083.95 8397.43c0,0 -15.06,-87.19 -157.83,-187.72 -142.77,-100.53 -233.42,-156.85 -233.42,-156.85 0,0 -26.19,210.7 107.94,312.96 97.86,71.04 202.24,134.27 310.39,188.07l-27.08 -156.46z"/>
    <path fill="#6DA4FD" fill-rule="nonzero" d="M10115.08 8567.61c0,0 -27.17,-83.98 52.12,-239.6 79.29,-155.61 133.13,-247 133.13,-247 0,0 121.54,172.9 49.41,327.04 -53.26,108.6 -115.76,213.02 -186.43,311.12l-48.23 -151.56z"/>
    <path fill="#6DA4FD" fill-rule="nonzero" d="M10359.36 9269.35c0,0 10.13,-87.69 146.97,-196.37 136.85,-108.67 223.79,-170.68 223.79,-170.68 0,0 38.28,208.72 -89.91,318.39 -93.52,76.49 -193.95,145.83 -298.91,205.88l18.06 -157.22z"/>
    <path fill="#6DA4FD" fill-rule="nonzero" d="M10323.3 9052.98c0,0 -15.07,-86.95 -158.08,-187.72 -143.01,-100.78 -233.18,-156.61 -233.18,-156.61 0,0 -26.18,210.45 107.94,312.71 98.01,71.2 202.03,134.29 310.52,188.14l-27.2 -156.52z"/>
    <path fill="#6DA4FD" fill-rule="nonzero" d="M10321.33 9525.99c0,0 7.41,-88.18 -105.22,-222.3 -112.64,-134.13 -185.99,-210.94 -185.99,-210.94 0,0 -78.55,197.6 24.7,329.99 76.73,93.82 161.65,181.14 252.69,260.74l13.82 -157.49z"/>
    <path fill="none" fill-rule="nonzero" stroke="#263238" stroke-width="26.46" stroke-linecap="round" stroke-linejoin="round" stroke-miterlimit="22.9256" d="M9630.21 6918.86c21.46,89.3 48.53,177.89 79.9,264.33 91.4,240.57 239.35,380.13 326.54,596.51 87.2,216.38 -1.23,529.58 85.71,811.91 86.94,282.33 227.25,423.12 228.48,621.22 1.23,198.1 -77.06,748.92 -77.06,748.92"/>
    <line fill="none" fill-rule="nonzero" stroke="#263238" stroke-width="26.46" stroke-linecap="round" stroke-linejoin="round" stroke-miterlimit="22.9256" x1="9689.49" y1="7143.63" x2="9540.79" y2= "7065.58" />
    <line fill="none" fill-rule="nonzero" stroke="#263238" stroke-width="26.46" stroke-linecap="round" stroke-linejoin="round" stroke-miterlimit="22.9256" x1="9663.31" y1="7028.77" x2="9701.34" y2= "6921.57" />
    <path fill="none" fill-rule="nonzero" stroke="#263238" stroke-width="26.46" stroke-linecap="round" stroke-linejoin="round" stroke-miterlimit="22.9256" d="M10027.64 7770.53c0,0 -123.5,-63.49 -251.45,-126.22"/>
    <path fill="none" fill-rule="nonzero" stroke="#263238" stroke-width="26.46" stroke-linecap="round" stroke-linejoin="round" stroke-miterlimit="22.9256" d="M9942.17 7608.5c36.41,-115.11 84.65,-226.94 143.71,-332.29"/>
    <path fill="none" fill-rule="nonzero" stroke="#263238" stroke-width="26.46" stroke-linecap="round" stroke-linejoin="round" stroke-miterlimit="22.9256" d="M10101 8521.92c-82.46,-104.71 -180.31,-197.33 -289.41,-274"/>
    <path fill="none" fill-rule="nonzero" stroke="#263238" stroke-width="26.46" stroke-linecap="round" stroke-linejoin="round" stroke-miterlimit="22.9256" d="M10143.49 8640.23c19.79,-84.41 46.62,-167.01 79.98,-246.94 47.66,-105.72 54.83,-119.56 54.83,-119.56"/>
    <path fill="none" fill-rule="nonzero" stroke="#263238" stroke-width="26.46" stroke-linecap="round" stroke-linejoin="round" stroke-miterlimit="22.9256" d="M10344.3 9363.22c0,0 98.8,-120.79 159.81,-165.99 36.85,-27.15 71.73,-57.56 103.7,-90.36"/>
    <path fill="none" fill-rule="nonzero" stroke="#263238" stroke-width="26.46" stroke-linecap="round" stroke-linejoin="round" stroke-miterlimit="22.9256" d="M10350.97 9212.78c-39.64,-64.22 -84.49,-125.55 -133.55,-183.04 -48.18,-52.54 -101.22,-101.63 -157.43,-145.49"/>
    <path fill="none" fill-rule="nonzero" stroke="#263238" stroke-width="26.46" stroke-linecap="round" stroke-linejoin="round" stroke-miterlimit="22.9256" d="M10307.99 9684.32c-5.05,-67.11 -28.01,-131.71 -66.42,-187 -61.01,-80.77 -132.9,-187.72 -162.28,-229.71"/>
    <path fill="#263238" fill-rule="nonzero" stroke="#263238" stroke-width="26.46" stroke-linecap="round" stroke-linejoin="round" stroke-miterlimit="22.9256" d="M10896.6 11110.03l-768.43 0c-33.41,-0.01 -60.52,-27.11 -60.52,-60.52l-190.44 -1183.89 1270.59 0 -190.69 1183.9c0,33.4 -27.1,60.5 -60.51,60.5l0 0.01z"/>
    <path fill="#263238" fill-rule="nonzero" stroke="#263238" stroke-width="26.46" stroke-linecap="round" stroke-linejoin="round" stroke-miterlimit="22.9256" d="M11136.69 10031.36l-1259.73 0c-54.55,-0.01 -98.79,-44.25 -98.79,-98.81l0 0.01c0,-54.57 44.24,-98.81 98.79,-98.81l1259.73 0.01c54.56,-0.01 98.8,44.23 98.8,98.79l0 0.01c0,54.55 -44.24,98.79 -98.8,98.79l0 0.01z"/>
    <line fill="none" fill-rule="nonzero" stroke="white" stroke-width="26.46" stroke-linecap="round" stroke-linejoin="round" stroke-miterlimit="22.9256" x1="9927.11" y1="10035.81" x2="10841.76" y2= "10035.81" />
    <line fill="none" fill-rule="nonzero" stroke="white" stroke-width="26.46" stroke-linecap="round" stroke-linejoin="round" stroke-miterlimit="22.9256" x1="10927.73" y1="10035.81" x2="11078.39" y2= "10035.81" />
   </g>
   <g id="freepik--character-2--inject-2">
    <path fill="#BFBFBF" fill-rule="nonzero" stroke="#263238" stroke-width="26.46" stroke-linecap="round" stroke-linejoin="round" stroke-miterlimit="22.9256" d="M5781.87 4260.35c0,0 -64.22,64.22 -57.8,128.44 6.43,64.22 552.31,1214.03 610.1,1297.51 57.8,83.49 224.78,109.18 302.1,64.22 77.31,-44.96 378.9,-366.05 378.9,-366.05l-15.07 -1646.53c0,0 -267.5,765.71 -344.57,889.21 -77.06,123.5 -115.84,186.49 -115.84,186.49 0,0 -172.91,-488.33 -218.35,-584.66 -31.78,-61.94 -80.94,-113.52 -141.3,-148.21l-398.17 179.58z"/>
    <path fill="white" fill-rule="nonzero" stroke="#263238" stroke-width="26.46" stroke-linecap="round" stroke-linejoin="round" stroke-miterlimit="22.9256" d="M7133.24 10680.73c0,0 -385.57,145.73 -531.31,197.61 -145.74,51.88 -137.08,180.07 -120.05,205.76l17.29 24.7 1379.78 0c8.85,-31.76 13.38,-64.72 13.38,-97.73 0,-42.49 -7.5,-84.72 -22.06,-124.6 -42.71,-127.92 -737.03,-205.74 -737.03,-205.74z"/>
    <path fill="white" fill-rule="nonzero" stroke="#263238" stroke-width="26.46" stroke-linecap="round" stroke-linejoin="round" stroke-miterlimit="22.9256" d="M7892.04 11041.37l-1419.05 0c-0.08,1.58 -0.14,3.18 -0.14,4.79 0,13.25 3.1,26.33 9.03,38.17l17.29 24.7 1379.78 0.01c7.09,-21.92 11.55,-44.7 13.1,-67.69l-0.01 0.02z"/>
    <path fill="#6DA4FD" fill-rule="nonzero" stroke="#263238" stroke-width="26.46" stroke-linecap="round" stroke-linejoin="round" stroke-miterlimit="22.9256" d="M6841.77 5976.29c0,0 -94.11,934.17 -94.11,1414.1 0,479.93 171.42,1431.39 222.31,1722.86 50.89,291.47 222.31,1208.34 222.31,1276.76 0,68.42 0,154.38 -51.38,188.71 -32.21,19.8 -51.84,54.94 -51.84,92.76 0,3.33 0.16,6.7 0.45,9.99l0 51.38c0,0 411.26,205.75 591.33,214.4 39.77,2.87 80.03,4.73 119.92,4.73 39.89,0 80.16,-1.86 119.86,-4.83 39.71,-2.96 -17.05,-385.82 -17.05,-548.59 0,-162.78 8.65,-1328.4 17.05,-1508.46 8.4,-180.07 42.98,-1474.12 77.31,-1834.01 34.33,-359.89 137.08,-976.91 137.08,-976.91l-1259.72 -205.75 -33.52 102.86z"/>
    <path fill="white" fill-rule="nonzero" stroke="#263238" stroke-width="26.46" stroke-linecap="round" stroke-linejoin="round" stroke-miterlimit="22.9256" d="M8050.37 10680.73c0,0 -385.82,145.73 -531.31,197.61 -145.49,51.88 -137.34,180.07 -120.05,205.76l17.05 24.7 1379.77 0c8.9,-31.93 13.44,-64.93 13.44,-98.07 0,-42.35 -7.43,-84.47 -21.84,-124.23 -42.98,-127.95 -737.06,-205.77 -737.06,-205.77z"/>
    <path fill="white" fill-rule="nonzero" stroke="#263238" stroke-width="26.46" stroke-linecap="round" stroke-linejoin="round" stroke-miterlimit="22.9256" d="M8807.93 11041.37l-1418.06 0c-0.05,1.27 -0.08,2.58 -0.08,3.87 0,13.57 3.15,26.96 9.22,39.09l17.05 24.7 1379.77 0.01c6.91,-21.93 10.97,-44.71 12.09,-67.67l0.01 0z"/>
    <path fill="#6DA4FD" fill-rule="nonzero" stroke="#263238" stroke-width="26.46" stroke-linecap="round" stroke-linejoin="round" stroke-miterlimit="22.9256" d="M7578.84 6087.69c0,0 8.64,1311.34 0,1696.92 -8.65,385.58 222.3,1362.73 291.46,1594.17 69.16,231.44 188.47,1131.28 197.61,1174.26 9.14,42.98 -128.44,85.71 -128.44,179.82 0,94.12 376.93,94.36 376.93,94.36 0,0 351.48,102.76 385.82,102.76 35.13,4.23 69.8,13.01 102.77,25.91 34.41,-119.59 54.71,-243.92 59.93,-368.44 0.14,-4.72 0.14,-9.68 0.14,-14.29 0,-137.37 -20.33,-274.23 -60.14,-405.62 -39.81,-131.39 42.98,-754.11 8.64,-1199.7 -34.33,-445.6 -128.69,-985.55 -128.69,-1148.57 0,-163.02 94.36,-462.64 137.34,-797.09 42.98,-334.44 59.77,-822.77 59.77,-925.52 0,-102.75 -1284.42,-128.44 -1284.42,-128.44l-18.72 119.47z"/>
    <path fill="#BFBFBF" fill-rule="nonzero" stroke="#263238" stroke-width="26.46" stroke-linecap="round" stroke-linejoin="round" stroke-miterlimit="22.9256" d="M7904.63 3422.5c0,0 -634.31,111.41 -745.71,128.44 -111.4,17.04 -180.8,188.96 -205.51,334.21 -24.7,145.24 -171.42,2039.76 -111.64,2091.14 59.78,51.37 1671.23,222.31 1851.3,231.44 180.06,9.13 240.09,17.29 257.13,-111.41 17.04,-128.69 278.86,-1968.13 328.27,-2135.84 85.47,-291.22 -688.16,-444.61 -868.22,-486.6 -180.07,-41.99 -505.62,-51.38 -505.62,-51.38z"/>
    <path fill="#263238" fill-rule="nonzero" stroke="#263238" stroke-width="26.46" stroke-linecap="round" stroke-linejoin="round" stroke-miterlimit="22.9256" d="M8756.55 3563.29c0,0 -312.46,938.62 -363.84,1076.2 -51.37,137.58 -51.62,171.18 -51.62,171.18l-1053.97 -222.31c0,0 111.4,-531.31 154.13,-677.03 42.73,-145.73 144.99,-433 144.99,-433l-76.33 13.09c0,0 -248.49,797.08 -308.5,1011.23 -60.02,214.15 -342.35,899.6 -359.64,1114.49 -17.29,214.88 -102.76,1011.23 -128.44,1542.79 -25.68,531.56 8.65,1088.3 8.65,1088.3 0,0 1002.58,188.47 1302.7,180.06 300.11,-8.4 488.32,-8.64 488.32,-8.64 0,0 -24.7,-1019.88 8.65,-1345.44 33.35,-325.56 145.73,-925.77 145.73,-925.77l274.18 -17.05 8.64 -34.34 -334.2 -24.7c0,0 -180.56,-1184.37 -180.56,-1227.34l0 -67.69 378.17 -1190.31 -57.06 -23.72z"/>
    <path fill="#828282" fill-rule="nonzero" stroke="#263238" stroke-width="26.46" stroke-linecap="round" stroke-linejoin="round" stroke-miterlimit="22.9256" d="M9157.19 6860.31c0,0 -197.61,282.83 -212.18,330 -14.57,47.17 31.37,243.79 31.37,306.53 0,62.75 78.55,62.99 78.55,62.99 0,0 -39.28,102.01 7.9,141.54 47.19,39.52 251.46,31.37 290.72,-39.52 39.27,-70.88 197.61,-314.19 197.61,-432.26 -4.54,-97.68 -17.71,-195.19 -39.2,-290.66l-354.77 -78.62z"/>
    <path fill="none" fill-rule="nonzero" stroke="#263238" stroke-width="26.46" stroke-linecap="round" stroke-linejoin="round" stroke-miterlimit="22.9256" d="M9054.94 7559.83c0,0 62.98,-55.08 62.98,-125.72 0,-70.64 62.74,-188.71 62.74,-188.71"/>
    <path fill="#BFBFBF" fill-rule="nonzero" stroke="#263238" stroke-width="26.46" stroke-linecap="round" stroke-linejoin="round" stroke-miterlimit="22.9256" d="M9173 6679.26c-7.9,23.47 -62.98,188.71 -15.8,235.89 47.18,47.18 337.9,94.11 369.27,62.74 31.37,-31.38 86.45,-212.18 86.45,-212.18l-439.92 -86.45z"/>
    <g>
     <path fill="#BFBFBF" fill-rule="nonzero" d="M8834.85 4856.12l314.43 722.98c0,0 -102.26,1029.77 -47.18,1116.22 55.08,86.44 503.15,125.72 581.69,70.64 78.54,-55.08 133.63,-251.46 165,-605.16 31.37,-353.71 -141.54,-1343.96 -188.71,-1509.2 -47.17,-165.24 -360.12,-825.24 -432.24,-880.08 -72.12,-54.83 -204.27,-39.51 -243.55,-24.7l-149.44 1109.3zm0 0l0 0 0 0z"/>
     <path id="_1" fill="none" fill-rule="nonzero" stroke="#263238" stroke-width="26.46" stroke-linecap="round" stroke-linejoin="round" stroke-miterlimit="22.9256" d="M8834.85 4856.12l314.43 722.98c0,0 -102.26,1029.77 -47.18,1116.22 55.08,86.44 503.15,125.72 581.69,70.64 78.54,-55.08 133.63,-251.46 165,-605.16 31.37,-353.71 -141.54,-1343.96 -188.71,-1509.2 -47.17,-165.24 -360.12,-825.24 -432.24,-880.08 -72.12,-54.83 -204.27,-39.51 -243.55,-24.7m-149.44 1109.3l0 0 0 0z"/>
    </g>
    <path fill="#828282" fill-rule="nonzero" stroke="#263238" stroke-width="26.46" stroke-linecap="round" stroke-linejoin="round" stroke-miterlimit="22.9256" d="M6060.49 3912.81c0,0 -70.89,-282.82 -133.63,-392.98 -62.73,-110.16 -479.44,-259.36 -526.61,-259.36 -47.17,0 -31.37,102.27 -31.37,197.61 0,95.35 15.56,259.35 117.83,369.27 102.26,109.92 282.82,188.71 282.82,188.71l55.08 133.63 283.06 -149.43 -47.18 -87.45z"/>
    <path fill="none" fill-rule="nonzero" stroke="#263238" stroke-width="26.46" stroke-linecap="round" stroke-linejoin="round" stroke-miterlimit="22.9256" d="M5897.47 3155.5l14.83 -65.71c2.15,-9.56 3.26,-19.35 3.26,-29.15 0,-63.53 -45.3,-118.04 -107.76,-129.67l0 -0.01c-8.02,-1.51 -16.22,-2.26 -24.4,-2.26 -52.4,0 -99.89,30.93 -121.08,78.84l-599.97 1361.99"/>
    <path fill="white" fill-rule="nonzero" stroke="#263238" stroke-width="26.46" stroke-linecap="round" stroke-linejoin="round" stroke-miterlimit="22.9256" d="M4439.89 4273.19c6.72,170.4 146.86,305.12 317.42,305.12 170.55,0 310.69,-134.72 317.41,-305.12l-634.83 0z"/>
    <path fill="none" fill-rule="nonzero" stroke="#263238" stroke-width="26.46" stroke-linecap="round" stroke-linejoin="round" stroke-miterlimit="22.9256" d="M4542.65 3865.88c3.17,-24.83 9.3,-49.39 18.03,-72.86"/>
    <path fill="none" fill-rule="nonzero" stroke="#263238" stroke-width="26.46" stroke-linecap="round" stroke-linejoin="round" stroke-miterlimit="22.9256" d="M4532.77 4215.14c54.09,-26.43 80.03,-118.8 57.55,-168.46 -15.65,-32.03 -29.36,-65.04 -40.73,-98.76"/>
    <path fill="none" fill-rule="nonzero" stroke="#263238" stroke-width="26.46" stroke-linecap="round" stroke-linejoin="round" stroke-miterlimit="22.9256" d="M4727.16 4215.14c54.34,-26.43 80.03,-118.8 57.8,-168.46 -27.42,-60.51 -46.44,-101.02 -49.41,-145.98"/>
    <path fill="none" fill-rule="nonzero" stroke="#263238" stroke-width="26.46" stroke-linecap="round" stroke-linejoin="round" stroke-miterlimit="22.9256" d="M4932.42 3850.81c3.6,-19.65 8.93,-39.05 15.84,-57.8"/>
    <path fill="none" fill-rule="nonzero" stroke="#263238" stroke-width="26.46" stroke-linecap="round" stroke-linejoin="round" stroke-miterlimit="22.9256" d="M4921.06 4215.14c54.09,-26.43 80.04,-118.8 57.56,-168.46 -14.49,-29.97 -27.6,-61.13 -38.56,-92.6"/>
    <path fill="#828282" fill-rule="nonzero" stroke="#263238" stroke-width="26.46" stroke-linecap="round" stroke-linejoin="round" stroke-miterlimit="22.9256" d="M5462.99 3260.47c0,0 -204.27,-47.18 -219.83,-7.9 -15.56,39.27 -15.81,118.06 15.56,141.53 31.37,23.47 243.79,31.37 267.26,24.71 23.47,-6.67 78.79,-144.26 -62.99,-158.34z"/>
    <path fill="#828282" fill-rule="nonzero" stroke="#263238" stroke-width="26.46" stroke-linecap="round" stroke-linejoin="round" stroke-miterlimit="22.9256" d="M5513.87 3447.7c0,0 -204.27,-47.18 -220.07,-7.65 -15.81,39.52 -15.81,117.82 15.8,141.28 31.61,23.46 243.55,31.62 267.26,24.7 23.71,-6.92 78.79,-144.25 -62.99,-158.33z"/>
    <path fill="#828282" fill-rule="nonzero" stroke="#263238" stroke-width="26.46" stroke-linecap="round" stroke-linejoin="round" stroke-miterlimit="22.9256" d="M5533.14 3608.5c0,0 -209.46,-11.86 -218.35,29.64 -8.89,41.49 4.44,118.8 39.52,136.84 35.07,18.04 245.53,-10.37 267.26,-22.23 21.73,-11.86 53.59,-154.37 -88.43,-144.25z"/>
    <path fill="#828282" fill-rule="nonzero" stroke="#263238" stroke-width="26.46" stroke-linecap="round" stroke-linejoin="round" stroke-miterlimit="22.9256" d="M5559.32 3776.46c0,0 -172.91,-9.87 -180.07,24.71 -7.16,34.57 3.71,98.79 32.61,113.12 28.91,14.33 202.79,-8.64 220.83,-18.28 18.03,-9.63 43.96,-128.19 -73.37,-119.55z"/>
    <g>
     <path fill="#828282" fill-rule="nonzero" d="M5997.5 3739.9c0,0 -55.08,-306.53 -86.44,-361.37 -31.37,-54.83 -314.44,-204.52 -370.52,-235.89 -56.07,-31.37 -148.2,-70.64 -165.25,-15.8 -2.96,10.41 -4.49,21.23 -4.49,32.07 0,42.14 22.81,81.01 59.58,101.56 47.19,31.61 165,78.55 165,102.26 0,23.71 62.99,282.82 197.61,377.17l204.51 0zm0 0l0 0 0 0z"/>
     <path id="_1_47" fill="none" fill-rule="nonzero" stroke="#263238" stroke-width="26.46" stroke-linecap="round" stroke-linejoin="round" stroke-miterlimit="22.9256" d="M5997.5 3739.9c0,0 -55.08,-306.53 -86.44,-361.37 -31.37,-54.83 -314.44,-204.52 -370.52,-235.89 -56.07,-31.37 -148.2,-70.64 -165.25,-15.8 -2.96,10.41 -4.49,21.23 -4.49,32.07 0,42.14 22.81,81.01 59.58,101.56 47.19,31.61 165,78.55 165,102.26 0,23.71 62.99,282.82 197.61,377.17m204.51 0l0 0 0 0z"/>
    </g>
    <path fill="#BFBFBF" fill-rule="nonzero" stroke="#263238" stroke-width="26.46" stroke-linecap="round" stroke-linejoin="round" stroke-miterlimit="22.9256" d="M6090.13 3919.97c0,0 -391.75,199.08 -366.06,250.47 18.38,43.06 31.35,88.61 38.53,134.86 7.18,46.25 411.02,-186.25 417.44,-224.78 6.43,-38.52 -44.95,-134.86 -89.91,-160.55z"/>
    <path fill="white" fill-rule="nonzero" stroke="#263238" stroke-width="26.46" stroke-linecap="round" stroke-linejoin="round" stroke-miterlimit="22.9256" d="M7758.9 3191.06c0,0 -42.73,385.57 -42.73,548.36 0,162.78 52.37,445.09 376.93,334.44 324.56,-110.66 419.9,-514.26 419.9,-592.81 0,-78.55 34.34,-651.36 34.34,-651.36 0,0 -231.44,248.74 -419.91,308.51 -113.12,35 -231.31,53.01 -349.8,53.01 -6.2,0 -12.69,-0.14 -18.74,-0.14l0.01 -0.01z"/>
    <path fill="#263238" fill-rule="nonzero" stroke="#263238" stroke-width="26.46" stroke-linecap="round" stroke-linejoin="round" stroke-miterlimit="22.9256" d="M8127.43 3139.44c-112.06,34.25 -228.82,51.84 -346.01,51.84 -7.5,0 -15.13,-0.14 -22.49,-0.14 -7.36,0 -7.16,65.21 -15.81,153.14 83.73,44.95 197.61,59.04 284.8,63.73 230.2,13.08 385.32,-211.44 508.09,-381.88 6.42,-109.42 11.36,-195.13 11.36,-195.13 0,0 -231.48,248.66 -419.94,308.44z"/>
    <path fill="#263238" fill-rule="nonzero" stroke="#263238" stroke-width="26.46" stroke-linecap="round" stroke-linejoin="round" stroke-miterlimit="22.9256" d="M7672.44 1971.6c0,0 100.04,-307.03 211.93,-419.91 111.89,-112.87 774.36,-130.41 866,-49.4 91.64,81.01 172.91,254.17 193.41,396.69 20.5,142.52 -142.52,469.31 -142.52,469.31l-1128.82 -396.69z"/>
    <path fill="white" fill-rule="nonzero" stroke="#263238" stroke-width="26.46" stroke-linecap="round" stroke-linejoin="round" stroke-miterlimit="22.9256" d="M7647.5 2153.89c0,0 -77.07,231.44 -68.66,395.2 8.4,163.77 42.98,325.81 42.98,428.55 0,102.75 -17.05,188.71 77.06,265.78 83.49,68.18 225.27,86.45 329.02,92.37 242.81,13.59 402.12,-237.12 528.09,-409.53 0,0 239.85,-24.7 257.14,-162.78 17.28,-138.07 -21.99,-200.81 -21.99,-200.81l10.13 -193.41c0,0 -802.29,-395.19 -1153.77,-215.37z"/>
    <path fill="#263238" fill-rule="nonzero" stroke="#263238" stroke-width="26.46" stroke-linecap="round" stroke-linejoin="round" stroke-miterlimit="22.9256" d="M8538.94 2368.29c0,0 -51.63,239.84 -17.29,257.13 34.33,17.29 214.4,-51.63 222.31,-128.69 7.9,-77.07 -86.21,-137.09 -205.02,-128.44z"/>
    <path fill="#263238" fill-rule="nonzero" stroke="#263238" stroke-width="26.46" stroke-linecap="round" stroke-linejoin="round" stroke-miterlimit="22.9256" d="M7610.7 2185.26c0,0 396.94,61 712.36,162.77 315.42,101.77 468.08,213.66 468.08,213.66 0,0 101.77,-172.91 91.64,-264.55 -10.13,-91.64 -447.34,-254.4 -804.01,-325.54 -356.68,-71.14 -417.19,-61.26 -447.58,-20.5 -30.39,40.76 -71.38,193.41 -20.49,234.16z"/>
    <path fill="none" fill-rule="nonzero" stroke="#263238" stroke-width="26.46" stroke-linecap="round" stroke-linejoin="round" stroke-miterlimit="22.9256" d="M7895.99 2376.69c0,0 -214.15,351.49 -162.78,402.87 51.37,51.38 171.42,85.71 205.76,68.66"/>
    <path fill="none" fill-rule="nonzero" stroke="#263238" stroke-width="26.46" stroke-linecap="round" stroke-linejoin="round" stroke-miterlimit="22.9256" d="M7733.21 2933.93c0,0 444.61,128.44 539.95,-111.4"/>
    <line fill="none" fill-rule="nonzero" stroke="#263238" stroke-width="26.46" stroke-linecap="round" stroke-linejoin="round" stroke-miterlimit="22.9256" x1="8204.5" y1="2788.2" x2="8333.18" y2= "2839.58" />
    <ellipse fill="#263238" fill-rule="nonzero" cx="8165.96" cy="2449.56" rx="38.53" ry="64.22"/>
    <path fill="#263238" fill-rule="nonzero" d="M7823.12 2363.85c0,35.56 -17.29,64.47 -38.54,64.47 -21.24,0 -38.53,-28.91 -38.53,-64.47 0,-35.57 17.29,-64.22 38.53,-64.22 21.25,0 38.54,28.89 38.54,64.22z"/>
    <path fill="none" fill-rule="nonzero" stroke="#263238" stroke-width="26.46" stroke-linecap="round" stroke-linejoin="round" stroke-miterlimit="22.9256" d="M8127.43 2248.24c0,0 214.15,8.65 205.76,180.07"/>
    <path fill="none" fill-rule="nonzero" stroke="#263238" stroke-width="26.46" stroke-linecap="round" stroke-linejoin="round" stroke-miterlimit="22.9256" d="M7844.61 2196.87c0,0 -51.37,-34.34 -162.77,85.71"/>
   </g>
   <g id="freepik--Table--inject-2">
    <rect fill="white" fill-rule="nonzero" stroke="#263238" stroke-width="26.46" stroke-linecap="round" stroke-linejoin="round" stroke-miterlimit="22.9256" x="4518.2" y="7621.09" width="242.56" height="3489.18"/>
    <rect fill="#263238" fill-rule="nonzero" stroke="#263238" stroke-width="26.46" stroke-linecap="round" stroke-linejoin="round" stroke-miterlimit="22.9256" x="4686.16" y="7621.09" width="242.56" height="3489.18"/>
    <rect fill="white" fill-rule="nonzero" stroke="#263238" stroke-width="26.46" stroke-linecap="round" stroke-linejoin="round" stroke-miterlimit="22.9256" x="5674.92" y="7621.09" width="242.56" height="3489.18"/>
    <rect fill="#263238" fill-rule="nonzero" stroke="#263238" stroke-width="26.46" stroke-linecap="round" stroke-linejoin="round" stroke-miterlimit="22.9256" x="5842.89" y="7621.09" width="242.56" height="3489.18"/>
    <rect fill="white" fill-rule="nonzero" stroke="#263238" stroke-width="26.46" stroke-linecap="round" stroke-linejoin="round" stroke-miterlimit="22.9256" x="8249.7" y="7621.09" width="242.56" height="3489.18"/>
    <rect fill="#263238" fill-rule="nonzero" stroke="#263238" stroke-width="26.46" stroke-linecap="round" stroke-linejoin="round" stroke-miterlimit="22.9256" x="8417.66" y="7621.09" width="242.56" height="3489.18"/>
    <rect fill="white" fill-rule="nonzero" stroke="#263238" stroke-width="26.46" stroke-linecap="round" stroke-linejoin="round" stroke-miterlimit="22.9256" x="9406.66" y="7621.09" width="242.56" height="3489.18"/>
    <rect fill="#263238" fill-rule="nonzero" stroke="#263238" stroke-width="26.46" stroke-linecap="round" stroke-linejoin="round" stroke-miterlimit="22.9256" x="9574.39" y="7621.09" width="242.56" height="3489.18"/>
    <rect fill="white" fill-rule="nonzero" stroke="#263238" stroke-width="26.46" stroke-linecap="round" stroke-linejoin="round" stroke-miterlimit="22.9256" x="4368.76" y="7490.43" width="5690.75" height="298.63"/>
    <rect fill="#263238" fill-rule="nonzero" stroke="#263238" stroke-width="26.46" stroke-linecap="round" stroke-linejoin="round" stroke-miterlimit="22.9256" x="8511.02" y="7490.43" width="1548.72" height="298.63"/>
    <rect fill="white" fill-rule="nonzero" stroke="#263238" stroke-width="26.46" stroke-linecap="round" stroke-linejoin="round" stroke-miterlimit="22.9256" x="4182.27" y="7415.83" width="5970.6" height="149.19"/>
    <rect fill="#263238" fill-rule="nonzero" stroke="#263238" stroke-width="26.46" stroke-linecap="round" stroke-linejoin="round" stroke-miterlimit="22.9256" x="8660.22" y="7415.83" width="1492.65" height="149.19"/>
    <path fill="white" fill-rule="nonzero" stroke="#263238" stroke-width="26.46" stroke-linecap="round" stroke-linejoin="round" stroke-miterlimit="22.9256" d="M6778.29 6033.84l-397.68 0 0 -134.37 397.68 -0.01c35.73,0.02 64.71,29 64.71,64.73l0 6.17c-0.66,35.24 -29.45,63.48 -64.7,63.48 0,0 -0.01,0 -0.01,0z"/>
    <path fill="white" fill-rule="nonzero" stroke="#263238" stroke-width="26.46" stroke-linecap="round" stroke-linejoin="round" stroke-miterlimit="22.9256" d="M4736.06 5632.2l1877.23 0 0 1582.81c0,109.11 -88.49,197.6 -197.61,197.6l-1482.02 0.01c-109.11,-0.01 -197.6,-88.5 -197.6,-197.62l0 -1582.8z"/>
    <path fill="#263238" fill-rule="nonzero" stroke="#263238" stroke-width="26.46" stroke-linecap="round" stroke-linejoin="round" stroke-miterlimit="22.9256" d="M6388.76 5632.2l0 1574.9c0,113.21 -91.81,205.01 -205.01,205.01l152.15 0.01c113.18,-0.13 204.9,-91.85 205.02,-205.02l0 -1574.9 -152.16 0z"/>
    <path fill="#263238" fill-rule="nonzero" stroke="#263238" stroke-width="26.46" stroke-linecap="round" stroke-linejoin="round" stroke-miterlimit="22.9256" d="M5026.78 5632.2l0 1574.9c0,113.13 164.26,205.01 277.39,205.01l-151.17 0.01c0,-0.01 0,-0.01 0,-0.01 -113.24,0 -205.14,-91.77 -205.26,-205.01l-0.01 -1574.9 79.05 0z"/>
    <path fill="white" fill-rule="nonzero" stroke="#263238" stroke-width="26.46" stroke-linecap="round" stroke-linejoin="round" stroke-miterlimit="22.9256" d="M4748.65 5566.75l1851.55 0c43.38,0 78.55,35.18 78.55,78.55l-0.01 6.17c0.01,43.38 -35.16,78.55 -78.54,78.55l-1851.55 0c-43.36,0 -78.54,-35.17 -78.54,-78.55l-0.01 -6.17c0.01,-43.37 35.19,-78.55 78.56,-78.55z"/>
    <path fill="white" fill-rule="nonzero" stroke="#263238" stroke-width="26.46" stroke-linecap="round" stroke-linejoin="round" stroke-miterlimit="22.9256" d="M4503.38 5899.46l397.68 0 0 134.37 -397.68 0.01c-35.73,-0.01 -64.71,-28.99 -64.71,-64.71l-0.01 -6.18c0.67,-35.25 29.47,-63.49 64.72,-63.49 0,0 0.01,0 0.01,0l-0.01 0z"/>
    <path fill="white" fill-rule="nonzero" stroke="#263238" stroke-width="26.46" stroke-linecap="round" stroke-linejoin="round" stroke-miterlimit="22.9256" d="M4734.57 5899.46l397.68 0 0 134.37 -397.68 0.01c-35.72,-0.01 -64.7,-28.99 -64.7,-64.71l-0.01 -6.18c0.67,-35.25 29.46,-63.49 64.71,-63.49 0,0 0.01,0 0.01,0l-0.01 0z"/>
    <rect fill="#263238" fill-rule="nonzero" stroke="#263238" stroke-width="26.46" stroke-linecap="round" stroke-linejoin="round" stroke-miterlimit="22.9256" x="4741.24" y="5672.47" width="1866.12" height="25.2"/>
    <path fill="none" fill-rule="nonzero" stroke="#263238" stroke-width="26.46" stroke-linecap="round" stroke-linejoin="round" stroke-miterlimit="22.9256" d="M5703.33 5018.89c-35.81,-43.72 -77.8,-80.27 -77.8,-165.74 -0.06,-1.7 -0.08,-3.48 -0.08,-5.21 0,-43.12 14.96,-84.95 42.29,-118.27"/>
    <path fill="none" fill-rule="nonzero" stroke="#263238" stroke-width="26.46" stroke-linecap="round" stroke-linejoin="round" stroke-miterlimit="22.9256" d="M5625.52 5449.18c0,-148.2 127.46,-148.2 127.46,-297.89 0,-0.34 0,-0.7 0,-1.04 0,-17.45 -2.18,-34.89 -6.43,-51.81"/>
    <path fill="none" fill-rule="nonzero" stroke="#263238" stroke-width="26.46" stroke-linecap="round" stroke-linejoin="round" stroke-miterlimit="22.9256" d="M6084.7 4894.4c-8.83,-23.9 -13.38,-49.22 -13.38,-74.73 0,-1.42 0.03,-2.92 0.06,-4.31"/>
    <path fill="none" fill-rule="nonzero" stroke="#263238" stroke-width="26.46" stroke-linecap="round" stroke-linejoin="round" stroke-miterlimit="22.9256" d="M6071.36 5449.18c0,-158.33 127.21,-158.33 127.21,-316.91 0,-88.42 -39.52,-127.46 -74.11,-172.9"/>
    <path fill="none" fill-rule="nonzero" stroke="#263238" stroke-width="26.46" stroke-linecap="round" stroke-linejoin="round" stroke-miterlimit="22.9256" d="M5116.19 4877.86c-2.6,-14.11 -3.94,-28.46 -3.94,-42.8 0,-0.29 0,-0.63 0,-0.92 0,-1.1 -0.02,-2.32 -0.02,-3.46 0,-24.07 4.21,-48.01 12.38,-70.64"/>
    <path fill="none" fill-rule="nonzero" stroke="#263238" stroke-width="26.46" stroke-linecap="round" stroke-linejoin="round" stroke-miterlimit="22.9256" d="M5112.25 5449.18c0,-153.64 127.45,-153.64 127.45,-307.27 0,-0.39 0,-0.81 0,-1.21 0,-56.68 -22.48,-111.06 -62.48,-151.19"/>
    <path fill="white" fill-rule="nonzero" stroke="#263238" stroke-width="26.46" stroke-linecap="round" stroke-linejoin="round" stroke-miterlimit="22.9256" d="M9347.64 6033.84l-397.68 0 0 -134.37 397.68 -0.01c35.72,0.02 64.7,29 64.7,64.73l0.01 6.17c-0.66,35.24 -29.45,63.48 -64.71,63.48 0,0 0,0 0,0z"/>
    <path fill="white" fill-rule="nonzero" stroke="#263238" stroke-width="26.46" stroke-linecap="round" stroke-linejoin="round" stroke-miterlimit="22.9256" d="M7305.65 5632.2l1877.23 0 0 1582.81c0,109.11 -88.49,197.6 -197.61,197.6l-1482.02 0.01c-109.12,-0.01 -197.61,-88.5 -197.61,-197.62l0.01 -1582.8z"/>
    <path fill="#263238" fill-rule="nonzero" stroke="#263238" stroke-width="26.46" stroke-linecap="round" stroke-linejoin="round" stroke-miterlimit="22.9256" d="M8958.35 5632.2l0 1574.9c-0.11,113.24 -92.01,205.01 -205.25,205.01 0,0 0,0 0,0l151.65 0.01c113.21,-0.01 205.01,-91.81 205.01,-205.02l0 -1574.9 -151.41 0z"/>
    <path fill="#263238" fill-rule="nonzero" stroke="#263238" stroke-width="26.46" stroke-linecap="round" stroke-linejoin="round" stroke-miterlimit="22.9256" d="M7595.63 5632.2l0 1574.9c0,113.13 164.01,205.01 277.39,205.01l-151.41 0.01c-113.18,-0.13 -204.9,-91.85 -205.02,-205.02l0 -1574.9 79.04 0z"/>
    <path fill="white" fill-rule="nonzero" stroke="#263238" stroke-width="26.46" stroke-linecap="round" stroke-linejoin="round" stroke-miterlimit="22.9256" d="M7318 5566.75l1851.54 0c43.37,0 78.55,35.18 78.55,78.55l0 6.17c0,43.38 -35.18,78.55 -78.55,78.55l-1851.54 0c-43.37,0 -78.55,-35.17 -78.55,-78.55l0 -6.17c0,-43.37 35.18,-78.55 78.55,-78.55z"/>
    <path fill="white" fill-rule="nonzero" stroke="#263238" stroke-width="26.46" stroke-linecap="round" stroke-linejoin="round" stroke-miterlimit="22.9256" d="M7072.72 5899.46l397.67 0 0 134.37 -397.67 0.01c-35.73,-0.01 -64.71,-28.99 -64.71,-64.71l-0.01 -6.18c0.66,-35.25 29.45,-63.49 64.71,-63.49 0,0 0,0 0,0l0.01 0z"/>
    <path fill="white" fill-rule="nonzero" stroke="#263238" stroke-width="26.46" stroke-linecap="round" stroke-linejoin="round" stroke-miterlimit="22.9256" d="M7303.92 5899.46l397.67 0 0 134.37 -397.67 0.01c-35.74,-0.01 -64.71,-28.99 -64.71,-64.71l-0.01 -6.18c0.66,-35.25 29.45,-63.49 64.7,-63.49 0,0 0.01,0 0.01,0l0.01 0z"/>
    <rect fill="#263238" fill-rule="nonzero" stroke="#263238" stroke-width="26.46" stroke-linecap="round" stroke-linejoin="round" stroke-miterlimit="22.9256" x="7310.83" y="5672.47" width="1866.12" height="25.2"/>
    <path fill="#5C5C5C" fill-rule="nonzero" stroke="#263238" stroke-width="26.46" stroke-linecap="round" stroke-linejoin="round" stroke-miterlimit="22.9256" d="M8245.25 5248.61l2.97 0c22.1,0 40.01,17.92 40.01,40.02l0 113.86c0,22.1 -17.91,40.02 -40.01,40.02l-2.97 0c-22.1,0 -40.01,-17.92 -40.01,-40.02l0 -113.86c0,-22.1 17.91,-40.02 40.01,-40.02z"/>
    <path fill="#5C5C5C" fill-rule="nonzero" stroke="#263238" stroke-width="26.46" stroke-linecap="round" stroke-linejoin="round" stroke-miterlimit="22.9256" d="M7320.96 5567.74l80.03 -55.82c94.54,-66.18 207.2,-101.77 322.6,-101.77l1052.23 0c145.63,0 285.69,56.53 390.52,157.58l-1845.38 0.01z"/>
   </g>
   <g id="freepik--character-1--inject-2">
    <path fill="#6DA4FD" fill-rule="nonzero" stroke="#263238" stroke-width="26.46" stroke-linecap="round" stroke-linejoin="round" stroke-miterlimit="22.9256" d="M2523.63 4171.92c0,0 102.5,175.62 146.22,277.88 43.72,102.27 102.51,234.17 43.97,204.77 -58.53,-29.4 -117.07,-65.7 -168.21,-65.7 -51.13,0 -65.7,58.54 -87.68,14.57 -21.99,-43.97 65.7,-431.52 65.7,-431.52z"/>
    <path fill="#6DA4FD" fill-rule="nonzero" stroke="#263238" stroke-width="26.46" stroke-linecap="round" stroke-linejoin="round" stroke-miterlimit="22.9256" d="M2370.25 10475.97c0,0 350.99,204.76 482.89,248.74 131.9,43.97 219.34,123.5 226.5,204.76l7.41 80.28 -7.41 58.54 -1601.82 -0.01c-24.12,-59.83 -36.55,-123.94 -36.55,-188.53 0,-0.55 0,-1.11 0,-1.66 0,-109.68 58.54,-131.65 87.93,-197.61 29.39,-65.95 731.13,-255.64 731.13,-255.64l109.92 51.13z"/>
    <path fill="white" fill-rule="nonzero" stroke="#263238" stroke-width="26.46" stroke-linecap="round" stroke-linejoin="round" stroke-miterlimit="22.9256" d="M1456.57 11001.84c5.33,22.39 12.5,44.44 21.27,65.7l1601.56 0.01 7.41 -58.55 -7.41 -80.27c-7.16,-80.52 -94.85,-161.05 -226.5,-204.77l-0.01 277.88 -1396.32 0z"/>
    <path fill="#263238" fill-rule="nonzero" stroke="#263238" stroke-width="26.46" stroke-linecap="round" stroke-linejoin="round" stroke-miterlimit="22.9256" d="M2764.95 6987.52c0,0 51.38,87.69 7.42,123.5 -43.96,35.81 -65.95,51.38 -65.95,51.38 19.91,40.01 30.27,84.15 30.27,128.85 0,23.16 -2.79,46.27 -8.27,68.74 -29.15,102.51 -160.8,533.78 -160.8,738.54 0,204.77 14.57,709.4 -65.95,994.69 -80.52,285.3 -241.32,906.76 -219.34,1045.82 21.99,139.07 102.51,204.77 117.08,241.33 10.13,36.95 15.32,75.32 15.32,113.68 0,8.44 -0.26,16.98 -0.74,25.36 0,43.72 -153.63,241.33 -409.53,336.18 -255.9,94.85 -469.31,109.92 -518.72,95.09 -49.4,-14.82 -102.26,-102.26 -95.09,-175.37 7.17,-73.1 29.86,-87.16 29.86,-138.54 0,-51.37 -117.08,-548.35 -102.51,-826.23 14.57,-277.87 248.74,-702.23 248.74,-907 0,-204.76 -74.11,-562.93 -131.65,-775.1 -57.55,-212.17 -74.11,-255.89 -74.11,-277.88 0,-21.99 -80.52,-190.19 -131.65,-329.26 -51.13,-139.06 -123.5,-270.47 -123.5,-416.69 0.71,-97.61 8.42,-195.88 21.91,-292.5l65.95 -168.21c0,0 1513.65,211.93 1535.62,211.93 21.98,0 35.64,131.69 35.64,131.69z"/>
    <path fill="#9E9E9E" fill-rule="nonzero" stroke="#263238" stroke-width="26.46" stroke-linecap="round" stroke-linejoin="round" stroke-miterlimit="22.9256" d="M2894.14 6314.43c0,0 386.07,-192.91 448.81,-260.83 62.75,-67.93 0,-224.28 20.75,-224.28 20.76,0 145.98,-52.12 156.61,-98.8 10.62,-46.68 -10.63,-125.23 10.37,-125.23 21,0 260.84,-57.3 354.7,-52.12 93.86,5.18 344.32,15.56 427.81,-104.23 83.49,-119.8 145.48,-224.53 145.48,-255.9 0,-31.37 -24.7,-40.27 -77.8,-4.44 -53.11,35.82 -490.81,46.19 -610.84,46.19 -120.04,0 -166.73,-15.81 -219.1,24.7 -52.37,40.51 -250.21,240.09 -276.4,240.09 -26.19,0 -109.42,-10.37 -156.35,41.74 -32.4,-20.93 -70.23,-32.06 -108.82,-32.06 -5.47,0 -10.96,0.23 -16.4,0.67 -62.74,10.37 -349.52,166.97 -349.52,166.97l250.7 637.53z"/>
    <path fill="white" fill-rule="nonzero" stroke="#263238" stroke-width="26.46" stroke-linecap="round" stroke-linejoin="round" stroke-miterlimit="22.9256" d="M2509.06 4486.35c6.39,9.2 12.38,18.85 17.8,28.67 47.42,86.31 78.68,181.06 91.9,278.64 29.4,197.61 43.97,563.17 109.67,819.07 65.71,255.9 307.28,643.45 271.71,965.29 -35.57,321.85 -131.65,424.11 -299.86,431.52 -168.21,7.42 -1345.68,-241.32 -1521.05,-292.45 -175.37,-51.13 -212.18,-21.99 -197.61,-190.2 14.57,-168.21 197.61,-775.35 204.77,-994.69 7.16,-219.34 -153.64,-701.99 74.1,-1052.98 227.75,-350.99 475.48,-585.16 614.3,-555.76 138.83,29.4 539.17,306.99 634.27,562.89z"/>
    <path fill="#999999" fill-rule="nonzero" stroke="#263238" stroke-width="26.46" stroke-linecap="round" stroke-linejoin="round" stroke-miterlimit="22.9256" d="M2172.64 2336.43c0,0 255.9,-109.68 460.66,-80.52 204.77,29.15 409.54,190.19 453.51,299.86 43.97,109.66 80.52,160.79 80.52,233.91 0,73.12 0,95.09 -7.41,117.08l-7.16 21.98c0,0 74.1,175.62 80.27,233.92 6.17,58.29 0,87.93 -51.13,87.93l-51.13 0c0,0 -65.95,438.68 -123.5,489.81 -57.55,51.13 -233.91,58.54 -233.91,58.54 0,0 -168.21,74.11 -204.77,307.28 -36.56,233.16 -80.52,504.62 -80.52,504.62 0,0 -372.98,-680.25 -416.7,-826.48 -43.71,-146.23 -65.94,-248.74 -65.94,-248.74 41.74,-68.76 67.18,-146.34 74.08,-226.47 7.41,-123.5 -153.64,-387.8 -109.68,-636.29 43.96,-248.48 202.81,-336.43 202.81,-336.43z"/>
    <path fill="#263238" fill-rule="nonzero" stroke="#263238" stroke-width="26.46" stroke-linecap="round" stroke-linejoin="round" stroke-miterlimit="22.9256" d="M3006.28 3739.9c45.45,-39.51 95.09,-311.96 115.35,-432.5 -47.67,-36.31 -269.73,-71.38 -356.68,-28.16 -86.94,43.22 -182.78,117.08 -197.6,95.09 -14.83,-21.98 -84.72,-350.74 -34.09,-409.03 50.64,-58.29 175.63,-58.79 146.23,-153.89 -29.4,-95.1 -155.86,-43.47 -163.03,-123.5 -7.17,-80.02 74.11,-153.63 -21.99,-175.37 -23.05,-4.01 -46.56,-6.13 -70.04,-6.13 -43.31,0 -86.52,7.04 -127.56,20.72 -21.74,0 -65.71,-29.4 -65.71,-102.51 0.03,-0.05 0.03,-0.11 0.03,-0.14 0,-39.69 -27.49,-74.12 -66.2,-82.88 -32.35,20.99 -158.82,115.35 -197.6,331.73 -43.98,248.49 117.07,511.8 109.67,636.29 -5.91,73.64 -27.63,145.39 -63.47,209.98 21.24,9.32 44.29,14.17 67.53,14.17 13.44,0 26.87,-1.61 39.91,-4.8 74.11,-21.99 65.71,-87.69 87.69,-139.07 21.99,-51.37 95.09,-65.7 58.54,-160.79 -36.54,-95.1 58.55,-197.61 102.27,-190.2 43.72,7.42 87.93,80.52 65.94,123.5 -21.98,42.98 -74.1,255.9 -74.1,365.57 0,109.66 29.14,204.76 95.09,241.32 65.95,36.56 157.34,69.41 222.31,98.8 26.01,-28.1 56.9,-51.43 91.12,-68.67 34.23,-17.24 178.1,-7.66 236.39,-59.53z"/>
    <path fill="#263238" fill-rule="nonzero" d="M3028.27 2957.89c0,28.41 -9.88,51.37 -21.99,51.37 -12.11,0 -21.73,-22.97 -21.73,-51.37 0,-28.4 9.63,-51.13 21.73,-51.13 12.1,0 21.99,22.97 21.99,51.13z"/>
    <path fill="white" fill-rule="nonzero" stroke="#263238" stroke-width="26.46" stroke-linecap="round" stroke-linejoin="round" stroke-miterlimit="22.9256" d="M2896.61 2825.99c37.2,-20.84 76.58,-38.15 117.07,-51.36 36.56,-7.16 95.1,21.99 87.69,-36.56 -7.4,-58.54 -80.27,-36.56 -168.21,-14.57 -87.93,21.99 -87.68,73.59 -36.55,102.49z"/>
    <path fill="none" fill-rule="nonzero" stroke="#263238" stroke-width="26.46" stroke-linecap="round" stroke-linejoin="round" stroke-miterlimit="22.9256" d="M2801.51 2943.32c23.12,13.35 48.13,23.33 74.1,29.39"/>
    <path fill="none" fill-rule="nonzero" stroke="#263238" stroke-width="26.46" stroke-linecap="round" stroke-linejoin="round" stroke-miterlimit="22.9256" d="M2874.63 3001.86c-17.16,12.19 -37.73,18.76 -58.81,18.76 -9.76,0 -19.52,-1.41 -28.87,-4.19"/>
    <path fill="none" fill-rule="nonzero" stroke="#263238" stroke-width="26.46" stroke-linecap="round" stroke-linejoin="round" stroke-miterlimit="22.9256" d="M2772.61 2672.35c0,0 113.37,-90.65 255.15,-67.93"/>
    <path fill="none" fill-rule="nonzero" stroke="#263238" stroke-width="26.46" stroke-linecap="round" stroke-linejoin="round" stroke-miterlimit="22.9256" d="M2834.86 2529.58c0,0 141.78,-39.52 204.27,0"/>
    <path fill="white" fill-rule="nonzero" stroke="#263238" stroke-width="26.46" stroke-linecap="round" stroke-linejoin="round" stroke-miterlimit="22.9256" d="M2304.29 2468.08c-21.99,0 -65.7,-29.4 -65.7,-102.51 0,-73.1 -87.94,-116.83 -153.64,-58.54 -65.71,58.29 -51.13,95.09 -117.08,109.67 -65.95,14.59 -204.77,-29.14 -226.75,109.92 -21.99,139.06 7.41,175.37 -21.99,211.93 -29.39,36.56 -182.78,102.5 -175.37,226.75 7.42,124.25 95.1,123.5 65.71,197.61 -29.39,74.1 -102.26,168.21 7.41,241.32 109.67,73.12 292.46,-80.27 314.43,-21.73 21.98,58.54 123.5,109.68 197.61,87.69 74.11,-21.99 65.95,-87.69 87.93,-139.06 21.99,-51.38 95.09,-65.71 58.55,-160.8 -36.55,-95.09 58.29,-197.61 102.26,-190.19 43.97,7.41 87.69,80.52 65.94,123.5 -21.74,42.98 -74.1,255.89 -74.1,365.56 0,109.67 29.14,204.77 94.85,241.33 65.7,36.55 168.21,74.1 234.16,102.5 65.96,28.4 270.47,116.84 336.42,58.29 65.95,-58.54 102.26,-197.6 102.26,-329.01 0,-131.41 36.56,-255.9 -7.16,-292.46 -43.72,-36.56 -271.7,-74.11 -358.4,-29.4 -86.7,44.71 -182.78,117.08 -197.61,95.1 -14.82,-21.99 -65.94,-255.9 -14.82,-314.44 51.12,-58.53 175.62,-131.65 146.22,-226.75 -29.4,-95.1 -175.37,-65.7 -182.78,-146.22 -7.41,-80.52 74.11,-153.64 -21.99,-175.37 -22.34,-3.81 -45.13,-5.77 -67.83,-5.77 -43.67,0 -87.15,7.17 -128.5,21.07l-0.03 0.01z"/>
    <path fill="none" fill-rule="nonzero" stroke="#263238" stroke-width="26.46" stroke-linecap="round" stroke-linejoin="round" stroke-miterlimit="22.9256" d="M2830.91 3323.7c35.68,53.44 95.75,85.56 160.02,85.56 15.06,0 30.12,-1.79 44.76,-5.29"/>
    <g>
     <path fill="#999999" fill-rule="nonzero" d="M2454.97 3080.65c0,0 -11.37,-102.01 -136.11,-119.05 -124.74,-17.05 -136.1,186.98 -84.97,283.55 51.13,96.58 119.06,45.21 119.06,45.21l102.02 -209.71zm0 0l0 0 0 0z"/>
     <path id="_1_48" fill="none" fill-rule="nonzero" stroke="#263238" stroke-width="26.46" stroke-linecap="round" stroke-linejoin="round" stroke-miterlimit="22.9256" d="M2454.97 3080.65c0,0 -11.37,-102.01 -136.11,-119.05 -124.74,-17.05 -136.1,186.98 -84.97,283.55 51.13,96.58 119.06,45.21 119.06,45.21m102.02 -209.71l0 0 0 0z"/>
    </g>
    <path fill="#6DA4FD" fill-rule="nonzero" stroke="#263238" stroke-width="26.46" stroke-linecap="round" stroke-linejoin="round" stroke-miterlimit="22.9256" d="M1989.86 3462.52c0,0 263.31,614.3 336.41,775.35 73.11,161.04 182.79,277.88 182.79,438.68 0,160.79 65.94,512.04 65.94,863.03 0,350.99 87.69,855.62 58.29,1052.98 -29.39,197.35 -101.26,343.83 -101.26,424.36 0,80.53 7.16,197.61 -29.4,197.61 -36.55,0 -562.92,-36.56 -950.72,-131.66 -387.79,-95.09 -614.3,-139.06 -614.3,-197.6 0,-58.55 21.99,-168.21 21.99,-197.61 0,-29.4 -87.69,-87.69 -43.72,-285.04 43.97,-197.36 87.69,-811.91 102.26,-1250.59 14.57,-438.68 190.19,-826.48 307.27,-1002.1 117.08,-175.61 321.11,-299.61 321.11,-299.61 0,0 -116.83,-139.07 21.99,-226.76 102.66,-61.74 210.41,-115.76 321.29,-160.96l0.06 -0.08z"/>
    <path fill="none" fill-rule="nonzero" stroke="#263238" stroke-width="26.46" stroke-linecap="round" stroke-linejoin="round" stroke-miterlimit="22.9256" d="M1039.14 6684.94c438.11,187.64 910.64,287.34 1387.56,290.85"/>
    <line fill="none" fill-rule="nonzero" stroke="#263238" stroke-width="26.46" stroke-linecap="round" stroke-linejoin="round" stroke-miterlimit="22.9256" x1="1205.86" y1="6751.14" x2="1175.98" y2= "6951.95" />
    <line fill="none" fill-rule="nonzero" stroke="#263238" stroke-width="26.46" stroke-linecap="round" stroke-linejoin="round" stroke-miterlimit="22.9256" x1="1426.69" y1="6841.54" x2="1396.55" y2= "7002.09" />
    <line fill="none" fill-rule="nonzero" stroke="#263238" stroke-width="26.46" stroke-linecap="round" stroke-linejoin="round" stroke-miterlimit="22.9256" x1="1667.52" y1="6901.57" x2="1647.51" y2= "7062.12" />
    <line fill="none" fill-rule="nonzero" stroke="#263238" stroke-width="26.46" stroke-linecap="round" stroke-linejoin="round" stroke-miterlimit="22.9256" x1="1888.34" y1="6941.83" x2="1878.21" y2= "7082.37" />
    <line fill="none" fill-rule="nonzero" stroke="#263238" stroke-width="26.46" stroke-linecap="round" stroke-linejoin="round" stroke-miterlimit="22.9256" x1="2139.05" y1="6971.96" x2="2139.05" y2= "7122.39" />
    <path fill="#6DA4FD" fill-rule="nonzero" stroke="#263238" stroke-width="26.46" stroke-linecap="round" stroke-linejoin="round" stroke-miterlimit="22.9256" d="M2326.27 4237.87c-74.1,-161.05 -336.41,-775.35 -336.41,-775.35 -110.45,45.25 -218.77,99.27 -321.13,160.96 -138.82,87.69 -21.99,226.75 -21.99,226.75 0,0 248.74,365.57 329.26,533.78 80.52,168.2 58.55,131.65 131.65,248.73 73.11,117.09 109.68,211.93 131.65,175.37 21.98,-36.55 204.77,-212.18 248.49,-197.6 5.19,1.72 10.62,3.21 16.55,4.69 -23.44,-130.82 -114.58,-237.52 -178.07,-377.33z"/>
    <path fill="#6DA4FD" fill-rule="nonzero" stroke="#263238" stroke-width="26.46" stroke-linecap="round" stroke-linejoin="round" stroke-miterlimit="22.9256" d="M3328.13 4990.99l1383.23 0c0,0 -117.08,153.63 -226.76,219.58 -109.67,65.95 -255.9,74.11 -255.9,74.11l-366.79 0c0,0 -292.46,-8.4 -533.78,-293.69z"/>
    <path fill="#999999" fill-rule="nonzero" stroke="#263238" stroke-width="26.46" stroke-linecap="round" stroke-linejoin="round" stroke-miterlimit="22.9256" d="M3284.16 5371.37c61.54,-54.11 113.79,-118.65 153.66,-190.22 41.07,-85.63 119.36,-147.74 212.17,-168.2 74.11,-14.58 314.43,-36.56 358.4,-58.55 43.97,-21.98 74.11,80.52 51.13,117.08 -22.97,36.56 -117.07,65.7 -175.62,74.11 -37.88,6.95 -71.84,27.87 -95.1,58.57 33.01,25.47 70.12,45.3 109.66,58.52 65.94,21.99 183.03,29.15 234.16,0 51.13,-29.14 233.92,-161.05 248.74,-74.1 14.83,86.94 -65.95,123.5 -109.92,175.37 -43.97,51.86 -123.5,146.22 -153.39,153.63 -29.89,7.41 -263.31,7.41 -409.54,21.99 -146.22,14.57 -321.1,117.08 -321.1,117.08l-131.65 -285.29 28.4 0.01z"/>
    <path fill="#6DA4FD" fill-rule="nonzero" stroke="#263238" stroke-width="26.46" stroke-linecap="round" stroke-linejoin="round" stroke-miterlimit="22.9256" d="M3013.69 5481.04c0,0 233.92,-153.63 270.47,-109.67 36.56,43.96 212.18,233.91 168.21,314.43 -43.97,80.52 -329.01,212.18 -329.01,212.18l-109.67 -416.94z"/>
    <g>
     <path fill="#6DA4FD" fill-rule="nonzero" d="M1909.34 4391.5c0,0 168.21,182.78 234.16,350.99 65.96,168.21 219.34,642.22 241.33,680.01 21.98,37.79 58.54,102.5 58.54,102.5 0,0 380.14,-102.5 460.67,-109.67 80.53,-7.17 160.79,65.7 211.92,160.8 51.14,95.09 219.59,380.13 146.48,453.5 -73.11,73.37 -709.41,402.63 -899.61,475.25 -190.19,72.62 -380.39,29.14 -469.31,-123.5 -88.92,-152.65 -460.66,-1001.85 -533.77,-1199.46 -73.11,-197.61 -65.95,-358.4 -36.56,-416.95l586.15 -373.47zm0 0l0 0 0 0z"/>
     <path id="_1_49" fill="none" fill-rule="nonzero" stroke="#263238" stroke-width="26.46" stroke-linecap="round" stroke-linejoin="round" stroke-miterlimit="22.9256" d="M1909.34 4391.5c0,0 168.21,182.78 234.16,350.99 65.96,168.21 219.34,642.22 241.33,680.01 21.98,37.79 58.54,102.5 58.54,102.5 0,0 380.14,-102.5 460.67,-109.67 80.53,-7.17 160.79,65.7 211.92,160.8 51.14,95.09 219.59,380.13 146.48,453.5 -73.11,73.37 -709.41,402.63 -899.61,475.25 -190.19,72.62 -380.39,29.14 -469.31,-123.5 -88.92,-152.65 -460.66,-1001.85 -533.77,-1199.46 -73.11,-197.61 -65.95,-358.4 -36.56,-416.95m586.15 -373.47l0 0 0 0z"/>
    </g>
    <path fill="none" fill-rule="nonzero" stroke="#263238" stroke-width="26.46" stroke-linecap="round" stroke-linejoin="round" stroke-miterlimit="22.9256" d="M2172.64 6007.66c36.56,-234.17 271.7,-482.66 271.7,-482.66 0,0 -263.31,131.65 -351.24,241.33"/>
   </g>
   <g id="freepik--Floor--inject-2">
    <line fill="none" fill-rule="nonzero" stroke="#263238" stroke-width="26.46" stroke-linecap="round" stroke-linejoin="round" stroke-miterlimit="22.9256" x1="209.94" y1="11110.03" x2="11489.65" y2= "11110.03" />
   </g>
  </g>
 </g>
</svg>
