<?xml version="1.0" encoding="UTF-8"?>
<!DOCTYPE svg PUBLIC "-//W3C//DTD SVG 1.1//EN" "http://www.w3.org/Graphics/SVG/1.1/DTD/svg11.dtd">
<!-- Creator: CorelDRAW -->
<svg xmlns="http://www.w3.org/2000/svg" xml:space="preserve" width="115mm" height="115mm" version="1.1" shape-rendering="geometricPrecision" text-rendering="geometricPrecision" image-rendering="optimizeQuality" fill-rule="evenodd" clip-rule="evenodd"
viewBox="0 0 11500 11500"
 xmlns:xlink="http://www.w3.org/1999/xlink"
 xmlns:xodm="http://www.corel.com/coreldraw/odm/2003">
 <g id="Camada_x0020_1">
  <metadata id="CorelCorpID_0Corel-Layer"/>
  <g id="_1952340371024">
   <g id="freepik--background-complete--inject-2">
    <rect fill="#EBEBEB" fill-rule="nonzero" x="10255.07" y="10011.22" width="896.18" height="6.76"/>
    <rect fill="#EBEBEB" fill-rule="nonzero" x="7704.8" y="10084.83" width="235.14" height="6.76"/>
    <rect fill="#EBEBEB" fill-rule="nonzero" x="9708.75" y="9760.12" width="519.26" height="6.76"/>
    <rect fill="#EBEBEB" fill-rule="nonzero" x="397.08" y="9805.58" width="1168.67" height="6.76"/>
    <rect fill="#EBEBEB" fill-rule="nonzero" x="1806.83" y="9805.58" width="171.28" height="6.76"/>
    <rect fill="#EBEBEB" fill-rule="nonzero" x="2534.98" y="9919.77" width="2534.85" height="6.76"/>
    <path fill="#EBEBEB" fill-rule="nonzero" d="M5390.47 8369.04l-5224.74 0c-85.2,-0.15 -154.23,-69.3 -154.23,-154.52 0,0 0,0 0,0l-0.01 -7344.51c0.74,-84.7 69.56,-153.02 154.25,-153.15l5224.73 0c85.34,0 154.52,69.18 154.52,154.5l-0.01 7343.17c0.01,85.31 -69.17,154.5 -154.5,154.5l-0.01 0.01zm-5224.74 -7646.76c-81.46,0.14 -147.46,66.27 -147.46,147.73 0,0 0,0 0,0l-0.02 7344.52c0.02,-0.01 0.02,-0.01 0.02,-0.01 0,81.47 66,147.59 147.48,147.74l5224.72 0.02c81.55,-0.16 147.62,-66.22 147.76,-147.75l-0.02 -7344.52c-0.12,-81.54 -66.19,-147.6 -147.72,-147.74l-5224.76 0.01z"/>
    <path fill="#EBEBEB" fill-rule="nonzero" d="M11243.52 8369.04l-5225.01 0c-85.25,-0.15 -154.38,-69.27 -154.51,-154.52l0 -7344.51c0.89,-84.73 69.78,-153.01 154.51,-153.14l5225.01 -0.01c84.58,0.28 153.24,68.57 153.98,153.14l-0.01 7344.53c0,0 0,0 0,0 0,85.11 -68.85,154.22 -153.96,154.51l-0.01 0zm-5225.01 -7646.76c-81.54,0.13 -147.61,66.19 -147.75,147.72l0.01 7344.53c0.13,81.53 66.2,147.59 147.73,147.74l5225.02 0.01c81.54,-0.16 147.61,-66.22 147.75,-147.75l0 -7344.52c-0.14,-81.54 -66.21,-147.6 -147.74,-147.74l-5225.02 0.01z"/>
    <rect fill="#E6E6E6" fill-rule="nonzero" x="471.49" y="1708.56" width="10248.99" height="3579.32"/>
    <rect fill="#F0F0F0" fill-rule="nonzero" x="535.62" y="1708.56" width="10322.33" height="3579.32"/>
    <rect fill="#E6E6E6" fill-rule="nonzero" x="471.49" y="5287.87" width="10248.99" height="127.45"/>
    <rect fill="#F0F0F0" fill-rule="nonzero" x="617.87" y="5287.87" width="10322.33" height="127.45"/>
    <rect fill="#FAFAFA" fill-rule="nonzero" transform="matrix(2.70854E-14 1.02269 -1.02269 2.70854E-14 10665.6 1900.67)" width="3124.2" height="9717.35"/>
    <polygon fill="white" fill-rule="nonzero" points="7048.09,5095.76 7355.74,1900.68 7888.26,1900.68 7580.32,5095.76 "/>
    <polygon fill="white" fill-rule="nonzero" points="3905.5,5095.76 4213.16,1900.68 4745.39,1900.68 4437.74,5095.76 "/>
    <path fill="#F0F0F0" fill-rule="nonzero" d="M858.7 4582.19c-10.45,0 -18.93,-8.48 -18.93,-18.94l-0.01 -2533.23c0.01,-10.46 8.49,-18.94 18.95,-18.94 10.46,0 18.94,8.48 18.94,18.94l0 2533.23c0,10.46 -8.48,18.94 -18.94,18.94l-0.01 0z"/>
    <polygon fill="white" fill-rule="nonzero" points="7694.78,5095.76 8002.44,1900.68 8209.98,1900.68 7902.33,5095.76 "/>
    <rect fill="#E6E6E6" fill-rule="nonzero" transform="matrix(2.70854E-14 1.02269 -1.02269 2.70854E-14 10665.8 1900.94)" width="3124.2" height="23.81"/>
    <polygon fill="#E0E0E0" fill-rule="nonzero" fill-opacity="0.501961" points="10903.4,2132.3 654.41,2132.3 636.55,1975.35 10885.54,1975.35 "/>
    <polygon fill="#E0E0E0" fill-rule="nonzero" fill-opacity="0.501961" points="10903.4,2389.89 654.41,2389.89 636.55,2233.23 10885.54,2233.23 "/>
    <polygon fill="#E0E0E0" fill-rule="nonzero" fill-opacity="0.501961" points="10903.4,2647.76 654.41,2647.76 636.55,2490.82 10885.54,2490.82 "/>
    <polygon fill="#E0E0E0" fill-rule="nonzero" fill-opacity="0.501961" points="10903.4,2905.36 654.41,2905.36 636.55,2748.69 10885.54,2748.69 "/>
    <polygon fill="#E0E0E0" fill-rule="nonzero" fill-opacity="0.501961" points="10903.4,3162.96 654.41,3162.96 636.55,3006.29 10885.54,3006.29 "/>
    <polygon fill="#E0E0E0" fill-rule="nonzero" fill-opacity="0.501961" points="10903.4,3420.83 654.41,3420.83 636.55,3263.89 10885.54,3263.89 "/>
    <path fill="#EBEBEB" fill-rule="nonzero" d="M6910.9 8476.19l1542.34 0c50.34,-0.16 91.17,-40.86 91.46,-91.2l0 0.01c-0.14,-50.44 -41.02,-91.32 -91.46,-91.46l-1542.34 0c-50.43,0.14 -91.31,41.02 -91.45,91.46l0 0c0.28,50.33 41.12,91.03 91.45,91.17l0 0.02z"/>
    <polygon fill="#E0E0E0" fill-rule="nonzero" points="8687.03,8293.54 8738.44,8293.54 8934.08,7017.19 8882.66,7017.19 "/>
    <polygon fill="#E0E0E0" fill-rule="nonzero" points="7904.5,8293.54 7955.63,8293.54 8151.27,7017.19 8100.13,7017.19 "/>
    <path fill="#EBEBEB" fill-rule="nonzero" d="M7902.33 8037.03l1005.77 0c69.36,-2.25 127.54,-53.11 139.09,-121.52l153.42 -1065.83c1.11,-6.16 1.71,-12.45 1.71,-18.71 0,-56.78 -46.04,-102.82 -102.82,-102.82 -0.93,0 -1.89,0.01 -2.81,0.04l-1006.03 0.01c-69.37,2.22 -127.55,53.08 -139.1,121.49l-152.87 1064.76c-1.23,6.41 -1.86,12.96 -1.86,19.5 0,56.94 46.16,103.1 103.09,103.1 0.8,0 1.63,-0.01 2.41,-0.02z"/>
    <path fill="whitesmoke" fill-rule="nonzero" d="M8050.88 8476.19l705.41 0c50.3,-0.15 91.05,-40.9 91.2,-91.2l0 0.01c-0.16,-50.34 -40.86,-91.17 -91.2,-91.46l-705.41 0c-50.4,0.13 -91.19,41.05 -91.19,91.45 0,0 0,0 0,0l0 0.01c0.14,50.29 40.9,91.04 91.19,91.18l0 0.01z"/>
    <polygon fill="#E0E0E0" fill-rule="nonzero" points="7666.92,9575.85 7718.33,9575.85 7913.97,8476.19 7862.56,8476.19 "/>
    <polygon fill="#E0E0E0" fill-rule="nonzero" points="6777.77,9575.85 6828.92,9575.85 7024.55,8476.19 6973.4,8476.19 "/>
    <polygon fill="#E0E0E0" fill-rule="nonzero" points="8011.1,9575.85 7959.97,9575.85 7764.33,8476.19 7815.47,8476.19 "/>
    <polygon fill="#E0E0E0" fill-rule="nonzero" points="8900.52,9575.85 8849.11,9575.85 8653.47,8476.19 8704.88,8476.19 "/>
    <path fill="#EBEBEB" fill-rule="nonzero" d="M2330.42 8476.19l-1539.91 0c-50.32,-0.16 -91.16,-40.86 -91.44,-91.2l-0.01 0.01c0.01,-0.01 0.01,-0.01 0.01,-0.01 0,-50.55 40.91,-91.58 91.46,-91.73l1542.32 0.02c50.45,0.13 91.33,41 91.47,91.44l-0.01 0.01c-0.12,50.56 -41.15,91.47 -91.71,91.47 -0.72,0 -1.46,-0.01 -2.16,-0.02l-0.02 0.01z"/>
    <polygon fill="#E0E0E0" fill-rule="nonzero" points="554.29,8293.54 502.88,8293.54 307.25,7017.19 358.66,7017.19 "/>
    <polygon fill="#E0E0E0" fill-rule="nonzero" points="1336.83,8293.54 1285.68,8293.54 1090.05,7017.19 1141.19,7017.19 "/>
    <path fill="#EBEBEB" fill-rule="nonzero" d="M1339.26 8037.03l-1005.23 0c-69.57,-2.46 -127.74,-53.83 -138.8,-122.58l-153.42 -1065.83c-1.12,-6.18 -1.71,-12.47 -1.71,-18.73 0,-56.78 46.04,-102.82 102.82,-102.82 0.93,0 1.88,0.01 2.8,0.04l1004.95 0.01c69.37,2.23 127.55,53.09 139.09,121.5l153.41 1065.83c1.24,6.41 1.88,12.97 1.88,19.51 0,56.94 -46.17,103.1 -103.1,103.1 -0.88,0 -1.81,-0.02 -2.68,-0.04l-0.01 0.01z"/>
    <path fill="whitesmoke" fill-rule="nonzero" d="M1190.44 8476.19l-705.42 0c-50.29,-0.15 -91.04,-40.9 -91.18,-91.2l0 0.01c0.01,-0.01 0.01,-0.01 0.01,-0.01 0,-50.44 40.75,-91.44 91.18,-91.73l705.41 0.02c50.41,0.13 91.19,41.05 91.19,91.44 0,0 0,0 0,0l-0.01 0.01c0.01,-0.01 0.01,-0.01 0.01,-0.01 0,50.4 -40.78,91.32 -91.19,91.46l0 0.01z"/>
    <polygon fill="#E0E0E0" fill-rule="nonzero" points="1574.4,9575.85 1522.99,9575.85 1327.36,8476.19 1378.77,8476.19 "/>
    <polygon fill="#E0E0E0" fill-rule="nonzero" points="2463.54,9575.85 2412.41,9575.85 2216.5,8476.19 2267.91,8476.19 "/>
    <polygon fill="#E0E0E0" fill-rule="nonzero" points="1230.21,9575.85 1281.36,9575.85 1476.99,8476.19 1425.85,8476.19 "/>
    <polygon fill="#E0E0E0" fill-rule="nonzero" points="340.8,9575.85 392.21,9575.85 587.84,8476.19 536.43,8476.19 "/>
    <path fill="#EBEBEB" fill-rule="nonzero" d="M8581.5 8476.19l-1540.45 0c-50.34,-0.16 -91.17,-40.86 -91.46,-91.2l0 0.01c0,-0.01 0,-0.01 0,-0.01 0,-50.55 40.91,-91.58 91.46,-91.73l1542.35 0.02c50.43,0.13 91.3,41 91.45,91.44l0 0.01c-0.14,50.55 -41.18,91.46 -91.73,91.46 -0.54,0 -1.09,-0.01 -1.62,-0.01l0 0.01z"/>
    <polygon fill="#E0E0E0" fill-rule="nonzero" points="6805.1,8293.54 6753.96,8293.54 6558.32,7017.19 6609.47,7017.19 "/>
    <polygon fill="#E0E0E0" fill-rule="nonzero" points="7587.9,8293.54 7536.49,8293.54 7340.86,7017.19 7392.27,7017.19 "/>
    <path fill="#EBEBEB" fill-rule="nonzero" d="M7590.07 8037.03l-1004.95 0c-69.85,-2.13 -128.36,-53.58 -139.37,-122.59l-153.42 -1065.83c-1.11,-6.17 -1.71,-12.46 -1.71,-18.72 0,-56.78 46.04,-102.82 102.82,-102.82 0.94,0 1.89,0.01 2.81,0.04l1004.95 0.01c69.38,2.13 127.64,53.03 139.09,121.49l153.69 1065.84c1.26,6.51 1.92,13.15 1.92,19.79 0,56.78 -46.04,102.82 -102.82,102.82 -0.99,0 -2.03,-0.02 -3,-0.05l-0.01 0.02z"/>
    <path fill="whitesmoke" fill-rule="nonzero" d="M7441.52 8476.19l-705.42 0c-50.33,-0.16 -91.17,-40.86 -91.45,-91.2l0 0.01c0.14,-50.44 41.02,-91.32 91.46,-91.46l705.41 0c50.33,0.29 91.03,41.12 91.18,91.46l0.01 0c-0.14,50.29 -40.9,91.04 -91.19,91.18l0 0.01z"/>
    <polygon fill="#E0E0E0" fill-rule="nonzero" points="7825.48,9575.85 7774.07,9575.85 7578.43,8476.19 7629.58,8476.19 "/>
    <polygon fill="#E0E0E0" fill-rule="nonzero" points="8714.63,9575.85 8663.22,9575.85 8467.58,8476.19 8518.99,8476.19 "/>
    <polygon fill="#E0E0E0" fill-rule="nonzero" points="7481.02,9575.85 7532.43,9575.85 7728.07,8476.19 7676.66,8476.19 "/>
    <polygon fill="#E0E0E0" fill-rule="nonzero" points="6591.88,9575.85 6643.02,9575.85 6838.93,8476.19 6787.52,8476.19 "/>
    <path fill="#EBEBEB" fill-rule="nonzero" d="M9220.89 8476.19l1542.35 0c50.33,-0.16 91.17,-40.86 91.45,-91.2l0 0.01c-0.15,-50.44 -41.03,-91.32 -91.46,-91.46l-1542.34 0c-50.43,0.14 -91.31,41.02 -91.45,91.46l-0.01 0c0.3,50.33 41.13,91.03 91.47,91.17l-0.01 0.02z"/>
    <polygon fill="#E0E0E0" fill-rule="nonzero" points="10997.02,8293.54 11048.43,8293.54 11244.06,7017.19 11192.93,7017.19 "/>
    <polygon fill="#E0E0E0" fill-rule="nonzero" points="10214.48,8293.54 10265.63,8293.54 10461.53,7017.19 10410.12,7017.19 "/>
    <path fill="#EBEBEB" fill-rule="nonzero" d="M10212.32 8037.03l1004.96 0c69.36,-2.25 127.54,-53.11 139.08,-121.52l153.43 -1065.83c1.11,-6.16 1.71,-12.45 1.71,-18.71 0,-56.78 -46.05,-102.82 -102.83,-102.82 -0.93,0 -1.88,0.01 -2.8,0.04l-1005.22 0.01c-69.33,2.16 -127.5,53.07 -138.81,121.49l-153.7 1064.76c-1.23,6.41 -1.87,12.97 -1.87,19.51 0,56.94 46.17,103.1 103.1,103.1 0.98,0 1.97,-0.01 2.94,-0.04l0.01 0.01z"/>
    <path fill="whitesmoke" fill-rule="nonzero" d="M10360.87 8476.19l705.42 0c50.29,-0.15 91.05,-40.9 91.19,-91.2l0 0.01c0,-0.01 0,-0.01 0,-0.01 0,-50.4 -40.78,-91.32 -91.19,-91.46l-705.42 0.01c-50.33,0.29 -91.04,41.12 -91.18,91.46l0 0c0.14,50.29 40.89,91.04 91.19,91.18l-0.01 0.01z"/>
    <polygon fill="#E0E0E0" fill-rule="nonzero" points="9976.91,9575.85 10028.32,9575.85 10223.95,8476.19 10172.82,8476.19 "/>
    <polygon fill="#E0E0E0" fill-rule="nonzero" points="9087.77,9575.85 9139.18,9575.85 9334.81,8476.19 9283.4,8476.19 "/>
    <polygon fill="#E0E0E0" fill-rule="nonzero" points="10321.36,9575.85 10269.95,9575.85 10074.32,8476.19 10125.73,8476.19 "/>
    <polygon fill="#E0E0E0" fill-rule="nonzero" points="11210.51,9575.85 11159.1,9575.85 10963.47,8476.19 11014.88,8476.19 "/>
    <path fill="#EBEBEB" fill-rule="nonzero" d="M3167.61 8476.19l1542.34 0c50.34,-0.16 91.18,-40.86 91.47,-91.2l-0.01 0.01c-0.14,-50.44 -41.01,-91.32 -91.45,-91.46l-1542.35 0c-50.43,0.14 -91.3,41.02 -91.45,91.46l-0.01 0c0.3,50.33 41.13,91.03 91.47,91.17l-0.01 0.02z"/>
    <polygon fill="#E0E0E0" fill-rule="nonzero" points="4944.01,8293.54 4995.15,8293.54 5190.78,7017.19 5139.64,7017.19 "/>
    <polygon fill="#E0E0E0" fill-rule="nonzero" points="4161.2,8293.54 4212.61,8293.54 4408.24,7017.19 4356.83,7017.19 "/>
    <path fill="#EBEBEB" fill-rule="nonzero" d="M4159.04 8037.03l1004.96 0c69.37,-2.25 127.55,-53.11 139.1,-121.52l153.42 -1065.83c1.11,-6.16 1.71,-12.45 1.71,-18.71 0,-56.78 -46.04,-102.82 -102.82,-102.82 -0.93,0 -1.89,0.01 -2.81,0.04l-1005.24 0.01c-69.31,2.16 -127.49,53.07 -138.8,121.49l-153.7 1064.76c-1.22,6.41 -1.86,12.97 -1.86,19.51 0,56.94 46.17,103.1 103.1,103.1 0.98,0 1.97,-0.01 2.95,-0.04l-0.01 0.01z"/>
    <path fill="whitesmoke" fill-rule="nonzero" d="M4308.13 8476.19l705.42 0c50.34,-0.16 91.17,-40.86 91.46,-91.2l0 0.01c-0.14,-50.44 -41.02,-91.32 -91.46,-91.46l-705.42 0c-50.32,0.29 -91.03,41.12 -91.17,91.46l-0.02 0c0.15,50.29 40.91,91.04 91.2,91.18l-0.01 0.01z"/>
    <polygon fill="#E0E0E0" fill-rule="nonzero" points="3923.63,9575.85 3975.04,9575.85 4170.67,8476.19 4119.53,8476.19 "/>
    <polygon fill="#E0E0E0" fill-rule="nonzero" points="3034.48,9575.85 3085.9,9575.85 3281.53,8476.19 3230.12,8476.19 "/>
    <polygon fill="#E0E0E0" fill-rule="nonzero" points="4268.08,9575.85 4216.67,9575.85 4021.04,8476.19 4072.45,8476.19 "/>
    <polygon fill="#E0E0E0" fill-rule="nonzero" points="5157.23,9575.85 5106.09,9575.85 4910.19,8476.19 4961.6,8476.19 "/>
   </g>
   <g id="freepik--Shadow--inject-2">
    <ellipse id="freepik--path--inject-2" fill="whitesmoke" fill-rule="nonzero" cx="5742.24" cy="10491.51" rx="5246.39" ry="306.31"/>
   </g>
   <g id="freepik--Flower--inject-2">
    <path fill="#6DA4FD" fill-rule="nonzero" d="M5011.65 5799.01c5.41,152.07 -258.14,491.92 -258.14,491.92 0,0 -287.09,-320.1 -292.5,-472.17 -5.41,-152.07 77.67,-278.44 265.45,-285.2 187.79,-6.76 280.6,113.38 285.19,265.45z"/>
    <rect fill="#263238" fill-rule="nonzero" x="4745.4" y="5808.48" width="18.4" height="4036.07"/>
    <path fill="#6DA4FD" fill-rule="nonzero" d="M4288.92 9722.78c-0.1,-0.01 -0.21,-0.01 -0.31,-0.01 -32.28,0 -58.45,26.17 -58.45,58.44 0,3.36 0.3,6.71 0.86,10.02 39.23,212.67 258.68,375.57 523.59,375.57 264.9,0 484.08,-162.35 523.31,-375.57 0.61,-3.39 0.93,-6.83 0.93,-10.28 0,-32.12 -26.06,-58.18 -58.18,-58.18 -0.13,0 -0.26,0 -0.38,0l-931.37 0.01z"/>
    <path fill="#6DA4FD" fill-rule="nonzero" d="M4608.49 6623.22c-97.21,-99.41 -217.57,-173.88 -349.88,-216.52 -110.39,113.42 -4.6,269.01 349.88,216.52z"/>
    <path fill="#263238" fill-rule="nonzero" d="M4749.19 6816.41c-84.97,-153.15 -270.59,-337.42 -492.2,-404.26l3.52 -11.9c225.66,67.65 413.45,254.89 499.5,410.21l-10.82 5.95z"/>
    <path fill="#6DA4FD" fill-rule="nonzero" d="M4555.17 7674.45c0,-365.3 -265.99,-466.77 -477.58,-296.3l0 0c-150.45,155.6 -8.12,367.73 477.58,296.3 -36.07,-35.97 -74.56,-70.33 -114.65,-101.82 40.09,31.49 78.58,65.85 114.68,101.8l-0.03 0.02z"/>
    <path fill="#263238" fill-rule="nonzero" d="M4749.19 7936.91c-116.09,-209.44 -369.36,-461.62 -673.22,-552.8l3.52 -11.91c307.39,92.27 563.36,346.9 680.53,558.76l-10.83 5.95z"/>
    <path fill="#6DA4FD" fill-rule="nonzero" d="M4941.84 7081.05c124.5,-127.86 278.84,-223.54 448.67,-278.19 140.4,146.14 6.73,345.29 -448.67,278.19z"/>
    <path fill="#263238" fill-rule="nonzero" d="M4760.01 7327.55l-10.82 -5.95c110.13,-198.88 350.14,-438.08 638.85,-524.67l3.52 11.9c-285.2,85.79 -522.78,322.27 -631.55,518.72z"/>
    <path fill="#6DA4FD" fill-rule="nonzero" d="M4951.59 8142.02c136.5,-184.58 316.65,-333.59 523.66,-432.87 205.02,163.36 68.91,440.17 -523.66,432.87z"/>
    <path fill="#263238" fill-rule="nonzero" d="M4760.28 8487.01l-11.63 -4.32c106.33,-272.21 371.24,-618.02 723.81,-777.94l5.15 11.36c-349.33,158.29 -612.07,501.4 -717.33,770.9z"/>
   </g>
   <g id="freepik--character-1--inject-2">
    <path fill="#6DA4FD" fill-rule="nonzero" d="M3396.25 9139.94l-1835.38 0c-59.76,-0.01 -108.22,-48.48 -108.22,-108.24l-0.01 0.01c0.01,-59.78 48.47,-108.24 108.24,-108.24l1835.37 0c59.78,0 108.24,48.46 108.24,108.23l0 0.01c0,59.75 -48.46,108.22 -108.23,108.22l-0.01 0.01z"/>
    <polygon fill="#263238" fill-rule="nonzero" points="1281.08,8922.38 1220.2,8922.38 987.23,7402.24 1048.11,7402.24 "/>
    <polygon fill="#263238" fill-rule="nonzero" points="2213.25,8922.38 2152.1,8922.38 1919.12,7402.24 1980.28,7402.24 "/>
    <path fill="#6DA4FD" fill-rule="nonzero" d="M2215.69 8617.98l-1196.81 0c-82.56,-2.64 -151.81,-63.28 -165.31,-144.77l-182.92 -1269.06c-1.3,-7.23 -1.98,-14.6 -1.98,-21.95 0,-67.84 55.01,-122.85 122.85,-122.85 1.02,0 2.05,0.03 3.06,0.04l1196.8 0.01c82.61,2.68 151.88,63.27 165.6,144.75l182.64 1269.06c1.31,7.22 1.99,14.59 1.99,21.94 0,67.84 -55.01,122.85 -122.85,122.85 -1.02,0 -2.05,-0.03 -3.06,-0.04l-0.01 0.02z"/>
    <path fill="white" fill-rule="nonzero" fill-opacity="0.400000" d="M670.64 7203.08l182.91 1269.05c4.61,30.7 17.86,59.56 38.18,83.06 43.83,51.68 121.76,23.54 112.57,-39.51l-195.12 -1356.17c-9.2,-63.05 -95.24,-90.91 -124.19,-39.5 -10.42,19.31 -15.89,40.97 -15.89,62.91 0,6.73 0.52,13.5 1.54,20.16z"/>
    <path fill="#6DA4FD" fill-rule="nonzero" d="M2038.73 9139.94l-838.82 0c-59.76,-0.01 -108.22,-48.48 -108.22,-108.24l-0.01 0.01c0.01,-59.78 48.47,-108.24 108.24,-108.24l838.81 0c59.77,0 108.24,48.46 108.24,108.23l-0.01 0.01c0.01,59.75 -48.46,108.22 -108.22,108.22l-0.01 0.01z"/>
    <path fill="white" fill-rule="nonzero" fill-opacity="0.400000" d="M2038.73 9139.94l-838.82 0c-59.76,-0.01 -108.22,-48.48 -108.22,-108.24l-0.01 0.01c0.01,-59.78 48.47,-108.24 108.24,-108.24l838.81 0c59.77,0 108.24,48.46 108.24,108.23l-0.01 0.01c0.01,59.75 -48.46,108.22 -108.22,108.22l-0.01 0.01z"/>
    <polygon fill="#263238" fill-rule="nonzero" points="2496.01,10449.03 2434.87,10449.03 2201.89,9139.94 2262.77,9139.94 "/>
    <polygon fill="#263238" fill-rule="nonzero" points="3554.82,10449.03 3493.66,10449.03 3260.7,9139.94 3321.84,9139.94 "/>
    <polygon fill="#263238" fill-rule="nonzero" points="2086.08,10449.03 2146.96,10449.03 2379.94,9139.94 2319.06,9139.94 "/>
    <polygon fill="#263238" fill-rule="nonzero" points="1027,10449.03 1088.16,10449.03 1321.13,9139.94 1260.25,9139.94 "/>
    <polygon fill="#FFB573" fill-rule="nonzero" points="4166.61,9191.35 3864.91,9322.58 4037.82,9524.44 4290.28,9415.12 "/>
    <polygon fill="#CC915C" fill-rule="nonzero" fill-opacity="0.200000" points="4166.61,9191.62 3864.64,9322.86 3961.78,9435.96 4235.88,9316.9 "/>
    <path fill="#6DA4FD" fill-rule="nonzero" d="M3984.78 9621.85l34.36 -6.49c20.48,-4 37.59,-18.06 45.48,-37.35l-0.02 0.01 21.65 11.09c8.88,4.41 18.67,6.71 28.58,6.71 3.85,0 7.71,-0.35 11.48,-1.03l469.2 -91.46c-3.77,-32.35 -16.01,-63.19 -35.45,-89.3 -19.44,-26.11 -208.07,28.95 -266.52,-22.19 -2.92,-2.72 -6.75,-4.25 -10.74,-4.25 -1.88,0 -3.74,0.34 -5.5,0.99 -38.16,16.24 -189.41,76.04 -283.03,63.86 -0.64,-0.05 -1.29,-0.08 -1.93,-0.08 -10.46,0 -18.94,8.48 -18.94,18.94 0,1.11 0.1,2.24 0.29,3.34 7.19,48.51 10.98,98.07 11.1,147.24l-0.01 -0.03z"/>
    <path fill="#6DA4FD" fill-rule="nonzero" d="M4284.86 9404.03l-1.62 0c-1.85,-0.67 -3.13,-2.38 -3.23,-4.34 -1.89,-30.58 12.72,-86.86 33.28,-96.6 2.14,-0.97 4.48,-1.49 6.84,-1.49 4.59,0 8.97,1.92 12.1,5.28 4.14,3.68 6.51,8.98 6.51,14.53 0,0.3 -0.01,0.6 -0.02,0.89 0,29.5 -48.17,78.47 -50.32,81.18 -0.77,0.42 -1.63,0.65 -2.5,0.65 -0.35,0 -0.69,-0.03 -1.02,-0.1l-0.02 0zm35.44 -92.81l-2.71 0c-12.99,6.23 -25.71,45.46 -27.06,74.68 15.7,-17.31 39.23,-47.08 38.97,-64.39 -0.01,-3.08 -1.28,-6.02 -3.5,-8.13 -1.37,-1.4 -3.25,-2.18 -5.21,-2.18 -0.16,0 -0.31,0.01 -0.48,0.01l-0.01 0.01z"/>
    <path fill="#6DA4FD" fill-rule="nonzero" d="M4329.51 9407.54c-15.19,-0.09 -30.45,-1.3 -45.46,-3.54 -1.98,-0.33 -3.56,-1.81 -4.05,-3.77 -0.05,-0.31 -0.08,-0.64 -0.08,-0.96 0,-1.61 0.72,-3.16 1.97,-4.18 23.27,-19.22 77.66,-40.86 97.41,-29.76 5.33,3.03 8.62,8.68 8.62,14.81 0,0.93 -0.08,1.86 -0.22,2.77 -0.88,5.75 -3.99,10.9 -8.66,14.35 -13.2,6.89 -27.9,10.52 -42.8,10.52 -2.23,0 -4.49,-0.09 -6.71,-0.25l-0.02 0.01zm-31.39 -11.9c8.55,1.62 17.23,2.43 25.93,2.43 16.74,0 33.38,-3.03 49.03,-8.92 2.54,-1.76 4.22,-4.52 4.6,-7.58 0,-4.87 0,-6.5 -2.98,-7.58 -12.46,-6.76 -51.95,5.96 -76.58,21.65z"/>
    <path fill="#263238" fill-rule="nonzero" d="M1454.53 8241.32l129.34 270.59c190.76,399.65 661.04,600.7 1036.34,443.48 219.17,-92.26 458.37,-286.28 622.34,-375.03 139.36,304.96 399.93,641.83 599.35,875.9l403.72 -202.95c-150.72,-346.07 -385.59,-886.17 -534.41,-1237.12 -54.43,-126.22 -176.29,-210.35 -313.59,-216.48 -672.15,-19.2 -1943.09,441.61 -1943.09,441.61z"/>
    <polygon fill="#FFB573" fill-rule="nonzero" points="3416.01,10077.25 3087.25,10061.83 3153.54,10319.42 3428.18,10332.41 "/>
    <polygon fill="black" fill-rule="nonzero" fill-opacity="0.200000" points="3416.01,10077.25 3086.97,10061.83 3124.04,10206.05 3422.77,10220.12 "/>
    <path fill="#6DA4FD" fill-rule="nonzero" d="M3102.94 10454.98l35.18 0c0.16,0 0.32,0 0.48,0 20.56,0 39.82,-10.12 51.49,-27.06l-0.02 0.01 18.94 14.62c10.85,8.56 24.29,13.24 38.13,13.24 0.1,0 0.21,0 0.3,0l477.58 0.01c0.39,-4.87 0.59,-9.78 0.59,-14.66 0,-27.6 -6.23,-54.93 -18.17,-79.79 -11.95,-24.85 -209.71,-11.36 -257.33,-72.78 -2.72,-3.95 -7.21,-6.3 -12.01,-6.3 -1.05,0 -2.1,0.11 -3.14,0.34 -40.59,8.38 -199.42,38.42 -290.06,8.38 -1.84,-0.57 -3.77,-0.87 -5.69,-0.87 -10.38,0 -18.83,8.36 -18.94,18.73 -2.05,48.93 -8.14,98.09 -17.33,146.12l0 0.01z"/>
    <path fill="#6DA4FD" fill-rule="nonzero" d="M3440.36 10298.59c-0.43,0.11 -0.88,0.18 -1.34,0.18 -0.46,0 -0.91,-0.07 -1.35,-0.19 -1.39,-0.9 -2.23,-2.43 -2.23,-4.09 0,-0.25 0.02,-0.52 0.06,-0.78 4.06,-30.03 28.96,-82.79 51.15,-88.2 1.34,-0.37 2.73,-0.55 4.12,-0.55 5.57,0 10.76,2.86 13.73,7.56 2.57,3.56 3.96,7.85 3.96,12.23 0,1.45 -0.15,2.88 -0.45,4.29 -5.14,29.23 -62.5,67.92 -64.94,69.54 -0.43,0.14 -0.89,0.21 -1.35,0.21 -0.46,0 -0.92,-0.07 -1.35,-0.21l-0.01 0.01zm50.33 -84.7l-1.63 0c-14.07,3.52 -33.82,39.78 -41.4,67.92 18.94,-13.8 47.35,-38.42 50.61,-55.74 0.15,-0.73 0.23,-1.48 0.23,-2.23 0,-2.32 -0.74,-4.57 -2.13,-6.43 -1.18,-1.86 -3.24,-2.98 -5.45,-2.98 -0.07,0 -0.15,0 -0.22,0l-0.01 -0.54z"/>
    <path fill="#6DA4FD" fill-rule="nonzero" d="M3511.52 10313.47c-24.79,-1.53 -49.41,-6.69 -72.78,-15.15 -1.86,-0.67 -3.13,-2.38 -3.24,-4.34 -0.02,-0.16 -0.03,-0.33 -0.03,-0.49 0,-1.79 0.93,-3.46 2.46,-4.39 27.06,-14.34 84.15,-25.17 101.47,-10.55 3.84,3.02 6.09,7.65 6.09,12.55 0,2.09 -0.42,4.18 -1.21,6.12 -1.93,5.53 -6.04,10.03 -11.36,12.45 -6.16,2.52 -12.76,3.83 -19.42,3.83 -0.65,0 -1.31,-0.01 -1.96,-0.04l-0.02 0.01zm-57.63 -20.56c16.39,6.44 33.88,9.76 51.49,9.76 7.77,0 15.56,-0.66 23.2,-1.93 2.83,-1.29 5.06,-3.61 6.23,-6.49 1.35,-4.61 0,-6.76 -1.63,-8.12 -9.75,-9.19 -51.96,-4.04 -79.29,6.78z"/>
    <path fill="#263238" fill-rule="nonzero" d="M1266.48 8134.17l2.16 286c3.51,421.85 360.69,544.43 788.21,576.63 249.21,18.4 586.09,24.09 780.37,20.29 28.41,295.49 120.68,897.53 213.5,1149.72l419.94 -29.23c11.1,-357.98 27.06,-865.88 40.86,-1202.49 0.03,-0.89 0.03,-1.92 0.03,-2.83 0,-136.26 -78.37,-260.48 -201.33,-319.16 -629.66,-310.63 -2043.74,-478.93 -2043.74,-478.93z"/>
    <path fill="black" fill-rule="nonzero" fill-opacity="0.200000" d="M3257.99 8615.81c71.86,143.82 155.76,283.05 249.56,413.85 -2.17,58.99 -4.32,121.76 -6.76,186.7 -148.55,-234.59 -243.53,-600.97 -243.53,-600.97l0.73 0.42z"/>
    <path fill="#FFB573" fill-rule="nonzero" d="M2636.72 6482.24l27.06 13.79 33.56 16.78c23,10.55 46.26,21.37 69.81,30.84 45.68,19.04 92.95,35.43 140.65,48.48 44.27,11.86 89.68,20.02 135.37,24.06 12.31,0.95 24.87,1.42 37.27,1.42 28.2,0 56.46,-2.47 84.2,-7.37l-81.19 48.71c25.16,-19.05 46.57,-42.82 62.82,-69.84 24.78,-38.14 47.41,-78.23 67.08,-119.36 21.91,-43.83 42.21,-90.11 62.23,-137.46l59.53 -143.13 2.97 -6.76c18.05,-43.15 60.29,-71.25 107.09,-71.25 60.06,0 110.21,45.83 115.61,105.64 2.93,35.96 4.63,72.17 4.63,108.23 0,23.22 -0.63,46.74 -1.87,69.8 -3.03,59.66 -10.05,119.54 -20.66,178.4 -11.15,62.84 -28.5,124.81 -51.07,184.48 -26.84,73.13 -67.58,140.6 -119.63,198.56 -17,18.37 -38.04,32.55 -61.41,41.42l-20.03 7.3c-78.76,29.16 -161.73,45.92 -245.66,49.24 -13.95,0.46 -28.28,0.94 -42.26,0.94 -64.72,0 -129.55,-6.51 -192.95,-19.04 -73.1,-14.12 -145.23,-35.46 -214.56,-62.84 -34.09,-13.79 -67.91,-27.06 -100.66,-44.65 -16.5,-8.38 -32.73,-16.77 -49.24,-27.06l-24.89 -14.61 -28.69 -17.59c-67.61,-41.6 -108.83,-115.38 -108.83,-194.84 0,-126.4 102.51,-228.91 228.91,-228.91 35.92,0 71.41,8.49 103.44,24.7l21.37 11.92z"/>
    <path fill="#FFB573" fill-rule="nonzero" d="M3424.94 6321.78l-90.92 -97.14c-52.49,-128.79 125.02,-167.49 125.02,-167.49l77.92 -54.12c10.8,-6.32 23.11,-9.65 35.61,-9.65 20.81,0 40.54,9.18 53.96,25.06l63.59 67.37c14.68,13.81 23.01,33.09 23.01,53.23 0,18.01 -6.65,35.4 -18.67,48.8l-59.26 56.82c-17.24,16.54 -38.39,28.56 -61.43,34.91l-148.83 42.21z"/>
    <path fill="#6DA4FD" fill-rule="nonzero" d="M2170.5 6287.15c55.74,-74.95 226.49,-55.74 400.2,113.65 43.02,-1.89 154.51,99.04 283.85,131.77 129.34,32.74 171.82,265.18 148.28,357.99 -24.63,97.41 -73.33,162.35 -194.02,175.07 -120.69,12.72 -279.51,-65.21 -407.5,-162.35 -127.99,-97.15 -330.11,-483.27 -230.81,-616.13z"/>
    <path fill="#6DA4FD" fill-rule="nonzero" d="M2106.91 6227.62c-241.8,0.9 -483.64,25.23 -721.1,70 -136.32,28.19 -234.1,148.45 -234.1,287.74 0,25.75 3.42,51.42 10.05,76.27 178.05,676.46 77.39,1417.05 91.46,1552.62 0,0 1417.33,204.03 1634.61,-216.47 115.55,-561.2 -204.29,-788.22 -374.48,-1457.92 -52.65,-181.64 -217.29,-308.18 -406.41,-312.25l-0.03 0.01z"/>
    <path fill="white" fill-rule="nonzero" fill-opacity="0.800000" d="M2106.91 6227.62c-241.8,0.9 -483.64,25.23 -721.1,70 -136.32,28.19 -234.1,148.45 -234.1,287.74 0,25.75 3.42,51.42 10.05,76.27 178.05,676.46 77.39,1417.05 91.46,1552.62 0,0 1417.33,204.03 1634.61,-216.47 115.55,-561.2 -204.29,-788.22 -374.48,-1457.92 -52.65,-181.64 -217.29,-308.18 -406.41,-312.25l-0.03 0.01z"/>
    <g>
     <path fill="#6DA4FD" fill-rule="nonzero" fill-opacity="0.039216" d="M1442.9 8168.8l0 0c-3.27,-0.4 -5.74,-3.17 -5.74,-6.46 0,-0.29 0.02,-0.57 0.05,-0.86 0,-7.92 0.81,-16.31 2.44,-25.15 0.42,-3.4 3.3,-5.96 6.73,-5.96 0.1,0 0.21,0 0.31,0.01 3.24,0.25 5.74,2.95 5.74,6.2 0,0.28 -0.02,0.55 -0.05,0.83 0,8.93 0,17.59 -2.43,25.71 -0.4,3.25 -3.17,5.7 -6.46,5.7 -0.19,0 -0.4,-0.01 -0.59,-0.03l0 0.01z"/>
     <path fill="#6DA4FD" fill-rule="nonzero" fill-opacity="0.200000" d="M1448.58 8091.14l0 0c-3.37,-0.28 -5.96,-3.1 -5.96,-6.47 0,-0.1 0,-0.2 0.01,-0.3 0,-16.51 0,-33.82 0,-52.22 0.15,-3.53 2.97,-6.36 6.5,-6.5l-0.01 0.02c3.52,0.27 6.23,3.21 6.23,6.73 0,0.01 0,0.01 0,0.02 0,18.4 0,35.99 -1.63,52.49 0.01,0.03 0.01,0.06 0.01,0.09 0,3.02 -2.17,5.61 -5.14,6.14l-0.01 0zm2.16 -104.71c-3.58,-0.01 -6.48,-2.92 -6.48,-6.51l0 -2.97c0,-16.24 0,-32.47 0,-49.52 -0.01,-0.08 -0.01,-0.17 -0.01,-0.27 0,-3.43 2.79,-6.23 6.23,-6.23 0,0 0,0 0.01,0 0.08,-0.01 0.17,-0.01 0.26,-0.01 3.44,0 6.23,2.8 6.23,6.23 0,0.09 0,0.19 -0.01,0.28 0,16.77 0,33.28 0,49.24l0 3.25c0,0.01 0,0.01 0,0.01 0,3.48 -2.74,6.34 -6.23,6.49l0 0.01zm-1.35 -104.99c-3.42,0 -6.21,-2.79 -6.21,-6.23 0,-17.31 0,-34.64 -1.35,-52.49 -0.01,-0.1 -0.01,-0.19 -0.01,-0.28 0,-3.49 2.75,-6.35 6.22,-6.48l-0.01 0c3.6,-0.01 6.51,2.89 6.51,6.48 0,17.86 0,35.18 0,52.49 0.01,0.1 0.01,0.19 0.01,0.28 0,3.44 -2.79,6.23 -6.23,6.23 0,0 0,0 -0.01,0l1.08 0zm-2.98 -104.71c0.01,-0.01 0.01,-0.01 0.01,-0.01 -3.48,0 -6.34,-2.75 -6.49,-6.23 0,-17.32 0,-34.91 -2.16,-52.5 0,-0.01 0,-0.01 0,-0.02 0,-3.52 2.71,-6.45 6.21,-6.74l-0.01 0.01c0.02,-0.01 0.02,-0.01 0.02,-0.01 3.48,0 6.34,2.74 6.49,6.23 0,17.86 0,35.18 2.17,52.5 0,0.01 0,0.01 0,0.02 0,3.52 -2.71,6.45 -6.22,6.74l-0.02 0.01zm-4.59 -105.8c0,-0.01 0,-0.01 0,-0.01 -3.34,0 -6.08,-2.63 -6.22,-5.96 0,-17.32 -1.89,-34.91 -2.71,-52.5 0,-0.09 0,-0.18 0,-0.28 0,-3.38 2.58,-6.2 5.96,-6.48l-0.01 0.01c3.43,0.12 6.22,2.79 6.49,6.22l2.44 52.22c0.03,0.18 0.04,0.37 0.04,0.55 0,3.34 -2.64,6.1 -5.98,6.23l-0.01 0zm-5.41 -104.72c-3.34,-0.13 -6.09,-2.65 -6.49,-5.97 0,-17.31 -1.89,-34.9 -2.97,-52.49 -0.01,-3.59 2.89,-6.5 6.48,-6.5 3.59,0 6.49,2.91 6.49,6.5 0,17.59 1.9,35.18 2.98,52.49 0.01,0.11 0.01,0.2 0.01,0.3 0,3.37 -2.6,6.2 -5.96,6.47l-0.54 -0.8zm-6.23 -104.45c0,-0.01 0,-0.01 0,-0.01 -3.48,0 -6.34,-2.74 -6.49,-6.23 0,-17.31 -2.16,-34.9 -3.51,-52.22 -0.03,-0.18 -0.04,-0.36 -0.04,-0.54 0,-3.44 2.8,-6.23 6.23,-6.23 0.01,0 0.02,0 0.02,0 0.19,-0.01 0.37,-0.02 0.56,-0.02 3.34,0 6.09,2.64 6.22,5.98 0,17.32 2.17,34.91 3.52,52.22 0,0.09 0,0.19 0,0.28 0,3.49 -2.75,6.35 -6.23,6.48l-0.28 0.29zm-7.04 -104.71c0.01,-0.01 0.01,-0.01 0.01,-0.01 -3.48,0 -6.34,-2.75 -6.48,-6.23 0,-17.32 -2.44,-34.91 -3.79,-52.22 -0.01,-3.59 2.9,-6.5 6.49,-6.5 3.59,0 6.49,2.91 6.49,6.5 0,17.31 2.44,34.64 3.79,52.22 0,0.1 0,0.2 0,0.29 0,3.53 -2.71,6.47 -6.23,6.74l-0.28 -0.79zm-7.84 -104.72c0,-0.01 0,-0.01 0,-0.01 -3.34,0 -6.08,-2.63 -6.22,-5.96l-4.06 -52.22c-0.09,-0.43 -0.13,-0.88 -0.13,-1.32 0,-3.59 2.9,-6.49 6.49,-6.49 3.59,0 6.49,2.9 6.49,6.49 0,0.44 -0.05,0.89 -0.13,1.32l4.06 52.22c0.01,0.18 0.02,0.38 0.02,0.56 0,3.39 -2.61,6.21 -5.97,6.48l-0.55 -1.07zm-8.12 -104.44c0,-0.02 0,-0.02 -0.01,-0.02 -3.38,0 -6.19,-2.58 -6.48,-5.95l-4.32 -52.22c-0.02,-0.19 -0.03,-0.39 -0.03,-0.59 0,-3.28 2.45,-6.05 5.7,-6.44 0.28,-0.04 0.54,-0.06 0.82,-0.06 3.36,0 6.11,2.66 6.23,6.01l4.33 52.22c0.01,0.18 0.02,0.39 0.02,0.58 0,3.28 -2.46,6.06 -5.71,6.44l-0.55 0.03zm-8.93 -104.73c-0.09,0 -0.19,0 -0.29,0 -3.23,0 -5.93,-2.47 -6.21,-5.69 -1.62,-17.86 -3.25,-35.18 -4.86,-52.22 -0.01,-0.23 -0.02,-0.45 -0.02,-0.68 0,-3.6 2.92,-6.52 6.52,-6.52 3.35,0 6.15,2.52 6.5,5.85 1.62,17.31 3.25,34.64 4.6,52.49 0.01,0.19 0.02,0.38 0.02,0.56 0,3.25 -2.49,5.95 -5.72,6.21l-0.54 0zm-9.75 -102.82c-3.23,-0.1 -5.96,-2.48 -6.48,-5.69 -1.63,-17.85 -3.25,-35.44 -5.15,-52.21 -0.01,-0.2 -0.02,-0.39 -0.02,-0.58 0,-3.38 2.6,-6.2 5.98,-6.47 0.28,-0.04 0.56,-0.06 0.84,-0.06 3.25,0 5.95,2.5 6.2,5.74 1.63,17.04 3.52,34.36 5.15,52.21 0.01,0.2 0.02,0.39 0.02,0.58 0,3.38 -2.61,6.2 -5.98,6.47l-0.56 0.01zm-10.28 -104.17c-0.08,0 -0.17,0 -0.26,0 -3.34,0 -6.09,-2.63 -6.22,-5.96 -1.99,-18.03 -3.89,-35.36 -5.7,-51.94 0,-0.22 -0.01,-0.43 -0.01,-0.64 0,-3.32 2.43,-6.16 5.71,-6.68 0.18,-0.02 0.38,-0.03 0.56,-0.03 3.39,0 6.21,2.61 6.48,5.97 1.89,16.25 3.78,33.83 5.68,51.96 0.03,0.28 0.05,0.57 0.05,0.86 0,3.29 -2.46,6.06 -5.73,6.45l-0.56 0.01z"/>
     <path fill="#6DA4FD" fill-rule="nonzero" fill-opacity="0.200000" d="M1366.32 6731.18c-0.04,0 -0.09,0 -0.14,0 -2.92,0 -5.45,-2.02 -6.09,-4.88l-2.97 -25.71c0.25,-3.4 3.07,-6.04 6.49,-6.04 2.89,0 5.44,1.91 6.24,4.69l2.97 24.09c0.06,0.31 0.08,0.65 0.08,0.98 0,3.28 -2.28,6.13 -5.49,6.86l-1.09 0.01z"/>
    </g>
    <path fill="#FFB573" fill-rule="nonzero" d="M1537.87 6963.88l-32.21 73.06 -33.28 77.39c-22.19,51.95 -42.75,104.45 -63.31,156.4 -20.57,51.95 -38.16,104.99 -55.74,156.94 -17.58,51.95 -31.66,104.17 -44.65,155.86l-7.58 -94.44c1.46,3.66 2.2,7.56 2.2,11.5 0,0.4 -0.01,0.81 -0.02,1.21 3.58,7.1 6.6,14.58 8.95,22.18 9.46,18.8 20.5,36.94 32.72,54.11 29.62,42.53 62.53,83.75 97.48,122.04 36.53,41.67 76.04,83.07 116.89,124.47l124.13 125.03 3.78 3.79c20.77,21.54 32.39,50.36 32.39,80.31 0,63.95 -51.86,115.81 -115.81,115.81 -13.23,0 -26.42,-2.28 -38.86,-6.72 -60.8,-23.32 -120.52,-50.64 -178.08,-81.08 -57.71,-30.1 -114.63,-64.12 -168.59,-100.66 -57.7,-38.91 -112.41,-83.21 -162.32,-131.86 -28.09,-27.64 -54.34,-57.32 -78.16,-88.72 -12.99,-18.13 -25.43,-37.07 -37.07,-56.01 -11.91,-23.27 -22.74,-47.09 -33.01,-71.17 -7.21,-17.06 -10.95,-35.42 -10.95,-53.9 0,-4.41 0.22,-8.86 0.65,-13.25l2.71 -27.06c6,-66.81 15.82,-134.19 29.2,-200 13.5,-65.46 30.57,-130.67 50.55,-194.43 18.94,-63.59 41.13,-125.28 65.48,-186.44 12.45,-30.3 24.89,-60.88 38.96,-90.91 7.04,-14.88 13.8,-30.04 21.38,-44.92l24.62 -47.63c39.83,-75.03 117.85,-121.95 202.73,-121.95 126.71,0 229.46,102.75 229.46,229.46 0,30.7 -6.16,61.16 -18.12,89.42l-6.52 12.17z"/>
    <path fill="#FFB573" fill-rule="nonzero" d="M1631.23 7995.63l-45.73 70.09c-30.03,135.29 151.26,144.22 151.26,144.22l85.77 39.5c8,3.05 16.49,4.62 25.05,4.62 24.87,0 47.9,-13.21 60.47,-34.66l51.41 -77.12c9.65,-12.76 14.91,-28.33 14.91,-44.34 0,-22.2 -10.07,-43.22 -27.37,-57.13l-68.19 -46c-19.69,-13.45 -42.53,-21.76 -66.28,-24.09l-105.8 -10.82c-2.64,-0.26 -5.32,-0.4 -7.97,-0.4 -27.13,0 -52.47,13.56 -67.53,36.11l0 0.02z"/>
    <path fill="#6DA4FD" fill-rule="nonzero" d="M1331.68 6367.51c-91.72,-17.05 -216.47,160.73 -235.95,357.18 -77.93,81.18 -85.23,214.57 -149.1,331.74 -129.06,240.28 -20.82,319.56 64.41,364.47 181.83,96.33 385.58,60.62 439.7,-47.61 54.12,-108.24 112.29,-235.42 128.53,-394.25 22.99,-233.79 -85.24,-579.86 -247.59,-611.53z"/>
    <path fill="white" fill-rule="nonzero" d="M2679.75 6925.73l-315.78 24.08c-16.45,-0.29 -30.82,-11.26 -35.43,-27.07l-43.57 -137.73c-1.23,-2.76 -1.86,-5.75 -1.86,-8.77 0,-11.11 8.41,-20.41 19.45,-21.54l316.04 -24.35c16.49,0.21 30.91,11.21 35.45,27.06l43.29 137.46c1.39,2.9 2.11,6.08 2.11,9.29 0,11.2 -8.54,20.54 -19.69,21.56l-0.01 0.01z"/>
    <path fill="#FFB573" fill-rule="nonzero" d="M2118.01 6300.68c-21.37,-35.7 -54.18,-63.2 -93.07,-77.95 -10.24,-22.39 -15.56,-46.79 -15.56,-71.43 0,-14.61 1.87,-29.18 5.53,-43.3l-438.36 -110.67c43.29,140.16 77.39,250.84 28.96,323.08 87.67,46.26 243.53,135.29 412.91,144.76 127.19,6.79 130.71,-106.59 99.59,-164.49z"/>
    <path fill="black" fill-rule="nonzero" fill-opacity="0.200000" d="M2012.21 6121.55l-324.7 0c108.23,101.73 263.01,132.85 330.11,84.68 -5.54,-17.06 -8.39,-34.95 -8.39,-52.91 0,-10.65 1.03,-21.31 2.99,-31.77l-0.01 0z"/>
    <path fill="#E0E0E0" fill-rule="nonzero" d="M2073.9 5834.72c54.12,-75.49 68.72,-187.78 27.06,-203.2 3.52,-76.31 -5.69,-156.4 -81.18,-169.66 -8.64,-1.53 -17.46,-2.32 -26.27,-2.32 -81.47,0 -148.03,65.09 -149.86,146.54 -108.79,125.28 64.92,270.58 230.25,228.64z"/>
    <path fill="#FFB573" fill-rule="nonzero" d="M1494.03 5766.54c54.12,199.42 93.9,333.91 228.1,395.6 267.34,122.58 385.05,-15.97 392.62,-227.84 6.76,-189.41 -81.18,-485.16 -295.48,-523.85 -16.78,-3.03 -33.85,-4.59 -50.91,-4.59 -157.19,0 -284.66,127.47 -284.66,284.65 0,25.68 3.51,51.3 10.36,76.04l-0.03 -0.01z"/>
    <path fill="#263238" fill-rule="nonzero" d="M1960.52 5947.02c11.29,-0.53 22.56,-2.09 33.56,-4.6 2.53,-0.51 4.35,-2.73 4.35,-5.31 0,-0.58 -0.09,-1.17 -0.28,-1.72 -0.9,-2.8 -3.51,-4.7 -6.45,-4.7 -0.37,0 -0.75,0.03 -1.13,0.09 -12.43,2.84 -25.21,4.29 -37.96,4.29 -38.49,0 -75.89,-13.07 -105.99,-37.03 -1.15,-1.05 -2.64,-1.63 -4.2,-1.63 -1.55,0 -3.05,0.58 -4.19,1.63 -1.18,1.08 -1.85,2.61 -1.85,4.2 0,1.6 0.67,3.12 1.85,4.19 31.9,26.37 72.05,40.82 113.44,40.82 2.95,0 5.93,-0.09 8.86,-0.22l-0.01 -0.01z"/>
    <path fill="#E0E0E0" fill-rule="nonzero" d="M1515.41 5908.06c78.19,-51.69 129.34,-152.34 96.32,-181.29 29.76,-70.09 42.22,-172.1 -16.5,-186.7 -58.72,-14.61 -171.28,-19.49 -215.11,74.68 -147.2,79.27 -34.37,275.44 135.29,293.31z"/>
    <path fill="black" fill-rule="nonzero" fill-opacity="0.200000" d="M1767.06 5751.93c-7.34,-1.79 -14.9,-2.7 -22.47,-2.7 -17.35,0 -34.4,4.78 -49.23,13.8 2.65,0.09 5.39,0.17 8.06,0.17 21.7,0 43.29,-3.83 63.65,-11.27l-0.01 0z"/>
    <path fill="black" fill-rule="nonzero" fill-opacity="0.200000" d="M1768.68 5769.24c-0.41,0 -0.88,-0.01 -1.31,-0.01 -22.76,0 -44.4,9.89 -59.3,27.07 21.91,-4.57 42.59,-13.84 60.63,-27.07l-0.02 0.01z"/>
    <path fill="black" fill-rule="nonzero" fill-opacity="0.200000" d="M2046.03 5698.62c0,0 14.61,-21.65 27.06,-12.18 -7.11,7.38 -16.8,11.74 -27.04,12.18l-0.02 0z"/>
    <path fill="black" fill-rule="nonzero" fill-opacity="0.200000" d="M2050.9 5714.31c0,0 11.64,-19.21 22.19,-3.25 -3.57,3.48 -8.37,5.41 -13.35,5.41 -3.07,0 -6.1,-0.74 -8.83,-2.16l-0.01 0z"/>
    <path fill="black" fill-rule="nonzero" fill-opacity="0.200000" d="M1945.1 5523.55c-7.21,-0.18 -14.56,-0.4 -21.85,-0.4 -53.81,0 -107.4,7.51 -159.13,22.08 60.53,-3.75 121.41,-11.34 181.08,-21.72l-0.1 0.04z"/>
    <path fill="black" fill-rule="nonzero" fill-opacity="0.200000" d="M1971.89 5552.5c0,0 -139.08,8.93 -204.83,47.63 69.38,-9.5 138.39,-25.54 204.89,-47.56l-0.06 -0.07z"/>
    <path fill="#FFB573" fill-rule="nonzero" d="M1458.32 5971.92c30.57,41.85 76.71,69.75 127.99,77.37 67.92,9.75 93.63,-54.12 67.92,-113.11 -23.54,-54.12 -87.14,-123.65 -152.08,-105.79 -37.97,10.85 -64.16,45.58 -64.16,85.08 0,20.6 7.21,40.58 20.34,56.45l-0.01 0z"/>
    <path fill="#263238" fill-rule="nonzero" d="M1822.8 5751.93c3.25,16.5 14.88,27.06 25.43,25.71 10.56,-1.35 16.77,-17.59 13.53,-33.82 -3.24,-16.23 -14.61,-27.06 -25.43,-25.71 -10.82,1.35 -17.59,17.31 -13.53,33.82z"/>
    <path fill="#263238" fill-rule="nonzero" d="M1997.87 5718.91c3.25,16.51 14.62,27.06 25.44,25.71 10.82,-1.35 16.77,-17.31 13.53,-33.82 -3.25,-16.5 -14.88,-27.06 -25.44,-25.71 -10.55,1.35 -17.05,17.32 -13.53,33.82z"/>
    <path fill="#FF8B7B" fill-rule="nonzero" d="M1943.75 5743.54l27.06 138.54c1.65,0.07 3.34,0.11 5,0.11 27.76,0 54.68,-9.62 76.18,-27.17 -25.31,-46.19 -62.77,-84.83 -108.22,-111.49l-0.02 0.01z"/>
    <path fill="#E0E0E0" fill-rule="nonzero" d="M1760.02 5712.96c-0.83,0.21 -1.69,0.31 -2.56,0.31 -0.87,0 -1.73,-0.1 -2.57,-0.31 -4.11,-1.24 -6.92,-5.03 -6.92,-9.33 0,-0.96 0.14,-1.93 0.43,-2.85 8.52,-30.79 31.41,-55.6 61.42,-66.57 0.9,-0.26 1.84,-0.39 2.78,-0.39 4.39,0 8.24,2.93 9.4,7.17 0.22,0.84 0.34,1.71 0.34,2.59 0,4.41 -2.89,8.31 -7.11,9.59l-0.01 0c-23.69,9.31 -41.51,29.45 -47.88,54.11 -1.36,2.97 -4.09,5.1 -7.31,5.68l-0.01 0z"/>
    <path fill="#E0E0E0" fill-rule="nonzero" d="M2082.56 5649.91c-0.61,0.13 -1.25,0.19 -1.88,0.19 -2.63,0 -5.17,-1.04 -7.04,-2.89 -14.6,-16.21 -35.43,-25.46 -57.26,-25.46 -3.11,0 -6.23,0.19 -9.32,0.56 -0.65,0.15 -1.33,0.23 -2.02,0.23 -4.73,0 -8.78,-3.41 -9.6,-8.07 -0.08,-0.53 -0.13,-1.08 -0.13,-1.62 0,-4.79 3.31,-8.94 7.97,-10.01 4.65,-0.68 9.4,-1.02 14.11,-1.02 27.35,0 53.44,11.47 71.94,31.6 1.84,1.82 2.87,4.3 2.87,6.89 0,2.59 -1.03,5.07 -2.86,6.9 -1.64,1.74 -3.92,2.72 -6.3,2.72 -0.15,0 -0.32,-0.01 -0.47,-0.01l-0.01 -0.01z"/>
    <path fill="#6DA4FD" fill-rule="nonzero" d="M2146.42 6660.83c-231.36,-22.46 -700.28,-330.66 -519.79,-396.14 115.8,127.45 324.7,160.73 414.81,160.73 33.55,-31.93 65.48,-122.31 -16.51,-202.67 94.16,-8.12 282.75,281.4 121.49,438.08z"/>
   </g>
   <g id="freepik--character-3--inject-2">
    <path fill="#6DA4FD" fill-rule="nonzero" d="M8224.32 9128.03l1835.39 0c59.76,-0.02 108.23,-48.48 108.23,-108.25l0.01 0.01c-0.01,-59.77 -48.48,-108.24 -108.24,-108.24l-1835.39 0.01c-59.76,-0.01 -108.23,48.46 -108.23,108.22l0 0.01c0,59.76 48.47,108.22 108.23,108.22l0 0.02z"/>
    <polygon fill="#263238" fill-rule="nonzero" points="10339.5,8910.75 10400.65,8910.75 10633.62,7390.6 10572.47,7390.6 "/>
    <polygon fill="#263238" fill-rule="nonzero" points="9407.33,8910.75 9468.48,8910.75 9701.45,7390.6 9640.57,7390.6 "/>
    <path fill="#6DA4FD" fill-rule="nonzero" d="M9404.89 8605.26l1196.8 0c82.6,-2.7 151.87,-63.29 165.6,-144.78l182.64 -1269.05c1.31,-7.22 1.98,-14.59 1.98,-21.95 0,-67.83 -55.01,-122.84 -122.84,-122.84 -1.03,0 -2.06,0.03 -3.06,0.04l-1196.8 0c-82.58,2.62 -151.83,63.25 -165.34,144.75l-182.92 1269.05c-1.29,7.24 -1.96,14.61 -1.96,21.96 0,67.84 55.01,122.85 122.84,122.85 1.03,0 2.06,-0.03 3.06,-0.04l0 0.01z"/>
    <path fill="white" fill-rule="nonzero" fill-opacity="0.400000" d="M10949.94 7191.44l-182.64 1269.05c-4.82,30.72 -18.15,59.52 -38.43,83.08 -43.83,51.68 -121.76,23.54 -112.56,-39.51l195.36 -1356.17c8.93,-63.05 94.98,-91.19 123.93,-39.51 10.46,19.19 15.94,40.74 15.94,62.62 0,6.84 -0.54,13.68 -1.59,20.43l-0.01 0.01z"/>
    <path fill="#6DA4FD" fill-rule="nonzero" d="M9581.86 9128.03l838.82 0c59.76,-0.02 108.23,-48.48 108.23,-108.25l0 0.01c0,-59.77 -48.47,-108.24 -108.23,-108.24l-838.82 0.01c-59.77,-0.01 -108.23,48.46 -108.23,108.22l-0.01 0.01c0.01,59.76 48.47,108.22 108.24,108.22l0 0.02z"/>
    <path fill="white" fill-rule="nonzero" fill-opacity="0.400000" d="M9581.86 9128.03l838.82 0c59.76,-0.02 108.23,-48.48 108.23,-108.25l0 0.01c0,-59.77 -48.47,-108.24 -108.23,-108.24l-838.82 0.01c-59.77,-0.01 -108.23,48.46 -108.23,108.22l-0.01 0.01c0.01,59.76 48.47,108.22 108.24,108.22l0 0.02z"/>
    <polygon fill="#263238" fill-rule="nonzero" points="9124.84,10437.4 9185.72,10437.4 9418.96,9128.3 9357.81,9128.3 "/>
    <polygon fill="#263238" fill-rule="nonzero" points="8066.03,10437.4 8126.91,10437.4 8359.89,9128.3 8299.01,9128.3 "/>
    <polygon fill="#263238" fill-rule="nonzero" points="9534.77,10437.4 9473.62,10437.4 9240.65,9128.3 9301.79,9128.3 "/>
    <polygon fill="#263238" fill-rule="nonzero" points="10593.57,10437.4 10532.43,10437.4 10299.45,9128.3 10360.6,9128.3 "/>
    <path fill="#263238" fill-rule="nonzero" d="M8552.28 6261.98c65.48,85.77 99.58,63.32 143.67,-44.91 27.06,-69.55 104.99,-38.97 123.13,-162.36 7.3,-51.14 -154.78,-149.63 -243.54,-123.12 -88.76,26.51 -73.32,263.56 -23.26,330.39z"/>
    <path fill="black" fill-rule="nonzero" d="M8687.57 6819.66c-19.67,-5.7 -40.16,-8.61 -60.67,-8.61 -97.44,0 -183.09,64.58 -209.91,158.22l-4.33 14.62 -11.36 39.77 -13.26 43.83c-9.47,29.23 -18.94,58.45 -29.76,86.86 -19.54,54.54 -43.23,108.36 -70.13,159.72 -21.8,41.88 -49.21,80.93 -81.15,115.78 -9.13,9.96 -19.33,19.07 -30.29,27.04 -16.25,-10.55 -32.74,-21.65 -49.25,-34.1 -43.98,-33.13 -87.03,-69.31 -127.65,-106.7 -43.02,-38.43 -84.96,-79.56 -127.17,-121.76 -42.21,-42.21 -84.42,-86.6 -124.74,-127.18l-4.87 -4.86c-20.71,-20.47 -48.66,-32.01 -77.78,-32.01 -60.82,0 -110.13,49.31 -110.13,110.13 0,13.27 2.4,26.45 7.08,38.86 23.88,61.83 52.07,122.76 83.68,181.03 31.32,58.35 66.34,115.75 103.84,170.42 39,57.28 82.82,111.73 129.91,162.4 51.57,56.49 110.46,106.58 174.47,148.51 26.05,16.38 56.15,25.32 86.88,25.73l16.24 0.01c0.83,0 1.7,0 2.51,0 60.27,0 120.07,-11.55 176.05,-33.82 51.98,-20.83 100.52,-49.67 143.74,-85.22 72.21,-60.4 133.93,-132.8 182.03,-213.75 42.95,-70.63 79.33,-145.48 108.23,-222.77 14.34,-37.61 27.06,-74.95 38.7,-113.11 5.69,-19.21 11.36,-38.42 16.24,-57.9l7.04 -29.5 7.3 -33.27c3.59,-15.77 5.41,-32.01 5.41,-48.23 0,-97.06 -63.87,-182.6 -156.91,-210.16l0.01 0.02z"/>
    <path fill="#FFB573" fill-rule="nonzero" d="M7357.91 7082.13l68.19 54.12c27.03,21.38 58.49,36.76 92,44.92l93.36 23c8.96,2.17 18.2,3.3 27.44,3.3 34.69,0 67.56,-15.65 89.44,-42.56l0 0.02c16.85,-20.53 26.09,-46.29 26.09,-72.86 0,-33.03 -14.26,-64.48 -39.08,-86.26 -34.89,-27.82 -73.78,-50.39 -115.25,-66.82l-95.52 -56.01c-11.78,-6.88 -25.17,-10.51 -38.8,-10.51 -22.87,0 -44.57,10.19 -59.17,27.81l-60.07 72.79c-11.36,13.76 -17.59,31.08 -17.59,48.94 0,23.4 10.66,45.53 28.96,60.11l0 0.01z"/>
    <path fill="#263238" fill-rule="nonzero" d="M9218.19 6675.17c-223.77,18.13 -475.42,46.54 -665.11,135.29 -82.39,40.46 -134.67,124.34 -134.67,216.15 0,11.86 0.88,23.79 2.62,35.49 28.41,211.6 50.6,375.57 102.27,549.83 111.75,378.82 -159.11,544.69 92.81,837.47 110.4,125.28 787.14,243.53 1266.35,85.77 62.23,-258.95 33.01,-782 -44.38,-1358.88 -37.83,-287.72 -283.26,-502.99 -573.54,-502.99 -15.46,0 -30.94,0.63 -46.33,1.84l-0.02 0.03z"/>
    <path fill="black" fill-rule="nonzero" d="M9705.24 7456.62c124.74,585.28 30.85,740.87 -210.52,904.03 -338.77,52.49 -474.6,-87.4 -474.6,-87.4l685.12 -816.63z"/>
    <path fill="white" fill-rule="nonzero" d="M8926.76 7542.94l293.59 1.89c0.02,-0.01 0.03,-0.01 0.04,-0.01 14.42,0 26.3,-11.31 27.03,-25.71l7.84 -125.82c0.13,-0.98 0.19,-1.98 0.19,-2.99 0,-12.94 -10.25,-23.58 -23.19,-24.06l-293.58 -1.89c-0.02,-0.01 -0.03,-0.01 -0.04,-0.01 -14.42,0 -26.31,11.31 -27.03,25.71l-7.85 125.82c-0.14,1.07 -0.21,2.17 -0.21,3.25 0,12.92 10.31,23.48 23.22,23.8l-0.01 0.02z"/>
    <g>
     <path fill="white" fill-rule="nonzero" fill-opacity="0.039216" d="M8767.93 7140.57c-4.04,-0.04 -7.67,-2.49 -9.19,-6.24 -0.33,-0.99 -0.49,-2.03 -0.49,-3.08 0,-4.16 2.56,-7.88 6.44,-9.36 166.41,-58.99 402.9,-211.33 477.04,-307.66 1.73,-3.04 4.96,-4.93 8.47,-4.93 5.38,0 9.75,4.37 9.75,9.75 0,2.55 -1.01,5 -2.79,6.82 -84.96,110.13 -330.93,259.22 -487.05,314.15 -0.7,0.3 -1.43,0.48 -2.18,0.54l0 0.01z"/>
     <path fill="white" fill-rule="nonzero" fill-opacity="0.200000" d="M8932.72 7156.81l-2.98 0c-158.29,-48.97 -223.77,-210.52 -237.57,-297.64 -0.1,-0.58 -0.15,-1.15 -0.15,-1.72 0,-4.76 3.55,-8.79 8.27,-9.4 0.47,-0.06 0.95,-0.1 1.43,-0.1 4.75,0 8.77,3.52 9.39,8.22 13.25,83.34 75.22,236.5 224.32,282.77 4.09,1.14 6.91,4.87 6.91,9.12 0,0.94 -0.14,1.88 -0.42,2.78 -1.52,3.62 -5.06,5.97 -8.98,5.97 -0.07,0 -0.15,0 -0.22,0z"/>
    </g>
    <path fill="#FFB573" fill-rule="nonzero" d="M9078.56 6367.78c-4.32,111.48 25.17,281.14 110.4,345.53 18.24,13.58 28.99,34.99 28.99,57.74 0,24.82 -12.81,47.91 -33.86,61.05 -61.96,39.51 -230.54,125.28 -314.69,125.28 -84.14,0 -132.86,-93.09 -123.39,-138.81 5.54,-21.81 17.87,-41.37 35.19,-55.75 56.82,-51.68 15.15,-104.99 -8.12,-143.67l305.48 -251.37z"/>
    <path fill="black" fill-rule="nonzero" fill-opacity="0.200000" d="M8986.84 6523.09c-1.94,-6.8 -4.31,-13.51 -7.04,-20.02l-207 116.09c20.56,25.79 33.35,57.01 36.8,89.82 104.18,-41.93 195.91,-122.02 177.24,-185.89z"/>
    <path fill="#FFB573" fill-rule="nonzero" d="M7721.04 9858.89c34.09,-35.72 255.7,-103.64 255.7,-103.64 57.39,165.71 105.76,336.31 142.96,507.97l-286.28 28.68c0,0 -46.9,-289.88 -112.38,-433.01z"/>
    <path fill="#6DA4FD" fill-rule="nonzero" d="M9070.45 8309.51c-828,11.63 -1917.64,-32.74 -1660.85,721.92 109.85,323.08 17.59,213.22 146.12,604.22 54.12,168.58 74.14,218.08 114.18,334.98 43.83,104.44 307.39,84.96 405.89,44.11 116.89,-62.24 17.85,-230.27 4.32,-324.71 -66.56,-461.89 55.47,-409.67 -89.56,-712.45 264.08,38.42 1106.15,11.63 1217.64,-442.41 -2.45,0.01 150.16,-181.01 -137.74,-225.66z"/>
    <path fill="black" fill-rule="nonzero" fill-opacity="0.400000" d="M9070.45 8309.51c-828,11.63 -1917.64,-32.74 -1660.85,721.92 109.85,323.08 17.59,213.22 146.12,604.22 54.12,168.58 74.14,218.08 114.18,334.98 43.83,104.44 307.39,84.96 405.89,44.11 116.89,-62.24 17.85,-230.27 4.32,-324.71 -66.56,-461.89 55.47,-409.67 -89.56,-712.45 264.08,38.42 1106.15,11.63 1217.64,-442.41 -2.45,0.01 150.16,-181.01 -137.74,-225.66z"/>
    <path fill="#263238" fill-rule="nonzero" d="M7737.27 10025.02l35.44 69.81c3.59,7.34 11.05,12.02 19.23,12.02 1.36,0 2.72,-0.13 4.05,-0.39 46.81,-8.12 186.7,-30.58 267.88,-20.57 0.81,0.1 1.64,0.15 2.47,0.15 11.48,0 20.97,-8.97 21.62,-20.45 1.62,-27.06 1.35,-63.31 0,-85.5 -0.3,-11.88 -10.03,-21.37 -21.92,-21.37 0,0 -0.01,0 -0.01,0 -105.82,0.89 -211.77,12.9 -315,34.98 -9.54,2.61 -16.16,11.34 -16.16,21.29 0,3.48 0.83,6.92 2.4,10.03z"/>
    <path fill="#263238" fill-rule="nonzero" d="M8182.12 10444.7l-31.67 -201.31c-2.1,-9.07 -10.19,-15.5 -19.5,-15.5 -0.53,0 -1.07,0.02 -1.61,0.07l-293.58 1.35c-2.3,-0.14 -4.63,-0.22 -6.94,-0.22 -21.31,0 -42.17,6.29 -59.9,18.08 -66.03,54.12 -168.58,108.23 -317.4,135.29 -47.09,9.21 -27.06,102.56 83.34,102.02 182.64,0 175.07,-6.5 330.65,-7.04 133.13,0 166.41,5.95 272.21,7.04 1.54,0.16 3.09,0.25 4.62,0.25 21.96,0 39.78,-17.81 39.78,-39.77 0,-0.09 0,-0.18 0,-0.27l0 0.01z"/>
    <path fill="#FFB573" fill-rule="nonzero" d="M9113.2 6101.52c0,202.94 10.28,320.92 -87.94,437.27 -147.74,175.08 -408.86,114.73 -470.83,-81.18 -55.73,-175.34 -46,-477.85 151.54,-583.11 197.53,-105.27 407.5,24.36 407.23,227.02z"/>
    <path fill="#263238" fill-rule="nonzero" d="M8738.98 6191.09c-1.35,18.4 7.3,33.82 19.22,34.64 11.91,0.82 23,-13.26 24.35,-31.67 1.35,-18.4 -7.31,-34.09 -19.22,-34.9 -11.92,-0.81 -23,13.53 -24.35,31.93z"/>
    <path fill="#263238" fill-rule="nonzero" d="M8549.02 6186.76c-1.62,18.4 7.04,34.1 18.94,34.91 11.91,0.81 23.01,-13.53 24.36,-31.93 1.35,-18.4 -7.04,-33.82 -18.94,-34.64 -11.91,-0.82 -23,13.26 -24.36,31.66z"/>
    <path fill="#263238" fill-rule="nonzero" d="M9072.07 6273.34c-99.85,41.14 -117.98,4.61 -101.2,-111.2 10.56,-74.15 -71.17,-86.59 -24.35,-202.67 19.49,-47.63 209.16,-51.41 270.59,15.7 61.42,67.11 -67.11,266.25 -145.04,298.17z"/>
    <path fill="#263238" fill-rule="nonzero" d="M9030.67 6012.23c-228.38,19.75 -521.69,20.83 -562.82,-146.93 -27.06,-113.65 109.86,-283.85 320.92,-118.24 146.93,114.72 289.53,43.83 361.24,68.46 65.2,22.46 191.03,169.65 -119.34,196.71z"/>
    <path fill="#263238" fill-rule="nonzero" d="M9178.68 5983.01c-10.42,-0.08 -20.86,-1.09 -31.11,-2.96 -6.08,-1.13 -10.5,-6.43 -10.5,-12.6 0,-7.07 5.73,-12.8 12.79,-12.8 0.77,0 1.55,0.08 2.31,0.21 8.3,2.36 16.94,3.56 25.58,3.56 19.99,0 39.47,-6.37 55.59,-18.16 11.83,-9.81 18.69,-24.41 18.69,-39.79 0,-0.45 -0.01,-0.91 -0.02,-1.35 -0.01,-0.16 -0.01,-0.35 -0.01,-0.53 0,-6.87 5.57,-12.45 12.45,-12.45 0,0 0.01,0 0.01,0l0 -0.01c0.09,0 0.18,0 0.27,0 6.87,0 12.45,5.58 12.45,12.45 0,0 0,0 0,0 0.03,1.1 0.06,2.21 0.06,3.31 0,22.36 -9.94,43.55 -27.12,57.84 -18.74,15.14 -42.1,23.41 -66.18,23.41 -1.75,0 -3.52,-0.06 -5.26,-0.14l0 0.01z"/>
    <path fill="#263238" fill-rule="nonzero" d="M8764.96 6399.18c-9.63,2.8 -19.52,4.71 -29.49,5.66 -0.19,0.02 -0.39,0.03 -0.57,0.03 -2.64,0 -4.86,-2 -5.13,-4.63 -0.04,-0.27 -0.06,-0.55 -0.06,-0.83 0,-2.66 2.03,-4.88 4.68,-5.12 44.46,-3.81 84.6,-28.4 108.22,-66.29 0.84,-1.83 2.67,-3.01 4.68,-3.01 0.82,0 1.63,0.19 2.36,0.57 1.67,0.97 2.7,2.75 2.7,4.69 0,0.81 -0.18,1.61 -0.53,2.35 -19.08,32.72 -50.3,56.66 -86.86,66.57l0 0.01z"/>
    <path fill="#263238" fill-rule="nonzero" d="M8797.43 6080.42c0.39,-0.06 0.8,-0.09 1.2,-0.09 3.39,0 6.49,1.92 8,4.95 10.98,21.76 31.68,37.04 55.73,41.13 0.2,-0.02 0.39,-0.03 0.59,-0.03 5.38,0 9.75,4.37 9.75,9.75 0,5.38 -4.37,9.75 -9.75,9.75 -0.75,0 -1.48,-0.09 -2.21,-0.26 -30.46,-4.67 -56.84,-23.73 -70.89,-51.14 -0.79,-1.42 -1.21,-3.01 -1.21,-4.64 0,-3.48 1.92,-6.7 5,-8.34 1.1,-0.71 2.37,-1.09 3.67,-1.09 0.04,0 0.08,0 0.12,0l0 0.01z"/>
    <path fill="#263238" fill-rule="nonzero" d="M8586.64 6085.02c2.21,0.19 4.25,1.26 5.68,2.96 1.83,1.79 2.85,4.23 2.85,6.77 0,2.55 -1.02,4.98 -2.84,6.76 -17.8,18.15 -42.21,28.41 -67.65,28.41 -5.34,0 -10.7,-0.45 -15.97,-1.35 -4.26,-1.01 -7.28,-4.83 -7.28,-9.21 0,-0.73 0.08,-1.44 0.24,-2.15 1.03,-4.42 4.96,-7.55 9.49,-7.55 0.73,0 1.45,0.08 2.15,0.24 4.01,0.66 8.1,1.01 12.18,1.01 20.18,0 39.53,-8.18 53.58,-22.65 1.98,-2.07 4.72,-3.24 7.57,-3.25l0 0.01z"/>
    <path fill="#FFB573" fill-rule="nonzero" d="M9196 6299.6c-22.63,43.72 -61.54,76.94 -108.24,92.53 -62.78,19.48 -96.06,-36.26 -81.18,-96.33 14.07,-54.12 63.85,-129.61 127.71,-122.84 42.07,5.3 73.62,41.09 73.62,83.48 0,15.19 -4.13,30.13 -11.9,43.15l-0.01 0.01z"/>
    <path fill="#ED893E" fill-rule="nonzero" d="M8641.3 6193.26c-14.21,51.75 -35.75,101.56 -63.6,147.46 14.47,8.25 30.88,12.63 47.56,12.63 10.99,0 21.92,-1.9 32.27,-5.61l-16.23 -154.48z"/>
    <path fill="#FFB573" fill-rule="nonzero" d="M8547.94 9843.47c30.3,-38.97 243.53,-129.08 243.53,-129.08 73.91,159.41 139.37,324.09 193.54,490.91l-281.96 57.37c0,0 -75.55,-283.37 -155.11,-419.2z"/>
    <path fill="#6DA4FD" fill-rule="nonzero" d="M9176.52 8254.03c-813.66,55.48 -1443.04,57.1 -1083.97,768.74 153.69,304.41 100.93,239.2 268.15,615.31 71.97,162.35 95.78,209.44 147.73,321.46 54.12,99.58 314.43,54.12 405.89,3.25 110.13,-73.87 -5.41,-231.07 -27.06,-324.7 -112.83,-452.69 15.15,-384.78 -157.49,-672.95 266.53,13.8 1175.97,103.36 1151.62,-431.04 0.82,1.08 -132.58,-280.07 -704.87,-280.07z"/>
    <path fill="black" fill-rule="nonzero" fill-opacity="0.400000" d="M9176.52 8254.03c-813.66,55.48 -1443.04,57.1 -1083.97,768.74 153.69,304.41 100.93,239.2 268.15,615.31 71.97,162.35 95.78,209.44 147.73,321.46 54.12,99.58 314.43,54.12 405.89,3.25 110.13,-73.87 -5.41,-231.07 -27.06,-324.7 -112.83,-452.69 15.15,-384.78 -157.49,-672.95 266.53,13.8 1175.97,103.36 1151.62,-431.04 0.82,1.08 -132.58,-280.07 -704.87,-280.07z"/>
    <path fill="#263238" fill-rule="nonzero" d="M8580.95 10007.98l42.22 66.02c4.04,6.24 10.97,10.01 18.41,10.01 2,0 4.01,-0.27 5.94,-0.82 46,-12.72 182.64,-49.24 264.63,-47.62 0.09,0.01 0.19,0.01 0.3,0.01 11.95,0 21.65,-9.7 21.65,-21.65 0,-0.36 -0.01,-0.73 -0.03,-1.09 0,-27.06 -5.15,-62.77 -7.85,-84.96 -1.32,-11.02 -10.66,-19.31 -21.76,-19.31 -0.69,0 -1.37,0.03 -2.05,0.09 -105.05,11.7 -209.2,34.26 -309.86,66.86 -8.92,2.95 -14.96,11.34 -14.96,20.78 0,4.13 1.16,8.18 3.36,11.66l0 0.02z"/>
    <path fill="#263238" fill-rule="nonzero" d="M9065.85 10366.51l-58.71 -203.75c-2.84,-7.68 -10.14,-12.77 -18.3,-12.77 -1.58,0 -3.17,0.19 -4.71,0.58l-290.34 43.83c-23.57,1.84 -45.92,11.34 -63.58,27.06 -73.5,85.84 -174.86,143.31 -286.26,162.35 -47.09,9.21 -27.07,102.56 83.33,102.02 182.38,0 174.54,-23.81 328.49,-46.55 116.63,-17.04 165.87,-17.59 270.58,-27.06 22.05,-0.07 39.9,-17.99 39.9,-40.05 0,-1.89 -0.13,-3.8 -0.41,-5.68l0.01 0.02z"/>
    <path fill="#FFB573" fill-rule="nonzero" d="M8371.25 8210.48l84.69 -19.75c16.82,-3.71 34.05,-5.6 51.28,-5.6 17.23,0 34.45,1.89 51.27,5.58l93.9 19.22c43.61,8.88 78.26,42.06 89.02,85.24l0 0c2.32,9.16 3.51,18.64 3.51,28.11 0,51.22 -34.07,96.23 -83.34,110.14 -33.97,8.11 -68.87,12.3 -103.82,12.3 -9.55,0 -19.27,-0.33 -28.77,-0.92l-110.4 9.47c-2.16,0.17 -4.36,0.27 -6.54,0.27 -35.09,0 -65.78,-23.69 -74.63,-57.65l-23.27 -91.46c-1.75,-6.51 -2.65,-13.28 -2.65,-20.04 0,-35.84 24.8,-66.96 59.75,-74.92l0 0.01z"/>
    <path fill="#263238" fill-rule="nonzero" d="M9714.44 7230.14c-5.69,-75.76 -12.45,-148.28 -24.09,-226.48 -15.92,-107.28 -108.04,-186.77 -216.52,-186.77 -120.88,0 -218.91,98.03 -218.91,218.91 0,6.49 0.32,13.07 0.88,19.53l0 3.25 17.86 205.65c6.23,69.26 11.36,138.81 15.96,207.26 2.17,34.37 4.06,68.46 5.41,102.28 1.35,33.82 2.98,67.65 3.26,100.67 0,40.85 0,81.18 0,120.14 -30.58,21.65 -63.05,43.57 -96.06,64.94 -61.7,39.51 -125.83,79.56 -191.31,117.98 -65.48,38.42 -131.77,77.66 -198.34,116.35 -66.57,38.69 -135.29,77.93 -199.69,117.7l-1.89 0c-25.92,17.44 -41.47,46.66 -41.47,77.89 0,12.76 2.62,25.39 7.65,37.1 18.67,57.64 55.47,99.04 114.46,86.05 79.82,-17.59 155.86,-38.96 232.7,-61.96 76.85,-23 152.34,-48.71 227.84,-76.85 75.49,-28.13 150.99,-57.9 225.94,-93.62 79.31,-35.49 156.33,-77.81 229.12,-125.54 37.29,-25.44 63.45,-64.2 73.11,-108.26l3.52 -16.24c16.74,-79.96 27.86,-161.78 33.2,-243.41 6.23,-78.47 7.3,-154.77 7.03,-231.08 -0.26,-76.3 -4.24,-150.54 -9.66,-225.49z"/>
   </g>
   <g id="freepik--character-2--inject-2">
    <path fill="#FF8B7B" fill-rule="nonzero" d="M5968.72 7183.87c-11.64,-74.68 -148.82,-106.07 -148.82,-106.07l-81.18 -33.28c-7.29,-3.06 -15.14,-4.63 -23.05,-4.63 -20.86,0 -40.23,10.88 -51.08,28.71l-39.24 63.04c-5.88,9.53 -8.99,20.51 -8.99,31.71 0,21.3 11.24,41.05 29.56,51.9l74.41 43.83c13.2,7.84 28,12.75 43.29,14.34l62.23 6.49c4.74,0.5 9.53,0.75 14.31,0.75 48.6,0 93.7,-25.45 118.82,-67.04l3.78 -5.95c4,-5.99 6.14,-13.05 6.14,-20.25 0,-1.18 -0.07,-2.38 -0.18,-3.56l0 0.01z"/>
    <path fill="#FF8B7B" fill-rule="nonzero" d="M6899.27 6594c-29.76,129.88 -62.78,367.99 25.71,457.83 -169.82,35.52 -327.21,116.17 -455.36,233.18 -86.31,-173.17 49.79,-245.97 49.79,-245.97 146.65,-30.04 146.39,-138.27 124.19,-240.28l255.67 -204.76z"/>
    <path fill="#E0E0E0" fill-rule="nonzero" d="M6440.62 7160.6c45.19,-138 -63.59,-165.61 122.58,-222.43 145.58,-44.65 416.7,-32.47 478.39,16.77 34.37,27.07 -18.13,110.67 -18.13,110.67l-582.84 94.99z"/>
    <path fill="#FF8B7B" fill-rule="nonzero" d="M7125.74 7287.5l-9.2 11.36 -7.85 9.75 -15.7 17.86c-10.27,11.64 -21.1,22.46 -31.66,33.55 -21.37,21.38 -43.29,41.94 -66.02,61.97 -45.02,39.69 -93.52,76.09 -144.23,108.19 -25.17,16.5 -51.69,30.84 -77.67,45.72 -25.97,14.88 -54.12,27.06 -81.18,39.23 -55.36,24.39 -112.8,44.39 -171.23,59.61l-7.57 1.9c-7.91,2.23 -16.11,3.4 -24.33,3.4 -3,0 -6.01,-0.16 -8.98,-0.46 -40.75,-3.98 -80.75,-14.73 -117.99,-31.69 -29.56,-13.02 -58.75,-28.01 -86.57,-44.58 -51.56,-30.8 -101.34,-64.75 -149.02,-101.18 -46.59,-36.11 -91.71,-73.2 -135.36,-111.26 -43.02,-38.97 -84.69,-77.67 -125.55,-120.42 -12.28,-12.57 -19.15,-29.47 -19.15,-47.05 0,-37.2 30.17,-67.37 67.37,-67.37 12.29,0 24.34,3.35 34.85,9.7l1.35 0c47.35,27.06 95.24,57.1 143.13,84.16 47.9,27.06 95.79,54.12 143.41,81.18 47.63,27.06 95.52,50.06 142.07,70.63 21.77,9.79 44.36,18.52 67.09,25.68 14.63,5.09 29.98,8.04 45.46,8.66l-40.85 4.87c44.61,-16.88 88.62,-37.08 130.62,-59.56 42.27,-22.26 83.38,-47.71 122.32,-75.21 39.34,-27.35 77.24,-57.38 113.18,-89.21 18.13,-15.7 35.45,-31.93 52.22,-48.71l24.35 -25.17 11.36 -12.18 9.2 -10.01 7.31 -8.12c25.34,-25.34 59.73,-39.56 95.56,-39.56 74.7,0 135.29,60.58 135.29,135.29 0,28.36 -8.92,56.02 -25.49,79.03l-0.54 0z"/>
    <path fill="#6DA4FD" fill-rule="nonzero" d="M6114.29 7334.05c0,87.94 -143.95,286.54 23.27,409.66 14.61,178.05 34.36,353.39 72.52,645.89l892.94 27.06c-85.23,-324.7 -11.91,-539.27 124.19,-1101.28 4.24,-17.46 6.41,-35.46 6.41,-53.41 0,-113.07 -83.78,-208.76 -195.82,-223.69 -35.45,-4.6 -73.33,-8.92 -111.75,-11.9 -96.9,-10.08 -195.47,-15.25 -292.99,-15.25 -37.56,0 -75.81,1.03 -113.04,2.41 -43.83,2.71 -89.29,6.76 -132.59,11.64 -155.29,16.68 -273.17,147.98 -273.17,304.37 0,1.46 0.04,3.06 0.04,4.48l-0.01 0.02z"/>
    <path fill="black" fill-rule="nonzero" fill-opacity="0.400000" d="M6114.29 7334.05c0,87.94 -143.95,286.54 23.27,409.66 14.61,178.05 34.36,353.39 72.52,645.89l892.94 27.06c-85.23,-324.7 -11.91,-539.27 124.19,-1101.28 4.24,-17.46 6.41,-35.46 6.41,-53.41 0,-113.07 -83.78,-208.76 -195.82,-223.69 -35.45,-4.6 -73.33,-8.92 -111.75,-11.9 -96.9,-10.08 -195.47,-15.25 -292.99,-15.25 -37.56,0 -75.81,1.03 -113.04,2.41 -43.83,2.71 -89.29,6.76 -132.59,11.64 -155.29,16.68 -273.17,147.98 -273.17,304.37 0,1.46 0.04,3.06 0.04,4.48l-0.01 0.02z"/>
    <path fill="#263238" fill-rule="nonzero" d="M6445.77 6390.51c-2.44,15.97 -13.26,27.06 -23.81,27.06 -10.56,0 -17.05,-16.24 -14.34,-32.47 2.71,-16.23 13.25,-27.06 23.81,-27.06 10.55,0 18.12,16.23 14.34,32.47z"/>
    <path fill="#263238" fill-rule="nonzero" d="M6437.1 6359.67l-37.07 -17.32c0,0 14.88,33.55 37.07,17.32z"/>
    <path fill="#FF5652" fill-rule="nonzero" d="M6437.64 6405.94c-20.24,34.59 -45.29,66.34 -74.13,94.16 13.08,13 30.8,20.34 49.26,20.34 2.25,0 4.51,-0.12 6.74,-0.33l18.13 -114.17z"/>
    <path fill="#263238" fill-rule="nonzero" d="M6423.85 6296.08c-2.44,-0.76 -4.42,-2.54 -5.42,-4.88 -0.72,-1.33 -1.09,-2.82 -1.09,-4.34 0,-3.62 2.12,-6.9 5.42,-8.38 13.56,-7.08 28.66,-10.79 43.97,-10.79 15.31,0 30.41,3.71 43.97,10.8 2.83,1.84 4.53,4.99 4.53,8.36 0,1.71 -0.44,3.4 -1.28,4.89 -1.71,2.84 -4.8,4.59 -8.12,4.59 -1.72,0 -3.4,-0.47 -4.87,-1.35 -10.34,-4.95 -21.69,-7.52 -33.17,-7.52 -12.68,0 -25.2,3.15 -36.37,9.14 -1.03,0.39 -2.11,0.58 -3.19,0.58 -1.54,0 -3.04,-0.38 -4.39,-1.11l0.01 0.01z"/>
    <path fill="#FF8B7B" fill-rule="nonzero" d="M6990.45 6422.71c-43.57,196.99 -57.91,281.13 -172.63,367.73 -172.63,129.88 -400.2,33.55 -415.08,-172.37 -13.53,-185.35 60.07,-476.23 263.82,-524.93 203.75,-48.7 367.73,132.59 323.89,329.57z"/>
    <path fill="#263238" fill-rule="nonzero" d="M6522.61 6467.36c37.07,183.72 216.47,334.98 351.76,329.3 135.29,-5.67 334.72,-262.19 329.03,-454.32 -5.68,-192.12 -140.16,-361.77 -359.6,-351.76 -219.45,10.01 -500.05,22.46 -321.19,476.78z"/>
    <path fill="#263238" fill-rule="nonzero" d="M6770.47 6063.92c-166.68,-172.37 -397.77,-49.24 -429.96,132.59 97.15,-18.94 177.77,117.43 303.87,109.86 144.49,-8.67 218.62,-146.13 126.09,-242.45z"/>
    <path fill="#6DA4FD" fill-rule="nonzero" d="M6963.12 6099.91c22.74,-163.98 189.41,-132.6 257.33,-47.35 67.92,85.24 98.5,346.35 -68.19,289.79 -166.69,-56.55 -200.5,-159.65 -189.14,-242.44z"/>
    <path fill="#263238" fill-rule="nonzero" d="M7116.81 6158.35c-29.76,-186.98 105.26,-593.67 437,-437.27 274.37,129.34 -102.82,818.25 274.37,943.27 -143.13,218.36 -634.25,-21.65 -711.37,-506z"/>
    <path fill="#263238" fill-rule="nonzero" d="M7865.53 6750.93l-2.43 0c-201.05,-79.82 -206.73,-395.06 -211.33,-649.41 -3.25,-164.78 -5.69,-307.11 -59.53,-341.47 -10.07,-5.29 -21.29,-8.05 -32.68,-8.05 -12.69,0 -25.15,3.43 -36.06,9.94 -0.81,0.39 -1.72,0.59 -2.63,0.59 -2.52,0 -4.79,-1.51 -5.75,-3.83 -0.34,-0.83 -0.51,-1.71 -0.51,-2.6 0,-2.57 1.46,-4.92 3.76,-6.06 12.41,-6.9 26.39,-10.52 40.58,-10.52 14.2,0 28.18,3.62 40.59,10.51 59.53,38.16 62.23,183.73 65.21,351.77 4.6,249.75 10.28,560.38 203.21,636.96 2.54,0.93 4.22,3.35 4.22,6.06 0,0.79 -0.14,1.58 -0.42,2.31 -1.15,2.32 -3.51,3.79 -6.08,3.79 -0.06,0 -0.11,0 -0.15,0l0 0.01z"/>
    <path fill="#FF8B7B" fill-rule="nonzero" d="M6610.27 6493.88c-27.06,44.37 -39.23,63.59 -73.6,75.49 -7.27,3.05 -15.11,4.63 -23.01,4.63 -32.71,0 -59.25,-26.53 -59.25,-59.25 0,-7.13 1.3,-14.22 3.8,-20.88 14.07,-46 57.91,-110.95 108.23,-106.34 32.94,4.52 57.5,32.68 57.5,65.94 0,14.59 -4.81,28.8 -13.67,40.4l0 0.01z"/>
    <polygon fill="white" fill-rule="nonzero" points="6489.32,6589.12 6462.27,6646.76 6435.21,6589.12 6462.27,6531.76 "/>
    <path fill="#FF8B7B" fill-rule="nonzero" d="M6544.53 8403.67c0,0 -752.51,-38.69 -1248.21,185.62 -154.24,69.81 -178.05,186.44 -205.38,353.39 -113.92,701.1 -291.15,1407.05 -291.15,1407.05l168.85 50.06c0,0 629.65,-925.14 543.33,-1427.07 1168.67,247.86 1538.29,-140.44 1538.29,-140.44l-505.73 -428.61z"/>
    <path fill="#263238" fill-rule="nonzero" d="M4807.9 10318.61c-9.47,-2.98 -17.31,2.71 -25.71,7.3 -61.16,33.01 -60.88,34.9 -225.4,51.69 -54.12,5.68 -61.16,56.01 72.52,97.95l327.41 102.82c32.21,10.01 90.92,-66.57 46.27,-193.47 -3.24,-8.86 -11.39,-15.01 -20.81,-15.7 -60.71,-5.71 -119.93,-22.99 -174.25,-50.61l-0.03 0.02z"/>
    <path fill="#FF8B7B" fill-rule="nonzero" d="M6986.93 8465.36c0,0 -598.54,-99.84 -1093.71,122.31 -137.06,61.14 -225.35,197.28 -225.35,347.39 0,17.84 1.3,35.67 3.76,53.33 100.66,703.52 351.77,1529.62 351.77,1529.62l176.14 -2.71c0,0 -12.99,-982.23 -99.3,-1484.17 99.58,32.47 269.23,33.28 357.17,29.23 324.71,-15.42 589.88,-103.09 549.57,-425.36l-20.05 -169.64z"/>
    <path fill="#263238" fill-rule="nonzero" d="M6014.45 10485.02c-9.75,0 -15.43,7.58 -22.2,14.61 -48.16,50.06 -47.62,51.41 -199.69,117.16 -50.86,21.92 -41.39,71.44 98.77,71.44l343.11 0.01c33.55,0 66.83,-90.92 -13.8,-198.34 -4.52,-5.91 -11.51,-9.37 -18.93,-9.37 -1.92,0 -3.83,0.23 -5.71,0.69 -33.14,6.93 -67,10.47 -100.85,10.47 -27.01,0 -54.14,-2.28 -80.73,-6.66l0.03 -0.01z"/>
    <path fill="#263238" fill-rule="nonzero" d="M6210.08 8389.6c0,0 -478.94,-2.97 -840.45,145.58 0,509.52 211.33,713.54 211.33,713.54 0,0 1967.7,345.81 1522.05,-830.97 -230.8,-70.35 -887.79,-48.98 -892.93,-28.15z"/>
    <path fill="#FF8B7B" fill-rule="nonzero" d="M5707.06 8472.68c-27.06,70.62 -167.76,71.97 -167.76,71.97l-85.78 15.42c-3.46,0.61 -7.02,0.92 -10.57,0.92 -25.59,0 -48.44,-16.07 -57.07,-40.17l-24.62 -70.08c-2.23,-6.39 -3.38,-13.15 -3.38,-19.94 0,-26.01 16.62,-49.14 41.27,-57.45l81.18 -27.06c10.9,-3.43 22.31,-5.2 33.76,-5.2 3.89,0 7.82,0.21 11.69,0.61l62.23 7.04c53.3,6.03 98.44,42.15 116.08,92.8l2.17 6.76c1.68,4.24 2.55,8.75 2.55,13.31 0,3.74 -0.6,7.49 -1.74,11.04l-0.01 0.03z"/>
    <path fill="#FF8B7B" fill-rule="nonzero" d="M6420.87 7322.14c-10.28,66.83 -23.54,129.88 -37.07,194.28 -13.53,64.4 -28.95,127.99 -46.27,191.58 -33.42,129.35 -77.25,257.51 -129.38,380.37l-3.51 7.84c-2.97,7.17 -7,13.85 -11.88,19.82 -35.68,42.42 -75.38,82.01 -117.92,117.69 -39.78,34.91 -81.18,65.75 -122.85,95.79 -41.66,30.04 -84.42,57.64 -127.71,84.16 -43.29,26.51 -86.86,51.41 -133.4,74.68 -9.15,4.37 -19.17,6.65 -29.27,6.65 -37.36,0 -67.65,-30.29 -67.65,-67.65 0,-17.64 6.9,-34.61 19.21,-47.24l0 0 103.91 -102.01c34.64,-34.1 69,-67.92 102.28,-102.28 33.28,-34.36 66.02,-68.46 96.6,-102.56 29.05,-31.93 56.41,-66.33 81.14,-101.73l-15.42 27.06c19.22,-55.74 35.72,-114.46 51.95,-173.72 16.23,-59.25 30.04,-119.87 44.11,-180.75 14.07,-60.88 27.06,-122.03 39.77,-183.46 12.72,-61.42 24.9,-123.65 36.8,-183.18l0 -1.63c13.51,-62.2 68.58,-106.63 132.25,-106.63 74.71,0 135.29,60.58 135.29,135.29 0,6.16 -0.42,12.33 -1.25,18.43l0.27 -0.8z"/>
    <path fill="#6DA4FD" fill-rule="nonzero" d="M7230.46 7253.14c-58.99,147.47 -216.47,255.7 -439.16,292.5 -97.68,-24.35 -231.62,-351.76 -231.62,-351.76 0,0 642.1,-345.81 670.78,59.26z"/>
    <path fill="black" fill-rule="nonzero" fill-opacity="0.400000" d="M7230.46 7253.14c-58.99,147.47 -216.47,255.7 -439.16,292.5 -97.68,-24.35 -231.62,-351.76 -231.62,-351.76 0,0 642.1,-345.81 670.78,59.26z"/>
    <path fill="#6DA4FD" fill-rule="nonzero" d="M6243.91 7068.06c-104.17,64.14 -218.37,203.75 -234.6,448.9 40.32,92.27 445.38,169.66 445.38,169.66 0,0 150.72,-792.28 -210.78,-618.56z"/>
    <path fill="black" fill-rule="nonzero" fill-opacity="0.400000" d="M6243.91 7068.06c-104.17,64.14 -218.37,203.75 -234.6,448.9 40.32,92.27 445.38,169.66 445.38,169.66 0,0 150.72,-792.28 -210.78,-618.56z"/>
    <path fill="#6DA4FD" fill-rule="nonzero" d="M7019.4 9402.94l-1835.39 0c-60.05,0 -108.76,-48.71 -108.76,-108.77l-0.01 0c0.01,-60.06 48.72,-108.77 108.78,-108.77l1835.38 0c60.05,0 108.76,48.71 108.76,108.77l0.02 0c-0.02,60.06 -48.73,108.77 -108.79,108.77z"/>
    <path fill="#6DA4FD" fill-rule="nonzero" d="M6250.94 8880.18l1196 0c82.6,-2.7 151.86,-63.29 165.59,-144.78l182.64 -1269.32c1.36,-7.31 2.05,-14.77 2.05,-22.23 0,-67.54 -54.77,-122.3 -122.31,-122.3 -1.11,0 -2.28,0.01 -3.38,0.04l-1196.27 0.01c-82.54,2.48 -151.82,63.05 -165.33,144.48l-182.92 1269.32c-1.31,7.23 -1.98,14.61 -1.98,21.96 0,67.84 55.01,122.85 122.85,122.85 1.02,0 2.05,-0.03 3.05,-0.04l0.01 0.01z"/>
    <path fill="white" fill-rule="nonzero" fill-opacity="0.400000" d="M6310.47 7466.09l-182.91 1269.32c-1.02,6.6 -1.53,13.3 -1.53,19.98 0,22.66 5.84,44.95 16.95,64.71 11.88,19.46 33.07,31.36 55.89,31.36 32.5,0 60.08,-23.84 64.79,-55.98l195.08 -1354.83c0.42,-2.97 0.63,-5.96 0.63,-8.95 0,-36.16 -29.32,-65.48 -65.49,-65.48 -20.39,0 -39.65,9.52 -52.02,25.72 -16.53,21.67 -27.33,47.22 -31.4,74.15l0.01 0z"/>
    <polygon fill="#263238" fill-rule="nonzero" points="7299.19,9185.66 7360.34,9185.66 7593.31,7665.52 7532.17,7665.52 "/>
    <polygon fill="#263238" fill-rule="nonzero" points="6367.29,9185.66 6428.17,9185.66 6661.15,7665.52 6600.26,7665.52 "/>
    <path fill="#6DA4FD" fill-rule="nonzero" d="M7381.45 9402.94l-839.9 0c-60.07,0 -108.78,-48.71 -108.78,-108.77l0.01 0c-0.01,-60.06 48.7,-108.77 108.76,-108.77l839.91 0c60.06,0 108.77,48.71 108.77,108.77l0.01 0c-0.01,60.06 -48.72,108.77 -108.79,108.77z"/>
    <path fill="white" fill-rule="nonzero" fill-opacity="0.400000" d="M5184.01 9185.66l1139.98 0c60.07,0 108.78,48.71 108.78,108.78l0.01 0.01c-0.01,60.05 -48.72,108.76 -108.79,108.76l-1139.98 0.01c-60.05,-0.01 -108.76,-48.72 -108.76,-108.78l-0.01 0.01c0.01,-60.08 48.72,-108.79 108.78,-108.79z"/>
    <polygon fill="#263238" fill-rule="nonzero" points="6084.53,10712.31 6145.41,10712.31 6378.39,9402.94 6317.5,9402.94 "/>
    <polygon fill="#263238" fill-rule="nonzero" points="5025.72,10712.31 5086.6,10712.31 5319.58,9402.94 5258.7,9402.94 "/>
    <polygon fill="#263238" fill-rule="nonzero" points="6494.47,10712.31 6433.32,10712.31 6200.34,9402.94 6261.5,9402.94 "/>
    <polygon fill="#263238" fill-rule="nonzero" points="7553.27,10712.31 7492.12,10712.31 7259.14,9402.94 7320.3,9402.94 "/>
   </g>
   <g id="freepik--speech-bubbles--inject-2">
    <path fill="#6DA4FD" fill-rule="nonzero" d="M2342.59 2426.96c-558.53,91.21 -968.87,574.18 -968.87,1140.25 0,589.76 444.33,1085.01 1030.57,1148.63 -11.78,85.48 -30.48,170.61 -55.74,253.35 -25.26,82.75 178.05,-101.74 277.08,-250.83 30.3,-2.44 60.88,-5.96 91.46,-11.1 560.7,-89.25 973.85,-573.22 973.85,-1141.11 0,-638.01 -517.4,-1155.41 -1155.4,-1155.41 -64.6,0 -129.35,5.51 -192.97,16.22l0.02 0z"/>
    <path fill="white" fill-rule="nonzero" fill-opacity="0.501961" d="M2342.59 2426.96c-558.53,91.21 -968.87,574.18 -968.87,1140.25 0,589.76 444.33,1085.01 1030.57,1148.63 -11.78,85.48 -30.48,170.61 -55.74,253.35 -25.26,82.75 178.05,-101.74 277.08,-250.83 30.3,-2.44 60.88,-5.96 91.46,-11.1 560.7,-89.25 973.85,-573.22 973.85,-1141.11 0,-638.01 -517.4,-1155.41 -1155.4,-1155.41 -64.6,0 -129.35,5.51 -192.97,16.22l0.02 0z"/>
    <path fill="#6DA4FD" fill-rule="nonzero" d="M7434.21 2162.87c-35.01,-82.67 -79.1,-161.58 -131.26,-234.66l23.81 -17.05c53.75,74.73 99.39,155.67 135.31,240.27l-27.86 11.44z"/>
    <path fill="#6DA4FD" fill-rule="nonzero" d="M7140.63 1742.92c-151.63,-141.95 -337.01,-243.33 -538.27,-294.18l7.3 -27.06c206.13,52.23 395.65,156.07 550.95,301.21l-19.98 20.03z"/>
    <path fill="#6DA4FD" fill-rule="nonzero" d="M7457.76 2640.46c0,-0.09 0,-0.37 0,-0.51 0,-638.16 -517.53,-1155.68 -1155.68,-1155.68 -638.15,0 -1155.67,517.52 -1155.67,1155.68 0,605.85 468.15,1109.11 1072.28,1152.71 91.18,150.71 257.59,258.96 257.59,258.96 -20.94,-86.35 -35.17,-174.83 -41.41,-263.52 582.78,-67.35 1022.74,-560.91 1022.89,-1147.57l0 -0.07z"/>
    <path fill="white" fill-rule="nonzero" d="M6449.55 2552.52c0,0.08 0,0.17 0,0.26 0,81.44 -66.04,147.48 -147.47,147.48 -81.44,0 -147.47,-66.04 -147.47,-147.48 0,-81.43 66.03,-147.47 147.47,-147.47 0.09,0 0.18,0 0.26,0 81.3,0.01 147.21,65.93 147.21,147.21z"/>
    <path fill="white" fill-rule="nonzero" d="M6959.88 2728.4c0,81.44 -66.03,147.47 -147.47,147.47 -81.44,0 -147.47,-66.03 -147.47,-147.47 0,-81.44 66.03,-147.47 147.47,-147.47 81.44,0 147.47,66.03 147.47,147.47z"/>
    <path fill="white" fill-rule="nonzero" d="M5940.04 2640.46c-0.15,81.16 -66.03,146.92 -147.2,146.92 -81.27,0 -147.18,-65.91 -147.18,-147.2 0,-81.28 65.91,-147.19 147.18,-147.19 0,0 0,0 0,0 81.28,0 147.2,65.91 147.2,147.19 0,0.1 0,0.19 0,0.27l0 0.01z"/>
    <path fill="#6DA4FD" fill-rule="nonzero" d="M8691.63 4271.01c-1.87,-25.72 -3.08,-51.97 -3.08,-77.85 0,-544.63 441.67,-986.29 986.29,-986.29 544.62,0 986.29,441.66 986.29,986.29 0,462.5 -321.38,862.98 -772.92,962.93 -54.24,102.62 -126.87,194.98 -213.79,271.98 6.35,-58.46 9.7,-117.96 9.7,-176.86 0,-23.84 -0.6,-48.27 -1.58,-71.92 -2.54,0.1 -5.43,0.1 -7.96,0.1 -514.37,0 -942.56,-395.67 -983,-908.37l0.05 -0.01z"/>
    <path fill="black" fill-rule="nonzero" fill-opacity="0.400000" d="M8691.63 4271.01c-1.87,-25.72 -3.08,-51.97 -3.08,-77.85 0,-544.63 441.67,-986.29 986.29,-986.29 544.62,0 986.29,441.66 986.29,986.29 0,462.5 -321.38,862.98 -772.92,962.93 -54.24,102.62 -126.87,194.98 -213.79,271.98 6.35,-58.46 9.7,-117.96 9.7,-176.86 0,-23.84 -0.6,-48.27 -1.58,-71.92 -2.54,0.1 -5.43,0.1 -7.96,0.1 -514.37,0 -942.56,-395.67 -983,-908.37l0.05 -0.01z"/>
    <path fill="white" fill-rule="nonzero" d="M9349.16 4278.86l658.87 -51.96c30.77,-2.96 54.28,-28.86 54.28,-59.78 0,-1.44 -0.05,-2.91 -0.16,-4.35l-0.01 0c-2.96,-30.79 -28.85,-54.29 -59.78,-54.29 -1.54,0 -3.08,0.06 -4.61,0.17l-656.71 51.15c-30.76,2.84 -54.32,28.65 -54.32,59.55 0,1.61 0.07,3.25 0.19,4.85l0 -0.01c2.5,30.91 28.33,54.74 59.34,54.74 0.97,0 1.94,-0.03 2.91,-0.07z"/>
    <path fill="white" fill-rule="nonzero" d="M9368.1 4511.56l658.87 -52.22c30.74,-2.85 54.29,-28.67 54.29,-59.55 0,-1.52 -0.06,-3.07 -0.18,-4.58l0 0c-3.1,-30.81 -29.06,-54.28 -60.03,-54.28 -1.45,0 -2.91,0.06 -4.36,0.16l-658.87 51.95c-30.82,3.11 -54.29,29.07 -54.29,60.04 0,1.45 0.05,2.92 0.16,4.36l0.01 0c3.11,30.8 29.06,54.27 60.03,54.27 1.45,0 2.91,-0.05 4.36,-0.15l0.01 0z"/>
    <path fill="white" fill-rule="nonzero" d="M9330.75 4046.42l659.69 -51.95c30.81,-3.11 54.28,-29.07 54.28,-60.03 0,-1.46 -0.06,-2.92 -0.16,-4.36l0 -0.01c-2.7,-30.73 -28.45,-54.32 -59.3,-54.32 -1.61,0 -3.23,0.08 -4.83,0.2l-658.88 51.95c-30.75,2.85 -54.29,28.67 -54.29,59.55 0,1.53 0.06,3.07 0.17,4.58l0 0c2.75,30.85 28.61,54.51 59.57,54.51 1.25,0 2.52,-0.04 3.76,-0.11l-0.01 -0.01z"/>
   </g>
  </g>
  <path fill="none" fill-rule="nonzero" stroke="#FEFEFE" stroke-width="50" stroke-linecap="round" stroke-linejoin="round" stroke-miterlimit="22.9256" d="M2532.34 3425.16c55.01,-110.03 110.02,-165.04 220.06,-165.04 121.47,0 220.05,98.58 220.05,220.05 0,220.06 -220.05,440.12 -440.11,660.17 -220.06,-220.05 -440.11,-440.11 -440.11,-660.17 0,-121.47 98.58,-220.05 220.05,-220.05 110.04,0 165.05,55.01 220.06,165.04z"/>
 </g>
</svg>
