<?xml version="1.0" encoding="UTF-8"?>
<!DOCTYPE svg PUBLIC "-//W3C//DTD SVG 1.0//EN" "http://www.w3.org/TR/2001/REC-SVG-20010904/DTD/svg10.dtd">
<!-- Creator: CorelDRAW -->
<svg xmlns="http://www.w3.org/2000/svg" xml:space="preserve" width="115mm" height="115mm" version="1.0" shape-rendering="geometricPrecision" text-rendering="geometricPrecision" image-rendering="optimizeQuality" fill-rule="evenodd" clip-rule="evenodd"
viewBox="0 0 11500 11500"
 xmlns:xlink="http://www.w3.org/1999/xlink"
 xmlns:xodm="http://www.corel.com/coreldraw/odm/2003">
 <g id="Camada_x0020_1">
  <metadata id="CorelCorpID_0Corel-Layer"/>
  <rect fill="#E0E0E0" fill-rule="nonzero" x="9794.55" y="2638.32" width="1698.12" height="1770.08"/>
  <rect fill="#FAFAFA" fill-rule="nonzero" x="9679.46" y="2638.32" width="1698.12" height="1770.08"/>
  <path fill="#E0E0E0" fill-rule="nonzero" d="M11378.08 4408.88l-1699.12 0 0 -1771.06 1699.12 0 0 1771.06zm-1698.13 0l1697.15 0 0 -1770.07 -1697.15 0 0 1770.07z"/>
  <rect fill="white" fill-rule="nonzero" x="9907.89" y="2876.35" width="1241.5" height="1294.23"/>
  <path fill="#E0E0E0" fill-rule="nonzero" d="M9907.9 4178.96c-8.79,13.06 -19.19,25.12 -30.81,35.73 -19.72,20.95 -47.56,49.29 -78.86,79.85 -31.31,30.56 -59.88,58.15 -81.08,77.62 -10.73,11.38 -22.84,21.52 -35.96,30.08 8.68,-13.01 19,-24.98 30.57,-35.51 19.71,-20.95 47.81,-49.29 79.1,-80.33 31.29,-31.04 60.13,-58.16 81.32,-77.62 10.66,-11.31 22.69,-21.36 35.73,-29.8l-0.01 -0.02z"/>
  <path fill="#E0E0E0" fill-rule="nonzero" d="M11149.39 4176.01c12.91,8.9 24.86,19.28 35.5,30.8 20.94,19.72 49.29,47.56 80.09,78.86 30.8,31.31 58.15,59.88 77.62,81.08 11.46,10.62 21.5,22.76 29.83,35.97 -12.84,-8.53 -24.78,-18.5 -35.5,-29.57 -20.95,-19.96 -49.29,-47.81 -80.09,-79.11 -30.8,-31.29 -58.41,-60.12 -77.88,-81.31 -11.36,-10.93 -21.32,-23.28 -29.57,-36.72z"/>
  <path fill="#E0E0E0" fill-rule="nonzero" d="M11145.95 2879.82c8.9,-12.63 19.25,-24.25 30.8,-34.49 19.96,-20.95 47.8,-49.29 78.86,-80.09 31.05,-30.8 60.13,-58.16 81.32,-77.62 10.65,-11.32 22.7,-21.35 35.72,-29.83 -8.71,12.9 -18.89,24.83 -30.29,35.47 -19.96,20.95 -47.81,49.29 -79.11,80.09 -31.29,30.8 -60.13,58.41 -81.32,77.87 -10.86,10.82 -23,20.45 -35.98,28.6z"/>
  <path fill="#E0E0E0" fill-rule="nonzero" d="M9904.45 2882.78c-13.12,-8.65 -25.15,-18.95 -35.73,-30.56 -20.94,-19.72 -49.29,-47.56 -79.84,-78.86 -30.56,-31.3 -58.41,-59.88 -77.63,-81.08 -11.29,-10.8 -21.44,-22.94 -30.07,-35.99 13,8.69 24.97,19.01 35.5,30.58 20.95,19.72 49.29,47.81 80.09,79.1 30.8,31.3 58.41,60.13 77.88,81.08 11.2,10.7 21.25,22.75 29.8,35.72l0 0.01z"/>
  <path fill="#E0E0E0" fill-rule="nonzero" d="M11145.95 4170.34c-0.13,-1.02 -0.2,-2.05 -0.2,-3.07 0,-1.03 0.07,-2.06 0.2,-3.09 0,-4.43 0,-10.34 0,-18.23 0,-16.02 0,-39.43 0,-69.74 0,-61.36 0,-150.57 -1.23,-263.68 0,-226.71 0,-549.78 -2.47,-936.41l4.93 4.68 -1238.05 0 0 0 5.42 -5.42c0,474.85 0,919.17 0,1293.98l-4.69 -4.68 896.26 2.46 251.84 0 66.78 0 0.01 0 -65.79 0 -250.62 1.22 -899.46 2.22 -4.92 0.01 0 -4.68c0,-374.82 0,-819.13 0,-1293.98l0 -1.97 5.66 0 1238.05 0 4.68 0 0 4.93c0,387.86 -1.72,711.67 -2.46,939.12 0,112.87 0,201.58 0,262.7 0,29.81 0,52.98 0,68.99 0,7.4 0,13.31 0,17.5 -1.07,2.51 -2.4,4.9 -3.94,7.15l0 -0.01z"/>
  <path fill="#E0E0E0" fill-rule="nonzero" d="M10525.94 3609.23l-172.5 2.22 -32.04 77.38 -88.47 1.23 161.66 -361.51 85.26 0 172.5 357.07 -90.68 1.23 -35.73 -77.62zm-28.1 -62.84l-60.37 -136.76 -57.42 138.49 117.79 -1.73z"/>
  <path fill="#E0E0E0" fill-rule="nonzero" d="M10852.69 3559.94l1.73 126.67 -37.46 0 0 -27.85c-15.54,19.78 -39.34,31.33 -64.49,31.33 -2.24,0 -4.5,-0.1 -6.73,-0.28 -49.28,0 -80.82,-24.64 -81.31,-60.62 -0.5,-35.98 21.93,-61.61 86.73,-62.59l62.59 0 0.01 -6.66c0,-32.04 -19.96,-49.29 -59.14,-49.29 -0.07,0 -0.13,0 -0.19,0 -24.8,0 -48.95,8.25 -68.56,23.41l-16.76 -28.34c25.21,-18.26 55.59,-28.11 86.75,-28.11 0.98,0 2,0.02 2.96,0.04 59.13,-1.74 93.14,25.62 93.87,82.29zm-38.68 63.09l0 -28.59 -61.11 0c-38.94,0 -49.29,15.28 -49.29,33.02 0,17.74 18.48,33.76 49.29,33.51 1.06,0.06 2.15,0.09 3.22,0.09 24.94,0 47.57,-14.58 57.88,-37.28l0.01 -0.75z"/>
  <rect fill="#E0E0E0" fill-rule="nonzero" x="9860.59" y="4781.24" width="1394.04" height="1453.18"/>
  <rect fill="#FAFAFA" fill-rule="nonzero" x="9766.2" y="4781.24" width="1394.04" height="1453.18"/>
  <path fill="#E0E0E0" fill-rule="nonzero" d="M11160.73 6234.9l-1395.02 0 0 -1453.91 1395.02 0 0 1453.91zm-1394.03 0l1393.05 0 0 -1453.42 -1393.05 0 0 1453.42z"/>
  <rect fill="white" fill-rule="nonzero" x="9953.73" y="4976.41" width="1019.22" height="1062.59"/>
  <path fill="#E0E0E0" fill-rule="nonzero" d="M9953.73 6046.14c-7.03,10.59 -15.34,20.38 -24.64,29.07 -16.51,17.25 -39.18,40.41 -64.81,65.79 -25.63,25.38 -49.29,47.81 -66.78,63.83 -8.76,9.3 -18.64,17.62 -29.32,24.65 7.02,-10.63 15.31,-20.4 24.64,-29.08 16.26,-17.24 39.42,-40.41 65.05,-65.79 25.63,-25.38 49.29,-47.81 66.78,-63.83 8.57,-9.45 18.35,-17.76 29.09,-24.64l-0.01 0z"/>
  <path fill="#E0E0E0" fill-rule="nonzero" d="M10972.95 6043.43c10.59,7.03 20.38,15.34 29.07,24.64 17.25,16.26 40.41,39.18 65.79,64.81 25.38,25.63 47.81,49.29 63.83,66.54 9.37,8.81 17.67,18.77 24.64,29.57 -10.46,-7.2 -20.23,-15.48 -29.06,-24.65 -17.25,-16.26 -40.42,-39.18 -65.8,-64.81 -25.38,-25.63 -47.8,-49.29 -63.82,-66.78 -9.4,-8.69 -17.71,-18.56 -24.65,-29.33l0 0.01z"/>
  <path fill="#E0E0E0" fill-rule="nonzero" d="M10970 4979.36c7.06,-10.67 15.38,-20.5 24.65,-29.32 16.52,-17.01 39.19,-40.41 64.82,-65.55 25.63,-25.14 49.29,-47.81 66.78,-63.83 8.67,-9.39 18.54,-17.7 29.31,-24.64 -7.03,10.63 -15.32,20.41 -24.65,29.08 -16.26,17 -39.18,40.41 -65.05,65.79 -25.88,25.38 -49.29,47.81 -66.78,63.83 -8.56,9.45 -18.34,17.76 -29.08,24.64z"/>
  <path fill="#E0E0E0" fill-rule="nonzero" d="M9950.78 4982.07c-10.64,-7.01 -20.41,-15.29 -29.07,-24.62 -17.25,-16.27 -40.41,-38.94 -65.79,-64.57 -25.38,-25.63 -47.81,-49.29 -63.83,-66.78 -9.31,-8.78 -17.63,-18.65 -24.66,-29.34 10.62,7.03 20.4,15.32 29.07,24.64 17.25,16.26 40.42,39.18 65.8,65.06 25.38,25.87 47.8,49.28 63.82,66.78 9.44,8.46 17.76,18.19 24.66,28.82l0 0.01z"/>
  <path fill="#E0E0E0" fill-rule="nonzero" d="M10970 6039l0 -5.18c0,-3.7 0,-8.38 0,-14.79 0,-13.31 0,-32.53 0,-57.42 0,-49.29 0,-123.21 0,-216.61 0,-186.05 -1.23,-450.96 -2.22,-768.61l3.94 3.94 -1016.26 0 0 0.02 4.43 -4.69c0,390.1 0,754.81 0,1062.59l-3.69 -3.94 735.83 1.98 206.76 0 54.71 0 -0.01 0 -53.97 0 -206.01 0 -739.28 1.97 -3.95 0 0 -3.94c0,-307.78 0,-672.5 0,-1062.59l0 -4.43 4.69 -0.01 1016.26 0 3.94 0 0 3.94c0,318.63 -1.48,584.52 -1.98,771.32 0,92.41 0,165.36 0,215.62 0,24.65 0,43.38 0,56.43 0,6.16 0,11.1 0,14.54 0,3.45 -2.95,9.86 -3.19,9.86z"/>
  <path fill="#E0E0E0" fill-rule="nonzero" d="M10539.98 5559.94c0,51.01 -40.9,81.08 -121.24,82.31l-158.46 1.97 -3.94 -295.71 149.58 -1.97c76.64,0 116.56,29.33 117.06,75.16 0.01,0.68 0.02,1.4 0.02,2.09 0,27.01 -15.56,51.62 -39.95,63.21 33.37,7.87 56.94,37.66 56.94,71.95 0,0.32 -0.01,0.68 -0.01,0.99zm-212.42 -160.17l0 69.49 70.48 0c34.75,0 53.23,-12.57 52.99,-35.73 -0.24,-23.17 -19.23,-34.26 -53.72,-33.76l-69.75 0zm141.2 154.02c0,-24.65 -20.21,-36.48 -56.92,-35.98l-82.8 1.23 0 73.93 82.55 -1.23c37.96,-1.49 57.42,-12.57 57.17,-37.95z"/>
  <path fill="#E0E0E0" fill-rule="nonzero" d="M10773.1 5556c0.07,1.33 0.1,2.7 0.1,4.04 0,47.08 -38.19,85.26 -85.27,85.26 -1.34,0 -2.71,-0.02 -4.04,-0.09 -1.44,0.08 -2.91,0.12 -4.36,0.12 -23.24,0 -45.26,-10.46 -59.96,-28.46l0 27.1 -31.05 0 -3.2 -240.76 32.28 0 1.23 94.87c14.75,-17.94 36.77,-28.35 60,-28.35 0.7,0 1.42,0.01 2.11,0.03 2.37,-0.21 4.78,-0.31 7.16,-0.31 46.94,0 85.02,38.08 85.02,85.02 0,0.51 -0.01,1.03 -0.01,1.53l-0.01 0zm-32.78 0c-0.54,-32.94 -27.41,-59.38 -60.36,-59.38 -33.33,0 -60.37,27.04 -60.37,60.37 0,33.33 27.04,60.37 60.37,60.37 0.24,0 0.49,-0.01 0.73,-0.01 0.7,0.03 1.39,0.05 2.09,0.05 31.85,0 57.66,-25.82 57.66,-57.66 0,-1.24 -0.04,-2.5 -0.12,-3.74z"/>
  <rect fill="#E0E0E0" fill-rule="nonzero" x="2117.12" y="2064.39" width="7188.51" height="5134.04"/>
  <rect fill="whitesmoke" fill-rule="nonzero" x="2287.88" y="2269.42" width="6795.46" height="4731.62"/>
  <rect fill="#EBEBEB" fill-rule="nonzero" x="1883.02" y="7198.43" width="7817.64" height="204.29"/>
  <g id="_1764639086688">
   <path fill="#EBEBEB" fill-rule="nonzero" d="M2119.59 2069.07c68.02,60.37 132.82,123.21 194.67,190.74l-194.67 -190.74zm0 0l0 0 0 0z"/>
  </g>
  <path fill="#EBEBEB" fill-rule="nonzero" d="M2314.26 2259.81c-34.86,-28.71 -67.96,-60.1 -98.61,-93.2 -33.61,-30.43 -65.73,-63.78 -95.02,-98.58 38.09,25.14 73.18,55.02 104.18,88.52 33.81,30.67 64.03,65.36 89.48,103.24l-0.03 0.02z"/>
  <g id="_1764639078432">
   <path fill="#EBEBEB" fill-rule="nonzero" d="M9088.78 2284.45l217.34 -210.69 -217.34 210.69zm0 0l0 0 0 0z"/>
  </g>
  <path fill="#EBEBEB" fill-rule="nonzero" d="M9305.88 2073.76c-31.32,39.47 -66.3,76.39 -103.98,109.87 -34.66,36.72 -72.65,70.66 -113.09,100.86 31.41,-39.43 66.43,-76.32 103.99,-109.9 34.7,-36.68 72.72,-70.65 113.04,-100.89l0.04 0.06z"/>
  <g id="_1764639075312">
   <path fill="#EBEBEB" fill-rule="nonzero" d="M9100.85 7000.07c73.93,66.78 220.06,197.14 204.78,197.14l-204.78 -197.14zm0 0l0 0 0 0z"/>
  </g>
  <path fill="#EBEBEB" fill-rule="nonzero" d="M9305.63 7198.43c-32.47,-33.87 -67.06,-66.62 -102.81,-97.03 -36.59,-30.77 -71,-64.97 -101.96,-101.38 39.74,26.9 76.92,57.75 110.64,91.91 29.33,26.86 54.95,52.24 72.45,71.46 7.06,7.81 13.7,16.08 19.72,24.68 1.66,2.53 2.99,5.27 3.94,8.13 0.73,2.72 -2.47,2.97 -1.98,2.23z"/>
  <rect fill="#FAFAFA" fill-rule="nonzero" x="4919.24" y="7121.3" width="745.19" height="81.08"/>
  <path fill="#EBEBEB" fill-rule="nonzero" d="M2634.37 6259.05l0 942.58 1620.26 0 -1620.26 -942.58zm248.64 379.5l673.49 398.72 -673.49 0 0 -398.72z"/>
  <path fill="#E0E0E0" fill-rule="nonzero" d="M2789.86 6349.5c-5.45,21.03 -15.12,40.88 -28.33,58.15 -9.77,19.4 -23.19,36.83 -39.42,51.26 5.57,-21.08 15.32,-40.87 28.58,-58.16 18.72,-30.06 36.22,-53.23 39.17,-51.25z"/>
  <path fill="#E0E0E0" fill-rule="nonzero" d="M3030.38 6487.74c-5.53,20.59 -15.19,39.9 -28.34,56.67 -18.48,29.33 -35.98,51.5 -38.93,49.29 5.51,-20.48 15.11,-39.7 28.11,-56.44 18.71,-29.06 36.2,-51.49 39.16,-49.52z"/>
  <path fill="#E0E0E0" fill-rule="nonzero" d="M3270.64 6625.99c-7.57,19.79 -19.06,37.92 -33.74,53.21 -21.69,27.35 -41.4,47.55 -44.11,45.34 7.66,-19.8 19.27,-37.94 34,-53.22 21.43,-27.1 41.14,-47.55 43.85,-45.33z"/>
  <path fill="#E0E0E0" fill-rule="nonzero" d="M3506.72 6769.65c2.97,2.22 -12.32,26.13 -33.76,53.47 -21.44,27.35 -41.4,47.32 -44.11,45.1 7.8,-19.76 19.37,-37.87 34.03,-53.23 21.42,-26.86 41.12,-47.31 43.84,-45.34z"/>
  <path fill="#E0E0E0" fill-rule="nonzero" d="M3753.64 6911.35c-6.62,20.73 -17.28,40 -31.3,56.68 -19.96,29.57 -38.69,51.74 -41.64,49.28 6.6,-20.71 17.17,-39.97 31.07,-56.69 20.18,-29.31 38.91,-51.49 41.87,-49.27z"/>
  <path fill="#E0E0E0" fill-rule="nonzero" d="M4009.92 7059.21c-5.42,19.7 -14.91,38.11 -27.82,53.96 -18.24,27.85 -35.49,49.29 -38.45,47.07 5.35,-19.75 14.87,-38.16 27.85,-53.98 18.22,-27.34 35.47,-47.05 38.42,-47.05z"/>
  <path fill="#E0E0E0" fill-rule="nonzero" d="M2865.02 6393.85c2.97,1.98 -2.21,15.53 -11.58,30.56 -9.37,15.03 -19.23,25.87 -22.43,24.64 -3.2,-1.23 2.22,-15.52 11.59,-30.55 9.37,-15.04 19.22,-27.36 22.42,-24.65z"/>
  <path fill="#E0E0E0" fill-rule="nonzero" d="M2943.63 6436.97c3.21,1.98 -1.97,15.77 -11.33,30.8 -9.36,15.04 -19.47,24.65 -22.43,24.65 -2.96,0 2.22,-15.53 11.59,-30.56 9.37,-15.03 19.22,-26.61 22.17,-24.89z"/>
  <path fill="#E0E0E0" fill-rule="nonzero" d="M3118.6 6539.98c2.96,1.98 -2.22,15.77 -11.58,30.8 -9.37,15.04 -19.23,24.65 -22.18,24.65 -2.95,0 1.97,-15.53 11.33,-30.56 9.36,-15.03 19.72,-26.61 22.43,-24.89z"/>
  <path fill="#E0E0E0" fill-rule="nonzero" d="M3197.7 6584.09c3.21,1.73 -1.97,15.53 -11.33,30.56 -9.36,15.03 -19.23,24.65 -22.43,24.65 -3.2,0 2.22,-15.53 11.59,-30.56 9.37,-15.03 19.21,-26.62 22.17,-24.65z"/>
  <path fill="#E0E0E0" fill-rule="nonzero" d="M3356.15 6682.17c2.96,1.97 -1.98,15.52 -11.34,30.56 -9.36,15.03 -19.46,25.87 -22.42,24.64 -2.97,-1.23 2.21,-15.53 11.33,-30.56 9.12,-15.03 19.48,-26.37 22.43,-24.64z"/>
  <path fill="#E0E0E0" fill-rule="nonzero" d="M3431.31 6726.28c2.96,1.72 -1.97,15.52 -11.33,30.56 -9.36,15.03 -19.47,24.64 -22.43,24.64 -2.96,0 2.22,-15.77 11.58,-30.8 9.37,-15.03 19.23,-26.37 22.18,-24.4z"/>
  <path fill="#E0E0E0" fill-rule="nonzero" d="M3593.71 6819.92c2.96,1.72 -2.22,15.52 -11.59,30.56 -9.37,15.03 -19.22,24.64 -22.43,24.64 -3.2,0 2.22,-15.77 11.59,-30.8 9.37,-15.03 19.22,-26.37 22.43,-24.4z"/>
  <path fill="#E0E0E0" fill-rule="nonzero" d="M3680.7 6871.18c2.96,1.98 -1.98,15.53 -11.34,30.56 -9.36,15.03 -19.46,25.87 -22.43,24.64 -2.96,-1.23 2.22,-15.52 11.34,-30.55 9.12,-15.04 19.47,-26.62 22.43,-24.65z"/>
  <path fill="#E0E0E0" fill-rule="nonzero" d="M3837.43 6962.85c2.96,1.97 -2.22,15.77 -11.34,30.8 -9.11,15.03 -19.46,24.64 -22.42,24.64 -2.97,0 1.97,-15.52 11.33,-30.56 9.36,-15.03 19.47,-27.1 22.43,-24.88z"/>
  <path fill="#E0E0E0" fill-rule="nonzero" d="M3927.86 7014.85c2.97,1.72 -1.97,15.52 -11.33,30.55 -9.36,15.04 -19.47,24.65 -22.43,24.65 -2.96,0 2.22,-15.77 11.34,-30.8 9.12,-15.03 19.46,-26.38 22.42,-24.4z"/>
  <path fill="#EBEBEB" fill-rule="nonzero" d="M10460.14 9038.5c126.66,-65.3 275.99,-73.93 416.46,-50.51 75.66,12.56 154.51,34.99 206.01,91.91 51.51,56.93 61.12,156.74 1.98,205.52 -34.99,29.08 -84.03,33.51 -129.62,32.78 -110.16,-1.23 -232.38,-20.71 -320.36,45.59 -49.29,37.95 -83.78,100.78 -143.66,119.27 -10.54,2.44 -21.37,3.69 -32.2,3.69 -51.52,0 -99,-27.92 -124.04,-72.94 -17.75,-34.47 -27.08,-72.77 -27.08,-111.55 0,-22.87 3.24,-45.67 9.6,-67.61 14.41,-84.09 67.31,-156.66 142.91,-196.17l0 0.02z"/>
  <g id="_1764638039568">
   <path fill="#EBEBEB" fill-rule="nonzero" d="M10169.6 8478.13c77.62,110.65 228.19,73.93 297.93,6.41 69.74,-67.53 98.57,-165.36 126.42,-258.75 61.36,-213.4 123.21,-437.16 77.62,-654.5 -11.08,-65.82 -39.99,-127.4 -83.54,-177.94 -36,-40.54 -87.66,-63.77 -141.89,-63.77 -12.84,0 -25.69,1.32 -38.24,3.89 -75.9,19.96 -123.22,94.39 -157.22,165.11 -100.47,209.02 -153.33,437.63 -154.28,669.49 0,107.93 12.32,221.79 73.93,310.01l-0.73 0.05zm0 0l0 0 0 0z"/>
  </g>
  <g id="_1764638038800">
   <path fill="#EBEBEB" fill-rule="nonzero" d="M9956.93 8636.34c84.03,-98.57 100.05,-246.43 62.59,-369.65 -37.46,-123.22 -123.21,-231.39 -219.56,-318.38 -114.63,-101.9 -248.35,-180.9 -393.04,-231.88 -49.88,-20.1 -103.4,-30.53 -157.25,-30.53 -6.46,0 -13.04,0.21 -19.45,0.47 -61.05,3.63 -116.4,37.2 -147.85,89.67 -41.4,79.1 -1.72,174.72 41.16,252.83 75.29,137.19 162.37,269.45 258.2,392.97 77.38,99.81 165.84,197.14 283.89,243.22 118.04,46.07 240.51,39.92 302.85,-41.89l-11.54 13.17zm0 0l0 0 0 0z"/>
  </g>
  <path fill="#E0E0E0" fill-rule="nonzero" d="M10164.43 10147.66c3.99,-16.13 6.31,-32.7 6.9,-49.31 3.69,-36.47 8.13,-82.55 13.55,-137.25 6.93,-67.43 17.17,-135.02 30.84,-201.39 18.02,-80.89 43.05,-160.49 73.91,-237.45 29.99,-77.01 70.94,-149.39 121.2,-214.93 41.06,-53.3 93.59,-97 153.53,-127.63 40.59,-20.14 84.27,-33.84 129.13,-40.19 16.62,-0.73 33.2,-3.22 49.3,-7.37 -8.39,-0.88 -16.91,-1.33 -25.38,-1.33 -8.47,0 -16.99,0.45 -25.39,1.32 -46.6,3.56 -92.32,15.5 -134.79,35.02 -63.05,29.88 -118.51,73.97 -161.89,128.61 -52.44,66.4 -94.87,140.48 -125.68,219.28 -31.04,78.31 -55.76,159.36 -72.71,241.82 -12.74,67.07 -21.98,135.55 -26.81,203.8 -4.19,58.15 -5.91,105.47 -6.65,138 -0.63,6.55 -0.91,13.23 -0.91,19.84 0,9.73 0.62,19.51 1.84,29.16l0.01 0z"/>
  <path fill="#E0E0E0" fill-rule="nonzero" d="M10173.79 10042.19c1.1,-5.85 1.65,-11.82 1.65,-17.76 0,-1.89 -0.05,-3.78 -0.16,-5.66 0,-17.5 0,-39.68 0,-66.78 0,-57.92 0,-141.7 2.96,-245.2 5.18,-206.99 22.92,-429.75 57.42,-743.7 32.53,-295.71 76.39,-639.23 123.21,-862.49 9.85,-51.01 19.96,-96.6 29.33,-136.77 9.37,-40.16 16.51,-73.93 24.64,-102.75l15.77 -64.82c2.18,-7.46 3.53,-15.16 3.93,-22.92 -3.59,6.93 -6.32,14.33 -8.13,21.93 -4.93,16.75 -11.34,37.95 -19.22,63.82 -7.89,25.88 -17.5,62.11 -27.6,102.03 -10.1,39.91 -21.44,85.5 -32.28,136.26 -56.34,263.49 -100.85,532.41 -129.59,800.4 -34.5,314.69 -49.29,601.28 -51.26,808.76 -1.23,103.75 0,187.78 3.45,246.43 1.72,27.1 3.2,49.28 4.19,66.78 -0.04,0.36 -0.04,0.73 -0.04,1.09 0,7.13 0.59,14.3 1.73,21.34l0 0.01z"/>
  <path fill="#E0E0E0" fill-rule="nonzero" d="M10175.28 9489.47c0.87,-11.53 1.4,-23.29 1.4,-34.88 0,-11.6 -0.53,-23.35 -1.42,-34.89 -3.7,-63.12 -11.11,-126.22 -21.44,-188.65 -15.14,-92.23 -35.62,-184.42 -61.23,-274.52 -29.87,-110.84 -68.91,-220.58 -115.32,-325.68 -79.57,-194.17 -194.25,-372.76 -337.7,-526.15 -24.95,-25.97 -51.78,-50.9 -79.61,-73.83 -12.07,-10.35 -22.92,-20.46 -34,-28.59l-30.8 -21.44c-18.5,-14.05 -38.17,-26.64 -58.66,-37.49 -3.21,4.44 83.29,55.45 192.46,172.5 138.59,154.63 250.4,332.64 329.57,524.5 45.42,104.56 84.52,212.57 115.56,322.43 26.19,89.48 48.42,181.13 65.51,272.77 14.3,78.36 22.67,142.67 27.6,187.03 0.9,22.33 3.67,44.86 8.06,66.9l0.02 -0.01z"/>
  <polygon fill="#E0E0E0" fill-rule="nonzero" points="9641.02,10464.32 9696.46,11223.07 10671.08,11223.07 10726.53,10464.32 "/>
  <rect fill="#E0E0E0" fill-rule="nonzero" x="9546.89" y="10165.4" width="1295.95" height="299.16"/>
  <polygon fill="#EBEBEB" fill-rule="nonzero" points="9546.89,11194.23 9546.89,11277.03 9607.75,11277.03 10821.4,11277.03 10821.4,11194.23 "/>
  <polygon fill="#E0E0E0" fill-rule="nonzero" points="9667.39,11422.92 9607.75,11277.03 10775.07,11277.03 10705.33,11422.92 "/>
  <path fill="whitesmoke" fill-rule="nonzero" d="M10708.54 10712.47c-1.36,2.41 -2.93,4.73 -4.68,6.89 -3.7,5.18 -8.62,11.58 -14.54,19.22l-56.67 72.7 -2.47 3.2 -2.47 -3.2 -139.72 -192.96 8.13 0.01 -137.26 194.44 -4.43 6.15 -4.69 -5.91 -162.89 -193.69 9.36 0 -9.12 11.33 -145.63 182.61 -4.69 6.16 -4.68 -6.41 -136.76 -194.68 7.89 0c-67.77,77.13 -125.19,142.44 -169.04,192.7l-3.21 3.45 -2.21 -3.94 -52.99 -88.96 -13.55 -24.64c-1.67,-2.65 -3.08,-5.47 -4.2,-8.38 -1.13,-2.92 2.21,2.21 5.67,7.39l15.03 22.92 55.7 87.24 -5.43 0 166.58 -195.17 4.2 -4.93 3.93 5.18 138.5 193.69 -9.36 0 145.39 -182.85 8.87 -11.09 4.69 -5.92 4.68 5.67 162.65 194.19 -9.12 0 138.5 -193.69 4.19 -5.67 3.94 5.67 136.52 195.17 -4.95 0 59.15 -70.73 15.76 -18.24c3.62,-3.44 5.43,-5.08 5.43,-4.92z"/>
  <path fill="whitesmoke" fill-rule="nonzero" d="M10740.08 10459.89c0,3.44 -244.21,6.15 -545.34,6.15 -301.13,0 -545.83,-3.2 -545.83,-6.15 0,-2.96 244.21,-6.16 545.59,-6.16 301.38,0 545.58,2.21 545.58,6.16z"/>
  <path fill="whitesmoke" fill-rule="nonzero" d="M10789.37 11285.16c0,3.45 -265.41,6.16 -592.91,6.16 -327.5,0 -592.65,-2.71 -592.65,-6.16 0,-3.45 265.41,-5.91 592.65,-5.91 327.25,0 592.91,2.72 592.91,5.91z"/>
  <path fill="whitesmoke" fill-rule="nonzero" d="M2789.13 851.72c0,0 219.32,1010.35 362.74,1004.93 185.31,-8.13 809.26,-859.54 809.26,-859.54 0,0 -1068.26,-129.12 -1172,-145.39z"/>
  <path fill="#EBEBEB" fill-rule="nonzero" d="M4077.2 1012.14c0,0 322.82,989.66 465.49,972.41 183.84,-22.43 717.84,-917.44 717.84,-917.44 0,0 -1078.11,-46.82 -1183.33,-54.97z"/>
  <path fill="whitesmoke" fill-rule="nonzero" d="M5376.11 1066.61c0,0 425.09,959.83 565.05,931.5 180.88,-36.47 620.01,-968.71 620.01,-968.71 0,0 -1079.34,36.96 -1185.06,37.21z"/>
  <path fill="#EBEBEB" fill-rule="nonzero" d="M6615.15 1030.38c0,0 489.65,936.43 627.64,901.18 177.92,-45.59 553.23,-998.27 553.23,-998.27 0,0 -1075.4,91.67 -1180.87,97.09z"/>
  <path fill="whitesmoke" fill-rule="nonzero" d="M7868.47 905.45c0,0 599.56,887.13 732.63,839.58 172.5,-61.36 431.25,-1041.65 431.25,-1041.65 0,0 -1059.15,187.28 -1163.88,202.07z"/>
  <path fill="#EBEBEB" fill-rule="nonzero" d="M9099.62 686.62c0,0 675.7,844.75 804.34,788.57 166.09,-72.2 339.08,-1066.29 339.08,-1066.29 0,0 -1040.66,256.04 -1143.42,277.72z"/>
  <path fill="#EBEBEB" fill-rule="nonzero" d="M1536.54 600.86c0,0 126.17,1023.4 271.07,1027.1 185.31,4.43 884.66,-801.62 884.66,-801.62 0,0 -1053.71,-202.31 -1155.73,-225.48z"/>
  <path fill="#455A64" fill-rule="nonzero" d="M11354.92 70.8l-27.6 10.11 -81.82 29.07 -133.32 47.07 -85.01 29.81 -98.57 32.04 -229.92 73.93 -275.99 83.05c-49.29,15.52 -101.28,29.57 -154.51,44.36l-165.1 45.59c-28.35,7.89 -56.93,16.02 -86.25,24.64l-89.21 22.67 -185.31 47.07c-593.37,145.15 -1204.09,261.78 -1810.55,342.36 -345,45.1 -708.23,84.03 -1086.25,112.37 -378.02,28.34 -769.79,43.29 -1171.46,46.49l-299.91 0 -295.71 -6.15 -73.93 -1.48 -73.93 -3.21 -144.91 -5.91 -143.91 -5.92 -142.44 -8.87c-94.38,-6.41 -188.27,-10.84 -280.93,-18.73l-275.02 -23.17c-90.69,-7.88 -179.89,-18.73 -268.61,-27.59l-130.32 -12.57 -130.12 -17.74c-345,-40.91 -669.79,-96.35 -972.89,-150.07 -301.87,-58.16 -582.07,-116.81 -834.9,-179.9l-185.06 -46.58c-60.37,-14.53 -118.05,-31.54 -174.72,-46.57 -112.86,-30.8 -219.81,-58.9 -318.14,-89.45 -98.32,-30.55 -190.98,-55.2 -274.27,-82.06l-228.93 -73.93c-34.26,-11.33 -67.03,-21.44 -97.1,-32.28l-84.52 -30.07 -131.59 -48.29 -81.31 -29.08 -27.6 -10.34c0,0 9.61,2.96 28.09,9.36l80.82 28.33 132.83 46.33 84.52 29.57c30.31,10.6 63.08,20.45 97.34,31.79l229.17 73.93c83.79,25.63 176.2,52.73 274.78,82.3 98.57,29.57 205.27,57.92 318.14,88.72 56.67,14.79 114.34,31.79 174.71,46.08l185.07 45.34c252.83,62.35 533.01,120.5 834.89,178.42 303.11,53.47 627.65,108.43 972.41,147.85l129.87 16.51 131.83 14.05c88.47,8.88 177.92,19.47 268.61,27.35l274.77 22.93c92.41,8.13 186.3,12.32 280.68,18.47l142.18 8.88 143.92 5.91 144.9 6.16 72.69 2.96 73.94 1.48 295.71 6.16 298.9 -0.01c401.67,-3.2 793.99,-19.47 1171.75,-45.59 377.77,-26.13 741,-67.03 1085.75,-111.64 605.99,-80.69 1216.65,-195.99 1810.23,-339.04l185.31 -46.58 89.21 -22.43 86.24 -24.64 165.11 -45.34c53.23,-14.79 105.23,-28.59 154.51,-43.87l276.24 -82.31 230.41 -73.93 98.57 -31.55 85.27 -29.32 133.56 -46.09 82.3 -28.34 26.41 -8.87z"/>
  <path fill="#E0E0E0" fill-rule="nonzero" d="M1011.16 464.1c-30.8,-8.88 -60.87,-17.75 -90.44,-27.11l-101.29 -30.06c-61.11,-18.24 -119.27,-35.49 -173.73,-52.99l-265.15 -86.74c-21.44,-6.9 -41.89,-13.55 -61.61,-20.45l-297.93 -106.71 -28.34 -10.6 17.5 -36.47 28.84 9.36 299.15 104.48c19.23,6.65 39.43,13.06 60.38,19.72l265.4 85.76c53.47,16.76 110.4,33.51 170.03,51.25l104.48 30.8c76.4,24.65 157.71,45.34 243.97,68.51l73.93 19.96 60.87 16.51c36.96,10.11 73.93,20.21 112.86,29.57l185.32 45.36c228.93,56.43 492.85,113.11 833.66,178.16 285.12,49.29 619.02,107.19 970.43,147.86l261.46 30.3 94.13 9.86c57.42,6.16 115.33,12.32 173.73,17.5l274.77 22.92c59.63,5.18 119.51,8.88 179.89,12.32 33.51,1.98 66.78,3.94 100.54,6.41l285.37 14.54 290.29 10.6 295.71 5.91 298.67 0c384.66,-2.96 778.46,-18.48 1170.03,-45.59 350.17,-26.12 714.63,-63.57 1084.28,-111.63 606.46,-81.18 1214.23,-197.15 1806.97,-341.04l409.56 -105.96 137.26 -37.7c45.59,-12.32 89.7,-24.64 132.09,-37.46l276.74 -82.56 411.84 -132.83 215.88 -73.93 28.83 -9.62 17.01 36.72 -28.34 10.35 -398.47 138.24 -230.16 73.93 -276.49 83.3c-42.88,13.31 -87.73,24.64 -134.05,38.44l-216.12 59.88c-18.73,5.18 -37.46,10.6 -56.43,15.53l-275.04 69.49c-596.23,145.82 -1204.33,263.59 -1812.44,344.96 -369.64,49.29 -736.57,86.25 -1087.98,112.61 -392.8,27.36 -788.56,42.89 -1174.46,46.09l-300.67 0.04 -731.88 -22.67 -142.93 -8.88c-34.01,-2.47 -67.53,-4.43 -101.04,-6.41 -60.62,-3.69 -120.75,-7.14 -180.63,-12.56l-274.76 -22.92c-59.39,-5.42 -117.8,-11.59 -175.95,-17.99l-93.15 -9.85 -262.69 -30.56c-353.87,-41.89 -688.27,-98.57 -974.13,-150.07 -340.56,-65.8 -606.21,-123.21 -836.62,-180.39l-185.31 -45.59c-39.19,-9.36 -77.62,-19.96 -115.33,-30.31l-59.64 -16.26 -72.45 -19.72c-53.96,-15.27 -105.96,-28.09 -156.22,-43.61z"/>
  <rect fill="#E0E0E0" fill-rule="nonzero" x="140.53" y="5989.47" width="1394.04" height="1453.18"/>
  <rect fill="#FAFAFA" fill-rule="nonzero" x="46.15" y="5989.47" width="1394.04" height="1453.18"/>
  <path fill="#E0E0E0" fill-rule="nonzero" d="M1440.68 7443.14l-1395.02 0 0 -1453.92 1395.02 -0.01 0 1453.93zm-1394.04 0l1393.05 0 0 -1453.18 -1393.05 0 0 1453.18z"/>
  <rect fill="white" fill-rule="nonzero" x="233.43" y="6184.88" width="1019.22" height="1062.59"/>
  <path fill="#E0E0E0" fill-rule="nonzero" d="M233.43 7254.38c-6.96,10.71 -15.26,20.59 -24.63,29.3 -16.27,17.25 -39.19,40.41 -64.82,65.79 -25.63,25.38 -49.29,47.56 -66.54,63.58 -8.82,9.25 -18.66,17.55 -29.3,24.66 6.88,-10.74 15.18,-20.52 24.63,-29.08 16.26,-17.25 39.18,-40.66 65.05,-65.79 25.88,-25.13 49.29,-48.05 66.54,-64.07 8.78,-9.14 18.56,-17.36 29.09,-24.4l-0.02 0.01z"/>
  <path fill="#E0E0E0" fill-rule="nonzero" d="M1252.65 7251.91c10.72,6.97 20.62,15.27 29.32,24.64 17.25,16.27 40.42,39.19 65.8,64.82 25.38,25.63 47.55,49.29 63.57,66.54 9.27,8.82 17.57,18.66 24.67,29.3 -10.74,-6.89 -20.52,-15.19 -29.08,-24.64 -17.25,-16.26 -40.67,-39.18 -65.79,-65.05 -25.13,-25.88 -49.29,-49.29 -64.07,-66.54 -9.07,-8.86 -17.25,-18.64 -24.41,-29.08l-0.01 0.01z"/>
  <path fill="#E0E0E0" fill-rule="nonzero" d="M1249.94 6187.84c7.07,-10.68 15.39,-20.51 24.66,-29.33 16.26,-17.25 39.18,-40.41 64.81,-65.79 25.63,-25.38 49.29,-47.56 66.54,-63.58 8.89,-9.28 18.82,-17.59 29.56,-24.65 -7.03,10.59 -15.34,20.38 -24.63,29.07 -16.27,17.25 -39.19,40.66 -64.82,65.79 -25.63,25.13 -49.29,48.05 -66.78,64.07 -8.87,9.16 -18.75,17.33 -29.34,24.4l0 0.02z"/>
  <path fill="#E0E0E0" fill-rule="nonzero" d="M230.72 6190.3c-10.65,-7.07 -20.48,-15.39 -29.3,-24.66 -17.01,-16.27 -40.41,-39.19 -65.55,-64.82 -25.14,-25.63 -47.81,-49.29 -63.83,-66.54 -9.44,-8.7 -17.78,-18.68 -24.66,-29.55 10.5,7.19 20.27,15.47 29.1,24.64 17,16.26 40.41,39.18 65.79,64.81 25.38,25.63 47.81,49.29 63.82,66.78 9.33,8.76 17.64,18.63 24.64,29.33l-0.01 0.01z"/>
  <path fill="#E0E0E0" fill-rule="nonzero" d="M1249.94 7247.48c0,0 0,-1.98 0,-5.18 0,-3.21 0,-8.63 0,-14.79 0,-13.55 0,-32.54 0,-57.42 0,-49.29 0,-123.21 0,-216.61 0,-186.05 0,-451.21 -1.97,-768.61l3.94 3.94 -1016.26 0 0.01 0.02 4.68 -4.44c0,390.1 0,754.81 0,1062.59l-3.94 -3.94 736.08 1.98 206.75 0 54.71 0 -0.02 -0.01 -53.96 0 -205.77 0 -739.28 1.97 -3.7 0 0 -3.7c0,-307.78 0,-672.5 0,-1062.58l0 -4.44 4.69 -0.01 1016.26 0 3.95 0 0 3.94c0,318.39 -1.48,584.53 -1.97,771.07 0,92.65 0,165.6 0,215.62 0,24.65 0,43.62 0,56.68 0,6.15 0,10.84 0,14.3 -0.89,3.39 -2.31,6.64 -4.19,9.61l-0.01 0.01z"/>
  <path fill="#E0E0E0" fill-rule="nonzero" d="M929.59 6718.15c0.01,90.48 -73.38,163.86 -163.87,163.86 -90.49,0 -163.87,-73.38 -163.87,-163.87 0,-90.49 73.38,-163.88 163.87,-163.88 0.09,0.01 0.17,0.01 0.25,0.01 90.36,0 163.63,73.27 163.63,163.63 0,0.08 0,0.15 0,0.24l-0.01 0.01z"/>
  <path fill="#263238" fill-rule="nonzero" d="M561.43 4287.89c0,0 0,-3.94 1.98,-11.59 1.97,-7.64 4.19,-18.97 7.14,-33.27 6.41,-29.81 16.02,-72.69 28.09,-127.64 24.65,-111.64 61.61,-271.07 106.46,-470.19l356.58 -1553.7 6.4 -27.36 5.17 27.36 7.89 34.5c138.74,616.06 264.42,1174.21 355.35,1578.6 44.85,201.82 81.08,365.2 106.21,478.81 12.33,56.19 21.69,98.56 28.35,130.11 2.96,14.54 5.42,24.64 7.14,34 1.72,9.36 1.97,11.83 1.97,11.83 0,0 -1.48,-3.94 -3.44,-11.58l-8.13 -33.51c-7.15,-30.31 -17.5,-73.94 -30.56,-129.88 -26.37,-113.35 -63.83,-276.48 -110.4,-477.82 -91.92,-404.14 -218.82,-961.06 -359.04,-1577.12l-7.89 -34.5 12.55 0 -360.27 1552.49 -110.4 468.21c-13.06,54.95 -23.41,98.57 -30.56,127.4 -3.44,14.05 -6.4,24.65 -8.38,33.02 -1.97,8.37 -2.21,11.83 -2.21,11.83z"/>
  <path fill="#455A64" fill-rule="nonzero" d="M561.18 4749.45l0 -390.1 1040.67 0 0 390.1c0,0 0,0 0,0 0,250.65 -203.27,453.92 -453.92,453.92 -0.22,0 -0.5,0 -0.72,0l-131.86 0c0.01,0 0.01,0 0.01,0 -250.74,0 -454.06,-203.22 -454.17,-453.95l-0.01 0.03z"/>
  <path fill="#263238" fill-rule="nonzero" d="M561.18 4359.35c4.44,5.03 8.41,10.51 11.84,16.26l31.79 49.29 114.58 178.91 374.33 592.91 2.71 4.19 -10.86 -0.01c141.45,-232.63 269.59,-443.57 362.99,-596.11l111.14 -179.9 30.8 -49.28c3.4,-5.65 7.23,-11.1 11.36,-16.25 -2.46,6.17 -5.53,12.14 -9.12,17.74l-28.84 49.28c-26.12,43.87 -62.59,105.72 -107.68,181.86 -92.66,153.77 -219.32,364.71 -359.79,598.08l-5.42 8.87 -5.42 -8.87 -2.71 -4.19 -371.13 -594.38 -111.14 -181.12 -29.82 -49.29c-3.55,-5.74 -6.81,-11.81 -9.59,-17.99l-0.02 0z"/>
  <path fill="#263238" fill-rule="nonzero" d="M1184.89 2088.05c0.01,62.73 -50.87,113.6 -113.59,113.6 -62.73,0 -113.6,-50.87 -113.6,-113.6 0,-62.73 50.87,-113.6 113.6,-113.6 0.06,-0.01 0.17,-0.01 0.24,-0.01 62.6,0 113.36,50.76 113.36,113.36 0,0.07 0,0.18 0,0.25l-0.01 0z"/>
  <path fill="#263238" fill-rule="nonzero" d="M1071.29 153.84c3.44,0 6.41,437.9 6.41,977.83 0,539.93 -2.97,977.82 -6.41,977.82 -3.45,0 -6.41,-437.89 -6.41,-977.82 0,-539.93 2.71,-977.83 6.41,-977.83z"/>
  <path fill="#263238" fill-rule="nonzero" d="M1130.18 5245.75c0.02,27.22 -22.06,49.29 -49.27,49.29 -27.22,0 -49.29,-22.07 -49.29,-49.29 0,-27.21 22.07,-49.29 49.29,-49.29 27.21,0 49.29,22.08 49.29,49.29l-0.02 0z"/>
  <g id="_1764572583680">
   <path fill="#263238" fill-rule="nonzero" d="M1059.95 5263.99l7.89 -3.94c-27.98,17.79 -46.19,47.56 -49.28,80.57 -0.71,8.24 -1.09,16.58 -1.09,24.85 0,24.29 3.1,48.51 9.21,72 2.22,10.1 7.64,22.67 17.99,22.17 10.35,-0.49 13.8,-11.58 15.27,-20.94 1.91,-11.36 2.86,-22.93 2.86,-34.48 0,-7.98 -0.46,-16.03 -1.36,-23.92 -0.07,1.59 -0.11,3.22 -0.11,4.82 0,23.37 8.05,46.05 22.79,64.18 2.96,3.69 7.4,7.63 12.07,6.4 4.68,-1.23 6.16,-6.4 7.4,-10.84 4.34,-16.04 6.86,-32.66 7.38,-49.29 1.1,14.77 6.51,28.92 15.52,40.67 5.06,6.11 12.58,9.65 20.51,9.65 6.75,0 13.26,-2.57 18.19,-7.18 3.47,-5.8 5.33,-12.44 5.33,-19.2 0,-3.08 -0.39,-6.16 -1.14,-9.15 -8.21,-58.2 -31.7,-113.43 -68.01,-159.7l-41.42 13.33zm0 0l0 0 0 0z"/>
  </g>
  <path fill="#6DA4FD" fill-rule="nonzero" d="M626.73 4359.35c0,0 -468.21,-539.18 -415.72,-558.65 52.49,-19.46 467.96,279.2 467.96,279.2 0,0 -357.32,-798.66 -285.85,-857.06 71.46,-58.41 448.01,706.75 448.01,706.75 0,0 -58.65,-1116.8 0,-1129.85 58.64,-13.06 272.54,1117.04 272.54,1117.04 0,0 318.39,-1032.51 409.07,-1032.51 90.69,0 -97.33,993.58 -97.33,993.58 0,0 376.77,-635.55 436.41,-551.02 59.64,84.53 -267.62,772.79 -267.62,772.79 0,0 474.13,-396.25 492.86,-345 18.73,51.25 -513.06,603.99 -513.06,603.99l-947.27 0.74z"/>
  <path fill="#263238" fill-rule="nonzero" d="M561.43 3547.62c3.21,-1.48 86.25,176.2 185.32,396.99 99.07,220.79 176.69,400.94 172.5,402.41 -4.19,1.47 -86.25,-176.44 -185.32,-397.24 -99.07,-220.8 -175.7,-400.68 -172.5,-402.16z"/>
  <path fill="#263238" fill-rule="nonzero" d="M939.2 3646.93c3.45,0 17.25,156.48 30.8,349.93 13.55,193.45 21.44,350.66 17.99,350.92 -3.46,0.25 -17.25,-156.48 -30.81,-349.93 -13.55,-193.45 -21.43,-350.67 -17.98,-350.92z"/>
  <path fill="#263238" fill-rule="nonzero" d="M1460.15 3146.7c-0.28,4.29 -1.21,8.53 -2.7,12.57 -2.64,9.52 -6.1,21.35 -10.36,35.48 -9.61,32.53 -22.92,76.63 -38.93,130.1 -33.02,109.91 -77.38,262.21 -123.21,431.25 -45.84,169.05 -82.56,323.07 -108.68,434.7 -12.81,54.46 -23.16,98.57 -30.8,132.33 -3.7,14.3 -6.41,26.13 -8.87,35.98 -0.8,4.25 -2.13,8.39 -3.95,12.32 -0.01,-0.57 -0.03,-1.16 -0.03,-1.74 0,-3.82 0.51,-7.64 1.51,-11.32 1.72,-9.62 3.69,-21.69 6.41,-36.23 5.67,-31.54 15.03,-77.12 26.86,-133.31 24.64,-112.37 59.87,-266.88 104.97,-436.18 45.1,-169.29 91.18,-320.35 126.18,-430.51 17.74,-54.45 32.53,-98.55 43.12,-128.87 5.18,-14.05 9.12,-24.64 12.56,-34.75 1.34,-4.22 3.35,-8.21 5.93,-11.82l-0.01 0z"/>
  <path fill="#263238" fill-rule="nonzero" d="M1685.38 3722.34c2.96,1.97 -88.22,138.24 -203.79,303.84 -115.58,165.6 -211.19,297.69 -214.4,297.69 -3.2,0 88.47,-138 204.05,-303.85 115.57,-165.84 211.43,-299.65 214.14,-297.68z"/>
  <path fill="#263238" fill-rule="nonzero" d="M784.44 4348.51c-14.89,-7.73 -28.68,-17.55 -40.89,-29.09 -31.1,-26.01 -61.12,-53.83 -89.21,-83.02 -28.21,-28.8 -55.05,-59.28 -79.87,-90.97 -11.3,-12.38 -20.79,-26.46 -28.07,-41.62 2.96,-2.22 51.51,56.43 117.3,123.21 65.79,66.78 123.21,117.79 120.74,121.49z"/>
  <path fill="#263238" fill-rule="nonzero" d="M1068.58 4133.62c9.59,36.33 15.12,73.68 16.49,111.16 3.57,23.71 5.44,47.78 5.44,71.79 0,13.5 -0.59,27.12 -1.69,40.55 -9.68,-36.23 -15.27,-73.66 -16.55,-111.13 -3.53,-23.75 -5.41,-47.78 -5.41,-71.82 0,-13.52 0.59,-27.08 1.7,-40.54l0.02 -0.01z"/>
  <path fill="white" fill-rule="nonzero" d="M1601.85 4602.33c-13.09,3.9 -26.61,6.75 -40.17,8.39 -24.64,4.44 -63.82,10.35 -110.64,17.01 -121.47,16.83 -245.25,27.96 -367.7,32.41 -29.12,0.93 -59.33,1.79 -88.69,1.79 -93.76,0 -188.1,-5.99 -281,-17.1 -46.82,-6.16 -84.52,-12.32 -110.4,-17.74 -13.44,-1.93 -26.87,-5.15 -39.84,-9.49 13.63,0.47 27.27,2.07 40.65,4.68 26.13,3.94 64.07,8.62 110.89,13.55 88.68,8.83 178.96,13.42 268.24,13.42 32.82,0 66.64,-0.98 99.13,-1.96 143.67,-4.93 273.54,-18.24 367.18,-28.84l110.89 -12.81c12.88,-2.14 25.88,-3.32 38.91,-3.32 0.83,0 1.74,0.03 2.55,0.03l0 -0.02z"/>
  <path fill="white" fill-rule="nonzero" d="M1601.85 4718.15c-13.08,4.07 -26.58,6.9 -40.18,8.39 -24.65,4.68 -63.83,10.6 -110.65,17.01 -93.4,12.81 -223.51,27.59 -367.67,32.77 -28.14,0.98 -57.53,1.56 -86.06,1.56 -94.52,0 -189.9,-5.77 -283.55,-17 -46.82,-6.16 -84.52,-12.32 -110.39,-17.74 -13.54,-2.16 -26.97,-5.38 -39.94,-9.71 13.6,0.62 27.3,2.21 40.66,4.68 26.13,3.94 64.07,8.87 110.89,13.55 88.67,8.83 178.95,13.42 268.23,13.42 32.82,0 66.64,-0.99 99.13,-1.97 143.67,-4.92 273.54,-18.23 367.18,-28.83l110.89 -12.82c13.73,-1.97 27.64,-3.15 41.46,-3.29l0 -0.02z"/>
  <path fill="#FAFAFA" fill-rule="nonzero" d="M8806.37 1953.99c0.02,0.01 -0.18,0.01 -0.18,0.01 -467.41,0 -846.47,379.06 -846.47,846.47 0,165.25 48.47,326.97 139.2,465.03l-123.21 310.25 320.36 -98.57c146.86,110.93 326.11,170.98 510.21,170.98 467.55,0 846.73,-379.17 846.73,-846.71 0,-467.55 -379.18,-846.72 -846.73,-846.72 0,0 -0.2,0 -0.2,0l0.29 -0.74z"/>
  <path fill="#263238" fill-rule="nonzero" d="M9659.75 2800.71c0.22,-2.48 0.33,-5.02 0.33,-7.51 0,-2.5 -0.11,-5.03 -0.32,-7.52 0,-10.6 0,-24.64 -1.23,-43.37 0,-9.62 0,-20.46 -1.48,-32.28 -1.48,-11.83 -3.45,-24.65 -5.42,-38.45 -1.98,-13.81 -4.19,-28.84 -6.41,-44.85 -2.22,-16.01 -8.13,-32.28 -12.32,-49.29 -21.74,-86.06 -57.63,-168.21 -105.97,-242.76 -142,-223.87 -380.08,-369.8 -644.21,-394.28 -25,-2 -50.13,-3.18 -75.27,-3.18 -13.92,0 -28.16,0.32 -41.97,0.96 -19.96,0 -40.17,0 -60.13,3.7l-60.62 9.12c-82.9,15.21 -163.55,42.69 -238.53,81.12 -163.05,83.07 -295.29,216.87 -376.61,380.76 -43.71,85.65 -72.41,178.72 -84,274.2 -3.66,24.42 -5.82,49.33 -6.16,73.97 -1.22,16.7 -1.88,33.63 -1.88,50.39 0,7.81 0.17,15.78 0.41,23.5 2.12,49.61 8.6,99.33 18.76,147.94 22.24,105.19 64.04,205.75 123.22,295.67l0 -8.88c-41.16,102.02 -81.32,202.31 -120.5,300.15l-7.15 17.74 18.48 -5.18 320.36 -88.22 -7.89 -1.48c107.73,81.46 233.66,136.45 366.61,160.16 47.06,8.73 95.06,13.13 142.97,13.13 14.95,0 30.28,-0.58 45.14,-1.34 30.09,-0.62 60.44,-3.59 90.17,-8.58l43.86 -6.9c14.3,-2.71 28.35,-6.9 42.39,-10.35 197.16,-50.21 370.52,-168.96 488.43,-334.85 43.87,-61.32 79.29,-128.45 104.9,-199.39l16.27 -44.85c3.69,-14.79 7.14,-29.08 10.59,-42.63l9.86 -39.18c2.22,-12.32 3.7,-24.65 5.42,-35.73 2.71,-22.67 6.65,-42.63 7.64,-60.13 0.98,-17.5 0,-31.79 1.48,-44.11 1.48,-12.32 0,-19.96 0,-26.86 0.17,-1.51 0.25,-3.05 0.25,-4.56 0,-1.52 -0.08,-3.06 -0.22,-4.57 -0.77,2.9 -1.19,5.88 -1.22,8.88 0,6.9 -1.23,15.77 -2.22,26.86 -0.99,11.09 -1.72,26.86 -2.96,43.87 -1.24,17 -5.68,37.21 -8.88,59.63 -57.72,332.65 -305.94,600.17 -633.34,682.6 -13.8,3.2 -27.59,7.39 -41.89,10.11l-43.12 6.4c-29.16,4.8 -58.91,7.49 -88.44,7.85 -13.96,0.82 -28.3,1.2 -42.35,1.2 -47.61,0 -95.22,-4.5 -141.98,-13.22 -130.21,-23.68 -253.14,-77.98 -358.56,-157.95l-3.69 -2.71 -4.19 0 -320.36 87.48 11.09 12.82 121 -300.15 1.72 -4.68 -2.71 -4.19c-84.75,-128.89 -133.12,-278.87 -139.46,-433 -0.26,-7.61 -0.42,-15.35 -0.42,-23.01 0,-16.35 0.62,-32.94 1.88,-49.21 0.16,-23.88 2.27,-47.88 5.94,-71.47 11.44,-93.38 39.36,-184.32 82.28,-268.1 40.82,-81.01 94.01,-155.52 157.43,-220.34 62.33,-60.79 133.23,-112.55 210.04,-153.29 73.44,-38 152.43,-65.33 233.81,-80.49l59.14 -9.36c19.72,-2.71 39.42,-2.47 58.9,-3.94 14.44,-0.6 29.08,-1.05 43.59,-1.05 23.84,0 48.04,1.03 71.76,2.76 259.64,23.22 494.57,164.94 636.49,383.69 48.39,73.2 85.05,153.99 107.75,238.76 4.69,17.5 9.12,34.01 13.06,49.29 3.94,15.28 5.18,30.56 7.4,44.36 2.21,13.8 4.43,26.37 6.15,37.96 1.73,11.58 1.73,22.42 2.47,32.03 1.23,18.24 2.47,32.54 3.21,43.38 0.01,5 0.53,10.06 1.43,15z"/>
  <path fill="#263238" fill-rule="nonzero" d="M5403.71 7565.11c-14.53,49.29 -79.84,2193.19 317.65,3886.38l1978.07 4.44c26.36,-1156.72 468.21,-2955.39 -171.27,-3950.21l-2124.45 59.39z"/>
  <g id="_1764572578832">
   <path fill="#263238" fill-rule="nonzero" d="M7400.51 3472.71c65.3,237.56 164.12,427.8 260.47,523.42 96.35,95.61 199.36,207.49 195.9,343.02 -1.48,53.23 -19.22,109.66 4.2,157.71 30.06,62.11 110.64,75.66 171.02,109.66 84.31,52.17 135.73,144.36 135.73,243.54 0,5.32 -0.17,10.66 -0.45,15.94 -7.19,102.99 -52.62,199.73 -127.17,271.09 -73.94,75.4 -193.69,128.14 -286.85,76.64 -56.19,-31.05 -88.22,-91.67 -116.56,-149.33 -146.68,-298.52 -279.42,-603.28 -398.19,-914.26l161.9 -677.43zm0 0l0 0 0 0z"/>
  </g>
  <g id="_1764572578784">
   <path fill="#263238" fill-rule="nonzero" d="M6800.21 2455.71c-115.99,-128.77 -281.3,-202.42 -454.69,-202.42 -337.87,0 -611.88,274 -611.88,611.87 0,2.17 0,4.34 0,6.51 1.73,158.94 63.83,325.77 0,471.64 -44.36,103.51 -147.85,181.62 -161.4,293.25 -16.52,129.38 94.38,246.42 88.47,377.28 -3.7,85.27 -57.17,160.42 -118.53,219.56 -61.36,59.15 -132.82,107.69 -189.25,172.5 -156.48,177.92 -166.34,458.85 -49.29,663.88 117.04,205.03 346.72,334.16 581.81,362 235.09,27.84 475.11,-36.97 683.34,-150.08 135.54,-73.93 262.94,-170.52 343.52,-302.12 80.58,-131.59 108.43,-302.12 44.6,-443.56l-156.7 -2080.31zm0 0l0 0 0 0z"/>
  </g>
  <path fill="#455A64" fill-rule="nonzero" d="M6054.03 2359.86c4.87,-0.05 10.07,-0.15 15.08,-0.15 30.03,0 60.28,1.77 90.12,5.1 83.45,15.21 165.91,38.2 245.17,68.44 78.34,29.55 161.61,44.68 245.29,44.68 2.38,0 5.01,0 7.4,0 25.98,-1.26 51.9,-5.79 76.82,-13.35 9.27,-2.51 18.24,-6.18 26.63,-10.83 -33.89,8.69 -68.83,14.01 -103.77,15.75 -84.82,-1.42 -169.15,-17.64 -248.59,-47.57 -79.91,-30.53 -163.34,-52.5 -247.96,-65.46 -12.92,-1.23 -26.01,-1.86 -39.04,-1.86 -13.03,0 -26.11,0.63 -39.05,1.82 -0.63,-0.03 -1.27,-0.04 -1.89,-0.04 -8.85,0 -17.67,1.18 -26.21,3.47l0 0z"/>
  <path fill="#6DA4FD" fill-rule="nonzero" d="M8044.67 5295.28c-1.96,-30.42 -6.09,-60.9 -12.08,-90.69 -52.7,-247.47 -224.26,-453.34 -458.15,-549.8l-595.12 -251.11 -680.13 17.5c0,0 -505.42,230.9 -607.2,351.15 -7.63,8.88 -75.4,75.9 -79.84,102.03l-511.78 1519.49 -654.27 407.84 179.4 228.68 964.52 -91.42 116.8 -189.99c-63.83,143.17 -318.38,724 -318.38,901.92 0,0 1488.66,318.64 2081.32,259 260.72,-26.37 322.57,-50.76 322.57,-50.76l-173.98 -652.06c144.16,-9.85 291.52,-98.56 350.66,-221.78 102.76,-213.65 94.14,-1403.16 75.66,-1690z"/>
  <polygon fill="#E0E0E0" fill-rule="nonzero" points="3398.04,5521.75 3295.53,5521.75 3436,6847.77 4648.41,6764.47 4511.65,5622.78 "/>
  <polygon fill="#FAFAFA" fill-rule="nonzero" points="3398.04,5456.2 3505.24,6801.2 5899.03,6724.06 5604.05,5456.2 4527.91,5560.19 "/>
  <path fill="#263238" fill-rule="nonzero" d="M3398.04 5457.43l19.23 1.48 57.91 4.92 224.25 19.23 828.98 73.93 0 -0.01 1076.15 -104.97 5.17 0 0 4.92c90.93,389.36 190.74,817.89 295.72,1267.87l1.72 7.63 -7.89 0.01 -112.86 3.45 -2280.68 71.96 -4.93 0 0 -4.93c-31.79,-413.01 -57.66,-749.63 -75.9,-983.49 -8.62,-116.06 -15.52,-206.5 -19.96,-268.6 -2.3,-30.24 -4.03,-53.4 -5.18,-69.49 0,-15.77 0,-24.65 0,-24.65 0,0 0,8.63 2.22,24.65 2.22,16.01 3.7,39.91 6.16,70.47 5.42,62.35 13.06,153.04 22.92,269.59 19.22,233.12 46.82,568.5 80.82,979.79l-5.17 -4.43 2280.67 -73.94 113.11 -3.44 -6.16 7.63c-104.48,-449.72 -203.79,-878.27 -294.23,-1267.86l6.16 4.43 -1076.15 102.52 0.01 0 -825.28 -78.37 -224.99 -21.68 -58.9 -5.91 -22.92 -2.71z"/>
  <path fill="#263238" fill-rule="nonzero" d="M4723.08 6745.74c-1.8,-3.67 -3.14,-7.57 -3.93,-11.58 -2.21,-9.12 -5.18,-20.21 -8.38,-33.51 -7.14,-29.33 -16.76,-71.71 -28.09,-123.22 -22.92,-105.22 -51.51,-250.86 -78.61,-412.76 -27.1,-161.9 -47.07,-309.02 -59.63,-415.72 -6.16,-53.47 -10.85,-96.6 -13.56,-126.67 -1.23,-13.8 -2.21,-24.64 -2.96,-34.5 -0.31,-1.98 -0.48,-4 -0.48,-6.02 0,-2.02 0.17,-4.05 0.48,-6.04 1.26,3.84 2.18,7.81 2.71,11.82 0,9.36 2.96,20.45 5.18,34.26 4.43,31.54 10.35,73.93 17.74,125.92 14.79,106.45 36.48,253.32 63.34,414.98 26.86,161.66 54.21,307.54 73.93,413.01 9.85,51.26 17.99,93.4 24.64,124.69 2.47,13.81 4.69,24.65 6.16,34.26 0.92,3.61 1.43,7.35 1.47,11.08l-0.01 0z"/>
  <g id="_1764572573552">
   <path fill="#FFBE9D" fill-rule="nonzero" d="M4391.63 7066.59l-221.78 -162.64 12.07 -369.65c50.89,11.01 89.4,52.88 96.12,104.48 9.12,86.74 16.76,169.05 16.76,169.05l69.74 20.95 -9.61 -48.05 169.54 -241.5c0,0 64.32,47.56 37.46,110.15 30.8,-30.06 79.59,-5.17 73.93,22.67l11.83 -65.79c0,0 77.13,-22.92 73.93,55.2 -0.07,31.24 -3.24,62.53 -9.15,93.14l269.34 0c0,0 -77.87,131.6 -123.21,167.32 -45.34,35.73 -454.17,146.63 -454.17,146.63l-12.8 -1.96zm0 0l0 0 0 0z"/>
  </g>
  <path fill="#EB996E" fill-rule="nonzero" d="M4412.09 6995.62c-37.23,-63.96 -56.92,-136.8 -56.92,-210.85 0,-0.51 0,-1.07 0,-1.58 3.94,0 11.09,49.28 26.86,106.69 15.77,57.41 33.51,104.02 30.06,105.74z"/>
  <path fill="#EB996E" fill-rule="nonzero" d="M4501.79 6938.45c-13,-47.71 -22.13,-96.67 -26.85,-145.85l0 -2.22 0 -1.97 4.19 -7.14c23.92,-46.47 51.69,-91.1 82.85,-132.93 -20.12,48.18 -44.31,94.99 -71.75,139.27l-4.19 7.14 0 -3.94c9.33,48.46 14.7,98.26 15.79,147.63l-0.04 0.01z"/>
  <path fill="#EB996E" fill-rule="nonzero" d="M4611.7 6895.83c-6.93,-28.68 -10.55,-58.21 -10.6,-87.73l0 -1.48c3.2,-14.05 6.16,-28.59 9.61,-43.62 7.62,-43.69 19.51,-86.56 35.26,-127.92 -3.41,44.13 -11.29,88.17 -22.94,130.84l-10.11 43.12 0 -1.48c1.25,12.79 1.88,25.73 1.88,38.59 0,16.56 -1.02,33.26 -3.07,49.69l-0.03 -0.01z"/>
  <path fill="#FFBE9D" fill-rule="nonzero" d="M7101.84 2659.01l0 121 24.64 1809.75c2.96,209.96 -175.21,379.99 -400.19,381.47l0 0c-227.21,1.48 -416.71,-169.3 -423.12,-381.47 -6.9,-221.79 -17.98,-457.12 -17.98,-457.12 0,0 -288.32,-39.68 -358.06,-412.28 -34.75,-185.31 -33.76,-490.88 -24.65,-740.75 6.56,-212.85 181.1,-382.14 394.1,-382.14 11.12,0 22.38,0.53 33.45,1.44l771.81 60.1z"/>
  <path fill="#263238" fill-rule="nonzero" d="M6044.42 3249.69c1.01,25.79 21.77,46.44 47.56,47.33 1.15,0.07 2.31,0.12 3.47,0.12 24.88,0 45.22,-19.86 45.82,-44.74 -1.01,-25.77 -21.77,-46.42 -47.56,-47.3 -1.23,-0.1 -2.47,-0.15 -3.71,-0.15 -24.85,0 -45.14,19.91 -45.58,44.74z"/>
  <path fill="#263238" fill-rule="nonzero" d="M5974.69 3136.6c6.15,5.91 41.89,-21.94 93.39,-23.17 51.51,-1.23 90.2,24.65 95.62,17.01 5.42,-7.64 -3.7,-14.05 -20.45,-24.65 -21.43,-14.02 -46.52,-21.53 -72.13,-21.53 -1.57,0 -3.19,0.03 -4.76,0.09 -26.81,0.72 -52.72,9.99 -73.94,26.36 -15.28,11.59 -20.7,22.92 -17.73,25.89z"/>
  <path fill="#263238" fill-rule="nonzero" d="M6553.79 3249.69c1,25.79 21.76,46.44 47.55,47.33 1.15,0.07 2.31,0.12 3.47,0.12 24.88,0 45.23,-19.86 45.82,-44.74 -1.01,-25.77 -21.77,-46.42 -47.56,-47.3 -1.14,-0.09 -2.3,-0.13 -3.46,-0.13 -24.89,0 -45.23,19.85 -45.82,44.72z"/>
  <path fill="#263238" fill-rule="nonzero" d="M6482.82 3132.15c6.15,6.16 41.89,-21.93 93.39,-23.16 51.51,-1.23 90.2,24.64 95.62,17.01 5.42,-7.64 -3.45,-14.05 -20.45,-24.65 -21.34,-13.88 -46.31,-21.29 -71.78,-21.29 -1.7,0 -3.43,0.03 -5.12,0.09 -26.76,0.67 -52.68,9.83 -73.92,26.13 -15.53,11.59 -20.71,23.16 -17.74,25.87z"/>
  <path fill="#263238" fill-rule="nonzero" d="M6305.88 3520.52c-27.43,-7.78 -55.78,-12.17 -84.26,-12.84 -13.31,0 -25.87,-3.44 -28.34,-12.32 -0.29,-2.47 -0.44,-4.97 -0.44,-7.48 0,-11.15 2.78,-22.12 8.06,-31.92l36.47 -101.53c49.29,-144.4 86,-263.18 80.33,-265.15 -5.67,-1.96 -51.25,113.6 -101.53,258l-34.75 102.27c-4.99,10.48 -7.61,21.98 -7.61,33.6 0,6.19 0.76,12.39 2.21,18.4 4.24,9.26 12.51,16.07 22.42,18.47 6.97,1.81 14.16,2.72 21.36,2.72 0.35,0 0.72,-0.01 1.07,-0.01 11.01,1.02 22.13,1.54 33.21,1.54 17.3,0 34.74,-1.27 51.82,-3.76l-0.02 0.01z"/>
  <path fill="#EB996E" fill-rule="nonzero" d="M6287.15 4132.64c176.18,-2.25 348.66,-53.54 497.54,-147.87 148.88,-94.33 -114.58,260.47 -490.14,235.84l-7.4 -87.97z"/>
  <g id="_1764572570048">
   <path fill="#EB996E" fill-rule="nonzero" d="M6331.26 3644.22c17.54,-23.33 45.05,-37.07 74.25,-37.07 2.69,0 5.38,0.13 8.06,0.36 23.13,1.28 44.73,12.09 59.63,29.81 8.28,9.74 12.83,22.13 12.83,34.93 0,9.26 -2.39,18.36 -6.92,26.42 -11.88,14.01 -29.35,22.11 -47.72,22.11 -6.64,0 -13.25,-1.06 -19.54,-3.13 -24.68,-7.88 -47.6,-20.65 -67.28,-37.45 -5.82,-4.02 -10.92,-9.03 -15.03,-14.79 -1.93,-2.88 -2.96,-6.27 -2.96,-9.73 0,-3.47 1.03,-6.86 2.96,-9.73l1.72 -1.73zm0 0l0 0 0 0z"/>
  </g>
  <path fill="#263238" fill-rule="nonzero" d="M6458.91 3552.05c-8.38,0 -6.9,55.7 -53.97,96.85 -47.06,41.15 -106.69,36.71 -106.95,44.36 0,3.7 13.56,10.6 38.94,10.6 32.86,-0.48 64.57,-12.53 89.45,-34 23.79,-20.62 38.67,-49.73 41.41,-81.08 2.21,-23.66 -4.93,-37.21 -8.88,-36.73z"/>
  <path fill="#263238" fill-rule="nonzero" d="M6463.84 2930.09c5.42,13.8 56.93,5.67 117.8,11.34 60.86,5.66 110.15,20.94 118.04,8.13 3.2,-6.16 -5.67,-19.23 -24.65,-32.28 -31.78,-18.83 -68.07,-28.78 -105.02,-28.78 -25.5,0 -50.85,4.75 -74.62,13.98 -22.92,9.62 -33.77,20.95 -31.55,27.61z"/>
  <path fill="#263238" fill-rule="nonzero" d="M5989.47 2986.52c9.61,11.34 44.84,-1.72 87.48,-3.44 42.64,-1.73 79.35,5.67 87.23,-6.9 3.7,-5.92 -2.47,-17.75 -18.48,-28.35 -19,-11.47 -40.78,-17.56 -62.98,-17.56 -2.9,0 -5.84,0.12 -8.73,0.31 -25.06,0.8 -49.31,9.43 -69.25,24.64 -14.78,13.31 -19.21,25.63 -15.27,31.3z"/>
  <g id="_1764172397872">
   <path fill="#263238" fill-rule="nonzero" d="M6631.17 2540.49c-100.05,133.07 3.94,320.35 119.27,441.59 115.33,121.24 255.79,259.48 224.25,422.86 -36.48,189.5 -295.72,310.75 -257.03,499.76 14.05,69 68.51,127.9 68.76,197.15 0,127.16 -164.12,188.76 -211.43,306.8 -64.82,161.66 113.59,322.82 116.31,497.04 1.48,98.57 -54.71,191.23 -57.67,290.04 -6.15,202.56 233.62,350.91 430.02,301.13 196.4,-49.78 330.96,-241.5 373.83,-439.63 42.87,-198.13 -22.18,-476.58 -53.97,-676.69l340.32 78.86c63.57,-60.37 -23.17,-124.69 -37.46,-211.19 -35.73,-216.61 -178.16,-399.95 -246.43,-608.92 -59.38,-182.61 -59.63,-378.02 -85.5,-568.25 -25.88,-190.25 -85.02,-388.37 -230.17,-513.81 -145.14,-125.43 -396.49,-140.95 -514.04,10.84l20.94 -27.58zm0 0l0 0 0 0z"/>
  </g>
  <path fill="#FFBE9D" fill-rule="nonzero" d="M6851.72 6010.16l-103.51 -140.71 140.71 -313.45 49.29 -734.1c0,0 -102.02,-26.86 -112.37,88.47 -6.15,67.77 -11.58,128.39 -11.58,128.39l-115.82 -37.2 -164.86 49.28c0,0 7.39,83.79 73.93,67.28 33.3,-8.46 67.65,-12.73 102.06,-12.73 5.94,0 12.04,0.15 17.94,0.41l63.08 92.66 0 33.27 -83.79 -59.88 -165.59 -0.03 -102.5 88.47c0,0 34.75,82.07 88.47,57.17 0,0 -89.45,241.99 -98.57,287.58 0,0 -91.18,235.83 0,372.36 62.01,89.83 134.29,173.46 213.95,248.19l209.16 -215.43z"/>
  <path fill="#EB996E" fill-rule="nonzero" d="M6893.12 5293.07c4.75,-9.31 7.23,-19.62 7.23,-30.07 0,-2.21 -0.12,-4.46 -0.33,-6.66 -8.97,-29.99 -21.06,-59.18 -35.96,-86.73 -20.26,-40.44 -36.9,-82.95 -49.3,-126.47 24.15,38.28 45.02,78.94 61.84,121.03 7.4,16.76 14.54,32.78 21.19,49.29 6.76,13.43 10.89,28.13 12.08,43.13 0.07,1.02 0.1,2.05 0.1,3.07 0,9.39 -2.69,18.59 -7.73,26.51 -4.93,5.42 -8.63,7.39 -9.12,6.9z"/>
  <path fill="#EB996E" fill-rule="nonzero" d="M6849.99 5274.09c-27.33,-11.55 -52.97,-27.06 -75.89,-45.86 -39.91,-28.34 -70.23,-54.71 -67.27,-58.15 26.05,13.52 50.93,29.63 73.93,47.83 25.59,15.31 48.98,34.29 69.23,56.18l0 0z"/>
  <path fill="#EB996E" fill-rule="nonzero" d="M6775.82 5412.58c-14.16,-10.5 -26.02,-23.88 -34.75,-39.19 -10.64,-15.42 -19.79,-32.03 -27.11,-49.29 -4.36,-10.22 -8.31,-20.85 -11.59,-31.54 -0.77,-4.24 -3.39,-7.93 -7.13,-10.09 -5.03,-1.72 -10.26,-2.8 -15.53,-3.2 -33.76,-4.43 -65.79,-10.1 -91.42,-12.56l1.72 -0.01c-9.23,5.27 -17.56,12.02 -24.64,19.96 -7.14,7.39 -13.31,13.8 -18.73,18.73 -10.84,10.35 -19.22,14.3 -19.71,13.06 -0.5,-1.24 5.91,-5.92 15.03,-17.25l17.01 -20.46c7.34,-10.04 16.78,-18.45 27.58,-24.64l1.74 0c27.84,1.48 58.9,6.41 92.9,10.84 6.68,0.46 13.25,1.97 19.47,4.44 6.65,3.69 11.54,9.91 13.56,17.25 3.44,11.59 6.4,21.44 10.34,31.3 6.84,17.02 15.12,33.57 24.63,49.27 16.52,26.63 28.11,41.9 26.63,43.38z"/>
  <path fill="#EB996E" fill-rule="nonzero" d="M6621.8 5432.78c-0.08,-2.85 -0.14,-5.87 -0.14,-8.76 0,-24.42 3.41,-48.82 10.01,-72.3 3.17,-27.24 10.87,-53.85 22.65,-78.61 0.07,2.75 0.14,5.61 0.14,8.41 0,24.56 -3.47,49.04 -10.24,72.65 -3.22,27.19 -10.83,53.82 -22.43,78.63l0.01 -0.02z"/>
  <path fill="#EB996E" fill-rule="nonzero" d="M6746.49 5571.28c0.46,-2.43 0.68,-4.9 0.68,-7.37 0,-5.98 -1.32,-11.88 -3.88,-17.28 -4.62,-8.07 -11.7,-14.47 -20.21,-18.23 -5.69,-2.02 -11.69,-3.08 -17.74,-3.08 -6.04,0 -12.05,1.06 -17.74,3.08 -14.51,5.22 -28.25,12.54 -40.68,21.69 -14.91,10.85 -31.61,19.22 -49.26,24.64 -5.18,1.49 -10.54,2.25 -15.91,2.25 -17.51,0 -34.08,-8.01 -44.97,-21.72 -4.3,-6.75 -6.59,-14.62 -6.59,-22.64 0,-4.53 0.73,-9.05 2.17,-13.34 3.95,-11.15 10.08,-21.48 17.97,-30.32 27.57,-32.04 58.77,-60.81 92.89,-85.73 15.47,-11.55 33.64,-18.94 52.75,-21.45 2.32,-0.2 4.65,-0.3 6.98,-0.3 14.89,0 29.51,4.03 42.31,11.63 20.01,12.36 36.92,29.27 49.27,49.29 5.37,6.64 9.63,14.15 12.58,22.18 -6.16,-5.79 -11.71,-12.27 -16.5,-19.22 -13.26,-17.95 -30.07,-33.06 -49.29,-44.37 -11.04,-5.88 -23.36,-8.96 -35.87,-8.96 -2.42,0 -4.87,0.12 -7.27,0.34 -17.13,2.77 -33.33,9.83 -47.05,20.45 -32.7,24.9 -62.89,53.43 -89.69,84.57 -14.04,15.77 -23.16,36.22 -13.06,51.01 8.83,10.5 21.9,16.6 35.67,16.6 4.1,0 8.17,-0.55 12.12,-1.61 34.75,-9.36 60.38,-37.7 90.93,-44.6 5.6,-1.75 11.46,-2.64 17.33,-2.64 8.2,0 16.34,1.75 23.82,5.1 9.52,4.89 17.1,12.89 21.44,22.68 4.69,18.72 -3.2,28.08 -3.2,27.35z"/>
  <path fill="#263238" fill-rule="nonzero" d="M7825.35 7105.04c-6.64,8.88 -14.21,17.16 -22.43,24.63 -23.08,21.18 -49.73,38.3 -78.61,50.52 -45.8,19.58 -95.26,29.83 -145.12,29.83 -65.97,-0.07 -131.37,-14.13 -191.5,-41.17 -72.36,-32.94 -140.36,-75.48 -201.63,-126.17 -66.78,-53.73 -136.27,-112.62 -207.73,-176.7 -75.2,-66.71 -145.24,-139.54 -208.98,-217.29 -66.92,-84.24 -127.71,-174.66 -180.83,-268.4 -11.59,-20.45 -22.92,-40.91 -34.5,-60.87l-2.22 -4.19 3.45 -3.44 378.02 -389.85 3.2 -3.44 4.19 2.46c246.43,152.79 454.41,289.07 601.77,382.95l172.5 109.9 45.59 29.33 11.83 7.64 3.7 2.96c0,0 -1.48,0 -4.43,-1.98l-12.07 -6.9 -46.58 -27.85c-40.67,-24.64 -98.57,-60.62 -173.98,-106.95 -147.86,-92.41 -356.34,-226.95 -604.24,-379l7.39 0 -376.78 388.87 0 -7.64c11.34,20.21 22.93,40.41 34.26,60.87 53.02,92.98 113.89,183.25 180.63,267.13 62.93,77.24 132.8,150.1 207.28,216.28 143.17,126.17 271.07,246.42 404.88,303.35 58.88,27.19 122.9,41.63 187.72,42.42 1.12,0.05 2.26,0.05 3.36,0.05 47.91,0 95.45,-9.22 139.84,-27.13 28.72,-11.63 55.34,-27.91 78.84,-48.05 16.03,-14.04 23.18,-22.66 23.18,-22.17z"/>
  <path fill="#263238" fill-rule="nonzero" d="M7419.72 5542.69c0.39,4.37 0.6,8.8 0.6,13.18 0,4.39 -0.21,8.81 -0.6,13.18 0,19.72 -1.22,43.62 -1.97,71.47 -2.22,63.82 -5.18,145.64 -8.38,236.32 -3.21,90.69 -7.15,175.71 -10.6,236.08l-4.43 71.46c-0.04,8.82 -1.2,17.6 -3.43,26.12 -1.22,-6.03 -1.85,-12.18 -1.85,-18.33 0,-2.67 0.12,-5.36 0.36,-8.03 0,-17 0,-41.4 0,-71.7 0,-60.38 3.44,-143.92 6.9,-236.08 3.45,-92.16 7.89,-175.7 12.07,-236.08 0.32,-32.8 4.2,-65.55 11.34,-97.56l-0.01 -0.03z"/>
  <path fill="#263238" fill-rule="nonzero" d="M7731.71 4894.1c0,2.22 -26.62,11.34 -66.29,34.75 -23.13,13.54 -45.18,29.39 -65.56,46.83 -49.83,43.01 -90.18,96.29 -118.01,156 -11.38,24.2 -20.64,49.72 -27.38,75.64 -11.82,44.6 -13.05,73.93 -15.52,73.93 -0.64,-3.34 -0.95,-6.73 -0.95,-10.12 0,-3.39 0.31,-6.78 0.95,-10.1 0.76,-18.48 3.28,-36.91 7.37,-54.94 5.49,-26.93 13.84,-53.39 24.68,-78.61 27.4,-62.02 68.97,-116.84 121.22,-159.95 21.25,-17.59 44.37,-32.99 68.74,-45.83 16.28,-8.84 33.42,-16.23 51.02,-21.93 6.24,-2.9 12.91,-4.83 19.73,-5.68l0 0.01z"/>
  <path fill="#263238" fill-rule="nonzero" d="M5808.34 6267.18c-6.94,-12.48 -12.92,-25.53 -17.75,-38.94 -10.6,-24.64 -25.87,-62.34 -42.63,-108.67 -33.02,-92.16 -78.11,-224.01 -78.61,-376.29 0.02,-0.12 0.02,-0.19 0.02,-0.27 0,-36.78 3.09,-73.66 9.12,-109.87 6.44,-33.63 14.81,-67.33 24.62,-100.06 18.24,-62.59 35.49,-118.28 44.85,-166.33 6.44,-30.25 9.72,-61.17 9.72,-92.11 0,-7.65 -0.21,-15.41 -0.59,-23 -1.48,-27.1 -5.18,-42.14 -3.7,-42.39 1.43,3.44 2.51,7.01 3.2,10.63 2.6,10.34 4.45,20.92 5.43,31.54 1.37,13.67 2.07,27.48 2.07,41.24 0,25.3 -2.35,50.71 -6.97,75.57 -8.39,49.29 -24.65,105.47 -42.63,168.07 -8.39,31.29 -17.01,64.32 -22.92,98.56 -5.7,35.36 -8.65,71.49 -8.65,107.36 0,0.25 0,0.58 0,0.82 0,149.58 43.62,280.68 73.93,373.34 15.53,46.57 29.58,84.02 38.69,109.9 5.37,13.26 9.65,26.96 12.79,40.91l0.01 -0.01z"/>
  <path fill="#263238" fill-rule="nonzero" d="M7014.85 7268.42c-3.42,2.19 -7.17,3.86 -11.1,4.92l-32.04 11.83c-27.84,10.1 -68.99,22.92 -120.26,36.97 -51.26,14.04 -113.1,28.09 -182.35,40.66 -69.25,12.57 -145.88,21.68 -226.96,27.35 -81.07,5.68 -158.45,5.42 -228.68,2.97 -70.22,-2.46 -133.32,-8.88 -186.05,-16.27 -52.73,-7.38 -95.12,-14.29 -123.21,-20.7l-33.27 -7.4c-3.98,-0.67 -7.88,-1.83 -11.58,-3.45 2,-0.32 4.02,-0.49 6.04,-0.49 2.02,0 4.04,0.17 6.03,0.49l33.77 5.18c29.32,4.92 71.7,10.84 123.21,16.51 51.5,5.67 115.57,10.84 185.56,13.55 69.98,2.71 147.85,1.23 227.45,-3.94 79.59,-5.17 156.73,-15.27 225.73,-26.37 68.99,-11.09 130.84,-24.64 182.11,-37.7 51.26,-13.06 92.65,-24.64 120.99,-33.01l32.78 -9.36c3.83,-1.16 7.83,-1.75 11.83,-1.75l0 0.01z"/>
  <path fill="#263238" fill-rule="nonzero" d="M5721.36 6716.18c-1.83,12.93 -5.34,25.63 -10.35,37.69 -8.13,24.64 -20.94,57.91 -36.71,99.8 -32.04,84.03 -77.13,199.36 -124.69,327.75 -47.57,128.39 -88.48,246.43 -116.07,330.71l-32.28 101.27c-3.21,12.64 -7.5,25.08 -12.81,36.98 1.57,-12.92 4.33,-25.73 8.11,-38.2 5.67,-24.64 15.53,-59.38 28.09,-102.75 24.65,-86.01 65.06,-203.8 112.87,-332.43 47.8,-128.63 94.13,-243.47 128.13,-326.77l40.67 -98.56c9.61,-22.68 14.3,-35.74 15.04,-35.49z"/>
  <path fill="#455A64" fill-rule="nonzero" d="M7445.61 11446.82c-0.16,-1.52 -0.24,-3.05 -0.24,-4.56 0,-1.52 0.08,-3.05 0.24,-4.57 0,-6.65 0,-15.27 0,-26.62 0,-24.64 -1.48,-58.15 -2.47,-102.02 -1.48,-88.71 -2.47,-216.85 -2.22,-375.56 0,-317.15 4.44,-755.05 0,-1238.79 -4.43,-483.72 -19.71,-921.62 -49.29,-1237.29 -7.88,-78.86 -13.31,-150.33 -22.42,-212.42 -3.94,-31.2 -7.64,-60.27 -11.09,-87.21 -1.72,-13.31 -3.2,-26.13 -4.68,-38.2 -1.48,-12.07 -4.19,-24.64 -6.16,-34.5 -7.14,-43.12 -12.81,-76.88 -17,-100.78 -1.73,-10.84 -2.97,-19.72 -3.94,-26.13 -0.2,-1.52 -0.29,-3.05 -0.29,-4.57 0,-1.52 0.09,-3.06 0.29,-4.56 1.04,2.87 1.78,5.85 2.21,8.87l5.42 24.65c4.44,24.64 11.1,57.41 19.23,100.3 2.21,11.09 4.43,22.42 6.65,34.49 2.21,12.07 3.44,24.65 5.42,38.45 3.69,26.86 7.63,55.7 12.07,86.99 9.85,62.35 16.02,133.81 24.64,212.67 31.79,315.67 49.29,754.07 52.99,1238.04 3.7,483.98 -1.98,921.89 -4.19,1238.79 0,157.96 -1.48,286.1 -1.73,375.56l0 102.02c0,11.09 0,19.96 0,26.62 -0.63,3.57 -1.8,7.06 -3.44,10.32l0 0.01z"/>
  <g id="_1764172414384">
   <path fill="#263238" fill-rule="nonzero" d="M7169.86 2623.53c-0.72,-6.05 -1.09,-12.21 -1.09,-18.32 0,-60.09 34.99,-114.74 89.56,-139.88 25.79,-10.9 53.56,-16.56 81.58,-16.56 37.14,0 73.66,9.9 105.7,28.62 80.92,44.68 131.2,129.92 131.2,222.39 0,72.95 -31.39,142.44 -86.11,190.63 -33.52,31.65 -77.9,49.29 -124.01,49.29 -0.55,0 -1.12,0 -1.67,0 -40.23,-5.84 -79.44,-18.12 -115.84,-36.2 -38.2,-14.54 -81.81,-24.64 -118.53,-6.41l39.21 -273.56zm0 0l0 0 0 0z"/>
  </g>
  <path fill="#6DA4FD" fill-rule="nonzero" d="M7337.91 2939.45c-16.86,-62.84 -39.86,-124.56 -68.06,-183.29 -32.19,-56.74 -69.98,-110.51 -112.29,-160 16.29,10.64 30.86,23.81 43.09,38.96 63.47,69.75 108.13,154.59 129.64,246.41 5.06,17.42 7.67,35.5 7.67,53.65 0,1.42 -0.02,2.86 -0.05,4.26l0 0.01z"/>
  <path fill="#455A64" fill-rule="nonzero" d="M7277.05 2786.17c-8.38,6.98 -17.48,13.14 -27.11,18.24 -25.91,14.67 -53.28,27.14 -81.32,36.99 -62.09,21.77 -127.49,33 -193.32,33 -32.99,0 -65.97,-2.84 -98.47,-8.39 -53.71,-9.11 -105.97,-26.37 -154.7,-50.73 -40.66,-19.45 -75.48,-49.32 -100.83,-86.52 -16.71,-25.51 -25.87,-55.26 -26.36,-85.75 0,-0.85 -0.03,-1.74 -0.03,-2.6 0,-7.41 0.85,-14.82 2.5,-22.04 1.23,-5.42 2.22,-8.13 2.71,-8.13 0.5,0 -1.72,11.83 0,32.28 2.33,29.1 12.38,57.1 29.06,81.07 40.41,62.58 139.23,109.9 249.88,129.62 33.22,5.53 67.14,8.42 100.92,8.42 63.09,0 125.87,-9.94 185.92,-29.17 37.79,-13.04 75.22,-28.74 111.18,-46.29l-0.03 0z"/>
  <path fill="#455A64" fill-rule="nonzero" d="M7302.92 2919.24c0,0 -3.45,6.16 -11.33,16.02 -11.33,13.53 -23.85,26.21 -37.22,37.7 -87.73,76.89 -200.48,119.31 -317.17,119.31 -1.88,0 -3.82,-0.05 -5.65,-0.05 -0.44,0.02 -0.88,0.02 -1.32,0.02 -17.21,0 -34.45,-1.5 -51.4,-4.43 -12.57,-2.22 -19.23,-3.7 -18.97,-4.68 0.25,-0.99 27.59,1.48 71.7,0 57.31,-1.95 114.17,-13.11 168.04,-32.77 53.48,-20.11 103.43,-48.73 147.88,-84.5 35.73,-28.38 53.72,-49.08 55.44,-46.62z"/>
  <path fill="#455A64" fill-rule="nonzero" d="M7535.79 2648.17c0.96,5.09 1.46,10.27 1.46,15.44 0,10.94 -2.17,21.79 -6.38,31.88 -21.14,68.74 -84.7,115.67 -156.62,115.67 -8.68,0 -17.41,-0.71 -25.97,-2.07 -16.11,-1.3 -31.56,-7.02 -44.62,-16.51 0,-1.97 17.5,5.18 45.59,7.4 5.27,0.48 10.66,0.75 15.97,0.75 69.59,0 131.96,-43.1 156.54,-108.21 11.08,-25.37 12.07,-44.35 14.03,-44.35z"/>
  <polygon fill="#455A64" fill-rule="nonzero" points="10154.81,10543.42 887.2,10543.42 863.06,10838.64 2660,10838.64 2660,11455.94 2833.73,11455.94 2833.73,10838.64 9428.35,10838.64 9428.35,11458.65 9601.84,11458.65 9601.84,10838.64 10154.81,10838.64 "/>
  <path fill="#FFBE9D" fill-rule="nonzero" d="M8228.75 8275.32c0,-13.31 -189.75,-857.81 -204.29,-921.64l160.42 -236.81c0,0 58.65,-55.7 40.41,-80.58 -18.24,-24.89 -49.29,-28.09 -84.03,-5.42 -21.93,14.53 -137.01,75.4 -137.01,75.4 0,0 -43.62,-342.77 -52.73,-367.42 -9.11,-24.64 -33.02,-36.47 -49.29,-18.48 -16.27,18 -11.83,250.38 -11.83,250.38 0,0 -92.41,-286.36 -112.12,-297.69 -5.78,-3.56 -12.43,-5.44 -19.21,-5.44 -16.01,0 -30.17,10.38 -35,25.63 0,11.34 63.33,318.38 63.33,318.38 0,0 -147.85,-279.94 -172.5,-271.06 -19.7,4.93 -33.59,22.56 -33.77,42.87 -2.21,20.21 98.57,315.67 98.57,315.67 0,0 -112.86,-216.61 -133.08,-209.71 -17.07,9.4 -27.69,27.36 -27.69,46.87 0,3.62 0.37,7.25 1.09,10.8 2.97,19.72 143.43,446.77 169.54,525.38l0 0.01 59.64 1010.35 405.86 876.29 365.95 -512.07c0,0 -292.26,-557.66 -292.26,-571.71z"/>
  <path fill="#FFBE9D" fill-rule="nonzero" d="M8751.91 8532.59c0,0 -49.29,714.63 46.33,826.51 95.61,111.88 290.78,82.8 290.78,82.8l126.67 -608.42 -463.78 -300.89z"/>
  <path fill="#6DA4FD" fill-rule="nonzero" d="M8535.55 8849.98l185.32 261.22 418.92 219.81 952.69 499.5c78.41,41.14 127.58,122.45 127.58,211 0,23.16 -3.4,46.25 -10.04,68.43l-33.02 110.15 -357.32 883.69 18.23 354.86 -1901.67 -2.71c0,0 427.55,-1390.09 441.1,-1478.56 13.55,-88.47 -68.51,-206.01 -68.51,-206.01 0,0 -246.42,-172.5 -246.42,-192.45 0,-19.96 34.01,-694.43 473.14,-728.93z"/>
  <path fill="#263238" fill-rule="nonzero" d="M8490.7 10326.57c-2.47,0 0,-34.01 -3.94,-87.98 -2.72,-31.58 -7.69,-63.26 -14.77,-94.17 -8.79,-37.69 -20.41,-75.32 -34.02,-111.63 -25.92,-65.43 -58.08,-129.18 -95.18,-189.02 -28.58,-46.33 -48.05,-73.93 -46.32,-73.93 6.02,5.24 11.34,11.24 15.81,17.78 9.86,11.83 22.92,29.81 38.2,52.73 39.76,59.34 73.03,123.31 98.56,189.97 13.99,36.87 25.39,75.11 33.74,113.64 6.61,31.56 10.77,63.85 12.35,96.07 0,13.8 0,26.36 0,37.2 0.02,0.74 0.02,1.46 0.02,2.16 0,8.66 -0.53,17.4 -1.5,25.99 0.01,7.14 -1.01,14.29 -2.95,21.17l0 0.02z"/>
  <path fill="#263238" fill-rule="nonzero" d="M9573.49 11005.23c-11.78,5.64 -24.09,10.32 -36.7,13.79 -24.64,8.13 -58.65,19.22 -101.77,32.53 -86.01,26.86 -205.52,61.85 -338.34,98.57 -132.83,36.71 -253.58,66.29 -341.31,86.74 -43.86,10.35 -79.59,18.24 -104.24,23.41 -12.63,3.41 -25.66,5.68 -38.7,6.64 12.17,-4.72 24.72,-8.68 37.45,-11.58l103.25 -27.36 340.31 -90.43 339.09 -94.14 102.76 -28.58c12.47,-4.16 25.29,-7.43 38.22,-9.59l-0.02 0z"/>
  <path fill="#FAFAFA" fill-rule="nonzero" d="M10194.98 10127.45l-15.52 -4.93c-14.92,-5.48 -30.16,-10.18 -45.57,-14.04 -44.79,-11.63 -90.95,-17.56 -137.24,-17.56 -14.59,0 -29.38,0.67 -43.9,1.8 -96.37,7.35 -189.07,41.53 -267.16,98.53 -48.69,35.32 -91.27,78.63 -125.67,127.92 -39.26,54.51 -66.36,117.09 -79.11,183.06 -2.86,15.47 -4.32,31.2 -4.32,46.92 0,20.04 2.4,40.09 7.05,59.57 8.6,36.28 29.64,68.48 59.41,90.93 32.69,22.23 71.34,34.14 110.89,34.14 39.54,0 78.19,-11.91 110.88,-34.15 54.16,-43.17 85.75,-108.75 85.75,-178.02 0,-16.18 -1.75,-32.41 -5.17,-48.21 -19.98,-89.23 -82.05,-163.38 -166.35,-198.85 -51.17,-22.27 -106.4,-33.82 -162.22,-33.82 -39.42,0 -78.73,5.81 -116.46,17.06 -47.52,12.66 -93.55,31.41 -136.5,55.47 -44.12,23.99 -85.56,53.12 -123.26,86.23 -77.6,68.39 -139.27,153.57 -179.91,248.67 -20.48,48.57 -34.84,99.79 -42.37,151.99 -3.19,22.38 -4.81,44.99 -4.81,67.56 0,3.83 0.06,7.83 0.11,11.6 0.15,26.13 7.6,51.74 21.47,73.9 15.05,20.86 38.07,34.61 63.58,37.94 9.52,1.48 19.16,2.24 28.81,2.24 16.39,0 32.75,-2.19 48.57,-6.43 50.55,-13.08 94.93,-43.67 125.17,-86.24 24.89,-36.3 38.22,-79.29 38.22,-123.31 0,-58.17 -23.27,-113.95 -64.56,-154.91 -36.2,-34.43 -80.73,-59.13 -129.15,-71.47 -38.71,-10.79 -78.95,-16.31 -119.18,-16.31 -8.78,0 -17.71,0.33 -26.42,0.81 -95.59,5.95 -188.83,33.68 -272.33,80.57 -79.54,44.36 -149.2,105.27 -203.56,178.38 -52,70.48 -89.45,153.04 -86.5,235.84 1.32,81.06 52.67,152.87 128.89,180.39 12.76,3.8 26.03,5.72 39.33,5.72 23.58,0 46.82,-6.04 67.39,-17.53 30.93,-17.36 56.57,-43 73.93,-73.94 20.09,-39.6 30.58,-83.5 30.58,-127.95 0,-22.38 -2.66,-44.76 -7.91,-66.48 -11.43,-58.96 -32.75,-115.68 -62.88,-167.58 -55.94,-97.34 -145.64,-156.24 -225.24,-159.93 -6.15,-0.43 -12.41,-0.68 -18.64,-0.68 -28.71,0 -57.3,4.94 -84.34,14.49 -24.14,8.64 -46.48,21.99 -65.54,39.18 -15.33,14.32 -28.44,31 -38.69,49.29 -10.24,18.3 2.22,-4.92 7.14,-14.54 8.14,-13.8 18.23,-26.44 29.84,-37.45 41.25,-36.78 94.7,-57.15 150,-57.15 6.91,0 13.91,0.33 20.76,0.96 81.32,2.97 173.73,62.59 230.9,161.17 30.79,52.56 52.76,110.04 64.83,169.82 5.5,22.6 8.31,45.9 8.31,69.19 0,45.63 -10.72,90.66 -31.24,131.37 -18.33,32.65 -45.42,59.64 -78.13,77.86 -22.05,12.39 -47.01,18.91 -72.33,18.91 -14.2,0 -28.4,-2.06 -42,-6.08 -80.45,-28.49 -134.86,-103.93 -136.52,-189.27 -3.44,-86.49 35.25,-171.02 87.98,-242.97 114.89,-154.74 291.9,-251.45 484.19,-264.39 9.54,-0.6 19.15,-0.94 28.7,-0.94 40.94,0 81.69,5.55 121.13,16.44 50.34,12.96 96.63,38.45 134.56,73.93 43.72,43.38 68.38,102.5 68.38,164.1 0,46.51 -14.05,92.01 -40.27,130.38 -32.07,45.05 -79.05,77.47 -132.58,91.43 -16.88,4.51 -34.33,6.85 -51.83,6.85 -10.37,0 -20.73,-0.8 -30.96,-2.41 -28.87,-3.92 -54.9,-19.55 -71.96,-43.15 -15.52,-23.91 -24.1,-51.79 -24.64,-80.32 -0.07,-3.59 -0.13,-7.29 -0.13,-10.93 0,-23.59 1.69,-47.31 5.04,-70.66 7.5,-53.33 22.05,-105.65 43.1,-155.25 41.95,-96.69 105.11,-182.84 184.6,-252.05 38.41,-33.86 80.86,-63.39 125.89,-87.73 43.77,-24.55 90.7,-43.63 139.24,-56.43 38.66,-11.49 78.85,-17.32 119.15,-17.32 57.69,0 114.87,11.97 167.71,35.04 87.72,37.18 152.06,114.66 172.5,207.73 3.53,16.37 5.3,33.1 5.3,49.83 0,73 -33.59,142 -91.04,187 -34.18,23.2 -74.59,35.64 -115.91,35.64 -42.08,0 -83.16,-12.89 -117.7,-36.89 -31.33,-23.96 -53.55,-57.99 -62.84,-96.34 -4.65,-19.98 -7.02,-40.56 -7.02,-61.09 0,-16.53 1.55,-33.08 4.55,-49.31 13.42,-67.25 41.35,-130.83 81.59,-186.29 35.04,-49.85 78.44,-93.51 128.09,-128.88 90.47,-64.22 198.71,-98.75 309.63,-98.75 48.5,0 96.88,6.66 143.56,19.65 20.8,5.42 41.3,12.67 60.91,21.43l-0.03 0z"/>
  <path fill="#FAFAFA" fill-rule="nonzero" d="M8922.43 9350.97c-12.98,23.3 -29.67,44.51 -49.27,62.59 -51.56,51.38 -117.5,86.28 -189.03,99.81 -20.93,3.96 -42.36,6.03 -63.73,6.03 -28.87,0 -57.67,-3.72 -85.59,-10.98 -55.95,-14.81 -107.86,-42.53 -151.3,-80.81 -23.4,-20.61 -44.08,-44.3 -61.34,-70.24 -18.76,-27.02 -32.53,-57.3 -40.44,-89.2 -3.35,-11.8 -5.06,-24.02 -5.06,-36.28 0,-22.67 5.83,-45 16.88,-64.76 20.36,-30.76 54.8,-49.28 91.69,-49.28 0.15,0 0.32,0 0.48,0 1.06,0 2.21,-0.03 3.3,-0.03 34.5,0 68.39,9.4 97.97,27.14 29.16,18.33 54.32,42.42 73.95,70.72 32.39,49.69 49.65,107.79 49.65,167.13 0,5.04 -0.15,10.19 -0.37,15.2 -1.37,29.77 -6.97,59.29 -16.52,87.49 -9.41,26.31 -22.58,51.26 -38.94,73.92 -30.53,40.14 -70.4,72.44 -116.05,93.9 -48.39,23.04 -101.38,35.04 -155,35.04 -18.96,0 -38,-1.53 -56.7,-4.49 -26.14,-3.6 -51.67,-11.13 -75.65,-22.16 25.02,7.27 50.72,13.19 76.42,17.27 15.64,1.99 31.51,3.06 47.34,3.06 55.31,0 109.92,-12.63 159.63,-36.87 43.89,-21.4 82.15,-53.05 111.4,-92.13 15.57,-22.03 28.07,-46.21 36.96,-71.71 8.88,-27.33 14.1,-55.82 15.3,-84.54 0.15,-4.46 0.29,-9.05 0.29,-13.54 0,-57.25 -16.77,-113.35 -48.14,-161.19 -18.27,-26.68 -41.89,-49.46 -69.23,-66.75 -27.07,-16.14 -58.08,-24.71 -89.63,-24.71 -1.58,0 -3.19,0.02 -4.74,0.06 -0.56,-0.02 -1.15,-0.02 -1.71,-0.02 -32.06,0 -62.03,16 -79.86,42.64 -9.9,17.8 -15.12,37.87 -15.12,58.24 0,11.31 1.62,22.6 4.77,33.44 7.61,30.32 20.56,59.2 38.2,85.03 16.6,25.16 36.56,48.24 59.14,68.25 41.93,37.29 92.01,64.61 146.12,79.58 28.13,7.48 57.22,11.33 86.35,11.33 19.6,0 39.28,-1.76 58.55,-5.15 70.31,-12.55 135.44,-45.5 187.3,-94.63 18.54,-18.23 35.93,-37.81 51.75,-58.37l-0.02 -0.03z"/>
  <path fill="#FAFAFA" fill-rule="nonzero" d="M9796.76 11381.76c-1.48,1.98 -21.44,-13.8 -58.9,-28.34 -33.18,-13.5 -68.75,-20.47 -104.59,-20.47 -68.9,0 -135.43,25.71 -186.45,71.98 -30.07,26.62 -43.38,49.29 -45.34,46.83 -1.97,-2.47 1.97,-6.16 8.13,-15.77 8.85,-13.73 19.35,-26.41 31.07,-37.71 38.84,-38.41 88.44,-64.22 142.19,-73.96 15.17,-2.59 30.58,-3.89 46,-3.89 38.87,0 77.34,8.29 112.7,24.35 14.83,6.6 28.92,14.91 41.88,24.66 8.63,7.15 13.31,11.83 13.31,12.32z"/>
  <path fill="black" fill-rule="nonzero" fill-opacity="0.301961" d="M9525.69 9408.63c-185.07,-81.32 -392.81,-90.43 -588.22,-180.63l-228.44 -119.76c22.17,34.99 84.77,64.06 99.8,117.05 6.83,33.44 10.35,67.66 10.35,101.81 0,21.06 -1.36,42.18 -3.95,63.06 -1.35,27.4 -2.13,55.18 -2.13,82.75 0,119.67 13.5,239.54 40.09,356.09 20.45,89.45 59.38,189.01 146.37,219.07 57.92,19.96 121.73,2.71 180.63,-14.54 262.7,-77.38 576.39,-160.91 839.09,-238.29 -78.36,-186.52 -308.77,-305.53 -493.59,-386.61z"/>
  <path fill="#263238" fill-rule="nonzero" d="M10124.26 8562.4c-28.58,-137.75 -69.98,-278.46 -162.64,-384.42 -107.69,-123.21 -274.03,-185.07 -437.9,-195.42 -140.46,-8.87 -168.31,-77.87 -311.73,-54.45 -55.17,9.58 -108.07,29.89 -155.48,59.62 -200.85,123.22 -313.22,325.78 -371.86,564.07 -21.94,89.21 -22.93,200.35 51.5,254.07 53.96,38.94 130.36,33.77 184.82,71.96 60.37,42.63 75.9,127.4 63.34,200.35 -12.57,72.95 -47.08,139.97 -67.53,210.94 -49.29,172.5 -13.55,355.83 22.67,531.28l1046.82 -30.3c40.41,-1.23 84.52,-3.94 113.85,-31.79 22.44,-26.05 36.1,-58.63 38.93,-92.92 30.36,-169.31 45.9,-341.36 45.9,-513.42 0,-197.84 -20.49,-396.04 -60.76,-589.63l0.07 0.06z"/>
  <path fill="#455A64" fill-rule="nonzero" d="M8763 8584.09c-0.04,-1.55 -0.09,-3.14 -0.09,-4.7 0,-8.1 0.86,-16.21 2.56,-24.14 1.21,-11.17 3.16,-22.33 5.66,-33.27 2.96,-13.06 5.42,-27.85 10.35,-43.87 10.21,-37.74 23.5,-74.76 39.44,-110.4 19.67,-43.48 43.34,-85.45 70.24,-124.88 27.47,-39.15 58.46,-76.39 92.11,-110.46 27.65,-27.52 57.63,-53.04 89.26,-75.92 13.05,-10.1 26.12,-17.98 37.2,-24.64 9.37,-6.2 19.13,-12.02 29.08,-17.23 8.16,-5.11 16.96,-9.28 26.11,-12.32 1.23,1.98 -34.99,21.69 -86.99,62.11 -30.42,23.51 -59.4,49.43 -86.25,76.87 -32.52,34.06 -62.86,70.62 -89.95,109.13 -26.55,39.2 -50.05,80.56 -70.17,123.27 -16.16,34.99 -30.17,71.21 -41.44,107.96 -19.24,62.08 -24.66,102.99 -27.12,102.49z"/>
  <path fill="#455A64" fill-rule="nonzero" d="M8887.69 8732.19c-0.68,-8.49 -1.09,-17.05 -1.09,-25.57 0,-14.86 1.1,-29.74 3.3,-44.41 5.34,-56.02 15.37,-112.11 29.36,-166.61 13.93,-54.45 32.44,-108.35 54.7,-159.98 8.17,-21.82 19.04,-42.84 32.03,-62.29 -6.63,22.34 -14.93,44.37 -24.66,65.57 -39.25,104.73 -67.54,213.87 -83.48,324.53 -1.68,23 -5.14,46.2 -10.14,68.74l-0.02 0.02z"/>
  <path fill="#455A64" fill-rule="nonzero" d="M9911.35 9602.31c-2.12,-5.4 -3.71,-11.03 -4.67,-16.76 -2.97,-11.09 -6.16,-27.84 -10.11,-49.28 -9.34,-60.82 -14.4,-122.52 -14.55,-184.08 0,-77.87 5.18,-170.78 13.55,-273.28 10,-102.74 15.37,-206.82 15.37,-310.51 0,-7.29 0,-15.75 0,-23.04 -0.43,-110.88 -20.61,-221.26 -59.25,-325.19 -32.93,-84.34 -84.14,-160.72 -149.58,-223.26 -44.31,-41.96 -96.51,-75 -153.48,-97.04 -15.6,-5.72 -31.51,-10.73 -47.6,-14.81 -5.71,-1.13 -11.36,-2.88 -16.74,-5.17 5.79,0.47 11.59,1.38 17.25,2.71 16.67,2.78 33.28,7.05 49.29,12.56 58.53,20.55 112.47,52.98 157.96,95.16 67.56,62.59 120.52,139.86 154.53,225.47 39.69,105.17 60.51,216.99 60.86,329.51 0.08,7.99 0.08,15.93 0.08,23.88 0,103.66 -5.42,207.68 -16.25,310.63 -9.12,102.52 -15.77,194.68 -16.26,272.3 -0.06,5.25 -0.22,10.87 -0.22,16.16 0,55.8 3.69,111.92 10.75,167.24 2.96,21.44 5.42,38.2 7.4,49.28 1.08,5.32 1.68,10.76 1.68,16.19 0,0.44 -0.01,0.9 -0.01,1.33z"/>
  <path fill="#455A64" fill-rule="nonzero" d="M9813.52 9586.8c-4.98,-25.98 -7.86,-52.46 -8.38,-78.87 -2.96,-49.29 -4.93,-116.31 -3.7,-191.23 1.23,-74.92 6.41,-142.19 11.33,-190.74 1.35,-26.48 5.3,-52.86 11.59,-78.61 0.19,6.74 0.34,13.66 0.34,20.43 0,19.56 -0.98,39.25 -2.79,58.66 -2.71,49.29 -5.91,116.07 -7.64,190.49 -1.72,74.42 0,141.94 0,190.74 0.77,11.5 1.15,23.21 1.15,34.74 0,14.75 -0.7,29.7 -1.9,44.38l0 0.01z"/>
  <g id="_1764172406464">
   <path fill="#FFBE9D" fill-rule="nonzero" d="M5097.4 8898.28c10.19,135.37 20.21,270.58 30.07,405.62 -102.02,18.73 -207.99,30.31 -308.77,6.16 -100.79,-24.16 -197.15,-89.95 -232.87,-187.29 -5.58,-12.86 -8.47,-26.76 -8.47,-40.79 0,-5.98 0.52,-11.98 1.56,-17.86 4.36,-19.91 20.53,-35.11 40.68,-38.2l477.8 -127.64zm0 0l0 0 0 0z"/>
  </g>
  <path fill="#263238" fill-rule="nonzero" d="M5370.69 8465.81c16.02,-49.29 83.53,-79.85 84.03,-131.84 0.49,-51.99 -70.73,-83.78 -91.68,-134.3 -31.54,-76.15 61.85,-156.98 40.17,-235.84 -24.64,-94.62 -188.27,-104.73 -218.58,-197.14 -12.57,-38.69 0,-87.23 -31.55,-115.08 -40.91,-36.47 -112.37,0 -163.87,-21.93 -47.56,-20.71 -59.88,-84.03 -107.45,-105.23 -47.56,-21.2 -106.21,14.3 -154.01,41.64 -14.3,8.38 -32.28,18.97 -50.76,28.58 -81.08,-26.61 -210.2,-22.92 -265.65,20.46 -65.3,50.76 -115.08,118.78 -187.77,159.92 -63.83,36.48 -143.43,51.02 -194.44,102.52 -90.68,91.68 -41.89,241.99 -88.22,359.05 -15.76,39.92 -42.63,75.4 -59.63,114.84 -17.01,39.43 -22.18,87.72 3.94,123.21 26.11,35.48 80.82,55.2 81.81,98.56 0.99,43.37 -53.96,72.46 -49.29,113.86 4.68,41.4 72.2,55.69 101.04,92.16 37.7,47.31 0,121.24 32.53,172.5 35.73,54.45 121.73,42.88 188.03,58.64 115.57,27.36 201.32,153.28 318.63,134.31 44.84,-7.4 83.53,-35.98 128.39,-43.12 60.62,-9.62 119.51,20.94 180.39,28.34 109.9,13.55 212.67,-47.81 303.84,-106.7 46.82,-30.07 97.1,-65.06 109.17,-116.8 11.09,-46.82 -11.59,-98.57 13.55,-141.7 25.14,-43.14 80.82,-52.74 101.53,-93.15 32.53,-65.79 -45.59,-138.98 -24.15,-205.76z"/>
  <path fill="#455A64" fill-rule="nonzero" d="M4198.44 7980.84c-1.58,-2.95 -2.75,-6.12 -3.44,-9.38 -1.7,-7.65 -2.58,-15.5 -2.58,-23.35 0,-1.65 0.06,-3.34 0.12,-4.99 2.35,-35.55 17.93,-68.97 43.62,-93.64 38.25,-35.95 86.75,-59.23 138.72,-66.53 6.64,-1.1 13.39,-1.66 20.14,-1.66 25.02,0 49.49,7.63 70.06,21.86 13.41,10.77 23.8,24.89 30.07,40.9 3.17,8.38 4.81,17.3 4.81,26.26 0,8.96 -1.64,17.87 -4.82,26.24 -6.56,17.68 -21.72,30.8 -40.16,34.75 -2.93,0.65 -5.92,0.99 -8.91,0.99 -6.59,0 -13.11,-1.61 -18.94,-4.69 -8.31,-4.75 -14.48,-12.52 -17.25,-21.69 -1.19,-4.82 -1.81,-9.79 -1.81,-14.76 0,-12.32 3.74,-24.36 10.69,-34.53 9.1,-13.09 21.76,-23.37 36.47,-29.57 13.91,-5.72 28.88,-8.7 43.95,-8.7 39.07,0 75.52,19.8 96.76,52.58 14.98,23.96 22.95,51.68 22.95,79.97 0,7.12 -0.51,14.25 -1.51,21.3 -0.95,9.38 -2.95,18.66 -5.91,27.6 -2.22,6.16 -3.45,9.12 -3.94,9.12 -0.5,0 3.44,-13.31 4.92,-37.21 0.3,-3.95 0.47,-7.94 0.47,-11.92 0,-29.74 -8.76,-58.88 -25.12,-83.7 -12.63,-19.05 -31.3,-33.39 -52.98,-40.65 -11.22,-3.98 -23.06,-6.02 -34.97,-6.02 -13.97,0 -27.82,2.8 -40.68,8.24 -12.26,5.36 -22.89,13.86 -30.81,24.64 -5.51,8.14 -8.46,17.77 -8.46,27.61 0,3.81 0.45,7.61 1.31,11.32 3.17,10.36 12.74,17.45 23.58,17.45 2.28,0 4.55,-0.31 6.74,-0.94 14.26,-3.05 25.98,-13.19 31.04,-26.86 1.82,-6.45 2.74,-13.17 2.74,-19.88 0,-23.17 -10.88,-45.01 -29.35,-58.97 -18.54,-12.83 -40.58,-19.74 -63.14,-19.74 -6.08,0 -12.19,0.52 -18.17,1.5 -49.6,6.6 -96.16,27.94 -133.57,61.12 -25.06,22.88 -41.08,54.02 -45.1,87.72 -0.01,0.67 -0.01,1.41 -0.01,2.09 0,12.06 0.84,24.16 2.46,36.09l0.01 0.03z"/>
  <path fill="#455A64" fill-rule="nonzero" d="M4079.66 8457.18c-5.16,-7.38 -8.71,-15.8 -10.34,-24.65 -3.35,-13.12 -5.08,-26.65 -5.08,-40.22 0,-49.04 22.28,-95.44 60.53,-126.11 29.52,-23.07 65.99,-35.65 103.47,-35.65 9.42,0 18.84,0.8 28.11,2.36l-7.39 7.39c-1.34,-8.93 -2.03,-18.02 -2.03,-27.09 0,-9.07 0.69,-18.16 2.04,-27.12 7.66,-52.97 36.84,-100.5 80.58,-131.33 30.62,-20.11 66.53,-30.85 103.19,-30.85 35.42,0 70.13,10.03 100.1,28.88 6.51,4.28 12.7,9.08 18.49,14.3 3.7,3.69 5.67,5.67 5.42,5.91 -9.04,-4.76 -17.88,-10.07 -26.36,-15.79 -24.3,-13.22 -51.26,-21.17 -78.86,-23.16 -4.91,-0.4 -9.85,-0.61 -14.78,-0.61 -35.81,0 -70.81,10.88 -100.29,31.17 -40.23,29.45 -66.88,73.89 -73.93,123.2 -1.29,8.37 -1.96,16.84 -1.96,25.28 0,8.44 0.67,16.91 1.94,25.26l1.23 8.87 -8.63 -1.72c-9.02,-1.6 -18.24,-2.41 -27.44,-2.41 -34.57,0 -68.23,11.33 -95.75,32.21 -28.12,21.32 -47.96,51.89 -55.96,86.27 -3.06,12.72 -4.64,25.85 -4.64,38.97 0,10.39 0.99,20.82 2.94,31.01 2.94,16.52 5.4,25.14 5.4,25.63z"/>
  <path fill="#455A64" fill-rule="nonzero" d="M4934.51 7781.72c0,1.98 -17.24,-3.2 -44.36,-4.43 -4.11,-0.25 -8.34,-0.4 -12.5,-0.4 -67.63,0 -130.81,33.96 -168.11,90.34 -15.27,22.43 -21.19,38.93 -23.16,38.2 1.48,-15.44 6.83,-30.28 15.51,-43.13 33.83,-59.16 96.78,-95.67 164.93,-95.67 8.05,0 16.1,0.54 24.08,1.53 15.46,0.67 30.51,5.36 43.62,13.56l-0.01 0z"/>
  <path fill="#455A64" fill-rule="nonzero" d="M5291.59 8433.53c0,0 4.68,-9.12 11.33,-24.65 7.12,-18.88 10.77,-38.95 10.77,-59.13 0,-4.94 -0.23,-9.89 -0.65,-14.81 -2.51,-36.83 -18.48,-71.51 -44.86,-97.34 -29.04,-26.7 -67.1,-41.54 -106.57,-41.54 -5.56,0 -11.13,0.31 -16.65,0.89 -20.86,2.29 -41.1,8.87 -59.37,19.21l-13.05 7.89 3.94 -14.79c2.12,-8.87 3.2,-18.01 3.2,-27.15 0,-27.71 -9.89,-54.53 -27.85,-75.61 -19.59,-22.52 -47.55,-36.15 -77.38,-37.7 -2.43,-0.14 -4.92,-0.21 -7.36,-0.21 -17.5,0 -34.84,3.69 -50.8,10.8 -6.36,3.52 -13.01,6.79 -19.72,9.63 4.82,-5.88 10.89,-10.59 17.74,-13.81 17.44,-9.56 37.03,-14.59 56.92,-14.59 1.14,0 2.34,0.03 3.46,0.06 32.57,0.21 63.53,14.2 85.26,38.44 20.6,23.17 32,53.12 32,84.15 0,9.81 -1.16,19.65 -3.41,29.2l-9.36 -7.15c19.78,-11.47 41.81,-18.72 64.56,-21.18 5.82,-0.62 11.73,-0.93 17.58,-0.93 42.75,0 83.94,16.4 114.99,45.78 29.5,30.28 46.03,70.97 46.03,113.25 0,23.52 -5.11,46.78 -14.97,68.11 -2.96,6.36 -6.61,12.41 -10.85,17.99 -2.96,3.46 -4.44,5.43 -4.93,5.19z"/>
  <g id="_1764172402768">
   <path fill="#6DA4FD" fill-rule="nonzero" d="M3970.99 10718.14c0,0 -304.34,61.36 -349.93,28.83 -45.59,-32.52 -214.39,-142.93 -188.52,-292.5 25.87,-149.58 338.1,-1215.12 402.9,-1293.24 64.81,-78.11 130.12,-155.99 259.99,-149.34 129.87,6.65 981.27,188.27 981.27,188.27 0,0 350.91,-19.46 422.38,32.54 71.46,51.99 234.1,149.57 234.1,331.43 0,181.86 -35.98,1429.27 -35.98,1429.27l94.63 458.1 -1872.84 0 52.24 -733.36 -0.24 0zm0 0l0 0 0 0z"/>
  </g>
  <path fill="#263238" fill-rule="nonzero" d="M3970.99 10718.14c-3.7,0 -26.13,-246.43 -49.29,-553.23 -23.16,-306.8 -40.66,-554.22 -37.21,-554.46 3.46,-0.24 26.13,246.43 49.29,553.47 23.16,307.05 40.65,553.97 37.21,554.22z"/>
  <path fill="#FAFAFA" fill-rule="nonzero" d="M5730.72 9532.59c-6.55,-0.11 -13.09,-0.95 -19.46,-2.48l-55.69 -9.85 -204.29 -36.72c-172.5,-30.56 -411.29,-70.23 -676.2,-107.44 -264.91,-37.21 -505.42,-64.07 -679.89,-82.06l-206.51 -20.71 -56.19 -5.67c-6.55,-0.35 -13.07,-1.37 -19.45,-2.95 3.28,-0.25 6.57,-0.4 9.86,-0.4 3.29,0 6.57,0.15 9.85,0.41l56.43 3.44c49.29,3.21 119.52,8.88 207,16.76 174.72,15.52 415.72,41.4 680.63,78.36 264.92,36.97 503.94,78.12 676.2,111.14 86.01,16.52 155.75,30.56 203.55,40.91l55.21 12.07c6.37,1.32 12.77,3.08 18.96,5.17l-0.01 0.02z"/>
  <path fill="#FAFAFA" fill-rule="nonzero" d="M5697.21 9986.75c-3.06,0.33 -6.16,0.51 -9.24,0.51 -3.08,0 -6.17,-0.18 -9.24,-0.52l-52.49 -1.23c-45.83,0 -111.88,-4.19 -193.69,-8.13 -163.13,-8.39 -388.62,-23.17 -637.02,-45.84 -248.39,-22.67 -472.89,-49.28 -635.04,-70.72 -81.07,-10.6 -146.62,-19.96 -191.72,-26.87l-52 -8.38c-6.07,-0.62 -12.13,-1.87 -17.97,-3.69 0.96,-0.03 1.99,-0.05 2.97,-0.05 5.19,0 10.39,0.44 15.51,1.28l52.24 5.92 192.21 22.92c162.16,19.22 386.65,44.11 635.04,66.78 248.4,22.67 473.38,38.93 636.52,49.29l192.96 12.32 52.73 3.7c6.09,0.53 12.24,1.47 18.24,2.7l-0.01 0.01z"/>
  <path fill="#FAFAFA" fill-rule="nonzero" d="M5725.79 10410.6c-5.66,1.8 -11.55,2.96 -17.49,3.43l-50.76 7.64c-43.87,6.41 -107.68,14.05 -186.79,22.18 -157.96,16.02 -377.52,30.8 -620,30.8 -242.49,0 -462.05,-14.54 -620.26,-30.56 -79.1,-7.89 -142.93,-15.53 -186.79,-21.93l-50.76 -7.4c-5.89,-0.79 -11.75,-1.98 -17.5,-3.44 2.98,-0.32 5.99,-0.48 8.99,-0.48 3,0 6,0.16 8.99,0.48l50.76 5.18c44.11,4.69 108.18,11.1 187.29,17.99 157.96,13.55 377.03,26.62 619.27,26.62 242.24,0 461.07,-13.31 619.27,-27.11 78.86,-6.9 142.93,-13.31 187.04,-18.23l50.76 -4.93c3.42,-0.35 6.89,-0.55 10.34,-0.55 2.55,0 5.11,0.11 7.65,0.3l-0.01 0.01z"/>
  <path fill="#FAFAFA" fill-rule="nonzero" d="M5692.52 11037.51c-5.09,1.16 -10.35,1.75 -15.6,1.75 -0.69,0 -1.43,-0.02 -2.12,-0.04l-50.76 2.71 -186.79 6.16c-157.96,4.43 -376.04,8.62 -616.06,10.1 -240.03,1.48 -459.34,0 -616.07,-6.4 -78.86,-2.72 -142.93,-5.18 -186.79,-8.39l-50.76 -3.69c-5.98,-0.13 -11.95,-0.87 -17.76,-2.22 2.92,-0.21 5.91,-0.31 8.86,-0.31 2.96,0 5.95,0.1 8.88,0.32l51.01 0c44.11,1.72 107.94,2.96 186.79,4.68 157.71,2.71 375.8,3.7 616.07,2.22l616.07 -6.16 187.03 -2.21 50.76 0c5.77,0.01 11.57,0.53 17.25,1.47l-0.01 0.01z"/>
  <path fill="#FAFAFA" fill-rule="nonzero" d="M3927.12 10175.51c-66.6,-13.23 -132.7,-31.03 -197.04,-52.73 -65.53,-17.5 -130.26,-39.39 -193.04,-65.02 66.61,13.3 132.73,31.01 197.07,52.66 65.63,17.38 130.53,39.47 193.1,65.04l-0.09 0.05z"/>
  <path fill="#A36957" fill-rule="nonzero" d="M1207.56 9314c-6.16,-145.14 -131.84,-406.6 -183.59,-663.62 -26.36,-131.34 -42.13,-248.16 42.63,-352.14 71.71,-87.98 172.5,-147.86 271.07,-203.56 157.47,-89.45 323.8,-177.42 504.43,-187.28 117.79,-6.41 244.96,26.62 320.36,117.3 61.85,73.93 79.35,175.45 91.42,271.07 20.01,159.27 32.12,321.43 34.22,482.01 0.71,14.21 1.21,29.05 1.21,43.6 0,69.1 -8.69,138.21 -25.76,205.08 -21.39,81.89 -74.71,151.91 -147.91,194.38 -64.07,33.27 -140.46,36.22 -204.53,69.49 -64.07,33.27 -111.38,123.21 -63.83,176.44l-423.85 115.81 -215.87 -268.58z"/>
  <path fill="#263238" fill-rule="nonzero" d="M1119.1 9102.33c44.02,91.83 123.61,161.94 220.31,193.95 27.23,8.42 55.74,12.76 84.29,12.76 72.81,0 142.85,-27.96 195.64,-78.08 41.64,-42.63 66.28,-98.56 94.62,-151.06 28.35,-52.49 63.34,-105.22 116.81,-132.08 53.47,-26.87 129.62,-18.48 159.19,33.52 9.85,16.26 16.02,36.96 33.02,45.59 4.74,1.6 9.73,2.43 14.73,2.43 19.27,0 36.48,-12.14 42.95,-30.29 3.84,-12.43 5.81,-25.39 5.81,-38.41 0,-10.9 -1.4,-21.77 -4.09,-32.31 -18.18,-87.32 -28.21,-176.8 -28.87,-266.13 3.44,-89.21 29.33,-181.13 90.69,-246.43 47.07,-49.28 110.89,-80.33 167.08,-119.51 56.19,-39.18 108.92,-95.12 113.6,-163.62 4.19,-61.12 -31.55,-119.02 -76.89,-160.42 -98.57,-90.2 -487.68,-159.69 -611.88,-109.17 0,0 -521.93,226.96 -547.55,245.19 -25.63,18.24 -213.87,84.51 -209.44,314.42 4.43,229.91 139.98,679.65 139.98,679.65z"/>
  <path fill="#A36957" fill-rule="nonzero" d="M1207.56 9314c-6.16,-145.14 -131.84,-406.6 -183.59,-663.62 -26.36,-131.34 -42.13,-248.16 42.63,-352.14 71.71,-87.98 172.5,-147.86 271.07,-203.56 157.47,-89.45 323.8,-177.42 504.43,-187.28 117.79,-6.41 244.96,26.62 320.36,117.3 61.85,73.93 79.35,175.45 91.42,271.07 20.01,159.27 32.12,321.43 34.22,482.01 0.71,14.21 1.21,29.05 1.21,43.6 0,69.1 -8.69,138.21 -25.76,205.08 -21.39,81.89 -74.71,151.91 -147.91,194.38 -64.07,33.27 -140.46,36.22 -204.53,69.49 -64.07,33.27 -111.38,123.21 -63.83,176.44l-423.85 115.81 -215.87 -268.58z"/>
  <path fill="#263238" fill-rule="nonzero" d="M2433.53 7957.92c-11.83,-11.98 -28,-18.73 -44.84,-18.73 -18.36,0 -35.83,8.02 -47.8,21.93 13.72,-18.31 21.15,-40.58 21.15,-63.46 0,-58.42 -47.38,-105.79 -105.8,-105.79 -33.3,0 -64.68,15.7 -84.65,42.34 6.44,-14.06 9.8,-29.38 9.8,-44.84 0,-35.04 -17.09,-67.9 -45.77,-87.99 -27.7,-18.05 -60.09,-27.69 -93.16,-27.69 -17.19,0 -34.35,2.63 -50.76,7.72 -47.84,15.28 -92.9,38.78 -132.83,69.23 -0.97,-33.95 -20.6,-64.66 -51.01,-79.82 -24.97,-12.16 -52.44,-18.49 -80.24,-18.49 -5.53,0 -11.1,0.27 -16.59,0.76 -131.54,6.98 -250.71,80.32 -316.19,194.67 -21.61,-8.67 -44.72,-13.17 -68.03,-13.17 -100.69,0 -182.35,81.66 -182.35,182.35 0,21.38 3.76,42.63 11.11,62.69 -70.59,14.61 -121.25,76.81 -121.25,148.91 0,0.56 0,1.12 0,1.67 -36.14,52.01 -55.58,113.92 -55.58,177.3 0,5.19 0.15,10.49 0.38,15.65 5.42,230.41 139.97,679.65 139.97,679.65 44.03,91.84 123.62,161.94 220.32,193.95 27.23,8.43 55.74,12.77 84.29,12.77 72.81,0 142.85,-27.96 195.64,-78.07 41.64,-42.63 66.28,-98.57 94.62,-151.06 28.35,-52.5 63.58,-105.23 116.81,-132.09 53.23,-26.86 114.59,-8.38 172.5,8.38 52,15.03 52,-18.73 55.2,-58.41l-4.43 -236.32c3.44,-89.21 29.33,-181.13 90.69,-246.43 47.07,-49.28 110.89,-80.33 167.08,-119.51 56.19,-39.18 108.92,-95.12 113.6,-163.62 0.15,-2.77 0.26,-5.58 0.26,-8.34 0,-7.19 -0.59,-14.41 -1.74,-21.5 11.37,-13.57 20.39,-29.03 26.6,-45.59 4.6,-11.35 6.96,-23.51 6.96,-35.76 0,-23.31 -8.52,-45.84 -23.94,-63.3l-0.02 0.01z"/>
  <path fill="#455A64" fill-rule="nonzero" d="M1734.91 8346.78c-0.5,8.51 -2.6,16.89 -6.15,24.63 -23,57.41 -78.38,95.38 -140.21,96.1 -0.43,0.01 -0.9,0.01 -1.33,0.01 -45.88,0 -89.55,-19.87 -119.67,-54.45l10.11 0c-10.62,15.65 -23.72,29.56 -38.69,41.14 -33.41,25.62 -74.41,39.55 -116.54,39.55 -10.47,0 -21.01,-0.87 -31.32,-2.57 -41.87,-8.05 -79.59,-30.78 -106.22,-64.07 -17.96,-21.77 -30.51,-47.58 -36.48,-75.18 -1.65,-7.43 -2.66,-15.05 -2.95,-22.66 0,-5.18 0,-7.89 0,-7.89 0,0 1.98,10.6 7.15,29.33 7.74,25.99 20.99,50.14 38.7,70.71 26.62,30.88 63.46,51.33 103.75,57.67 8.7,1.27 17.59,1.94 26.42,1.94 39.96,0 78.86,-13.16 110.59,-37.43 13.76,-10.75 25.77,-23.65 35.47,-38.18l4.69 -6.9 5.42 6.4c27.85,32.13 68.13,50.98 110.65,51.75 0.7,-0.01 1.47,0.01 2.17,0.01 33.56,0 66.07,-11.91 91.71,-33.54 17.68,-14.45 32.1,-32.66 42.15,-53.21 7.38,-14.78 9.59,-23.4 10.58,-23.16z"/>
  <path fill="#455A64" fill-rule="nonzero" d="M2073.75 8190.79c4.9,7.68 7.51,16.6 7.51,25.71 0,5.51 -0.96,10.99 -2.82,16.18 -3.71,15.49 -11.55,29.74 -22.67,41.16 -13.68,13.4 -30.71,22.94 -49.29,27.58 -11.26,2.37 -22.79,3.57 -34.29,3.57 -22.95,0 -45.71,-4.75 -66.74,-13.92 -13.39,-4.08 -25.82,-10.88 -36.47,-19.96 13.49,2.35 26.76,6.17 39.42,11.35 19.09,6.52 39.2,9.86 59.39,9.86 11.91,0 23.81,-1.16 35.48,-3.45 16.91,-4.16 32.49,-12.66 45.11,-24.66 10.32,-9.54 18.05,-21.61 22.42,-34.99 2.16,-9.68 3.25,-19.59 3.25,-29.52 0,-2.97 -0.11,-5.97 -0.29,-8.93l-0.01 0.02z"/>
  <path fill="#455A64" fill-rule="nonzero" d="M2315.24 8106.51c0.57,3.49 0.85,7.03 0.85,10.55 0,10.73 -2.58,21.31 -7.49,30.84 -20.07,51.77 -69.93,85.9 -125.44,85.9 -15.36,0 -30.62,-2.62 -45.09,-7.76 -13.88,-3.43 -26.38,-11.12 -35.72,-21.95 0,-1.97 14.3,7.15 38.19,13.31 11.67,2.99 23.74,4.51 35.79,4.51 19.72,0 39.26,-4.05 57.35,-11.89 28.94,-13.83 52.4,-37.03 66.55,-65.81 11.07,-21.92 13.05,-37.94 15.01,-37.7z"/>
  <path fill="#455A64" fill-rule="nonzero" d="M2022 7940.91c-22.45,-14.79 -47.58,-25.21 -73.91,-30.55 -8.75,-1.63 -17.69,-2.48 -26.6,-2.48 -55.48,0 -106.12,31.82 -130.15,81.82 -8.84,17.4 -14.15,36.44 -15.5,55.94l-12.59 -0.73c-0.52,-26.84 -20.28,-49.42 -46.81,-53.48 -4.65,-0.77 -9.38,-1.16 -14.1,-1.16 -16.88,0 -33.41,4.95 -47.51,14.21 -16.39,12.01 -32.29,25.08 -47.34,38.73 -15.05,13.64 2.47,-5.68 9.36,-14.05 9.67,-11.97 20.97,-22.55 33.55,-31.33 15.76,-11.73 34.92,-18.07 54.57,-18.07 4.66,0 9.33,0.37 13.94,1.07 14.6,2.83 28.1,9.77 38.93,19.96 11.55,10.67 18.13,25.71 18.13,41.44 0,1.3 -0.05,2.61 -0.14,3.9l-12.58 -1.22c4.1,-60.51 42.39,-113.44 98.58,-136.29 18,-7.08 37.21,-10.75 56.55,-10.75 11.13,0 22.28,1.22 33.15,3.62 20.01,4.13 38.94,12.57 55.45,24.63 10.59,8.14 15.51,14.31 15.02,14.79z"/>
  <path fill="#455A64" fill-rule="nonzero" d="M1790.61 7762.26c0,1.97 -11.59,2.47 -28.84,8.13 -22.28,7.13 -41.95,20.8 -56.43,39.18 -14.61,18.57 -23.21,41.21 -24.63,64.81 0.29,4.98 0.47,10.04 0.47,15.03 0,5 -0.18,10.05 -0.47,15.02 -1.23,0 -7.4,-10.35 -8.63,-30.06 -0.14,-2.26 -0.21,-4.56 -0.21,-6.83 0,-51.47 36.26,-95.82 86.7,-106.03 20.21,-3.69 32.28,-0.73 32.04,0.75z"/>
  <path fill="#455A64" fill-rule="nonzero" d="M1311.06 8050.08c-1.23,0 2.71,-18.48 24.65,-35.73 13.41,-9.9 29.09,-16.34 45.59,-18.73 5.8,-0.79 11.67,-1.2 17.52,-1.2 14.13,0 28.25,2.33 41.63,6.85 33.34,12.39 63.28,32.61 87.23,58.89 18.73,19.46 28.58,32.53 27.35,33.76 -12.14,-7.71 -23.42,-16.85 -33.51,-27.1 -24.55,-23.16 -53.47,-41.25 -85,-53.2 -13.1,-4.53 -26.85,-6.84 -40.69,-6.84 -4.27,0 -8.57,0.23 -12.81,0.65 -14.66,1.7 -28.82,6.6 -41.39,14.31 -21.94,13.56 -28.6,29.58 -30.57,28.34z"/>
  <path fill="#455A64" fill-rule="nonzero" d="M1560.45 8247.97c-6.29,-13.56 -9.55,-28.34 -9.55,-43.28 0,-33.2 16.06,-64.36 43.07,-83.64 -10.58,19.42 -19.67,39.74 -27.1,60.6 -3.65,21.82 -5.84,44.17 -6.42,66.28l0 0.04z"/>
  <path fill="#A36957" fill-rule="nonzero" d="M2942.9 9199.42l-357.33 116.07 68.51 656.96 -24.65 49.29 -265.4 435.44c-4.69,7.63 269.34,71.95 372.6,94.13 128.88,27.6 468.21,0 418.92,-426.81 -36.95,-301.39 -212.65,-925.08 -212.65,-925.08z"/>
  <g id="_1764636588560">
   <path fill="#A36957" fill-rule="nonzero" d="M2557.73 8728c-57.56,28.49 -95.26,85.91 -98.55,150.07 -0.14,1.36 -0.21,2.76 -0.21,4.13 0,7.15 1.76,14.2 5.13,20.51 6.54,8.21 16.48,13.01 26.99,13.01 5.72,0 11.35,-1.42 16.38,-4.14 14.1,-7.97 26.06,-19.34 34.74,-33.02l15.52 -150.56zm0 0l0 0 0 0z"/>
  </g>
  <path fill="#7C3B29" fill-rule="nonzero" d="M2542.95 8879.06c0,0 0,4.43 -5.42,11.09 -6.24,9.96 -14.67,18.4 -24.64,24.64 -6.99,4.2 -14.99,6.43 -23.14,6.43 -0.51,0 -1.01,-0.01 -1.5,-0.03 -0.17,0.01 -0.36,0.01 -0.53,0.01 -10.49,0 -20.43,-4.71 -27.07,-12.82 -5.04,-7.7 -7.73,-16.72 -7.73,-25.92 0,-1.88 0.11,-3.76 0.33,-5.62 0.41,-10.87 1.89,-21.72 4.44,-32.29 8.76,-37.12 29.47,-70.39 58.9,-94.63 11.26,-10.91 25.34,-18.51 40.65,-21.92 0,1.98 -14.79,9.61 -34.75,28.59 -25.67,24.72 -43.92,56.32 -52.48,90.93 -2.2,9.77 -3.63,19.78 -4.18,29.8 -0.32,1.96 -0.47,3.93 -0.47,5.9 0,6.56 1.69,13.03 4.89,18.75 6.06,6 14.23,9.36 22.75,9.36 5.4,0 10.72,-1.36 15.46,-3.94 9.25,-5.22 17.6,-11.98 24.63,-19.97 5.92,-4.66 9.36,-9.09 9.86,-8.36z"/>
  <path fill="#A36957" fill-rule="nonzero" d="M2767.19 8729.48c0,0 -175.94,70.24 -197.14,126.91 -21.2,56.68 -61.12,268.12 -61.12,268.12l78.12 204.53 349.92 -69.99c0,0 53.73,-416.96 57.42,-429.27 0,0 123.21,-349.18 121.73,-381.22 0,-43.12 -34.25,-57.42 -76.64,-6.9 -42.39,50.52 -136.52,242.98 -136.52,242.98l-135.77 44.84z"/>
  <g id="_1764636590624">
   <path fill="#A36957" fill-rule="nonzero" d="M2734.42 8645.7c-8.91,-1.21 -17.96,-1.82 -26.97,-1.82 -26.7,0 -53.15,5.31 -77.75,15.61 -30.06,17.25 -52.84,44.84 -64.07,77.62 -10.8,32.53 -17.85,66.38 -20.71,100.55 -3.2,24.65 -4.19,56.43 16.51,71.96 6.47,4.56 14.2,7.03 22.11,7.03 4.75,0 9.46,-0.89 13.87,-2.61 11.85,-5.16 20.22,-16.04 22.18,-28.82l114.83 -239.52zm0 0l0 0 0 0z"/>
  </g>
  <path fill="#7C3B29" fill-rule="nonzero" d="M2619.59 8885.23c0,0 1.72,7.39 -5.18,18.23 -4.23,6.58 -10.44,11.67 -17.74,14.52 -4.89,1.95 -10.13,2.96 -15.4,2.96 -5.27,0 -10.5,-1.01 -15.39,-2.96 -11.96,-5.37 -20.97,-15.74 -24.64,-28.33 -2.7,-9.65 -4.08,-19.67 -4.08,-29.7 0,-3.89 0.22,-7.83 0.63,-11.7 2.11,-30.38 6.97,-60.79 14.3,-90.42 7.52,-30.61 23.12,-58.73 45.09,-81.32 18.59,-18.07 42.56,-29.68 68.26,-33.05 8.15,-0.96 16.4,-1.48 24.64,-1.48 8.23,0 16.48,0.52 24.64,1.5 0.23,-0.01 0.48,-0.02 0.74,-0.02 5.97,0 11.91,1.09 17.49,3.2 0,2.71 -26.62,0 -67.28,6.41 -23.3,4.09 -44.8,15.42 -61.37,32.29 -19.86,21.55 -33.99,47.9 -40.9,76.39 -7.14,28.9 -12.36,58.37 -15.28,87.99 -0.56,4.4 -0.86,8.85 -0.86,13.3 0,8.04 0.97,16.1 2.84,23.89 2.43,10 9.09,18.47 18.24,23.17 4.63,2.34 9.75,3.55 14.93,3.55 9.97,0 19.41,-4.47 25.73,-12.17 3.98,-5.1 7.54,-10.56 10.59,-16.26l0 0.01z"/>
  <g id="_1764636591008">
   <path fill="#A36957" fill-rule="nonzero" d="M2896.81 8679.71c-20.4,-24.83 -47.54,-43.33 -78.1,-53.25 -5.61,-0.85 -11.31,-1.3 -16.98,-1.3 -29.26,0 -57.35,11.55 -78.14,32.1 -24.43,24.64 -44.11,53.72 -57.91,85.53 -12.56,25.88 -24.64,52.24 -35.24,79.1 -6.46,14.12 -10.8,29.2 -12.83,44.61 -0.32,2.51 -0.5,5.09 -0.5,7.64 0,13.07 4.44,25.76 12.58,35.96 10.21,10.23 24.09,15.99 38.54,15.99 9.09,0 18.05,-2.29 26.03,-6.63 20.56,-11.71 35.9,-30.84 42.88,-53.47l159.67 -186.28zm0 0l0 0 0 0z"/>
  </g>
  <path fill="#7C3B29" fill-rule="nonzero" d="M2737.62 8866c-0.99,8.32 -3.86,16.33 -8.37,23.4 -10.36,21.46 -30.48,36.62 -53.97,40.67 -2.87,0.44 -5.8,0.66 -8.71,0.66 -14.09,0 -27.68,-5.25 -38.11,-14.71 -10.75,-11.66 -16.75,-26.96 -16.75,-42.83 0,-3.73 0.33,-7.47 1,-11.14 3.41,-19.69 9.75,-38.82 18.73,-56.69 8.38,-18.73 17,-37.95 24.64,-57.91 15.27,-38.61 39.46,-73.18 70.46,-100.79 19.96,-17.21 45.46,-26.7 71.83,-26.7 9.01,0 18,1.12 26.74,3.3 21.68,7.62 41.15,20.51 56.67,37.47 11.09,11.58 16.51,18.48 15.77,18.97 -6.88,-4.41 -13.36,-9.56 -19.21,-15.27 -15.95,-14.72 -34.98,-25.77 -55.68,-32.3 -6.37,-1.24 -12.88,-1.87 -19.36,-1.87 -25.22,0 -49.55,9.47 -68.13,26.52 -29.06,26.98 -51.75,60.22 -66.28,97.09l-24.65 56.93c-8.64,16.94 -14.99,35.09 -18.75,53.73 -0.62,3.31 -0.94,6.7 -0.94,10.09 0,12.61 4.45,24.83 12.54,34.5 8.82,8.3 20.49,12.92 32.6,12.92 1.94,0 3.91,-0.12 5.85,-0.36 21.17,-3.28 39.78,-15.85 50.76,-34.25 7.38,-13.54 10.33,-21.92 11.32,-21.43z"/>
  <g id="_1764636625712">
   <path fill="#A36957" fill-rule="nonzero" d="M2773.6 8999.08l-22.92 -120.01c-44.19,-7.08 -86.12,-25.08 -121.73,-52.25 -12.07,-31.79 4.68,-51.75 49.29,-64.07 44.6,-12.32 183.83,7.89 199.11,16.26 53.47,28.84 59.88,103.75 67.52,164.12l-171.27 55.95zm0 0l0 0 0 0z"/>
  </g>
  <path fill="#7C3B29" fill-rule="nonzero" d="M2944.38 8943.13c-2.95,-9.2 -5.05,-18.74 -6.15,-28.34 -3.61,-25.7 -9.96,-51.01 -18.73,-75.4 -5.98,-16.39 -15.6,-31.23 -28.1,-43.39 -6.96,-6.57 -15.43,-11.4 -24.64,-14.03 -9.61,-2.46 -19.96,-4.43 -30.8,-6.15 -38.44,-6.65 -77.48,-10.06 -116.52,-10.06 -8.14,0 -16.36,0.17 -24.42,0.42 -17.6,1.81 -34.52,7.82 -49.31,17.52 -6.54,4.2 -11.29,10.7 -13.31,18.22 -0.36,2.27 -0.55,4.57 -0.55,6.87 0,5.41 1.04,10.77 3.02,15.8l-1.97 -2.71c34.74,26.76 75.57,44.73 118.8,52.24l3.44 0 0 3.21c5.92,34.99 10.84,64.56 14.79,88.22 2.28,10.15 3.45,20.56 3.45,30.97 0,0.59 -0.02,1.23 -0.02,1.81 -3.91,-10.27 -6.85,-20.94 -8.64,-31.78 -5.17,-23.42 -11.58,-52.74 -18.97,-87.49l3.94 3.94c-45.32,-6.62 -88.35,-24.65 -124.92,-52.26l0 0 0 -1.72c-2.65,-6.44 -4.01,-13.36 -4.01,-20.33 0,-3.1 0.28,-6.2 0.8,-9.23 2.87,-10.09 9.26,-18.84 18,-24.65 16.81,-11.49 36.37,-18.46 56.67,-20.19 7.71,-0.27 15.58,-0.43 23.37,-0.43 40.44,0 80.81,3.81 120.53,11.28 10.82,1.67 21.54,4 32.06,6.88 10.4,3.39 19.88,9.25 27.58,17.01 13.31,13.51 23.46,29.86 29.59,47.8 8.1,25.3 13.24,51.62 15.05,78.12 0.54,4.6 0.83,9.28 0.83,13.93 0,4.64 -0.29,9.32 -0.86,13.92z"/>
  <path fill="#7C3B29" fill-rule="nonzero" d="M2737.38 8956.69c-10.76,2.18 -21.79,3.51 -32.77,3.94 -52.16,7.06 -97.97,38.56 -123.21,84.77 -9.85,17.5 -13.55,29.81 -15.52,29.32 -1.98,-0.48 0,-13.55 7.39,-33.26 22.39,-52.52 73.08,-87.46 130.11,-89.71 20.93,-0.24 34.49,4.94 34,4.94z"/>
  <path fill="#7C3B29" fill-rule="nonzero" d="M2868.96 10081.37c-37.82,-12.73 -75.18,-28.11 -111.14,-45.58 -37.64,-13.56 -74.57,-29.68 -110.12,-47.86 39.86,6.31 78.72,18.53 115.09,36.03 38.02,13.63 73.97,33.11 106.21,57.41l-0.04 0z"/>
  <path fill="#6DA4FD" fill-rule="nonzero" d="M1664.68 9385.23c22.67,-7.64 376.78,56.19 479.79,102.02 58.15,25.87 551.25,425.82 551.25,425.82l-362.25 594.13 -237.56 -86.5 -2.71 1039.19 -1478.56 -3.94 32.04 -1659.69c0,0 106.23,-434.94 286.86,-487.68 180.63,-52.73 731.14,76.65 731.14,76.65z"/>
  <path fill="#263238" fill-rule="nonzero" d="M2063.4 10435.24c-4.07,-0.04 -8.13,-0.62 -12.06,-1.74 -11.55,-2.03 -23.04,-4.79 -34.26,-8.14 -41.44,-12.47 -80.99,-31.22 -117.04,-55.2 -53.88,-35.14 -100.45,-80.7 -136.77,-133.82 -52.92,-75.3 -81.36,-165.12 -81.36,-257.18 0,-67.05 15.12,-133.35 44.12,-193.74 26.92,-58.54 65.19,-111.38 112.4,-155.24 31.47,-29.94 67.39,-54.92 106.42,-73.94 10.43,-5.3 21.29,-9.97 32.31,-13.82 3.68,-1.69 7.58,-2.94 11.58,-3.69 -52.73,25.15 -101.57,58.55 -144.15,98.56 -44.72,43.71 -80.82,95.82 -105.96,153.05 -27.73,58.84 -42.18,123.25 -42.18,188.36 0,89.76 27.34,177.47 78.37,251.27 35,52.44 79.66,98.01 131.6,133.82 48.33,31.67 101.36,55.85 156.99,71.44l-0.01 0.01z"/>
  <path fill="#263238" fill-rule="nonzero" d="M1812.53 11385.7c-3.44,0 5.42,-207.49 19.72,-463.03 14.3,-255.54 29.57,-462.78 31.79,-462.78 2.21,0 -5.18,207.49 -19.72,463.28 -14.54,255.79 -28.83,462.78 -31.79,462.53z"/>
  <path fill="#263238" fill-rule="nonzero" d="M1436.98 10770.14c-6.13,7.93 -13.2,15.23 -20.93,21.66 -13.81,13.55 -34.5,32.28 -60.38,54.95 -51.99,45.59 -125.68,106.22 -209.96,169.3 -84.28,63.08 -163.87,116.31 -221.78,153.27 -29.08,18.48 -52.99,32.78 -69.75,42.39 -8.3,5.56 -17.27,10.23 -26.61,13.81 7.5,-6.89 15.79,-12.95 24.64,-17.99l67.52 -45.83c57.17,-38.69 135.3,-92.91 219.32,-155.75 84.03,-62.84 158.46,-123.21 211.93,-166.09l63.08 -51.75c7.1,-6.62 14.82,-12.68 22.93,-17.99l-0.01 0.02z"/>
  <path fill="#FAFAFA" fill-rule="nonzero" d="M853.45 9769.89c-3.21,-2.22 25.87,-44.61 54.95,-100.55 29.08,-55.94 48.05,-103.49 51.5,-102.25 -6.57,38.17 -20.25,74.94 -40.16,108.17 -16.18,35.21 -38.68,67.38 -66.28,94.63l-0.01 0z"/>
  <path fill="#FAFAFA" fill-rule="nonzero" d="M955.22 10322.87c-28.9,-26.38 -53.48,-57.42 -72.46,-91.66 -22.59,-32.04 -39.73,-67.79 -50.49,-105.5 22.04,31.58 42.74,64.79 61.39,98.56 22.45,31.44 43.15,64.64 61.62,98.55l-0.06 0.05z"/>
  <path fill="#FAFAFA" fill-rule="nonzero" d="M1349.99 9825.33c-23.82,36.04 -51.23,70.01 -81.52,100.79 -27.26,33.49 -57.8,64.45 -90.92,92.17 23.53,-36.18 50.92,-70.16 81.28,-100.84 27.26,-33.56 57.9,-64.52 91.19,-92.12l-0.03 0z"/>
  <path fill="#FAFAFA" fill-rule="nonzero" d="M1471.48 10474.91c-3.44,-1.48 24.65,-62.1 52.24,-138.74 27.6,-76.63 47.07,-140.46 50.76,-139.72 -16.79,98.26 -51.88,192.84 -102.97,278.42l-0.03 0.04z"/>
  <path fill="#FAFAFA" fill-rule="nonzero" d="M1217.17 10764.71c-7.69,-32.47 -11.62,-65.91 -11.62,-99.29 0,-2.31 0.05,-4.66 0.05,-6.92 -1.69,-15.71 -2.55,-31.6 -2.55,-47.43 0,-19.88 1.4,-39.86 4.04,-59.51 7.51,33.14 11.35,67.22 11.35,101.24 0,1.62 0,3.35 0,4.97 1.62,15.9 2.47,32.1 2.47,48.13 0,19.61 -1.3,39.39 -3.75,58.82l0.01 -0.01z"/>
  <path fill="#FAFAFA" fill-rule="nonzero" d="M978.38 11085.56c-31.62,-30.51 -60.64,-64.12 -86,-100.04 -28.52,-33.54 -54.12,-69.98 -75.86,-108.21 31.87,30.32 60.86,63.97 86.01,100.04 28.84,33.39 54.32,69.69 75.88,108.17l-0.03 0.04z"/>
  <path fill="#FAFAFA" fill-rule="nonzero" d="M1300.71 11292.31c-10.84,-43.63 -16.31,-88.53 -16.31,-133.51 0,-11.36 0.41,-22.79 1.08,-34.09 10.81,43.65 16.29,88.55 16.29,133.52 0,11.37 -0.41,22.79 -1.08,34.09l0.02 -0.01z"/>
  <path fill="#FAFAFA" fill-rule="nonzero" d="M1661.48 11139.04c-26.17,-27.33 -49.42,-57.59 -69,-89.94 -23.03,-30.53 -42.59,-63.65 -58.13,-98.57 26.14,27.29 49.4,57.55 68.99,89.9 23.03,30.53 42.59,63.66 58.13,98.58l0.01 0.03z"/>
  <path fill="#FAFAFA" fill-rule="nonzero" d="M1787.9 10647.9c-8.03,1.68 -16.25,2.54 -24.46,2.54 -10.03,0 -20.03,-1.29 -29.75,-3.78 -18.26,-0.57 -36.15,-5.4 -52.24,-14.05 8.04,-1.68 16.25,-2.53 24.47,-2.53 10.03,0 20.03,1.28 29.75,3.77 18.25,0.58 36.14,5.4 52.23,14.05z"/>
  <path fill="#FAFAFA" fill-rule="nonzero" d="M2039.99 10922.43c-24.79,-29.37 -46.29,-61.71 -63.81,-95.9 -21.3,-31.91 -39.19,-66.21 -53.02,-101.98 24.96,29.19 46.46,61.34 63.88,95.58 21.28,32 39.15,66.48 52.93,102.3l0.02 0z"/>
  <path fill="#FAFAFA" fill-rule="nonzero" d="M2034.32 11154.8c-5.86,29.95 -15.87,59.01 -29.57,86.25 -9.81,28.91 -23.82,56.38 -41.4,81.31 5.87,-29.97 15.86,-59.03 29.6,-86.26 9.82,-28.89 23.8,-56.33 41.36,-81.3l0.01 0z"/>
  <path fill="#FAFAFA" fill-rule="nonzero" d="M1878.33 10094.93c-17.65,-30.19 -28.84,-63.85 -32.76,-98.58 -4.6,-19.38 -6.97,-39.28 -6.97,-59.21 0,-15.1 1.37,-30.17 4.02,-45.02 3.94,0 5.67,46.33 15.52,102.02 9.86,55.7 23.64,99.55 20.19,100.79z"/>
  <path fill="#FAFAFA" fill-rule="nonzero" d="M2020.02 9728.98c19.74,-15.65 42.07,-27.96 65.82,-36.22 22.1,-12.2 46.28,-20.59 71.22,-24.66 -19.81,15.69 -42.18,27.97 -66.06,36.22 -22.11,12.08 -46.11,20.45 -70.96,24.66l-0.02 0z"/>
  <path fill="#FAFAFA" fill-rule="nonzero" d="M2198.69 10054.02c-19.92,-24.51 -36.56,-51.69 -49.3,-80.59 -16.51,-26.83 -29.31,-55.93 -37.95,-86.26 20.02,24.35 36.66,51.47 49.3,80.33 16.33,27.01 29.17,56.23 37.94,86.52l0.01 0z"/>
  <path fill="#FAFAFA" fill-rule="nonzero" d="M2440.68 9948.3c-22.1,-23.28 -40.99,-49.71 -55.91,-78.14 -18.66,-26.04 -33.81,-54.68 -44.85,-84.76 21.91,23.42 40.71,49.76 55.69,78.12 18.64,26.11 33.9,54.7 45.08,84.75l-0.01 0.03z"/>
  <path fill="#FAFAFA" fill-rule="nonzero" d="M2366.01 10244.51c-30.92,15.11 -63.69,26.57 -97.33,34.02 -32.46,11.17 -66.31,18.48 -100.54,21.65 30.75,-15.34 63.47,-26.84 97.08,-33.98 32.49,-11.43 66.46,-18.8 100.78,-21.69l0.01 0z"/>
  <path fill="#FAFAFA" fill-rule="nonzero" d="M1604.3 9597.39c-34.03,-9.24 -65.87,-25.68 -93.14,-48.05 -29.58,-19.04 -54.89,-44.35 -73.93,-73.95 2.71,-2.71 35.73,30.07 81.82,63.34 46.08,33.27 86.74,55.7 85.25,58.66z"/>
  <path fill="#FAFAFA" fill-rule="nonzero" d="M1071.53 9409.38c-9.19,2.07 -18.62,3.13 -28.05,3.13 -15.69,0 -31.24,-2.91 -45.86,-8.55 -24.4,-4.75 -46.86,-16.62 -64.57,-34.03 22.99,5.84 45.84,13.21 68,21.7 23.8,4.42 47.45,10.44 70.52,17.75l-0.04 0z"/>
  <path fill="#263238" fill-rule="nonzero" d="M11360.83 11455.94c0,3.44 -2539.67,6.41 -5671.99,6.41 -3132.32,0 -5672.75,-2.97 -5672.75,-6.41 0,-3.45 2538.2,-6.41 5672.75,-6.41 3134.54,0 5671.99,2.71 5671.99,6.41z"/>
  <rect fill="#6DA4FD" x="8758.84" y="2450.32" width="95.04" height="701.51"/>
  <rect fill="#6DA4FD" transform="matrix(1.42946E-14 -0.931376 0.642568 2.93669E-14 8603.09 2696.53)" width="102.04" height="632.66"/>
 </g>
</svg>
