<?xml version="1.0" encoding="UTF-8"?>
<!DOCTYPE svg PUBLIC "-//W3C//DTD SVG 1.1//EN" "http://www.w3.org/Graphics/SVG/1.1/DTD/svg11.dtd">
<!-- Creator: CorelDRAW -->
<svg xmlns="http://www.w3.org/2000/svg" xml:space="preserve" width="115mm" height="115mm" version="1.1" shape-rendering="geometricPrecision" text-rendering="geometricPrecision" image-rendering="optimizeQuality" fill-rule="evenodd" clip-rule="evenodd"
viewBox="0 0 11500 11500"
 xmlns:xlink="http://www.w3.org/1999/xlink"
 xmlns:xodm="http://www.corel.com/coreldraw/odm/2003">
 <defs>
     <clipPath id="id0" clip-rule="nonzero">
      <path d="M3573.07 4578.8l204.74 0 0 -1016.67 -204.74 0 0 1016.67z"/>
     </clipPath>
     <clipPath id="id1" clip-rule="nonzero">
      <path d="M3801.71 4578.8l204.74 0 0 -1016.67 -204.74 0 0 1016.67z"/>
     </clipPath>
     <clipPath id="id2" clip-rule="nonzero">
      <path d="M7758.23 4581.05l-1016.68 0 0 -204.74 1016.68 0 0 204.74z"/>
     </clipPath>
     <clipPath id="id3" clip-rule="nonzero">
      <path d="M7757.97 4373.54l-1016.67 0 0 -204.74 1016.67 0 0 204.74z"/>
     </clipPath>
     <clipPath id="id4" clip-rule="nonzero">
      <path d="M3999.76 4526.92l490.18 0 0 -913.93 -490.18 0 0 913.93z"/>
     </clipPath>
     <clipPath id="id5" clip-rule="nonzero">
      <path d="M3573.07 3195.4l204.74 0 0 -1016.68 -204.74 0 0 1016.68z"/>
     </clipPath>
     <clipPath id="id6" clip-rule="nonzero">
      <path d="M7777.56 3186.18l22.92 0 0 -1036.83 -22.92 0 0 1036.83z"/>
     </clipPath>
     <clipPath id="id7" clip-rule="nonzero">
      <path d="M3801.71 3195.4l204.74 0 0 -1016.68 -204.74 0 0 1016.68z"/>
     </clipPath>
     <clipPath id="id8" clip-rule="nonzero">
      <path d="M5065.64 3195.4l204.74 0 0 -1016.68 -204.74 0 0 1016.68z"/>
     </clipPath>
     <clipPath id="id9" clip-rule="nonzero">
      <path d="M5272.39 3195.4l204.74 0 0 -1016.68 -204.74 0 0 1016.68z"/>
     </clipPath>
     <clipPath id="id10" clip-rule="nonzero">
      <path d="M5479.14 3195.4l204.74 0 0 -1016.68 -204.74 0 0 1016.68z"/>
     </clipPath>
     <clipPath id="id11" clip-rule="nonzero">
      <path d="M5685.89 3195.4l204.74 0 0 -1016.68 -204.74 0 0 1016.68z"/>
     </clipPath>
     <clipPath id="id12" clip-rule="nonzero">
      <path d="M5892.65 3195.4l204.74 0 0 -1016.68 -204.74 0 0 1016.68z"/>
     </clipPath>
     <clipPath id="id13" clip-rule="nonzero">
      <path d="M7595.25 3197.4l-1016.68 0 0 -204.74 1016.68 0 0 204.74z"/>
     </clipPath>
     <clipPath id="id14" clip-rule="nonzero">
      <path d="M10453.36 4150.95c-104.37,-79.18 -228.26,-129.15 -358.41,-144.16 -202.48,-17.36 -497.27,226.38 -503.06,358.42 -5.79,132.05 -80.74,109.92 -103.88,185.12 -23.14,75.21 69.17,63.39 69.17,115.45 0,52.06 -121.24,115.71 -109.67,161.98 11.57,46.28 138.6,92.57 138.6,121.24 0,28.67 -69.43,81 -11.57,127.28 57.86,46.27 115.71,11.56 138.84,69.42 23.14,57.86 75.47,115.71 92.57,75.46 17.1,-40.24 -40.5,-276.67 -17.36,-445.2 23.14,-168.52 69.43,-242.72 248.51,-312.14 179.09,-69.43 306.36,-121.49 381.57,-190.92 75.2,-69.42 34.69,-121.95 34.69,-121.95z"/>
     </clipPath>
     <clipPath id="id15" clip-rule="nonzero">
      <path d="M11261.26 5207.62c-53.07,-15.35 30.43,-113.95 68.42,-205 37.99,-91.06 -68.42,-144.38 -150.92,-189.9 -82.49,-45.53 0,-136.83 -7.54,-258.33 -7.55,-121.49 -100.61,-119.22 -144.38,-189.65 -43.77,-70.44 37.98,-303.85 -258.07,-334.28 -296.04,-30.43 -409.99,15.34 -531.73,75.46 -58.55,31.57 -106.88,79.48 -138.85,137.83 -27.92,26.41 -50.31,59.61 -36.97,91.56 28.93,69.42 57.85,115.7 17.36,190.91 -40.49,75.2 -17.36,144.37 17.36,173.3 34.72,28.93 34.71,104.14 -23.14,161.98 -57.85,57.85 -40.5,103.88 11.57,132.81 52.07,28.93 109.91,104.13 57.85,173.55 -52.07,69.42 -34.71,167.52 69.42,190.66 33.13,5.36 65.97,13.87 97.58,25.15l25.15 110.92c-7.29,48.05 -16.35,91.81 22.13,100.61 3.35,0.46 6.75,0.68 10.13,0.68 12.98,0 25.77,-3.25 37.17,-9.45 18.32,-3.68 36.51,-8.89 54.08,-15.37 37.98,-15.34 53.08,75.47 91.05,150.92 37.98,75.45 150.92,37.98 212.8,-15.34 10.32,-9.61 23.93,-14.98 38.05,-14.98 2.84,0 5.68,0.23 8.47,0.65 22.43,17.3 49.5,27.66 77.74,29.69 30.09,15.53 63.57,23.7 97.47,23.7 7.07,0 14.23,-0.36 21.26,-1.07 113.94,-15.09 98.6,-60.61 113.94,-129.03 15.35,-68.42 75.47,-68.42 167.01,-144.37 91.55,-75.96 28.67,-248.53 -24.41,-263.61z"/>
     </clipPath>
 </defs>
 <g id="Camada_x0020_1">
  <metadata id="CorelCorpID_0Corel-Layer"/>
  <g id="_1952306559872">
   <g id="freepik--background-simple--inject-2">
    <path fill="#6DA4FD" fill-rule="nonzero" d="M9358.95 1437.47c0,0 -1270.97,-1038.06 -2924.01,-578.51 -1653.04,459.54 -2345.24,1884.94 -3292.99,2864.14 -496.52,512.62 -1229.97,701.51 -1819.81,1096.16 -1886.46,1261.91 -1606.76,4099.9 -152.42,5168.89 1259.14,926.64 2832.45,1023.47 4879.64,340.07 2047.19,-683.4 3512.07,-1093.9 4781.54,-3051.54 1269.47,-1957.64 93.82,-4430.41 -1471.95,-5839.21z"/>
    <path fill="white" fill-rule="nonzero" fill-opacity="0.701961" d="M9358.95 1437.47c0,0 -1270.97,-1038.06 -2924.01,-578.51 -1653.04,459.54 -2345.24,1884.94 -3292.99,2864.14 -496.52,512.62 -1229.97,701.51 -1819.81,1096.16 -1886.46,1261.91 -1606.76,4099.9 -152.42,5168.89 1259.14,926.64 2832.45,1023.47 4879.64,340.07 2047.19,-683.4 3512.07,-1093.9 4781.54,-3051.54 1269.47,-1957.64 93.82,-4430.41 -1471.95,-5839.21z"/>
   </g>
   <g id="freepik--Floor--inject-2">
    <line fill="none" fill-rule="nonzero" stroke="#263238" stroke-width="26.46" stroke-linecap="round" stroke-linejoin="round" stroke-miterlimit="22.9256" x1="543.66" y1="10471.09" x2="11492.67" y2= "10471.09" />
    <line fill="none" fill-rule="nonzero" stroke="#263238" stroke-width="26.46" stroke-linecap="round" stroke-linejoin="round" stroke-miterlimit="22.9256" x1="148.77" y1="10471.09" x2="368.09" y2= "10471.09" />
   </g>
   <g id="freepik--Pictures--inject-2">
    <rect fill="none" fill-rule="nonzero" stroke="#263238" stroke-width="26.46" stroke-miterlimit="22.9256" x="740.86" y="1818.53" width="2147.54" height="3471.08"/>
    <rect fill="none" fill-rule="nonzero" stroke="#263238" stroke-width="26.46" stroke-miterlimit="22.9256" x="1006.73" y="2248.39" width="1615.81" height="2611.61"/>
    <rect fill="none" fill-rule="nonzero" stroke="#263238" stroke-width="26.46" stroke-miterlimit="22.9256" x="8615.69" y="1818.53" width="2147.54" height="3471.08"/>
    <rect fill="none" fill-rule="nonzero" stroke="#263238" stroke-width="26.46" stroke-miterlimit="22.9256" x="8881.56" y="2248.39" width="1615.81" height="2611.61"/>
   </g>
   <g id="freepik--Bookshelf--inject-2">
    <rect fill="#263238" fill-rule="nonzero" x="3573.06" y="3562.12" width="204.74" height="1016.68"/>
    <g>
    </g>
    <g clip-path="url(#id0)">
     <g>
      <rect fill="#6DA4FD" fill-rule="nonzero" x="3562.25" y="3681.34" width="243.48" height="44.78"/>
      <rect fill="#6DA4FD" fill-rule="nonzero" x="3562.25" y="4422.09" width="243.48" height="44.78"/>
     </g>
    </g>
    <polygon fill="none" fill-rule="nonzero" points="3573.07,4578.8 3777.81,4578.8 3777.81,3562.13 3573.07,3562.13 "/>
    <rect fill="#263238" fill-rule="nonzero" x="3801.71" y="3562.12" width="204.74" height="1016.68"/>
    <g>
    </g>
    <g clip-path="url(#id1)">
     <g>
      <rect fill="#6DA4FD" fill-rule="nonzero" x="3790.88" y="3681.34" width="243.48" height="44.78"/>
      <rect fill="#6DA4FD" fill-rule="nonzero" x="3790.88" y="4422.09" width="243.48" height="44.78"/>
     </g>
    </g>
    <polygon fill="none" fill-rule="nonzero" points="3801.71,4578.8 4006.45,4578.8 4006.45,3562.13 3801.71,3562.13 "/>
    <rect fill="#263238" fill-rule="nonzero" transform="matrix(2.51777E-14 0.950656 -0.950656 2.51777E-14 7758.24 4376.31)" width="215.37" height="1069.45"/>
    <g>
    </g>
    <g clip-path="url(#id2)">
     <g>
      <rect fill="#6DA4FD" fill-rule="nonzero" transform="matrix(2.51777E-14 0.950656 -0.950656 2.51777E-14 7638.76 4365.25)" width="256.12" height="47.1"/>
      <rect fill="#6DA4FD" fill-rule="nonzero" transform="matrix(2.51777E-14 0.950656 -0.950656 2.51777E-14 6898.01 4365.24)" width="256.12" height="47.1"/>
     </g>
    </g>
    <polygon fill="none" fill-rule="nonzero" points="7758.23,4581.05 6741.55,4581.05 6741.55,4376.31 7758.23,4376.31 "/>
    <rect fill="#263238" fill-rule="nonzero" transform="matrix(2.51777E-14 0.950656 -0.950656 2.51777E-14 7757.99 4168.8)" width="215.37" height="1069.45"/>
    <g>
    </g>
    <g clip-path="url(#id3)">
     <g>
      <rect fill="#6DA4FD" fill-rule="nonzero" transform="matrix(2.51777E-14 0.950656 -0.950656 2.51777E-14 7638.76 4157.74)" width="256.12" height="47.1"/>
      <rect fill="#6DA4FD" fill-rule="nonzero" transform="matrix(2.51777E-14 0.950656 -0.950656 2.51777E-14 6898.27 4157.73)" width="256.12" height="47.1"/>
     </g>
    </g>
    <polygon fill="none" fill-rule="nonzero" points="7757.97,4373.54 6741.3,4373.54 6741.3,4168.8 7757.97,4168.8 "/>
    <rect fill="#263238" fill-rule="nonzero" transform="matrix(0.909986 -0.275087 0.275087 0.909985 3999.75 3612.98)" width="215.37" height="1069.45"/>
    <g>
    </g>
    <g clip-path="url(#id4)">
     <g>
      <rect fill="#6DA4FD" fill-rule="nonzero" transform="matrix(0.909986 -0.275087 0.275087 0.909985 4024.01 3730.52)" width="256.12" height="47.1"/>
      <rect fill="#6DA4FD" fill-rule="nonzero" transform="matrix(0.909986 -0.275087 0.275087 0.909985 4238.14 4439.36)" width="256.12" height="47.1"/>
     </g>
    </g>
    <polygon fill="none" fill-rule="nonzero" points="3999.76,4526.92 4489.94,4526.92 4489.94,3612.99 3999.76,3612.99 "/>
    <path fill="#6DA4FD" fill-rule="nonzero" d="M5687.16 4253.06c0,0 -159.22,-188.89 -129.29,-263.35 29.92,-74.45 75.46,14.84 75.46,14.84 0,0 -134.06,-301.83 -9.81,-318.18 124.25,-16.35 183.87,233.67 183.87,233.67 0,0 44.77,-258.57 124.25,-174.06 79.47,84.52 -14.84,303.35 -14.84,303.35 0,0 163.99,-129.29 124.25,-19.87 -39.75,109.42 -203.99,238.45 -203.99,238.45l-149.9 -14.85z"/>
    <path fill="none" fill-rule="nonzero" stroke="#263238" stroke-width="26.46" stroke-miterlimit="22.9256" d="M5707.53 4258.35c0,0 -213.8,-174.06 -129.29,-213.8 84.51,-39.75 134.06,44.77 134.06,44.77 0,0 -50.31,-303.34 44.78,-303.34 95.08,0 75.46,238.7 75.46,238.7 0,0 54.58,-188.9 104.38,-119.22 49.81,69.67 -69.67,372.76 -69.67,372.76"/>
    <polygon fill="#263238" fill-rule="nonzero" points="5950.51,4208.3 5577.74,4208.3 5614.96,4571.25 5913.28,4571.25 "/>
    <rect fill="#6DA4FD" fill-rule="nonzero" x="4075.61" y="2767.8" width="387.6" height="420.55"/>
    <rect fill="#6DA4FD" fill-rule="nonzero" x="4174.22" y="2399.82" width="190.65" height="420.55"/>
    <rect fill="#263238" fill-rule="nonzero" x="3573.06" y="2178.72" width="204.74" height="1016.68"/>
    <g>
    </g>
    <g clip-path="url(#id5)">
     <g>
      <rect fill="#6DA4FD" fill-rule="nonzero" x="3562.25" y="2297.95" width="243.48" height="44.78"/>
      <rect fill="#6DA4FD" fill-rule="nonzero" x="3562.25" y="3038.69" width="243.48" height="44.78"/>
     </g>
    </g>
    <polygon fill="none" fill-rule="nonzero" points="3573.07,3195.4 3777.81,3195.4 3777.81,2178.72 3573.07,2178.72 "/>
    <rect fill="#263238" fill-rule="nonzero" transform="matrix(0.935866 0.16704 -0.16704 0.935866 7777.57 2149.35)" width="215.37" height="1069.45"/>
    <g>
    </g>
    <g clip-path="url(#id6)">
     <g>
      <rect fill="#6DA4FD" fill-rule="nonzero" transform="matrix(0.935866 0.16704 -0.16704 0.935866 7746.2 2264.95)" width="256.12" height="47.1"/>
      <rect fill="#6DA4FD" fill-rule="nonzero" transform="matrix(0.935866 0.16704 -0.16704 0.935866 7615.83 2994.09)" width="256.12" height="47.1"/>
     </g>
    </g>
    <polygon fill="none" fill-rule="nonzero" points="7777.56,3186.18 7800.48,3186.18 7800.48,2149.35 7777.56,2149.35 "/>
    <rect fill="#263238" fill-rule="nonzero" x="3801.71" y="2178.72" width="204.74" height="1016.68"/>
    <g>
    </g>
    <g clip-path="url(#id7)">
     <g>
      <rect fill="#6DA4FD" fill-rule="nonzero" x="3790.88" y="2297.95" width="243.48" height="44.78"/>
      <rect fill="#6DA4FD" fill-rule="nonzero" x="3790.88" y="3038.69" width="243.48" height="44.78"/>
     </g>
    </g>
    <polygon fill="none" fill-rule="nonzero" points="3801.71,3195.4 4006.45,3195.4 4006.45,2178.72 3801.71,2178.72 "/>
    <rect fill="#263238" fill-rule="nonzero" x="5065.63" y="2178.72" width="204.74" height="1016.68"/>
    <g>
    </g>
    <g clip-path="url(#id8)">
     <g>
      <rect fill="#6DA4FD" fill-rule="nonzero" x="5054.56" y="2297.95" width="243.48" height="44.78"/>
      <rect fill="#6DA4FD" fill-rule="nonzero" x="5054.56" y="3038.69" width="243.48" height="44.78"/>
     </g>
    </g>
    <polygon fill="none" fill-rule="nonzero" points="5065.64,3195.4 5270.38,3195.4 5270.38,2178.72 5065.64,2178.72 "/>
    <rect fill="#6B6B6B" fill-rule="nonzero" x="5272.38" y="2178.72" width="204.74" height="1016.68"/>
    <g>
    </g>
    <g clip-path="url(#id9)">
     <g>
      <rect fill="#6DA4FD" fill-rule="nonzero" x="5261.32" y="2297.95" width="243.48" height="44.78"/>
      <rect fill="#6DA4FD" fill-rule="nonzero" x="5261.32" y="3038.69" width="243.48" height="44.78"/>
     </g>
    </g>
    <polygon fill="none" fill-rule="nonzero" points="5272.39,3195.4 5477.13,3195.4 5477.13,2178.72 5272.39,2178.72 "/>
    <rect fill="#263238" fill-rule="nonzero" x="5479.14" y="2178.72" width="204.74" height="1016.68"/>
    <g>
    </g>
    <g clip-path="url(#id10)">
     <g>
      <rect fill="#6DA4FD" fill-rule="nonzero" x="5468.07" y="2297.95" width="243.48" height="44.78"/>
      <rect fill="#6DA4FD" fill-rule="nonzero" x="5468.07" y="3038.69" width="243.48" height="44.78"/>
     </g>
    </g>
    <polygon fill="none" fill-rule="nonzero" points="5479.14,3195.4 5683.88,3195.4 5683.88,2178.72 5479.14,2178.72 "/>
    <rect fill="#6B6B6B" fill-rule="nonzero" x="5685.9" y="2178.72" width="204.74" height="1016.68"/>
    <g>
    </g>
    <g clip-path="url(#id11)">
     <g>
      <rect fill="#6DA4FD" fill-rule="nonzero" x="5674.83" y="2297.95" width="243.48" height="44.78"/>
      <rect fill="#6DA4FD" fill-rule="nonzero" x="5674.83" y="3038.69" width="243.48" height="44.78"/>
     </g>
    </g>
    <polygon fill="none" fill-rule="nonzero" points="5685.89,3195.4 5890.63,3195.4 5890.63,2178.72 5685.89,2178.72 "/>
    <rect fill="#263238" fill-rule="nonzero" x="5892.65" y="2178.72" width="204.74" height="1016.68"/>
    <g>
    </g>
    <g clip-path="url(#id12)">
     <g>
      <rect fill="#6DA4FD" fill-rule="nonzero" x="5881.58" y="2297.95" width="243.48" height="44.78"/>
      <rect fill="#6DA4FD" fill-rule="nonzero" x="5881.58" y="3038.69" width="243.48" height="44.78"/>
     </g>
    </g>
    <polygon fill="none" fill-rule="nonzero" points="5892.65,3195.4 6097.39,3195.4 6097.39,2178.72 5892.65,2178.72 "/>
    <rect fill="#263238" fill-rule="nonzero" transform="matrix(2.51777E-14 0.950656 -0.950656 2.51777E-14 7595.25 2992.66)" width="215.37" height="1069.45"/>
    <g>
    </g>
    <g clip-path="url(#id13)">
     <g>
      <rect fill="#6DA4FD" fill-rule="nonzero" transform="matrix(2.51777E-14 0.950656 -0.950656 2.51777E-14 7475.77 2981.84)" width="256.12" height="47.1"/>
      <rect fill="#6DA4FD" fill-rule="nonzero" transform="matrix(2.51777E-14 0.950656 -0.950656 2.51777E-14 6735.27 2981.85)" width="256.12" height="47.1"/>
     </g>
    </g>
    <polygon fill="none" fill-rule="nonzero" points="7595.25,3197.4 6578.57,3197.4 6578.57,2992.66 7595.25,2992.66 "/>
    <path fill="none" fill-rule="nonzero" stroke="#263238" stroke-width="26.46" stroke-linecap="round" stroke-linejoin="round" stroke-miterlimit="22.9256" d="M3414.35 1810.23l0 2880.24 4682.69 0 0 -2880.24 -4682.69 0zm3041.97 108.91l0 1274.49 -1402.77 0 0 -1274.49 1402.77 0zm-2922.49 0l1401.51 0 0 1274.49 -1401.51 0 0 -1274.49zm0 2662.67l0 -1274.73 1401.51 0 0 1274.74 -1401.51 -0.01zm1520.73 0l0 -1274.73 1401.76 0 0 1274.74 -1401.76 -0.01zm2922.76 0l-1401.77 0 0 -1274.73 1401.77 0 0 1274.73zm-1401.77 -1388.18l0 -1274.49 1401.77 0 0 1274.49 -1401.77 0z"/>
   </g>
   <g id="freepik--Table--inject-2">
    <rect fill="white" fill-rule="nonzero" stroke="#263238" stroke-width="26.46" stroke-linecap="round" stroke-linejoin="round" stroke-miterlimit="22.9256" x="4188.55" y="8742.58" width="413.52" height="1728.5"/>
    <rect fill="white" fill-rule="nonzero" stroke="#263238" stroke-width="26.46" stroke-linecap="round" stroke-linejoin="round" stroke-miterlimit="22.9256" x="6908.83" y="8742.58" width="413.52" height="1728.5"/>
    <rect fill="white" fill-rule="nonzero" stroke="#263238" stroke-width="26.46" stroke-linecap="round" stroke-linejoin="round" stroke-miterlimit="22.9256" x="4188.55" y="8559.73" width="3134.04" height="270.64"/>
    <path fill="#6DA4FD" fill-rule="nonzero" d="M5537.74 8235.76c-38.26,-60.78 -80.73,-120.1 -125.73,-176.18 -62.89,-75.47 -238.95,-220.09 -238.95,-220.09l226.38 119.48c0,0 -37.73,-106.9 -75.46,-194.93 -37.73,-88.03 -100.61,-301.84 -100.61,-301.84 0,0 150.92,257.82 188.65,301.84 37.73,44.01 100.61,138.34 100.61,138.34 0,0 6.28,-238.95 37.73,-314.41 31.44,-75.47 163.49,-251.53 163.49,-251.53 0,0 -44.01,276.68 -44.01,308.12 0,31.44 18.86,226.38 18.86,226.38l75.46 -396.16 6.28 276.68 56.6 -295.55c0,0 44.01,226.38 56.59,295.55 8.06,52.03 12.42,104.81 12.56,157.33l56.59 -207.51 138.34 -238.94c0,0 0,270.39 -6.29,295.55 -6.28,25.15 -12.57,188.64 -12.57,188.64l81.74 -88.03 -62.88 194.93 81.75 12.58 37.73 31.44c0,0 -150.92,45.02 -217.32,63.39 -66.41,18.37 -191.42,93.82 -191.42,93.82l-264.12 -18.9z"/>
    <path fill="none" fill-rule="nonzero" stroke="#263238" stroke-width="26.46" stroke-linecap="round" stroke-linejoin="round" stroke-miterlimit="22.9256" d="M5581.77 8235.76c0,0 -106.9,-232.66 -213.81,-289.25 -106.9,-56.6 -157.2,-81.75 -157.2,-81.75 0,0 157.2,6.28 238.95,62.88 52.12,38.19 95.19,87.66 125.75,144.61 -16.62,-78.46 -25.13,-158.6 -25.13,-238.88 0,-132.06 31.44,-415.02 31.44,-415.02 0,0 -6.29,352.14 25.15,471.61 22.2,79.73 51.8,158.05 87.98,232.64 36.19,74.58 12.58,-113.19 31.44,-226.38 23.49,-109.92 53.51,-220.29 88.22,-327.14l-50.31 452.75c33.47,-56.15 63.27,-115.27 87.97,-176 37.73,-94.32 226.38,-220.09 226.38,-220.09 0,0 -144.63,182.36 -176.07,282.98 -31.44,100.61 -62.89,188.64 -62.89,188.64 34.65,-53.89 77.09,-102.72 125.69,-144.59 75.46,-62.89 213.8,-100.61 213.8,-100.61 0,0 -188.65,138.34 -207.51,182.36 -18.86,44.01 -50.31,125.76 -50.31,125.76 0,0 176.07,-150.92 326.99,-194.93 0,0 -232.66,163.49 -295.55,276.68l-370.98 -6.27z"/>
    <path fill="#263238" fill-rule="nonzero" stroke="#263238" stroke-width="26.46" stroke-linecap="round" stroke-linejoin="round" stroke-miterlimit="22.9256" d="M5450.46 8185.96c-10.28,36.71 -15.85,74.8 -16.32,112.91 0,230.4 137.33,249.51 306.61,249.51 169.29,0 306.62,-12.82 306.62,-249.51 -0.52,-38.11 -6.08,-76.2 -16.4,-112.91l-580.51 0z"/>
    <path fill="#6DA4FD" fill-rule="nonzero" d="M5434.12 8298.89c0,5.03 0,9.56 0,14.6l612.21 -0.01c0,-5.03 0,-9.56 0,-14.6 0,-10.31 0,-20.87 -1.51,-31.69l-609.2 0.01c-1.01,10.4 -1.5,20.96 -1.5,31.69z"/>
    <path fill="#6DA4FD" fill-rule="nonzero" d="M6041.81 8371.58c0,-7.04 2.01,-14.59 2.76,-22.39l-607.68 0c0,7.8 1.76,15.35 3.02,22.39l601.9 0z"/>
   </g>
   <g id="freepik--character-2--inject-2">
    <polygon fill="white" fill-rule="nonzero" stroke="#263238" stroke-width="26.46" stroke-linecap="round" stroke-linejoin="round" stroke-miterlimit="22.9256" points="10742.36,8730.77 10883.96,10460.02 10834.42,10460.02 10579.37,8745.1 "/>
    <polygon fill="white" fill-rule="nonzero" stroke="#263238" stroke-width="26.46" stroke-linecap="round" stroke-linejoin="round" stroke-miterlimit="22.9256" points="9679.65,8730.77 9821.26,10460.02 9771.72,10460.02 9516.66,8745.1 "/>
    <polygon fill="white" fill-rule="nonzero" stroke="#263238" stroke-width="26.46" stroke-linecap="round" stroke-linejoin="round" stroke-miterlimit="22.9256" points="9552.12,8730.77 9410.27,10460.02 9460.07,10460.02 9715.11,8745.1 "/>
    <polygon fill="white" fill-rule="nonzero" stroke="#263238" stroke-width="26.46" stroke-linecap="round" stroke-linejoin="round" stroke-miterlimit="22.9256" points="8347.57,8730.77 8205.95,10460.02 8255.51,10460.02 8510.56,8745.1 "/>
    <path fill="#6DA4FD" fill-rule="nonzero" stroke="#263238" stroke-width="26.46" stroke-linecap="round" stroke-linejoin="round" stroke-miterlimit="22.9256" d="M9643.68 5970.24l1572.3 0c0,0 188.65,52.32 104.89,272.66 -83.76,220.34 -555.12,2547.98 -555.12,2547.98l-2495.66 0 -157.2 -1447.04c0,0 -31.7,-209.77 115.2,-241.22 146.89,-31.45 744.52,-10.56 859.97,-73.45 115.45,-62.89 375.28,-975.17 375.28,-975.17 0,0 22.88,-105.14 180.34,-83.76z"/>
    <line fill="none" fill-rule="nonzero" stroke="#263238" stroke-width="26.46" stroke-linecap="round" stroke-linejoin="round" stroke-miterlimit="22.9256" x1="9523.96" y1="8461.38" x2="8269.34" y2= "8461.38" />
    <path fill="#263238" fill-rule="nonzero" d="M10453.36 4150.95c-104.37,-79.18 -228.26,-129.15 -358.41,-144.16 -202.48,-17.36 -497.27,226.38 -503.06,358.42 -5.79,132.05 -80.74,109.92 -103.88,185.12 -23.14,75.21 69.17,63.39 69.17,115.45 0,52.06 -121.24,115.71 -109.67,161.98 11.57,46.28 138.6,92.57 138.6,121.24 0,28.67 -69.43,81 -11.57,127.28 57.86,46.27 115.71,11.56 138.84,69.42 23.14,57.86 75.47,115.71 92.57,75.46 17.1,-40.24 -40.5,-276.67 -17.36,-445.2 23.14,-168.52 69.43,-242.72 248.51,-312.14 179.09,-69.43 306.36,-121.49 381.57,-190.92 75.2,-69.42 34.69,-121.95 34.69,-121.95z"/>
    <g>
    </g>
    <g clip-path="url(#id14)">
     <g>
      <path fill="none" fill-rule="nonzero" stroke="#666666" stroke-width="26.46" stroke-linecap="round" stroke-linejoin="round" stroke-miterlimit="22.9256" d="M10205.6 4173.33c0,0 -150.92,-108.15 -259.58,-14.59 -108.66,93.56 -100.61,209.02 -180.35,245.24 -79.74,36.22 -194.68,57.6 -150.92,158.47 43.77,100.86 122.75,251.52 36.22,281.2 -86.53,29.68 -150.91,108.16 -122.75,137.08"/>
     </g>
    </g>
    <path fill="none" fill-rule="nonzero" d="M10453.36 4150.95c-104.37,-79.18 -228.26,-129.15 -358.41,-144.16 -202.48,-17.36 -497.27,226.38 -503.06,358.42 -5.79,132.05 -80.74,109.92 -103.88,185.12 -23.14,75.21 69.17,63.39 69.17,115.45 0,52.06 -121.24,115.71 -109.67,161.98 11.57,46.28 138.6,92.57 138.6,121.24 0,28.67 -69.43,81 -11.57,127.28 57.86,46.27 115.71,11.56 138.84,69.42 23.14,57.86 75.47,115.71 92.57,75.46 17.1,-40.24 -40.5,-276.67 -17.36,-445.2 23.14,-168.52 69.43,-242.72 248.51,-312.14 179.09,-69.43 306.36,-121.49 381.57,-190.92 75.2,-69.42 34.69,-121.95 34.69,-121.95z"/>
    <path fill="none" fill-rule="nonzero" stroke="#263238" stroke-width="26.46" stroke-linecap="round" stroke-linejoin="round" stroke-miterlimit="22.9256" d="M10453.36 4150.95c-104.37,-79.18 -228.26,-129.15 -358.41,-144.16 -202.48,-17.36 -497.27,226.38 -503.06,358.42 -5.79,132.05 -80.74,109.92 -103.88,185.12 -23.14,75.21 69.17,63.39 69.17,115.45 0,52.06 -121.24,115.71 -109.67,161.98 11.57,46.28 138.6,92.57 138.6,121.24 0,28.67 -69.43,81 -11.57,127.28 57.86,46.27 115.71,11.56 138.84,69.42 23.14,57.86 75.47,115.71 92.57,75.46 17.1,-40.24 -40.5,-276.67 -17.36,-445.2 23.14,-168.52 69.43,-242.72 248.51,-312.14 179.09,-69.43 306.36,-121.49 381.57,-190.92 75.2,-69.42 34.69,-121.95 34.69,-121.95z"/>
    <path fill="#B2B2B2" fill-rule="nonzero" stroke="#263238" stroke-width="26.46" stroke-linecap="round" stroke-linejoin="round" stroke-miterlimit="22.9256" d="M10084.11 4272.18c0,0 -289.01,133.06 -329.5,242.98 -40.48,109.92 -11.57,306.36 -23.13,335.29 -11.57,28.93 -104.14,80.99 -92.57,103.88 18.37,25.48 39.8,48.93 63.65,69.43 23.84,20.51 11.57,300.58 86.77,323.72 75.21,23.14 276.68,-40.24 276.68,-40.24l121.49 444.95 497.02 -138.59 -184.88 -422.07c0,0 226.38,-294.79 248.51,-491.49 22.14,-196.7 -173.3,-462.56 -317.92,-491.49 -144.63,-28.92 -323.72,52.07 -323.72,52.07l-22.4 11.56z"/>
    <ellipse fill="#263238" fill-rule="nonzero" cx="9837.62" cy="4812.72" rx="25.91" ry="54.83"/>
    <path fill="none" fill-rule="nonzero" stroke="#263238" stroke-width="26.46" stroke-linecap="round" stroke-linejoin="round" stroke-miterlimit="22.9256" d="M9800.13 4653.75c0,0 63.64,-75.47 132.81,11.57"/>
    <path fill="#B2B2B2" fill-rule="nonzero" stroke="#263238" stroke-width="26.46" stroke-linecap="round" stroke-linejoin="round" stroke-miterlimit="22.9256" d="M9492.52 7110.93c0,0 -499.03,107.91 -576.25,118.21 -77.22,10.31 -159.47,-20.37 -180.09,-25.15 -20.62,-4.79 -185.12,-87.54 -205.75,-87.54 -20.63,0 -82.25,51.56 -149.16,66.91 -66.91,15.34 -154.19,-15.35 -169.78,15.59 -15.59,30.93 56.59,41 92.57,46.28 35.97,5.27 118.47,5.02 118.47,5.02 0,0 -133.82,77.23 -154.44,87.54 -20.62,10.32 -159.47,-30.93 -149.16,15.34 10.32,46.28 216.07,72.2 303.6,82.26 87.52,10.05 313.66,-66.66 313.66,-66.66 0,0 298.31,66.66 427.59,61.63 129.28,-5.03 303.35,-15.35 303.35,-15.35l25.39 -304.08z"/>
    <g>
     <path fill="#B2B2B2" fill-rule="nonzero" d="M8345.3 7419.55c0,0 -205.76,-82.25 -164.51,-82.25 41.25,0 143.88,46.27 143.88,46.27 0,0 -77.23,-71.93 -50.31,-71.93 26.91,0 174.82,65.65 174.82,65.65 0,0 -97.84,-56.59 -41.25,-46.28 56.6,10.32 176.07,46.28 176.07,46.28l-238.7 42.26zm0 0l0 0 0 0z"/>
     <path id="_1" fill="none" fill-rule="nonzero" stroke="#263238" stroke-width="26.46" stroke-linecap="round" stroke-linejoin="round" stroke-miterlimit="22.9256" d="M8345.3 7419.55c0,0 -205.76,-82.25 -164.51,-82.25 41.25,0 143.88,46.27 143.88,46.27 0,0 -77.23,-71.93 -50.31,-71.93 26.91,0 174.82,65.65 174.82,65.65 0,0 -97.84,-56.59 -41.25,-46.28 56.6,10.32 176.07,46.28 176.07,46.28m-238.7 42.26l0 0 0 0z"/>
    </g>
    <path fill="#263238" fill-rule="nonzero" stroke="#263238" stroke-width="26.46" stroke-linecap="round" stroke-linejoin="round" stroke-miterlimit="22.9256" d="M7862.11 7392.13c0,0 -352.14,0 -430.11,197.7 -77.97,197.7 553.36,2466.48 553.36,2466.48 0,0 -223.61,249.26 -378.55,309.62 -154.95,60.37 -180.6,77.47 -120.49,94.58 60.11,17.1 344.09,25.15 490.48,-17.11 146.39,-42.25 344.09,-154.93 421.56,-189.4 77.47,-34.46 -34.46,-103.12 -86.02,-232.16 -51.57,-129.03 -244.24,-917.82 -252.79,-1167.33 -8.56,-249.52 -94.83,-937.7 -94.83,-937.7 0,0 275.42,197.95 791.55,292.52 516.13,94.57 17.36,-542.04 -215.05,-688.18 -232.42,-146.13 -679.11,-129.02 -679.11,-129.02z"/>
    <path fill="white" fill-rule="nonzero" stroke="#263238" stroke-width="26.46" stroke-linecap="round" stroke-linejoin="round" stroke-miterlimit="22.9256" d="M8071.89 10176.54l-100.61 -105.39c-50.31,53.83 -232.67,243.23 -364.97,294.79 -154.94,60.12 -180.59,77.47 -120.48,94.57 60.11,17.11 344.09,25.16 490.48,-17.1 146.39,-42.25 344.09,-154.94 421.56,-189.4 72.68,-32.2 -21.38,-94.82 -75.47,-209.02l-250.51 131.55z"/>
    <path fill="#263238" fill-rule="nonzero" stroke="#263238" stroke-width="26.46" stroke-linecap="round" stroke-linejoin="round" stroke-miterlimit="22.9256" d="M7478.53 10420.78c-32.44,18.86 -26.91,28.93 8.3,38.98 60.37,17.36 344.09,25.16 490.49,-17.1 146.39,-42.26 344.09,-154.94 421.55,-189.4 35.47,-15.85 30.94,-38.98 10.82,-71.69 -171.29,80.5 -531.47,247 -594.11,255.3 -76.21,10.82 -300.83,-11.57 -337.05,-16.09z"/>
    <path fill="white" fill-rule="nonzero" stroke="#263238" stroke-width="26.46" stroke-linecap="round" stroke-linejoin="round" stroke-miterlimit="22.9256" d="M10649.8 5544.16l-583.8 167.51c0,0 -52.07,214.05 -208.01,329.76 -155.95,115.7 -352.14,226.38 -398.93,421.81 -46.78,195.44 -34.7,381.57 -23.13,555.13 11.57,173.56 -127.28,537.51 -127.28,537.51 0,0 -884.62,-190.66 -1179.41,-178.59 -294.79,12.07 -508.59,-28.93 -554.87,265.86 -46.28,294.79 150.92,2333.67 150.92,2333.67 0,0 -300.58,276.68 -433.64,358.68 -133.05,82.01 -242.72,132.81 -167.51,161.74 75.21,28.93 450.99,-11.57 589.58,-34.71 138.58,-23.14 381.56,-34.71 416.28,-115.7 34.72,-81 -86.78,-456.53 -81,-491.24 5.78,-34.71 16.86,-848.15 68.93,-1142.94 34.08,-213.74 58.02,-430.79 69.25,-647.1 11.23,-216.32 1289.33,358.42 1607.27,358.42 317.93,0 525.94,-46.28 618.5,-578.51 92.57,-532.23 17.36,-607.18 127.28,-820.99 109.91,-213.8 213.8,-479.92 226.38,-809.41 12.57,-329.5 -116.81,-670.9 -116.81,-670.9z"/>
    <path fill="#263238" fill-rule="nonzero" stroke="#263238" stroke-width="26.46" stroke-linecap="round" stroke-linejoin="round" stroke-miterlimit="22.9256" d="M9634.38 7865.26c-199.21,-161.23 -283.48,-265.86 -317.93,-330.5 -4.78,13.58 -7.8,21.13 -7.8,21.13 0,0 -884.62,-190.67 -1179.41,-178.6 -294.79,12.07 -508.59,-28.93 -554.87,265.86 -46.28,294.79 150.92,2333.67 150.92,2333.67 0,0 -300.58,276.68 -433.64,358.68 -133.05,82.01 -242.72,132.81 -167.51,161.74 75.21,28.93 450.99,-11.57 589.58,-34.71 138.58,-23.14 381.56,-34.71 416.28,-115.7 34.72,-81 -86.78,-456.53 -81,-491.24 5.78,-34.71 16.86,-848.15 68.93,-1142.94 34.08,-213.74 58.02,-430.79 69.25,-647.1 11.23,-216.32 1289.33,358.42 1607.27,358.42 232.91,0 406.97,-25.15 519.65,-247.75 -203.33,-48.61 -467.68,-139.42 -679.72,-310.96z"/>
    <path fill="white" fill-rule="nonzero" stroke="#263238" stroke-width="26.46" stroke-linecap="round" stroke-linejoin="round" stroke-miterlimit="22.9256" d="M7705.16 9994.69c-69.17,62.89 -301.83,271.65 -413.76,340.32 -132.81,80.74 -242.72,132.81 -167.52,161.73 75.21,28.93 450.99,-11.57 589.58,-34.7 138.59,-23.14 381.57,-34.71 416.28,-115.71 20.63,-48.04 -14.09,-201.22 -44.27,-323.96l-288.75 94.06 -91.56 -121.74z"/>
    <path fill="#263238" fill-rule="nonzero" stroke="#263238" stroke-width="26.46" stroke-linecap="round" stroke-linejoin="round" stroke-miterlimit="22.9256" d="M7123.88 10496.24c75.47,28.93 450.99,-11.57 589.58,-34.71 138.59,-23.14 381.57,-34.71 416.28,-115.7 1.54,-3.65 2.73,-7.47 3.52,-11.33 -283.97,58.85 -774.45,100.6 -1024.98,119.72 -14.58,16.87 -12.32,31.95 15.6,42.02z"/>
    <path fill="white" fill-rule="nonzero" stroke="#263238" stroke-width="26.46" stroke-linecap="round" stroke-linejoin="round" stroke-miterlimit="22.9256" d="M10066 5711.67c0,0 -52.07,214.05 -208.01,329.76 -155.95,115.7 -352.14,226.38 -398.93,421.81 -46.78,195.44 -34.7,381.57 -23.13,555.13 11.57,173.56 -127.28,537.51 -127.28,537.51 0,0 -106.64,-22.89 -258.32,-52.57 35.72,224.36 198.46,865.51 890.16,914.3 236.18,-22.39 394.9,-127.01 472.37,-572.47 92.56,-531.98 17.36,-607.19 127.27,-820.99 109.92,-213.8 213.8,-479.92 226.38,-809.42 12.58,-329.49 -115.7,-670.57 -115.7,-670.57l-584.81 167.51z"/>
    <line fill="none" fill-rule="nonzero" stroke="#263238" stroke-width="26.46" stroke-linecap="round" stroke-linejoin="round" stroke-miterlimit="22.9256" x1="10013.93" y1="5862.09" x2="10684.51" y2= "5682.76" />
    <g>
     <path fill="#B2B2B2" fill-rule="nonzero" d="M8614.44 6601.83c0,0 -27.42,-174.31 -59.36,-149.4 -31.95,24.9 7.29,179.58 7.29,179.58 17.89,6.24 36.64,9.91 55.58,10.8l-3.51 -40.98zm0 0l0 0 0 0z"/>
     <path id="_1_0" fill="none" fill-rule="nonzero" stroke="#263238" stroke-width="26.46" stroke-linecap="round" stroke-linejoin="round" stroke-miterlimit="22.9256" d="M8614.44 6601.83c0,0 -27.42,-174.31 -59.36,-149.4 -31.95,24.9 7.29,179.58 7.29,179.58 17.89,6.24 36.64,9.91 55.58,10.8m-3.51 -40.98l0 0 0 0z"/>
    </g>
    <g>
     <path fill="#B2B2B2" fill-rule="nonzero" d="M10655.58 5989.36c0,0 -34.71,-167.77 -248.51,-138.84 -213.8,28.93 -289.01,133.05 -346.86,416.28 -57.85,283.23 -144.63,745.78 -144.63,745.78 0,0 -739.99,-462.56 -849.66,-537.77 -109.67,-75.2 -248.76,-86.52 -312.15,-40.49 -63.39,46.03 -237.19,214.05 -237.19,214.05 0,0 -86.77,-173.56 -98.34,-115.71 -11.57,57.85 28.93,208.27 115.7,242.98 86.78,34.71 242.48,-85.26 259.83,-91.05 17.35,-5.79 -104.14,121.48 -63.64,127.27 40.5,5.79 75.46,-46.28 150.92,-92.57 49.91,-32.39 94.95,-71.93 133.57,-117.19 38.63,-45.26 410.5,393.13 537.51,491.49 127.02,98.35 473.37,359.16 542.8,359.16 69.43,0 161.74,-109.91 208.01,-208.27 46.28,-98.35 329.5,-729.42 370,-1034.79l-17.36 -220.33zm0 0l0 0 0 0z"/>
     <path id="_1_1" fill="none" fill-rule="nonzero" stroke="#263238" stroke-width="26.46" stroke-linecap="round" stroke-linejoin="round" stroke-miterlimit="22.9256" d="M10655.58 5989.36c0,0 -34.71,-167.77 -248.51,-138.84 -213.8,28.93 -289.01,133.05 -346.86,416.28 -57.85,283.23 -144.63,745.78 -144.63,745.78 0,0 -739.99,-462.56 -849.66,-537.77 -109.67,-75.2 -248.76,-86.52 -312.15,-40.49 -63.39,46.03 -237.19,214.05 -237.19,214.05 0,0 -86.77,-173.56 -98.34,-115.71 -11.57,57.85 28.93,208.27 115.7,242.98 86.78,34.71 242.48,-85.26 259.83,-91.05 17.35,-5.79 -104.14,121.48 -63.64,127.27 40.5,5.79 75.46,-46.28 150.92,-92.57 49.91,-32.39 94.95,-71.93 133.57,-117.19 38.63,-45.26 410.5,393.13 537.51,491.49 127.02,98.35 473.37,359.16 542.8,359.16 69.43,0 161.74,-109.91 208.01,-208.27 46.28,-98.35 329.5,-729.42 370,-1034.79m-17.36 -220.33l0 0 0 0z"/>
    </g>
    <g>
     <path fill="white" fill-rule="nonzero" d="M8793.78 6684.59l25.15 -46.79c-10.77,-21.05 -20.09,-43.05 -27.66,-65.41 -0.31,-2.51 -0.46,-5.07 -0.46,-7.61 0,-17.54 7.17,-34.32 19.82,-46.46l-16.85 166.27zm0 0l0 0 0 0z"/>
     <path id="_1_2" fill="none" fill-rule="nonzero" stroke="#263238" stroke-width="26.46" stroke-linecap="round" stroke-linejoin="round" stroke-miterlimit="22.9256" d="M8793.78 6684.59l25.15 -46.79c-10.77,-21.05 -20.09,-43.05 -27.66,-65.41 -0.31,-2.51 -0.46,-5.07 -0.46,-7.61 0,-17.54 7.17,-34.32 19.82,-46.46m-16.85 166.27l0 0 0 0z"/>
    </g>
    <g>
     <path fill="#B2B2B2" fill-rule="nonzero" d="M8556.58 6693.89c0,0 -187.89,-180.09 -202.99,-122.75 -15.09,57.35 168.78,204.5 168.78,204.5 4.6,0.95 9.3,1.44 14.01,1.44 26.21,0 50.12,-15.04 61.45,-38.68l-41.25 -44.51zm0 0l0 0 0 0z"/>
     <path id="_1_3" fill="none" fill-rule="nonzero" stroke="#263238" stroke-width="26.46" stroke-linecap="round" stroke-linejoin="round" stroke-miterlimit="22.9256" d="M8556.58 6693.89c0,0 -187.89,-180.09 -202.99,-122.75 -15.09,57.35 168.78,204.5 168.78,204.5 4.6,0.95 9.3,1.44 14.01,1.44 26.21,0 50.12,-15.04 61.45,-38.68m-41.25 -44.51l0 0 0 0z"/>
    </g>
    <g>
     <path fill="#B2B2B2" fill-rule="nonzero" d="M8633.05 6702.19c0,0 -88.03,-244.74 -127.02,-201.22 -38.98,43.51 60.12,258.06 60.12,258.06 0,0 14.09,52.07 118.22,-19.12l-51.32 -37.72zm0 0l0 0 0 0z"/>
     <path id="_1_4" fill="none" fill-rule="nonzero" stroke="#263238" stroke-width="26.46" stroke-linecap="round" stroke-linejoin="round" stroke-miterlimit="22.9256" d="M8633.05 6702.19c0,0 -88.03,-244.74 -127.02,-201.22 -38.98,43.51 60.12,258.06 60.12,258.06 0,0 14.09,52.07 118.22,-19.12m-51.32 -37.72l0 0 0 0z"/>
    </g>
    <path fill="#6DA4FD" fill-rule="nonzero" stroke="#263238" stroke-width="26.46" stroke-linecap="round" stroke-linejoin="round" stroke-miterlimit="22.9256" d="M11117.64 7076.72c0,0 -385.85,323.22 -849.16,355.41 -463.31,32.2 -665.29,117.47 -694.72,373.02 -29.43,255.56 -64.39,977.94 -64.39,977.94l1248.08 7.8 289.51 -1371.58 70.68 -342.59z"/>
    <path fill="none" fill-rule="nonzero" stroke="#263238" stroke-width="26.46" stroke-linecap="round" stroke-linejoin="round" stroke-miterlimit="22.9256" d="M10803.73 7444.96c0,0 -115.7,154.43 -405.21,180.09 -289.5,25.66 -508.33,64.39 -578.51,160.98"/>
    <path fill="#263238" fill-rule="nonzero" d="M11261.26 5207.62c-53.07,-15.35 30.43,-113.95 68.42,-205 37.99,-91.06 -68.42,-144.38 -150.92,-189.9 -82.49,-45.53 0,-136.83 -7.54,-258.33 -7.55,-121.49 -100.61,-119.22 -144.38,-189.65 -43.77,-70.44 37.98,-303.85 -258.07,-334.28 -296.04,-30.43 -409.99,15.34 -531.73,75.46 -58.55,31.57 -106.88,79.48 -138.85,137.83 -27.92,26.41 -50.31,59.61 -36.97,91.56 28.93,69.42 57.85,115.7 17.36,190.91 -40.49,75.2 -17.36,144.37 17.36,173.3 34.72,28.93 34.71,104.14 -23.14,161.98 -57.85,57.85 -40.5,103.88 11.57,132.81 52.07,28.93 109.91,104.13 57.85,173.55 -52.07,69.42 -34.71,167.52 69.42,190.66 33.13,5.36 65.97,13.87 97.58,25.15l25.15 110.92c-7.29,48.05 -16.35,91.81 22.13,100.61 3.35,0.46 6.75,0.68 10.13,0.68 12.98,0 25.77,-3.25 37.17,-9.45 18.32,-3.68 36.51,-8.89 54.08,-15.37 37.98,-15.34 53.08,75.47 91.05,150.92 37.98,75.45 150.92,37.98 212.8,-15.34 10.32,-9.61 23.93,-14.98 38.05,-14.98 2.84,0 5.68,0.23 8.47,0.65 22.43,17.3 49.5,27.66 77.74,29.69 30.09,15.53 63.57,23.7 97.47,23.7 7.07,0 14.23,-0.36 21.26,-1.07 113.94,-15.09 98.6,-60.61 113.94,-129.03 15.35,-68.42 75.47,-68.42 167.01,-144.37 91.55,-75.96 28.67,-248.53 -24.41,-263.61z"/>
    <g>
    </g>
    <g clip-path="url(#id15)">
     <g>
      <path fill="none" fill-rule="nonzero" stroke="#666666" stroke-width="26.46" stroke-linecap="round" stroke-linejoin="round" stroke-miterlimit="22.9256" d="M10212.64 4137.11c0,0 64.89,36.22 36.22,144.13 -28.67,107.91 -79.48,158.71 -28.93,194.69 50.56,35.97 180.09,108.15 150.92,201.22 -29.18,93.07 -122.49,180.09 -43.27,237.95 79.23,57.86 244.99,93.57 237.95,209.02 -7.03,115.45 -57.84,201.23 7.05,237.95 64.89,36.72 166.01,-28.93 180.35,50.31 14.33,79.24 -28.93,187.38 21.62,201.23 50.56,13.84 128.29,-15.1 150.92,35.97 10.44,24.12 15.85,50.17 15.85,76.5 0,8.04 -0.52,16.11 -1.5,24.09"/>
      <path fill="none" fill-rule="nonzero" stroke="#666666" stroke-width="26.46" stroke-linecap="round" stroke-linejoin="round" stroke-miterlimit="22.9256" d="M10349.72 4043.55c0,0 150.92,43.26 144.13,165.76 -6.78,122.49 -64.89,301.83 -14.33,331.51 50.55,29.68 187.38,72.19 173.05,166.01 -14.34,93.82 -64.9,172.8 -21.63,209.02 43.26,36.22 172.8,100.61 172.8,158.47 0,57.85 -71.94,57.84 -21.63,137.08 50.31,79.24 209.27,71.94 216.31,180.09 7.05,108.16 -35.97,166.02 -14.33,187.64 21.63,21.63 79.23,86.28 100.61,93.58 21.38,7.3 7.29,108.15 7.29,108.15"/>
      <path fill="none" fill-rule="nonzero" stroke="#666666" stroke-width="26.46" stroke-linecap="round" stroke-linejoin="round" stroke-miterlimit="22.9256" d="M10566.04 3942.43c0,0 223.35,122.75 209.02,266.87 -14.34,144.12 -35.98,216.31 0,251.52 35.97,35.21 115.2,86.53 115.2,158.71"/>
      <path fill="none" fill-rule="nonzero" stroke="#666666" stroke-width="26.46" stroke-linecap="round" stroke-linejoin="round" stroke-miterlimit="22.9256" d="M10919.19 4807.69c0,0 -14.34,129.79 43.26,158.46 57.6,28.67 194.69,173.05 194.69,251.53 0,78.47 -43.27,158.71 7.29,216.31 51.24,52.04 107.14,100.82 165.82,144.4"/>
     </g>
    </g>
    <path fill="none" fill-rule="nonzero" d="M11261.26 5207.62c-53.07,-15.35 30.43,-113.95 68.42,-205 37.99,-91.06 -68.42,-144.38 -150.92,-189.9 -82.49,-45.53 0,-136.83 -7.54,-258.33 -7.55,-121.49 -100.61,-119.22 -144.38,-189.65 -43.77,-70.44 37.98,-303.85 -258.07,-334.28 -296.04,-30.43 -409.99,15.34 -531.73,75.46 -58.55,31.57 -106.88,79.48 -138.85,137.83 -27.92,26.41 -50.31,59.61 -36.97,91.56 28.93,69.42 57.85,115.7 17.36,190.91 -40.49,75.2 -17.36,144.37 17.36,173.3 34.72,28.93 34.71,104.14 -23.14,161.98 -57.85,57.85 -40.5,103.88 11.57,132.81 52.07,28.93 109.91,104.13 57.85,173.55 -52.07,69.42 -34.71,167.52 69.42,190.66 33.13,5.36 65.97,13.87 97.58,25.15l25.15 110.92c-7.29,48.05 -16.35,91.81 22.13,100.61 3.35,0.46 6.75,0.68 10.13,0.68 12.98,0 25.77,-3.25 37.17,-9.45 18.32,-3.68 36.51,-8.89 54.08,-15.37 37.98,-15.34 53.08,75.47 91.05,150.92 37.98,75.45 150.92,37.98 212.8,-15.34 10.32,-9.61 23.93,-14.98 38.05,-14.98 2.84,0 5.68,0.23 8.47,0.65 22.43,17.3 49.5,27.66 77.74,29.69 30.09,15.53 63.57,23.7 97.47,23.7 7.07,0 14.23,-0.36 21.26,-1.07 113.94,-15.09 98.6,-60.61 113.94,-129.03 15.35,-68.42 75.47,-68.42 167.01,-144.37 91.55,-75.96 28.67,-248.53 -24.41,-263.61z"/>
    <path fill="none" fill-rule="nonzero" stroke="#263238" stroke-width="26.46" stroke-linecap="round" stroke-linejoin="round" stroke-miterlimit="22.9256" d="M11261.26 5207.62c-53.07,-15.35 30.43,-113.95 68.42,-205 37.99,-91.06 -68.42,-144.38 -150.92,-189.9 -82.49,-45.53 0,-136.83 -7.54,-258.33 -7.55,-121.49 -100.61,-119.22 -144.38,-189.65 -43.77,-70.44 37.98,-303.85 -258.07,-334.28 -296.04,-30.43 -409.99,15.34 -531.73,75.46 -58.55,31.57 -106.88,79.48 -138.85,137.83 -27.92,26.41 -50.31,59.61 -36.97,91.56 28.93,69.42 57.85,115.7 17.36,190.91 -40.49,75.2 -17.36,144.37 17.36,173.3 34.72,28.93 34.71,104.14 -23.14,161.98 -57.85,57.85 -40.5,103.88 11.57,132.81 52.07,28.93 109.91,104.13 57.85,173.55 -52.07,69.42 -34.71,167.52 69.42,190.66 33.13,5.36 65.97,13.87 97.58,25.15l25.15 110.92c-7.29,48.05 -16.35,91.81 22.13,100.61 3.35,0.46 6.75,0.68 10.13,0.68 12.98,0 25.77,-3.25 37.17,-9.45 18.32,-3.68 36.51,-8.89 54.08,-15.37 37.98,-15.34 53.08,75.47 91.05,150.92 37.98,75.45 150.92,37.98 212.8,-15.34 10.32,-9.61 23.93,-14.98 38.05,-14.98 2.84,0 5.68,0.23 8.47,0.65 22.43,17.3 49.5,27.66 77.74,29.69 30.09,15.53 63.57,23.7 97.47,23.7 7.07,0 14.23,-0.36 21.26,-1.07 113.94,-15.09 98.6,-60.61 113.94,-129.03 15.35,-68.42 75.47,-68.42 167.01,-144.37 91.55,-75.96 28.67,-248.53 -24.41,-263.61z"/>
   </g>
   <g id="freepik--character-1--inject-2">
    <polygon fill="white" fill-rule="nonzero" stroke="#263238" stroke-width="26.46" stroke-linecap="round" stroke-linejoin="round" stroke-miterlimit="22.9256" points="757.21,8730.77 615.35,10460.02 664.9,10460.02 919.95,8745.1 "/>
    <polygon fill="white" fill-rule="nonzero" stroke="#263238" stroke-width="26.46" stroke-linecap="round" stroke-linejoin="round" stroke-miterlimit="22.9256" points="1819.92,8730.77 1678.05,10460.02 1727.61,10460.02 1982.65,8745.1 "/>
    <polygon fill="white" fill-rule="nonzero" stroke="#263238" stroke-width="26.46" stroke-linecap="round" stroke-linejoin="round" stroke-miterlimit="22.9256" points="1947.19,8730.77 2089.05,10460.02 2039.5,10460.02 1784.45,8745.1 "/>
    <polygon fill="white" fill-rule="nonzero" stroke="#263238" stroke-width="26.46" stroke-linecap="round" stroke-linejoin="round" stroke-miterlimit="22.9256" points="3151.76,8730.77 3293.37,10460.02 3243.81,10460.02 2988.77,8745.1 "/>
    <path fill="#6DA4FD" fill-rule="nonzero" stroke="#263238" stroke-width="26.46" stroke-linecap="round" stroke-linejoin="round" stroke-miterlimit="22.9256" d="M1855.63 5970.24l-1572.8 0c0,0 -188.65,52.32 -104.89,272.66 83.77,220.34 555.88,2547.98 555.88,2547.98l2495.41 0 157.45 -1447.04c0,0 31.44,-209.77 -115.44,-241.22 -146.89,-31.45 -744.53,-10.56 -859.73,-73.45 -115.2,-62.89 -376.29,-975.16 -376.29,-975.16 0,0 -22.13,-105.15 -179.59,-83.77z"/>
    <line fill="none" fill-rule="nonzero" stroke="#263238" stroke-width="26.46" stroke-linecap="round" stroke-linejoin="round" stroke-miterlimit="22.9256" x1="1975.61" y1="8461.38" x2="3230.23" y2= "8461.38" />
    <path fill="#6DA4FD" fill-rule="nonzero" stroke="#263238" stroke-width="26.46" stroke-linecap="round" stroke-linejoin="round" stroke-miterlimit="22.9256" d="M1182.29 4676.13c0,0 22.89,892.68 32.95,972.92 1.21,13.69 1.84,27.53 1.84,41.25 0,120.07 -46.42,235.71 -129.37,322.46 -122.75,132.3 -618.76,32.95 -651.71,-89.8 -32.95,-122.75 28.17,-326.99 28.17,-326.99 0,0 -189.64,-41.25 -136.82,-205.75 52.82,-164.5 340.07,-458.04 472.37,-557.13 132.3,-99.1 283.22,-180.6 382.57,-156.96z"/>
    <path fill="none" fill-rule="nonzero" stroke="#263238" stroke-width="26.46" stroke-linecap="round" stroke-linejoin="round" stroke-miterlimit="22.9256" d="M836.19 4863.78c0,0 -294.79,512.61 -339.57,647.17"/>
    <path fill="none" fill-rule="nonzero" stroke="#263238" stroke-width="26.46" stroke-linecap="round" stroke-linejoin="round" stroke-miterlimit="22.9256" d="M983.59 4838.12c0,0 -326.99,672.83 -384.59,948.5"/>
    <path fill="none" fill-rule="nonzero" stroke="#263238" stroke-width="26.46" stroke-linecap="round" stroke-linejoin="round" stroke-miterlimit="22.9256" d="M996.41 5094.42c0,0 -130.79,371.26 -160.22,512.87"/>
    <path fill="#787878" fill-rule="nonzero" stroke="#263238" stroke-width="26.46" stroke-linecap="round" stroke-linejoin="round" stroke-miterlimit="22.9256" d="M1612.15 5795.44c0,0 237.45,-6.04 341.08,-60.87 103.63,-54.84 316.67,-12.32 389.61,207 72.95,219.33 213.3,621.27 268.14,785.78 54.83,164.5 182.61,316.67 182.61,316.67l-505.57 194.68 -292.28 128.03c0,0 -231.41,-925.63 -310.64,-1163.32 -79.22,-237.69 -102.63,-377.54 -72.95,-407.97z"/>
    <polygon fill="#263238" fill-rule="nonzero" stroke="#263238" stroke-width="26.46" stroke-linecap="round" stroke-linejoin="round" stroke-miterlimit="22.9256" points="3684.99,8925.95 3879.93,9332.17 3929.48,9308.52 3798.93,8952.36 "/>
    <path fill="white" fill-rule="nonzero" stroke="#263238" stroke-width="26.46" stroke-linecap="round" stroke-linejoin="round" stroke-miterlimit="22.9256" d="M3750.39 8104.21c0,0 249.02,589.83 301.84,645.17 52.82,55.34 342.83,193.68 386.34,199.72 43.52,6.03 144.13,5.02 135.58,29.43 -8.56,24.4 -442.69,259.82 -518.65,228.64 -75.96,-31.18 -97.6,-99.11 -178.58,-141.36 -80.99,-42.26 -193.18,-99.11 -243.23,-203.49 -50.05,-104.38 33.21,-198.2 33.21,-198.2l-227.64 -404.21 311.13 -155.7z"/>
    <path fill="#263238" fill-rule="nonzero" stroke="#263238" stroke-width="26.46" stroke-linecap="round" stroke-linejoin="round" stroke-miterlimit="22.9256" d="M4439.33 8949.09c-14.94,-3.48 -29.68,-8.44 -43.76,-14.61 -79.73,75.47 -247.26,149.41 -456.27,10.06 -108.85,-70.4 -205.9,-158.14 -286.98,-259.34 -21.39,30.45 -32.88,66.78 -32.88,103.98 0,24.79 5.13,49.39 14.99,72.1 50.31,104.39 162.24,161.23 243.23,203.49 80.99,42.26 102.87,110.17 178.58,141.36 75.71,31.19 510.1,-204.24 518.65,-228.64 8.55,-24.4 -92.3,-22.11 -135.56,-28.4z"/>
    <path fill="#263238" fill-rule="nonzero" stroke="#263238" stroke-width="26.46" stroke-linecap="round" stroke-linejoin="round" stroke-miterlimit="22.9256" d="M3397.49 6996.23c0,0 364.47,833.81 448.73,1003.84l121.74 243.49 -462.81 231.65c0,0 -505.56,-962.35 -505.56,-1102.44 0,-140.1 94.32,-285.74 155.19,-358.69 60.87,-72.94 242.71,-17.85 242.71,-17.85z"/>
    <path fill="white" fill-rule="nonzero" stroke="#263238" stroke-width="26.46" stroke-linecap="round" stroke-linejoin="round" stroke-miterlimit="22.9256" d="M3267.71 9266.77c0,0 -30.43,639.38 -6.29,712.57 24.15,73.19 226.38,322.71 262.1,347.11 35.72,24.41 127.78,66.91 109.41,85.27 -18.37,18.35 -511.36,42.76 -566.19,-18.36 -54.83,-61.12 -30.43,-231.41 -85.26,-304.35 -54.84,-72.95 -146.14,-73.19 -146.14,-188.9 0,-115.7 115.7,-164.5 115.7,-164.5l-30.43 -462.81 347.1 -6.03z"/>
    <path fill="#263238" fill-rule="nonzero" stroke="#263238" stroke-width="26.46" stroke-linecap="round" stroke-linejoin="round" stroke-miterlimit="22.9256" d="M3524.52 10326.45c-15.41,-12.74 -29.7,-26.94 -42.51,-42.27 -67.42,25.15 -140.36,41.5 -195.19,23.9 -133.82,-42.51 -237.45,-127.78 -267.88,-298.32 -18.86,-106.14 -97.09,-169.78 -153.18,-202.73 -19.11,26.96 -29.42,59.27 -29.42,92.32 0,0.26 0,0.51 0,0.76 0,115.71 91.3,115.71 146.13,188.9 54.84,73.19 30.43,243.48 85.27,304.35 54.83,60.87 548.08,36.72 566.19,18.36 18.11,-18.37 -72.94,-60.86 -109.41,-85.27z"/>
    <polygon fill="#263238" fill-rule="nonzero" stroke="#263238" stroke-width="26.46" stroke-linecap="round" stroke-linejoin="round" stroke-miterlimit="22.9256" points="2854.45,9979.35 2854.45,10430.08 2909.28,10430.08 2945.75,10052.54 "/>
    <path fill="#263238" fill-rule="nonzero" stroke="#263238" stroke-width="26.46" stroke-linecap="round" stroke-linejoin="round" stroke-miterlimit="22.9256" d="M3043.34 7366.73c0,0 414.01,42.5 407.98,322.71 -6.04,280.2 -25.16,1613.8 -25.16,1613.8l-559.39 61.12c0,0 -121.99,-688.18 -91.56,-968.38 30.43,-280.21 79.23,-335.04 79.23,-335.04l-907.25 0.01c0,0 91.3,-207.01 383.58,-426.35 292.28,-219.33 712.57,-267.87 712.57,-267.87z"/>
    <g>
     <path fill="#787878" fill-rule="nonzero" d="M2129.79 5923.21c4.07,69.43 12.62,138.87 25.13,207.27 18.11,91.3 115.7,133.81 146.13,267.87 30.43,134.06 -18.35,194.93 -12.32,335.04 6.04,140.11 91.56,328.75 103.63,395.9 12.08,67.16 -60.87,121.74 -164.5,188.65 -103.63,66.91 -1004.85,402.44 -1126.59,267.88 -121.74,-134.57 -18.36,-322.71 -42.51,-474.88 -24.14,-152.18 -146.39,-767.41 -201.22,-1006.11 -54.84,-238.7 -83.98,-355.42 45.81,-407.74 91.3,-36.47 415.52,92.31 415.52,92.31 0,0 115.95,12.07 365.47,12.07l445.45 121.74zm0 0l0 0 0 0z"/>
     <path id="_1_5" fill="none" fill-rule="nonzero" stroke="#263238" stroke-width="26.46" stroke-linecap="round" stroke-linejoin="round" stroke-miterlimit="22.9256" d="M2129.79 5923.21c4.07,69.43 12.62,138.87 25.13,207.27 18.11,91.3 115.7,133.81 146.13,267.87 30.43,134.06 -18.35,194.93 -12.32,335.04 6.04,140.11 91.56,328.75 103.63,395.9 12.08,67.16 -60.87,121.74 -164.5,188.65 -103.63,66.91 -1004.85,402.44 -1126.59,267.88 -121.74,-134.57 -18.36,-322.71 -42.51,-474.88 -24.14,-152.18 -146.39,-767.41 -201.22,-1006.11 -54.84,-238.7 -83.98,-355.42 45.81,-407.74 91.3,-36.47 415.52,92.31 415.52,92.31 0,0 115.95,12.07 365.47,12.07m445.45 121.74l0 0 0 0z"/>
    </g>
    <path fill="white" fill-rule="nonzero" stroke="#263238" stroke-width="26.46" stroke-linecap="round" stroke-linejoin="round" stroke-miterlimit="22.9256" d="M1186.82 5044.63l0 675.35c0,0 127.52,108.66 288.25,236.18 160.72,127.53 278.69,150.92 301.83,32.95 23.14,-117.96 -80.49,-259.82 -113.44,-292.78 -32.95,-32.96 -28.43,-311.64 -28.43,-311.64 0,0 -344.33,-363.7 -404.7,-401.69 -60.37,-37.99 -43.51,61.63 -43.51,61.63z"/>
    <path fill="#6DA4FD" fill-rule="nonzero" stroke="#263238" stroke-width="26.46" stroke-linecap="round" stroke-linejoin="round" stroke-miterlimit="22.9256" d="M1900.15 4265.14c0,0 245.49,66.15 251.53,240.96 6.03,174.81 -261.08,240.97 -289.26,179.85 -28.18,-61.13 -66.16,-373.27 -61.62,-415.78 4.53,-42.52 99.35,-5.03 99.35,-5.03z"/>
    <path fill="white" fill-rule="nonzero" stroke="#263238" stroke-width="26.46" stroke-linecap="round" stroke-linejoin="round" stroke-miterlimit="22.9256" d="M1940.15 4388.13c0,0 113.44,269.13 63.88,495.76 -49.56,226.63 -148.9,481.68 -226.38,553.36 -77.48,71.68 -170.03,89.8 -333.02,-42.5 -117.72,-95.58 -262.1,-283.48 -297.56,-382.58 -35.46,-99.09 -7.04,-297.55 120.49,-488.72 127.53,-191.17 594.86,-277.17 672.59,-135.32z"/>
    <ellipse fill="#263238" fill-rule="nonzero" cx="1689.62" cy="4830.83" rx="29.18" ry="49.55"/>
    <path fill="#263238" fill-rule="nonzero" d="M1948.69 4835.35c0,27.42 -13.08,50.31 -29.17,50.31 -16.1,0 -29.44,-22.13 -29.44,-50.31 0,-28.18 13.09,-50.31 29.44,-50.31 16.35,0 29.17,22.89 29.17,50.31z"/>
    <path fill="none" fill-rule="nonzero" stroke="#263238" stroke-width="26.46" stroke-linecap="round" stroke-linejoin="round" stroke-miterlimit="22.9256" d="M1903.67 4722.67c0,0 -67.66,58.61 -50.31,139.85 17.35,81.24 50.31,135.07 35.97,162.24 -14.33,27.17 -75.46,26.91 -75.46,26.91"/>
    <path fill="none" fill-rule="nonzero" stroke="#263238" stroke-width="26.46" stroke-linecap="round" stroke-linejoin="round" stroke-miterlimit="22.9256" d="M1574.68 4695.76c0,0 108.15,-58.61 180.34,-31.7"/>
    <path fill="none" fill-rule="nonzero" stroke="#263238" stroke-width="26.46" stroke-linecap="round" stroke-linejoin="round" stroke-miterlimit="22.9256" d="M1917.25 4673.12c0,0 45.03,-40.5 90.05,18.11"/>
    <path fill="none" fill-rule="nonzero" stroke="#263238" stroke-width="26.46" stroke-linecap="round" stroke-linejoin="round" stroke-miterlimit="22.9256" d="M1719.05 5150.77c0.01,0 -0.01,0 -0.01,0 -48.04,0 -91.65,-28.16 -111.41,-71.94"/>
    <path fill="#6DA4FD" fill-rule="nonzero" stroke="#263238" stroke-width="26.46" stroke-linecap="round" stroke-linejoin="round" stroke-miterlimit="22.9256" d="M736.59 4867.05c0,0 576.75,-75.47 855.19,-220.84 278.44,-145.38 383.07,-248.01 360.44,-364.97 -22.64,-116.96 -301.83,-310.89 -612.73,-306.61 -270.58,6.19 -510.97,175.13 -608.46,427.59 -71.16,203.49 5.56,464.83 5.56,464.83z"/>
    <path fill="none" fill-rule="nonzero" stroke="#263238" stroke-width="26.46" stroke-linecap="round" stroke-linejoin="round" stroke-miterlimit="22.9256" d="M1733.39 4248.29c-127.05,137.12 -277.02,252.45 -442.41,339.8 -166.83,82.85 -347.05,137.15 -531.91,160.15"/>
    <path fill="none" fill-rule="nonzero" stroke="#263238" stroke-width="26.46" stroke-linecap="round" stroke-linejoin="round" stroke-miterlimit="22.9256" d="M740.1 4684.19c152.86,-46.94 301.79,-109.5 442.2,-185.88"/>
    <path fill="none" fill-rule="nonzero" stroke="#263238" stroke-width="26.46" stroke-linecap="round" stroke-linejoin="round" stroke-miterlimit="22.9256" d="M1278.38 4440.7c0,0 256.56,-179.58 384.58,-308.11"/>
    <g>
     <path fill="white" fill-rule="nonzero" d="M1288.43 4876.86c0,0 -92.06,-205.5 -198.46,-127.52 -106.39,77.97 -35.21,304.6 28.43,347.11 63.64,42.51 155.94,-21.13 155.94,-21.13l14.09 -198.46zm0 0l0 0 0 0z"/>
     <path id="_1_6" fill="none" fill-rule="nonzero" stroke="#263238" stroke-width="26.46" stroke-linecap="round" stroke-linejoin="round" stroke-miterlimit="22.9256" d="M1288.43 4876.86c0,0 -92.06,-205.5 -198.46,-127.52 -106.39,77.97 -35.21,304.6 28.43,347.11 63.64,42.51 155.94,-21.13 155.94,-21.13m14.09 -198.46l0 0 0 0z"/>
    </g>
    <path fill="white" fill-rule="nonzero" stroke="#263238" stroke-width="26.46" stroke-linecap="round" stroke-linejoin="round" stroke-miterlimit="22.9256" d="M2110.68 6794.25c0,0 249.77,-42.76 341.08,-54.83 91.31,-12.07 329,73.19 316.67,115.7 -12.33,42.52 -267.87,73.19 -352.14,103.63 -84.26,30.44 -274.17,-12.32 -274.17,-12.32l-31.44 -152.18z"/>
    <g>
     <path fill="#787878" fill-rule="nonzero" d="M1205.18 5777.07c0,0 -85.26,-133.81 -286.24,-97.34 -200.98,36.48 -262.09,243.48 -255.8,450.74 6.29,207.25 226.38,1114.52 304.35,1169.35 77.97,54.84 1186.71,-274.66 1186.71,-274.66l-42.76 -231.41 -828.28 49.3 -91.31 -748.55 13.33 -317.43zm0 0l0 0 0 0z"/>
     <path id="_1_7" fill="none" fill-rule="nonzero" stroke="#263238" stroke-width="26.46" stroke-linecap="round" stroke-linejoin="round" stroke-miterlimit="22.9256" d="M1205.18 5777.07c0,0 -85.26,-133.81 -286.24,-97.34 -200.98,36.48 -262.09,243.48 -255.8,450.74 6.29,207.25 226.38,1114.52 304.35,1169.35 77.97,54.84 1186.71,-274.66 1186.71,-274.66l-42.76 -231.41 -828.28 49.3 -91.31 -748.55m13.33 -317.43l0 0 0 0z"/>
    </g>
    <polygon fill="white" fill-rule="nonzero" stroke="#263238" stroke-width="26.46" stroke-linecap="round" stroke-linejoin="round" stroke-miterlimit="22.9256" points="2772.7,6789.98 1888.58,7208.52 2124.52,7308.62 3255.88,6913.73 "/>
    <g>
     <path fill="#263238" fill-rule="nonzero" d="M3462.14 7125.77c0,0 -58.86,-212.3 -206.26,-212.3 -147.4,0 -1090.11,306.62 -1414.34,436.16 -324.22,129.53 -601.14,206.25 -666.04,306.61 -64.91,100.36 53.07,483.18 259.32,542.05 206.26,58.86 571.73,-17.61 724.91,-100.61 153.18,-83 1202.3,-825.01 1202.3,-825.01l100.11 -146.9zm0 0l0 0 0 0z"/>
     <path id="_1_8" fill="none" fill-rule="nonzero" stroke="#263238" stroke-width="26.46" stroke-linecap="round" stroke-linejoin="round" stroke-miterlimit="22.9256" d="M3462.14 7125.77c0,0 -58.86,-212.3 -206.26,-212.3 -147.4,0 -1090.11,306.62 -1414.34,436.16 -324.22,129.53 -601.14,206.25 -666.04,306.61 -64.91,100.36 53.07,483.18 259.32,542.05 206.26,58.86 571.73,-17.61 724.91,-100.61 153.18,-83 1202.3,-825.01 1202.3,-825.01m100.11 -146.9l0 0 0 0z"/>
    </g>
    <path fill="#6DA4FD" fill-rule="nonzero" stroke="#263238" stroke-width="26.46" stroke-linecap="round" stroke-linejoin="round" stroke-miterlimit="22.9256" d="M383.19 7104.14c0,0 377.3,295.8 839.6,326.99 462.3,31.19 665.29,117.46 694.72,373.01 29.43,255.56 64.39,977.94 64.39,977.94l-1248.08 7.8 -245.74 -1216.64 -104.89 -469.1z"/>
    <path fill="none" fill-rule="nonzero" stroke="#263238" stroke-width="26.46" stroke-linecap="round" stroke-linejoin="round" stroke-miterlimit="22.9256" d="M669.42 7444.96c0,0 115.71,154.43 405.47,180.09 289.76,25.66 508.08,64.39 578.51,160.98"/>
   </g>
  </g>
 </g>
</svg>
