<?xml version="1.0" encoding="UTF-8"?>
<!DOCTYPE svg PUBLIC "-//W3C//DTD SVG 1.0//EN" "http://www.w3.org/TR/2001/REC-SVG-20010904/DTD/svg10.dtd">
<!-- Creator: CorelDRAW -->
<svg xmlns="http://www.w3.org/2000/svg" xml:space="preserve" width="115mm" height="115mm" version="1.0" shape-rendering="geometricPrecision" text-rendering="geometricPrecision" image-rendering="optimizeQuality" fill-rule="evenodd" clip-rule="evenodd"
viewBox="0 0 11500 11500"
 xmlns:xlink="http://www.w3.org/1999/xlink"
 xmlns:xodm="http://www.corel.com/coreldraw/odm/2003">
 <g id="Camada_x0020_1">
  <metadata id="CorelCorpID_0Corel-Layer"/>
  <g id="freepik--background-simple--inject-139">
   <path fill="#6DA4FD" fill-rule="nonzero" d="M9743.81 2103.37c-174.01,56.28 -353.5,101.53 -532.46,132.49 -817.2,139 -2700.8,437.14 -3613.7,394.37 -1185.27,-55.32 -4941.04,-1537.84 -5224.71,-685.46 -283.68,852.37 -200.35,7097.52 350.56,7227.26 550.91,129.74 2503.74,-889.44 3655.52,-926.68 1151.78,-37.24 3905.99,964.46 5041.01,1019.35 1135.02,54.88 1235.27,-148.27 1502.34,-1241.58 267.08,-1093.32 550.75,-4688.5 501.25,-5522.34 -43.08,-708.92 -1255.47,-534.09 -1679.81,-397.41z"/>
   <path fill="white" fill-rule="nonzero" fill-opacity="0.701961" d="M9743.81 2103.37c-174.01,56.28 -353.5,101.53 -532.46,132.49 -817.2,139 -2700.8,437.14 -3613.7,394.37 -1185.27,-55.32 -4941.04,-1537.84 -5224.71,-685.46 -283.68,852.37 -200.35,7097.52 350.56,7227.26 550.91,129.74 2503.74,-889.44 3655.52,-926.68 1151.78,-37.24 3905.99,964.46 5041.01,1019.35 1135.02,54.88 1235.27,-148.27 1502.34,-1241.58 267.08,-1093.32 550.75,-4688.5 501.25,-5522.34 -43.08,-708.92 -1255.47,-534.09 -1679.81,-397.41z"/>
  </g>
  <g id="freepik--Arrows--inject-139">
   <g>
    <polygon fill="none" fill-rule="nonzero" fill-opacity="0.301961" stroke="black" stroke-width="26.46" stroke-linecap="round" stroke-linejoin="round" stroke-miterlimit="22.9256" stroke-opacity="0.301961" points="4785.45,1400.52 6631.65,1400.52 6631.65,1023.79 7504.32,1724.33 6631.65,2424.86 6631.65,2048.13 4785.45,2048.13 "/>
    <polygon fill="none" fill-rule="nonzero" fill-opacity="0.090196" stroke="black" stroke-width="26.46" stroke-linecap="round" stroke-linejoin="round" stroke-miterlimit="22.9256" stroke-opacity="0.090196" points="5702.7,4894.44 10480.9,4894.44 10480.9,4517.71 11353.57,5218.25 10480.9,5918.79 10480.9,5542.06 5702.7,5542.06 "/>
    <polygon fill="none" fill-rule="nonzero" fill-opacity="0.090196" stroke="black" stroke-width="26.46" stroke-linecap="round" stroke-linejoin="round" stroke-miterlimit="22.9256" stroke-opacity="0.090196" points="468.19,7687.33 4498.27,7687.33 4498.27,7310.6 5234.31,8011.14 4498.27,8711.5 4498.27,8334.76 468.19,8334.76 "/>
    <polygon fill="none" fill-rule="nonzero" fill-opacity="0.301961" stroke="black" stroke-width="26.46" stroke-linecap="round" stroke-linejoin="round" stroke-miterlimit="22.9256" stroke-opacity="0.301961" points="562.26,4413.46 2956.56,4413.46 2956.56,4224.74 3393.91,4575.63 2956.56,4926.7 2956.56,4737.98 562.26,4737.98 "/>
    <polygon fill="none" fill-rule="nonzero" fill-opacity="0.090196" stroke="black" stroke-width="26.46" stroke-linecap="round" stroke-linejoin="round" stroke-miterlimit="22.9256" stroke-opacity="0.090196" points="7338.95,8203.96 9733.26,8203.96 9733.26,8015.24 10170.6,8366.13 9733.26,8717.2 9733.26,8528.48 7338.95,8528.48 "/>
   </g>
  </g>
  <g id="freepik--Clouds--inject-139">
   <path fill="none" fill-rule="nonzero" fill-opacity="0.301961" stroke="black" stroke-width="26.46" stroke-linecap="round" stroke-linejoin="round" stroke-miterlimit="22.9256" stroke-opacity="0.301961" d="M10446.27 1545.46c0,0 -181.6,-484.02 -529.46,-574.73 -347.87,-90.7 -438.57,378.16 -498.98,453.72 -60.41,75.56 -242.01,-121 -393.31,-15.15 -151.31,105.86 -196.03,272.31 -242.01,272.31 -45.98,0 -136.15,-136.15 -211.72,-60.6 -75.56,75.56 -242,211.72 -242,211.72 0,0 -151.3,-90.71 -196.03,-45.26l-136.15 136.15 3145.39 0c0,0 -60.59,-453.72 -226.86,-498.99 -166.26,-45.26 -468.87,287.63 -468.87,120.83z"/>
   <path fill="none" fill-rule="nonzero" fill-opacity="0.301961" stroke="black" stroke-width="26.46" stroke-linecap="round" stroke-linejoin="round" stroke-miterlimit="22.9256" stroke-opacity="0.301961" d="M1902.88 1854.34c0,0 -102.48,-273.2 -298.86,-324.52 -196.39,-51.33 -247.71,213.85 -281.75,256.09 -34.04,42.24 -136.69,-68.26 -222.05,-8.38 -85.36,59.88 -111.03,153.61 -136.69,153.61 -25.66,0 -76.81,-76.81 -119.4,-34.21 -42.59,42.59 -136.69,119.58 -136.69,119.58 0,0 -85.35,-51.14 -110.3,-25.66l-76.81 76.98 1776.03 0c0,0 -34.21,-256.26 -128.13,-281.92 -93.92,-25.66 -265.35,162.35 -265.35,68.43z"/>
   <path fill="none" fill-rule="nonzero" fill-opacity="0.301961" stroke="black" stroke-width="26.46" stroke-linecap="round" stroke-linejoin="round" stroke-miterlimit="22.9256" stroke-opacity="0.301961" d="M4873.12 632.35c0,0 -103.01,-273.2 -299.03,-324.52 -196.03,-51.33 -247.54,213.85 -281.76,256.26 -34.21,42.41 -136.69,-68.43 -222.04,-8.55 -85.36,59.87 -111.03,153.61 -136.51,153.61 -25.48,0 -76.81,-76.81 -119.58,-34.21 -42.77,42.59 -136.69,119.58 -136.69,119.58 0,0 -85.37,-51.15 -111.03,-25.49l-76.81 76.81 1776.04 0c0,0 -34.22,-256.26 -128.14,-281.75 -93.92,-25.49 -264.45,162.17 -264.45,68.26z"/>
  </g>
  <rect fill="#6DA4FD" fill-rule="nonzero" x="-21.6" y="8983.49" width="11500.01" height="1949.83"/>
  <line fill="none" fill-rule="nonzero" stroke="#263238" stroke-width="26.46" stroke-linecap="round" stroke-linejoin="round" stroke-miterlimit="22.9256" x1="192.28" y1="8981.52" x2="11346.88" y2= "8981.52" />
  <line fill="none" fill-rule="nonzero" stroke="#263238" stroke-width="26.46" stroke-linecap="round" stroke-linejoin="round" stroke-miterlimit="22.9256" x1="2205.67" y1="9202.14" x2="4430.78" y2= "9202.14" />
  <line fill="none" fill-rule="nonzero" stroke="#263238" stroke-width="26.46" stroke-linecap="round" stroke-linejoin="round" stroke-miterlimit="22.9256" x1="4388.68" y1="9437.03" x2="5242.34" y2= "9437.03" />
  <line fill="none" fill-rule="nonzero" stroke="#263238" stroke-width="26.46" stroke-linecap="round" stroke-linejoin="round" stroke-miterlimit="22.9256" x1="162.62" y1="9483.89" x2="1016.29" y2= "9483.89" />
  <line fill="none" fill-rule="nonzero" stroke="#263238" stroke-width="26.46" stroke-linecap="round" stroke-linejoin="round" stroke-miterlimit="22.9256" x1="6263.94" y1="9327.43" x2="5858.16" y2= "9327.43" />
  <line fill="none" fill-rule="nonzero" stroke="#263238" stroke-width="26.46" stroke-linecap="round" stroke-linejoin="round" stroke-miterlimit="22.9256" x1="2429.53" y1="9499.57" x2="3465.11" y2= "9499.57" />
  <line fill="none" fill-rule="nonzero" stroke="#263238" stroke-width="26.46" stroke-linecap="round" stroke-linejoin="round" stroke-miterlimit="22.9256" x1="1156.11" y1="9170.96" x2="1785.9" y2= "9170.96" />
  <line fill="none" fill-rule="nonzero" stroke="#263238" stroke-width="26.46" stroke-linecap="round" stroke-linejoin="round" stroke-miterlimit="22.9256" x1="1645.93" y1="9530.94" x2="2275.73" y2= "9530.94" />
  <line fill="none" fill-rule="nonzero" stroke="#263238" stroke-width="26.46" stroke-linecap="round" stroke-linejoin="round" stroke-miterlimit="22.9256" x1="8866.72" y1="9374.3" x2="7215.47" y2= "9374.3" />
  <line fill="none" fill-rule="nonzero" stroke="#263238" stroke-width="26.46" stroke-linecap="round" stroke-linejoin="round" stroke-miterlimit="22.9256" x1="8488.9" y1="9217.83" x2="8978.73" y2= "9217.83" />
  <line fill="none" fill-rule="nonzero" stroke="#263238" stroke-width="26.46" stroke-linecap="round" stroke-linejoin="round" stroke-miterlimit="22.9256" x1="10993.8" y1="9296.06" x2="9916.28" y2= "9296.06" />
  <line fill="none" fill-rule="nonzero" stroke="#263238" stroke-width="26.46" stroke-linecap="round" stroke-linejoin="round" stroke-miterlimit="22.9256" x1="9930.26" y1="9530.94" x2="7999.07" y2= "9530.94" />
  <line fill="none" fill-rule="nonzero" stroke="#263238" stroke-width="26.46" stroke-linecap="round" stroke-linejoin="round" stroke-miterlimit="22.9256" x1="5018.48" y1="9170.96" x2="5550.25" y2= "9170.96" />
  <line fill="none" fill-rule="nonzero" stroke="#263238" stroke-width="26.46" stroke-linecap="round" stroke-linejoin="round" stroke-miterlimit="22.9256" x1="7019.58" y1="9703.09" x2="5340.37" y2= "9703.09" />
  <line fill="none" fill-rule="nonzero" stroke="#263238" stroke-width="26.46" stroke-linecap="round" stroke-linejoin="round" stroke-miterlimit="22.9256" x1="11259.76" y1="9624.86" x2="10685.89" y2= "9624.86" />
  <g id="freepik--Characters--inject-139">
   <path fill="#6DA4FD" fill-rule="nonzero" stroke="#263238" stroke-width="26.46" stroke-linecap="round" stroke-linejoin="round" stroke-miterlimit="22.9256" d="M5299.19 2254.31c0,0 -896.58,-60.76 -949.86,-30.29 -53.28,30.47 -129.2,212.6 -152.37,227.93 -23.17,15.33 -524.29,53.47 -524.29,53.47 0,0 -76.09,174.82 -98.9,205.12 -22.81,30.3 -288.7,15.32 -372.28,-53.47 55.74,58.91 116.88,112.85 182.51,160.39 113.87,83.58 182.31,136.86 212.6,160.39 30.3,23.53 114.05,-68.43 167.16,-76.1 53.11,-7.66 395.09,91.25 463.35,98.73 68.26,7.48 114.05,-258.22 189.97,-243.08 75.92,15.15 896.57,60.77 896.57,60.77l-14.46 -563.86z"/>
   <line fill="none" fill-rule="nonzero" stroke="#263238" stroke-width="105.83" stroke-linecap="round" stroke-linejoin="round" stroke-miterlimit="22.9256" x1="5315.76" y1="3031.31" x2="5315.76" y2= "2195.51" />
   <polygon fill="white" fill-rule="nonzero" stroke="#263238" stroke-width="26.46" stroke-linecap="round" stroke-linejoin="round" stroke-miterlimit="22.9256" points="8112.57,6784.74 5312.2,2913.87 2247.89,7283.19 6441.15,7898.91 "/>
   <line fill="none" fill-rule="nonzero" stroke="#263238" stroke-width="26.46" stroke-linecap="round" stroke-linejoin="round" stroke-miterlimit="22.9256" x1="5312.2" y1="3552.03" x2="5312.2" y2= "7326.85" />
   <line fill="none" fill-rule="nonzero" stroke="#263238" stroke-width="26.46" stroke-linecap="round" stroke-linejoin="round" stroke-miterlimit="22.9256" x1="5312.2" y1="3031.31" x2="5312.2" y2= "3413.38" />
   <path fill="white" fill-rule="nonzero" stroke="#263238" stroke-width="26.46" stroke-linecap="round" stroke-linejoin="round" stroke-miterlimit="22.9256" d="M8910.95 2789.65c0,0 4.27,71.29 -14.79,103.72 -19.07,32.44 -82.51,173.58 -82.51,173.58l-152.37 -17.83 -6.42 -120.64c0,0 -48.65,-73.24 -56.14,-80.73 -7.48,-7.48 -67.71,-10.51 -67.71,-25.48 0,-14.98 19.06,-12.66 19.06,-12.66l360.88 -19.96z"/>
   <path fill="none" fill-rule="nonzero" stroke="#263238" stroke-width="26.46" stroke-linecap="round" stroke-linejoin="round" stroke-miterlimit="22.9256" d="M8657 2791.8c0,0 35.64,29.58 35.64,40.27l0 10.52c0,0 78.59,22.98 84.3,57.2 5.7,34.21 2.14,55.06 -8.38,61.3"/>
   <polygon fill="white" fill-rule="nonzero" stroke="#263238" stroke-width="26.46" stroke-linecap="round" stroke-linejoin="round" stroke-miterlimit="22.9256" points="8644.35,3011.88 8849.65,3062.67 8828.44,3140.91 8616.9,3096.53 "/>
   <path fill="#6DA4FD" fill-rule="nonzero" stroke="#263238" stroke-width="26.46" stroke-linecap="round" stroke-linejoin="round" stroke-miterlimit="22.9256" d="M8616.55 3079.42l247.89 73.6c0,0 -209.22,836.51 -236.31,867.52 -27.09,31.01 -437.68,11.58 -437.68,11.58l23.17 -600.38 216.88 231.67 186.05 -583.99z"/>
   <polygon fill="#9E9E9E" fill-rule="nonzero" stroke="#263238" stroke-width="26.46" stroke-linecap="round" stroke-linejoin="round" stroke-miterlimit="22.9256" points="9030.17,2608.24 8457.41,2662.06 8460.44,2814.07 9042.11,2808.19 "/>
   <polygon fill="#9E9E9E" fill-rule="nonzero" stroke="#263238" stroke-width="26.46" stroke-linecap="round" stroke-linejoin="round" stroke-miterlimit="22.9256" points="9561.23,2542.66 9555.35,2852.92 9027.14,2852.92 9027.14,2569.57 "/>
   <polygon fill="#9E9E9E" fill-rule="nonzero" stroke="#263238" stroke-width="26.46" stroke-linecap="round" stroke-linejoin="round" stroke-miterlimit="22.9256" points="8457.41,2685.76 8373.83,2691.82 8374.36,2773.44 8457.41,2769.34 "/>
   <path fill="white" fill-rule="nonzero" stroke="#263238" stroke-width="26.46" stroke-linecap="round" stroke-linejoin="round" stroke-miterlimit="22.9256" d="M8629.55 2599.33l53.47 -8.55c6.2,26.35 10.51,53.37 12.66,80.39 -2.14,12.83 -29.58,23.35 -40.28,19.07 -10.69,-4.28 -29.58,-46.52 -33.86,-61.31 -0.31,-1.98 -0.48,-3.98 -0.48,-5.98 0,-8.62 3.01,-16.98 8.5,-23.62l-0.01 0z"/>
   <path fill="white" fill-rule="nonzero" stroke="#263238" stroke-width="26.46" stroke-linecap="round" stroke-linejoin="round" stroke-miterlimit="22.9256" d="M8682.49 2590.78c0,0 78.23,-21.03 86.78,-10.52 8.56,10.52 29.59,95.17 23.17,101.58 -6.41,6.41 -35.64,23.17 -44.37,17.82 -8.73,-5.35 -65.58,-108.88 -65.58,-108.88z"/>
   <path fill="white" fill-rule="nonzero" stroke="#263238" stroke-width="26.46" stroke-linecap="round" stroke-linejoin="round" stroke-miterlimit="22.9256" d="M8769.27 2580.44c0,0 71.28,-16.94 78.24,-10.52 6.95,6.42 19.06,90.89 0,97.3 -10.16,2.97 -20.71,4.47 -31.28,4.47 -2.99,0 -6.02,-0.12 -9,-0.36l-37.96 -90.89z"/>
   <path fill="white" fill-rule="nonzero" stroke="#263238" stroke-width="26.46" stroke-linecap="round" stroke-linejoin="round" stroke-miterlimit="22.9256" d="M8848.22 2569.75c0,0 57.03,-2.14 65.58,4.1 8.56,6.24 -4.27,71.28 -8.55,80.37 -4.28,9.1 -25.31,4.28 -29.58,-8.37 -4.28,-12.66 -27.45,-76.1 -27.45,-76.1z"/>
   <path fill="white" fill-rule="nonzero" stroke="#263238" stroke-width="26.46" stroke-linecap="round" stroke-linejoin="round" stroke-miterlimit="22.9256" d="M8248.19 2496.14c0,0 111.74,111.74 118.87,158.43 7.13,46.69 0,97.3 7.31,119.04 7.3,21.74 93.56,93.56 97.3,115.12 3.73,21.56 -68.61,57.75 -68.61,57.75 0,0 -25.13,136.86 -21.56,151.29 3.57,14.44 53.47,82.87 35.64,122.43 -17.82,39.57 -111.56,46.88 -158.42,35.65l-46.87 -14.26 -25.31 71.28 -395.81 -197.81 17.82 -68.43c0,0 -140.61,-154.86 -147.74,-327.9 -7.12,-173.04 147.74,-285.13 237.73,-327.73 89.99,-42.59 291.91,-10.87 338.6,3.57 46.69,14.43 35.64,-43.31 57.74,-7.31 22.1,35.99 25.31,83.58 -46.69,108.88z"/>
   <path fill="#263238" fill-rule="nonzero" stroke="#263238" stroke-width="26.46" stroke-linecap="round" stroke-linejoin="round" stroke-miterlimit="22.9256" d="M8104.02 3166.21c-43.13,-46.87 -97.13,-151.3 -93.56,-223.29 1.36,-18.33 2.01,-37.05 2.01,-55.47 0,-30.78 -1.97,-61.75 -5.61,-92.25 -3.75,-10.87 -72.18,-90.17 -111.74,-35.64 -39.55,54.53 -28.86,154.86 7.13,183.74l35.65 28.69c0,0 -53.47,93.74 -129.74,75.74 0,0 -140.61,-154.86 -147.74,-327.9 -7.12,-173.04 147.74,-285.13 237.73,-327.73 89.99,-42.59 291.91,-10.87 338.6,3.56 46.69,14.44 35.64,-43.3 57.74,-7.3 22.1,35.99 25.13,82.86 -46.87,108.17 0,0 -234.17,10.87 -208.86,32.43 25.3,21.56 158.42,100.86 147.56,140.43 -10.87,39.56 -89.99,90.17 -97.13,100.86 -7.13,10.69 10.7,133.3 10.7,133.3l90.17 97.3c0,0 187.3,-71.28 212.43,-53.46 0,0 -25.13,136.86 -21.56,151.29 3.57,14.44 53.46,82.87 35.64,122.43 -17.82,39.57 -111.56,46.88 -158.42,35.65l-46.88 -14.26c-39.9,-18.93 -76.25,-44.85 -107.24,-76.3l-0.01 0.01z"/>
   <path fill="none" fill-rule="nonzero" stroke="#263238" stroke-width="26.46" stroke-linecap="round" stroke-linejoin="round" stroke-miterlimit="22.9256" d="M8323.92 2780.74c-9.36,-8.34 -21.47,-12.96 -34.02,-12.96 -8.25,0 -16.4,2.02 -23.71,5.84"/>
   <path fill="none" fill-rule="nonzero" stroke="#263238" stroke-width="26.46" stroke-linecap="round" stroke-linejoin="round" stroke-miterlimit="22.9256" d="M8345.49 2733.88c0,0 -43.3,-50.44 -86.43,-14.44"/>
   <path fill="white" fill-rule="nonzero" d="M8303.61 3041.11c-7.13,19.6 -3.03,39.02 9.09,43.48 12.11,4.46 27.8,-7.84 35.64,-27.44 7.84,-19.61 3.21,-39.03 -8.91,-43.49 -12.12,-4.46 -28.51,7.85 -35.82,27.45z"/>
   <path fill="white" fill-rule="nonzero" stroke="#263238" stroke-width="26.46" stroke-linecap="round" stroke-linejoin="round" stroke-miterlimit="22.9256" d="M7779.85 3090.65c0,0 374.25,216.17 407.03,223.29 32.79,7.13 86.62,82.87 86.62,82.87l-551.21 -216.17 57.56 -89.99z"/>
   <path fill="#263238" fill-rule="nonzero" stroke="#263238" stroke-width="26.46" stroke-linecap="round" stroke-linejoin="round" stroke-miterlimit="22.9256" d="M8373.83 4586.36l5.88 65.58 56.84 247.71c0,0 638.35,235.59 784.13,331.11 145.77,95.53 131.16,113.35 119.22,134.38 -11.93,21.03 -557.8,1086 -557.8,1086l38.67 32.79 -95.34 196.03c30.85,32.66 63.71,63.76 98.32,92.42 45.19,27.81 93.29,51.87 142.62,71.32 23.87,6.07 14.79,35.65 -6.07,47.77 -20.85,12.11 -205.82,29.93 -241.65,29.93 -35.83,0 -241.66,-134.37 -262.5,-146.3 -20.85,-11.94 -106.93,-38.67 -110.49,-65.59 -3.56,-26.91 14.97,-89.1 41.88,-110.31 26.91,-21.21 77.52,-167.16 92.49,-179.1 14.98,-11.94 32.79,-8.91 35.65,-26.91 2.85,-18 229.71,-665.25 229.71,-665.25l67.19 -171.42 -599.68 -158.07c0,0 -226.68,993.51 -286.38,1091.89 -59.7,98.37 -319.35,608.58 -319.35,608.58 0,0 32.97,65.76 26.91,77.7 -6.06,11.94 -65.58,92.49 -65.58,92.49 0,0 59.7,116.37 68.6,128.31 8.91,11.94 95.34,92.49 137.22,113.34 41.89,20.86 5.88,38.67 -32.78,50.61 -38.67,11.95 -217.77,9.09 -235.77,0 -18,-9.08 -265.53,-235.59 -274.44,-250.56 -4.67,-10.03 -7.1,-20.98 -7.1,-32.04 0,-15.12 4.54,-29.92 12.98,-42.45 21.05,-34.34 40.01,-70.2 56.67,-106.91 0,-1.82 -0.04,-3.7 -0.04,-5.54 0,-16.01 1.05,-32.07 3.07,-47.95 3.03,-9.08 53.46,-98.54 53.46,-98.54l259.47 -638.53 -38.85 -978.54 -50.43 -320.59 74.49 -414.69 778.78 -38.67z"/>
   <path fill="white" fill-rule="nonzero" stroke="#263238" stroke-width="26.46" stroke-linecap="round" stroke-linejoin="round" stroke-miterlimit="22.9256" d="M8266.36 3461.5c0,0 184.99,381.9 184.99,495.25 0,113.34 -86.43,564.03 -86.43,575.97 0,11.93 26.73,29.76 8.91,53.46 -18.09,20.54 -42.05,35.11 -68.62,41.7l-310.26 -5.88 271.41 -1160.5z"/>
   <path fill="#6DA4FD" fill-rule="nonzero" stroke="#263238" stroke-width="26.46" stroke-linecap="round" stroke-linejoin="round" stroke-miterlimit="22.9256" d="M7722.29 3180.65c0,0 -82.86,151.3 -90.17,183.73 -7.31,32.44 -73.24,340.56 -84.11,516.81 -10.87,176.25 -27.63,210.82 -27.63,210.82l-405.42 834.19c0,0 236.3,301.35 539.26,376.38 151.48,37.6 281.03,-64.87 281.03,-64.87 0,0 377.99,-1023.99 385.29,-1045.73 7.31,-21.75 50.08,-417.54 46.51,-506.65 -3.57,-89.1 -107.99,-313.46 -107.99,-313.46l-536.77 -191.22z"/>
   <polyline fill="none" fill-rule="nonzero" stroke="#263238" stroke-width="26.46" stroke-linecap="round" stroke-linejoin="round" stroke-miterlimit="22.9256" points="7912.98,4648.38 7582.75,4496.9 7562.08,4558.92 7692.89,4613.98 "/>
   <path fill="#6DA4FD" fill-rule="nonzero" stroke="#263238" stroke-width="26.46" stroke-linecap="round" stroke-linejoin="round" stroke-miterlimit="22.9256" d="M8320 4191.98c0,0 -536.58,790 -597.71,862 -61.12,71.99 -101.04,129.74 -101.04,129.74 12.2,-0.69 24.56,-1.02 36.83,-1.02 53.11,0 106.22,6.39 157.77,18.82l90.17 25.3 28.7 10.7 385.28 -1045.54z"/>
   <path fill="none" fill-rule="nonzero" stroke="#263238" stroke-width="26.46" stroke-linecap="round" stroke-linejoin="round" stroke-miterlimit="22.9256" d="M8111.33 3825.59c0,0 -209.05,115.3 -285.14,143.99"/>
   <path fill="none" fill-rule="nonzero" stroke="#263238" stroke-width="26.46" stroke-linecap="round" stroke-linejoin="round" stroke-miterlimit="22.9256" d="M7949.33 4038.01c-20.39,15.07 -42.28,28.44 -65.04,39.74"/>
   <path fill="none" fill-rule="nonzero" stroke="#263238" stroke-width="26.46" stroke-linecap="round" stroke-linejoin="round" stroke-miterlimit="22.9256" d="M8143.76 3847.15c-37.05,45.69 -77.71,89.36 -120.59,129.55"/>
   <path fill="white" fill-rule="nonzero" stroke="#263238" stroke-width="26.46" stroke-linecap="round" stroke-linejoin="round" stroke-miterlimit="22.9256" d="M9711.46 3507.12l234.88 -49.54c0,0 261.07,17.82 281.93,23.53 20.85,5.7 41.7,28.69 26.02,35.64 -15.68,6.95 -148.81,-7.84 -148.81,-7.84l-52.21 2.68c0,0 15.68,106.92 2.67,122.6 -13.01,15.68 -122.6,47.05 -133.12,47.05 -10.51,0 -62.55,-10.51 -65.23,-26.19 -2.67,-15.68 20.86,-28.7 20.86,-28.7 -15.57,1.32 -31.33,1.99 -46.96,1.99 -15.63,0 -31.4,-0.67 -46.96,-1.96 -20.85,-5.17 -93.92,-33.86 -93.92,-33.86l20.85 -85.4z"/>
   <polyline fill="none" fill-rule="nonzero" stroke="#263238" stroke-width="26.46" stroke-linecap="round" stroke-linejoin="round" stroke-miterlimit="22.9256" points="9891.45,3574.13 9912.48,3618.51 9878.44,3626.35 "/>
   <polygon fill="white" fill-rule="nonzero" stroke="#263238" stroke-width="26.46" stroke-linecap="round" stroke-linejoin="round" stroke-miterlimit="22.9256" points="9580.83,3465.6 9728.57,3472.73 9692.57,3645.77 9544.83,3656.47 "/>
   <g>
    <path fill="#263238" fill-rule="nonzero" d="M8186.88 3313.95c0,0 -442.49,-247.71 -503.79,-247.71 -61.31,0 -377.98,142.57 -377.98,142.57 0,0 -161.28,-77.16 -215.64,-69.32 -84.11,11.94 -295.29,130.62 -295.29,130.62l239.16 113.35c0,0 251.27,71.28 333.07,39.92 81.8,-31.36 300.28,-278.01 330.94,-267.32 30.65,10.69 524.11,196.03 524.11,196.03l-34.58 -38.14zm0 0l0 0 0 0z"/>
    <path id="_1" fill="none" fill-rule="nonzero" stroke="#263238" stroke-width="26.46" stroke-linecap="round" stroke-linejoin="round" stroke-miterlimit="22.9256" d="M8186.88 3313.95c0,0 -442.49,-247.71 -503.79,-247.71 -61.31,0 -377.98,142.57 -377.98,142.57 0,0 -161.28,-77.16 -215.64,-69.32 -84.11,11.94 -295.29,130.62 -295.29,130.62l239.16 113.35c0,0 251.27,71.28 333.07,39.92 81.8,-31.36 300.28,-278.01 330.94,-267.32 30.65,10.69 524.11,196.03 524.11,196.03m-34.58 -38.14l0 0 0 0z"/>
   </g>
   <g>
    <path fill="#6DA4FD" fill-rule="nonzero" d="M7794.29 3425.68c0,0 187.3,-100.86 226.86,-100.86 39.55,0 1033.61,97.12 1033.61,97.12l565.28 21.92 -31.9 241.47 -1044.48 93.39 -712.83 79.3 -36.54 -432.34zm0 0l0 0 0 0z"/>
    <path id="_1_4" fill="none" fill-rule="nonzero" stroke="#263238" stroke-width="26.46" stroke-linecap="round" stroke-linejoin="round" stroke-miterlimit="22.9256" d="M7794.29 3425.68c0,0 187.3,-100.86 226.86,-100.86 39.55,0 1033.61,97.12 1033.61,97.12l565.28 21.92 -31.9 241.47 -1044.48 93.39 -712.83 79.3m-36.54 -432.34l0 0 0 0z"/>
   </g>
   <path fill="none" fill-rule="nonzero" stroke="#263238" stroke-width="26.46" stroke-linecap="round" stroke-linejoin="round" stroke-miterlimit="22.9256" d="M8483.78 3609.06c-42.05,15.33 -80.9,28.51 -112.27,37.25"/>
   <path fill="none" fill-rule="nonzero" stroke="#263238" stroke-width="26.46" stroke-linecap="round" stroke-linejoin="round" stroke-miterlimit="22.9256" d="M8880.29 3445.28c0,0 -168.76,75.74 -325.22,136.69"/>
   <path fill="none" fill-rule="nonzero" stroke="#263238" stroke-width="26.46" stroke-linecap="round" stroke-linejoin="round" stroke-miterlimit="22.9256" d="M8935.19 3455.8c-59.26,35.41 -121.65,67.05 -185.3,93.84"/>
   <path fill="white" fill-rule="nonzero" stroke="#263238" stroke-width="26.46" stroke-linecap="round" stroke-linejoin="round" stroke-miterlimit="22.9256" d="M2194.43 8978.14l-1032.55 -2197.68 3259.27 255.2c0,0 2095.38,59.17 2229.57,47.58 316.33,-27.44 3989.39,-1196.85 3989.39,-1196.85l-1684.97 3091.75 -6760.71 0z"/>
   <line fill="none" fill-rule="nonzero" stroke="#263238" stroke-width="26.46" stroke-linecap="round" stroke-linejoin="round" stroke-miterlimit="22.9256" x1="7400.98" y1="8121.13" x2="7918.32" y2= "8728.47" />
   <line fill="none" fill-rule="nonzero" stroke="#263238" stroke-width="26.46" stroke-linecap="round" stroke-linejoin="round" stroke-miterlimit="22.9256" x1="6641.45" y1="7229.73" x2="7280.87" y2= "7980.35" />
   <line fill="none" fill-rule="nonzero" stroke="#263238" stroke-width="26.46" stroke-linecap="round" stroke-linejoin="round" stroke-miterlimit="22.9256" x1="3296.11" y1="8640.79" x2="3172.08" y2= "8811.69" />
   <line fill="none" fill-rule="nonzero" stroke="#263238" stroke-width="26.46" stroke-linecap="round" stroke-linejoin="round" stroke-miterlimit="22.9256" x1="4379.45" y1="7146.51" x2="3382.37" y2= "8521.75" />
   <path fill="#6DA4FD" fill-rule="nonzero" stroke="#263238" stroke-width="26.46" stroke-linecap="round" stroke-linejoin="round" stroke-miterlimit="22.9256" d="M3216.81 6317.3l263.39 643.87c-356.42,-21.56 -700.18,-58.81 -1011.69,-78.06l-305.81 -677.19 73.42 -416.3 288.88 -31.73 288.88 -21.21c0,0 213.85,8.03 222.58,8.03 8.72,0 180.35,175 180.35,175l491.14 306.35c0,0 8.38,239.51 -10.15,260.72 -18.54,21.21 -480.99,-169.48 -480.99,-169.48z"/>
   <path fill="none" fill-rule="nonzero" stroke="#263238" stroke-width="26.46" stroke-linecap="round" stroke-linejoin="round" stroke-miterlimit="22.9256" d="M3068.72 6844.98c113.88,-113.7 118.52,-398.48 118.52,-398.48"/>
   <path fill="none" fill-rule="nonzero" stroke="#263238" stroke-width="26.46" stroke-linecap="round" stroke-linejoin="round" stroke-miterlimit="22.9256" d="M3244.26 6683.7c0,0 -52.22,118.68 -104.44,156.64"/>
   <path fill="white" fill-rule="nonzero" stroke="#263238" stroke-width="26.46" stroke-linecap="round" stroke-linejoin="round" stroke-miterlimit="22.9256" d="M3563.96 6073.34l-63.62 84.65c0,0 13.36,161.81 13.36,188.19 0,26.37 100.69,132.58 127.24,137.93 16.71,2.51 33.74,3.79 50.65,3.79 22.11,0 44.27,-2.19 65.93,-6.49 21.21,-8.02 45.09,-127.24 50.43,-151.12 5.35,-23.89 -243.99,-256.95 -243.99,-256.95z"/>
   <path fill="none" fill-rule="nonzero" stroke="#263238" stroke-width="26.46" stroke-linecap="round" stroke-linejoin="round" stroke-miterlimit="22.9256" d="M3353.68 5241.28l-55.61 15.86c-7.28,26.09 -13.43,52.8 -17.81,79.51 0.38,11.99 10.23,21.56 22.27,21.56 1.37,0 2.75,-0.13 4.1,-0.39 12.65,-2.67 47.05,-116.54 47.05,-116.54z"/>
   <line fill="none" fill-rule="nonzero" stroke="#263238" stroke-width="26.46" stroke-linecap="round" stroke-linejoin="round" stroke-miterlimit="22.9256" x1="3215.92" y1="6317.3" x2="3067.47" y2= "5906.53" />
   <line fill="none" fill-rule="nonzero" stroke="#263238" stroke-width="26.46" stroke-linecap="round" stroke-linejoin="round" stroke-miterlimit="22.9256" x1="3215.92" y1="6317.3" x2="3149.63" y2= "5946.27" />
   <g>
    <path fill="#6DA4FD" fill-rule="nonzero" d="M2489.72 5771.27c0,0 -466.91,24.59 -488.11,45.8 -21.21,21.21 -118.51,808.53 -99.98,842.93 18.54,34.4 151.84,52.21 151.84,52.21l140.61 -227.75 30.11 -445.52 265.53 -267.67zm0 0l0 0 0 0z"/>
    <path id="_1_5" fill="none" fill-rule="nonzero" stroke="#263238" stroke-width="26.46" stroke-linecap="round" stroke-linejoin="round" stroke-miterlimit="22.9256" d="M2489.72 5771.27c0,0 -466.91,24.59 -488.11,45.8 -21.21,21.21 -118.51,808.53 -99.98,842.93 18.54,34.4 151.84,52.21 151.84,52.21l140.61 -227.75 30.11 -445.52m265.53 -267.67l0 0 0 0z"/>
   </g>
   <path fill="#263238" fill-rule="nonzero" stroke="#263238" stroke-width="26.46" stroke-linecap="round" stroke-linejoin="round" stroke-miterlimit="22.9256" d="M2556.37 5958.75l134.91 139.18c0,0 -98.02,69.5 -134.91,81.62 -36.89,12.11 -233.1,-216.7 -278,-233.1 -44.91,-16.4 -376.38,102.29 -441.78,126.88 -52.94,16.49 -108.16,26.2 -163.61,28.55l-77.87 135.05 208.69 114.41c0,0 429.3,-269.81 462.09,-273.91 32.79,-4.09 265.71,192.11 286.21,183.91 20.49,-8.19 183.55,-147.2 183.55,-147.2l49.72 -236.84 -147.2 -65.4 -81.8 146.85z"/>
   <polygon fill="white" fill-rule="nonzero" stroke="#263238" stroke-width="26.46" stroke-linecap="round" stroke-linejoin="round" stroke-miterlimit="22.9256" points="2429.31,5658.11 2353.04,5687.51 2344.3,5763.78 2537.84,6089.37 2640.48,5895.84 2699.29,5884.08 2910.48,6021.83 2793.21,5734.38 2740.28,5690.37 "/>
   <polygon fill="white" fill-rule="nonzero" stroke="#263238" stroke-width="26.46" stroke-linecap="round" stroke-linejoin="round" stroke-miterlimit="22.9256" points="2394.2,5561.34 2452.83,5731.53 2696.27,5977.81 2755.07,5728.5 2734.4,5643.49 "/>
   <path fill="white" fill-rule="nonzero" stroke="#263238" stroke-width="26.46" stroke-linecap="round" stroke-linejoin="round" stroke-miterlimit="22.9256" d="M2622.31 4981.09c0,0 89.1,147.2 102.82,198.53 13.72,51.32 14.79,106.92 22.1,121.36 7.31,14.43 44.2,66.29 44.2,124.74 0,58.45 3.56,205.83 -3.75,231.68 -7.31,25.84 -62.55,33.14 -106.92,36.89 -44.38,3.74 -158.08,-22.1 -231.68,-62.56 -71.09,-36.35 -129.02,-94.27 -165.35,-165.38 -44.19,-80.91 -36.7,-187.66 -29.4,-206.01 7.3,-18.35 0,-205.83 128.66,-253.59 54.12,-20.25 111.62,-30.74 169.48,-30.74 23.33,0 46.78,1.71 69.82,5.06l0.02 0.02z"/>
   <path fill="#263238" fill-rule="nonzero" stroke="#263238" stroke-width="26.46" stroke-linecap="round" stroke-linejoin="round" stroke-miterlimit="22.9256" d="M2284.07 5385.63l80.91 -7.49c0,0 -36.71,-32.97 -22.1,-58.8 14.61,-25.84 95.52,-36.71 69.86,-66.12 -25.66,-29.41 -88.22,-73.6 -66.12,-121.36 22.1,-47.76 187.48,-80.9 202.09,-80.9 14.62,0 14.79,40.45 14.79,40.45 30.33,-17.99 52.72,-46.87 62.56,-80.73 17.83,-58.99 44.02,-110.31 -3.74,-128.66 -47.76,-18.36 -330.93,62.37 -360.34,95.52 -29.41,33.15 -132.23,110.31 -121.36,172.68 10.87,62.37 84.65,217.06 99.26,235.41 14.61,18.36 44.19,0 44.19,0z"/>
   <g>
    <path fill="white" fill-rule="nonzero" d="M2331.83 5426.08c0,0 -95.53,-106.93 -135.98,-58.81 -40.45,48.12 25.66,142.57 58.81,158.08 33.14,15.5 77.16,-7.49 77.16,-7.49l0.01 -91.78zm0 0l0 0 0 0z"/>
    <path id="_1_6" fill="none" fill-rule="nonzero" stroke="#263238" stroke-width="26.46" stroke-linecap="round" stroke-linejoin="round" stroke-miterlimit="22.9256" d="M2331.83 5426.08c0,0 -95.53,-106.93 -135.98,-58.81 -40.45,48.12 25.66,142.57 58.81,158.08 33.14,15.5 77.16,-7.49 77.16,-7.49m0.01 -91.78l0 0 0 0z"/>
   </g>
   <g>
    <path fill="white" fill-rule="nonzero" d="M2584.88 5273.71c0,0 -73.42,-11.76 -102.82,32.26l102.82 -32.26zm0 0l0 0 0 0z"/>
    <path id="_1_7" fill="none" fill-rule="nonzero" stroke="#263238" stroke-width="26.46" stroke-linecap="round" stroke-linejoin="round" stroke-miterlimit="22.9256" d="M2584.88 5273.71c0,0 -73.42,-11.76 -102.82,32.26m102.82 -32.26l0 0 0 0z"/>
   </g>
   <path fill="none" fill-rule="nonzero" stroke="#263238" stroke-width="26.46" stroke-linecap="round" stroke-linejoin="round" stroke-miterlimit="22.9256" d="M2661.16 5238.6c10.87,-17.44 29.98,-28.04 50.52,-28.04 4.71,0 9.43,0.56 14,1.67"/>
   <path fill="none" fill-rule="nonzero" stroke="#263238" stroke-width="26.46" stroke-linecap="round" stroke-linejoin="round" stroke-miterlimit="22.9256" d="M2728.52 5382.24c0.33,2.32 0.5,4.67 0.5,7.02 0,22.43 -14.67,42.23 -36.13,48.75"/>
   <path fill="none" fill-rule="nonzero" stroke="#263238" stroke-width="26.46" stroke-linecap="round" stroke-linejoin="round" stroke-miterlimit="22.9256" d="M2573.12 5493.8c23.3,11.94 49.17,18.2 75.36,18.2 21.45,0 42.73,-4.21 62.57,-12.33"/>
   <path fill="#263238" fill-rule="nonzero" d="M2589.7 5328.07c5.88,17.82 2.32,34.74 -7.67,37.96 -9.98,3.21 -22.81,-8.56 -28.51,-26.2 -5.7,-17.64 -2.31,-35.64 7.67,-37.96 9.98,-2.32 22.8,8.37 28.51,26.2z"/>
   <path fill="#263238" fill-rule="nonzero" d="M2723.18 5291.35c5.88,17.82 2.31,34.75 -7.67,37.96 -9.98,3.21 -22.81,-8.55 -28.51,-26.19 -5.7,-17.64 -2.32,-34.75 7.66,-37.96 9.99,-3.22 23.17,8.55 28.52,26.19z"/>
   <path fill="#9E9E9E" fill-rule="nonzero" stroke="#263238" stroke-width="26.46" stroke-linecap="round" stroke-linejoin="round" stroke-miterlimit="22.9256" d="M2278.37 8330.89c0,0 -214.74,127.95 -251.28,187.47 -36.53,59.52 -269.81,703.92 -287.98,790.72 -18.18,86.79 81.43,178.2 237.72,-41.17 114.24,-160.39 333.61,-703.92 361.06,-790.72 27.44,-86.79 -50.26,-187.47 -59.52,-146.3z"/>
   <line fill="none" fill-rule="nonzero" stroke="#263238" stroke-width="79.38" stroke-linecap="round" stroke-linejoin="round" stroke-miterlimit="22.9256" x1="3486.98" y1="5034.2" x2="2269.28" y2= "8372.05" />
   <path fill="white" fill-rule="nonzero" stroke="#263238" stroke-width="26.46" stroke-linecap="round" stroke-linejoin="round" stroke-miterlimit="22.9256" d="M3412.85 5612.31c0,0 141.49,656.17 146.84,690.56 5.35,34.39 74.14,132.58 113.88,153.79 6.78,3.38 14.08,5.68 21.57,6.77 5.24,0.75 10.57,1.14 15.89,1.14 60.13,0 109.3,-47.97 110.81,-108.07 2.67,-66.47 3.74,-146.84 -5.17,-170.55 -15.86,-42.41 -316.32,-642.98 -316.32,-642.98 0,0 0,-267.31 -13.19,-275.51 -13.19,-8.2 -116.73,-45.09 -132.59,-26.55 -10.56,16.71 -16.7,35.88 -17.81,55.61l-53.47 164.31c4.13,18.82 11.31,36.92 21.21,53.46 6.05,7.2 14.99,11.37 24.41,11.37 2.46,0 4.92,-0.29 7.31,-0.85l26.55 -2.68c0,0 9.44,76.99 50.08,90.18z"/>
   <path fill="white" fill-rule="nonzero" stroke="#263238" stroke-width="26.46" stroke-linecap="round" stroke-linejoin="round" stroke-miterlimit="22.9256" d="M2210.11 6508.16l595.04 47.76c0,0 267.31,87.33 275.51,92.67 8.2,5.34 8.02,34.39 0,47.76 -8.84,11.78 -20.75,20.98 -34.38,26.55 -29.81,27.76 -56.57,58.92 -79.48,92.67 -8.02,15.86 -10.69,13.19 -45.08,5.35 -34.39,-7.84 -188.19,-164.31 -188.19,-164.31l-684.86 103 161.44 -251.45z"/>
   <path fill="white" fill-rule="nonzero" stroke="#263238" stroke-width="26.46" stroke-linecap="round" stroke-linejoin="round" stroke-miterlimit="22.9256" d="M2252.52 6494.98c0,0 -66.3,-53.47 -84.82,-50.44 -18.53,3.03 -316.15,216.88 -313.47,234.7 2.67,17.83 204.22,104.08 204.22,104.08l194.07 -288.34z"/>
   <line fill="none" fill-rule="nonzero" stroke="#263238" stroke-width="26.46" stroke-linecap="round" stroke-linejoin="round" stroke-miterlimit="22.9256" x1="2010.87" y1="6418.16" x2="2167.7" y2= "6444.54" />
   <line fill="none" fill-rule="nonzero" stroke="#263238" stroke-width="26.46" stroke-linecap="round" stroke-linejoin="round" stroke-miterlimit="22.9256" x1="2181.6" y1="6413.36" x2="2067.72" y2= "6361.14" />
   <path fill="white" fill-rule="nonzero" stroke="#263238" stroke-width="26.46" stroke-linecap="round" stroke-linejoin="round" stroke-miterlimit="22.9256" d="M5958.73 6217.86c0,0 287.64,222.23 314.19,252.88 26.55,30.65 49.89,99.62 26.91,145.6 -22.99,45.97 -80.55,80.54 -126.53,76.62 -45.98,-3.92 -398.65,-241.29 -398.65,-241.29l184.08 -233.81z"/>
   <path fill="#6DA4FD" fill-rule="nonzero" stroke="#263238" stroke-width="26.46" stroke-linecap="round" stroke-linejoin="round" stroke-miterlimit="22.9256" d="M5779.28 6743.4l95.88 329.15c-229.53,-11.04 -502.55,-2.31 -791.42,-17.82l-33.15 -340.56 -58.45 -244.86 -41.34 -51.68 -49.9 49.9 -302.95 -233.81c0,0 68.96,-153.26 72.88,-164.84 28.72,-57.52 70.81,-107.51 122.58,-145.59 79.66,-60.77 192.82,-42.77 196.02,-42.24l70.04 5.35 431.8 41.52c0,0 179.46,31.37 199.42,35.65 40.95,17.88 80.99,38.9 118.93,62.36 38.32,26.91 206.9,199.42 206.9,199.42l-188.02 251.81 -49.22 266.24z"/>
   <path fill="#263238" fill-rule="nonzero" stroke="#263238" stroke-width="26.46" stroke-linecap="round" stroke-linejoin="round" stroke-miterlimit="22.9256" d="M5511.08 5012.99c0,0 95.34,0 101.22,54.88 5.88,54.89 -57.92,104.08 -57.92,104.08l-98.37 -80.91 55.07 -78.05z"/>
   <path fill="white" fill-rule="nonzero" stroke="#263238" stroke-width="26.46" stroke-linecap="round" stroke-linejoin="round" stroke-miterlimit="22.9256" d="M5490.94 5063.42c0,0 83.22,95.52 99.8,141.14 16.57,45.62 41.52,95.53 62.19,108 20.67,12.47 108,37.42 95.7,71.28 -12.3,33.86 -29.23,74.85 -29.23,74.85 0,0 4.28,195.14 -8.19,216 -12.48,20.85 -178.21,37.42 -178.21,37.42l-41.7 215.99 49.9 8.2 91.42 186.94 -398.84 16.58 -174.28 -253.24 132.76 -0.01 12.47 -186.94c0,0 -107.99,-157.9 -112.09,-228.47 -4.09,-70.57 398.3,-407.74 398.3,-407.74z"/>
   <path fill="#263238" fill-rule="nonzero" stroke="#263238" stroke-width="26.46" stroke-linecap="round" stroke-linejoin="round" stroke-miterlimit="22.9256" d="M5462.24 4965.58c-41.16,0 -411.48,82.34 -466.37,160.39 -14.25,20.32 -25.66,65.05 -35.64,120.65l-3.92 3.56c0,0 -53.47,205.66 -89.1,270.88 -17.43,32.58 -36.99,64.33 -58.12,94.49l75.03 55.61 35.64 -67.72 -9.96 86.74c0,0 125.82,67.72 174.11,82.16 30.7,8.23 62.19,14.25 93.75,17.78 6.73,1.36 13.62,2.15 20.49,2.35 54.88,0 150.94,-45.62 150.94,-45.62l-32.08 -150.94c-13.72,4.63 -100.52,-17.82 -123.5,-31.9 -22.99,-14.08 -40.99,-86.97 -9.09,-132.59 31.9,-45.62 114.23,27.45 114.23,27.45 0,0 64.16,-59.52 54.89,-73.24 -7.41,-10.52 -11.39,-23.08 -11.39,-35.95 0,-15.42 5.72,-30.3 16.04,-41.75 27.44,-27.45 132.59,-123.32 150.76,-210.29 18.18,-86.97 -5,-132.06 -46.71,-132.06z"/>
   <path fill="#263238" fill-rule="nonzero" d="M5590.38 5331.27c9.62,19.25 11.05,38.14 3.21,42.06 -7.84,3.92 -22.1,-8.56 -31.73,-27.81 -9.62,-19.25 -11.04,-38.13 -3.2,-42.05 7.84,-3.92 22.09,8.55 31.72,27.8z"/>
   <path fill="none" fill-rule="nonzero" stroke="#263238" stroke-width="26.46" stroke-linecap="round" stroke-linejoin="round" stroke-miterlimit="22.9256" d="M5505.2 5279.06c5.58,-21.65 25.11,-36.78 47.46,-36.78 3.51,0 7.04,0.39 10.47,1.13"/>
   <path fill="none" fill-rule="nonzero" stroke="#263238" stroke-width="26.46" stroke-linecap="round" stroke-linejoin="round" stroke-miterlimit="22.9256" d="M5603.57 5495.93c12.77,7.34 27.25,11.2 41.97,11.2 14.73,0 29.2,-3.86 41.97,-11.19"/>
   <path fill="#9E9E9E" fill-rule="nonzero" stroke="#263238" stroke-width="26.46" stroke-linecap="round" stroke-linejoin="round" stroke-miterlimit="22.9256" d="M5104.05 8330.89c0,0 -214.93,127.95 -251.46,187.47 -36.53,59.52 -269.63,703.92 -287.99,790.72 -18.36,86.79 81.44,178.2 237.73,-41.17 114.23,-160.39 333.78,-703.92 361.05,-790.72 27.28,-86.79 -50.24,-187.47 -59.33,-146.3z"/>
   <line fill="none" fill-rule="nonzero" stroke="#263238" stroke-width="79.38" stroke-linecap="round" stroke-linejoin="round" stroke-miterlimit="22.9256" x1="6312.48" y1="5034.2" x2="5094.96" y2= "8372.05" />
   <path fill="white" fill-rule="nonzero" stroke="#263238" stroke-width="26.46" stroke-linecap="round" stroke-linejoin="round" stroke-miterlimit="22.9256" d="M5759.32 6882.22c0,0 -59.34,-104.07 -94.09,-119.04 -34.75,-14.96 -250.74,48.65 -250.74,48.65l-651.53 -122.6 129.02 -229.54 -247 -190.32c-82.86,192.1 -196.03,597.89 -176.07,614.64 29.77,24.77 938.63,57.92 938.63,57.92 0,0 193.18,79.3 213.85,79.3 16.82,1.19 33.55,4.53 49.55,9.81 24.24,7.48 1.79,22.81 2.85,32.08 0,-1.25 31.01,-5.88 31.9,-7.31 23.87,-44.74 53.63,-173.59 53.63,-173.59z"/>
   <path fill="none" fill-rule="nonzero" stroke="#263238" stroke-width="26.46" stroke-linecap="round" stroke-linejoin="round" stroke-miterlimit="22.9256" d="M6040.18 5543.69l-55.6 15.87c-7.29,26.1 -13.45,52.8 -17.82,79.5 0.35,12.01 10.21,21.6 22.26,21.6 1.45,0 2.88,-0.15 4.29,-0.42 12.47,-2.67 46.87,-116.55 46.87,-116.55z"/>
   <path fill="white" fill-rule="nonzero" stroke="#263238" stroke-width="26.46" stroke-linecap="round" stroke-linejoin="round" stroke-miterlimit="22.9256" d="M6098.63 5914.73c0,0 -10.7,596.29 -5.35,630.86 5.35,34.58 74.14,132.42 113.88,153.62 6.84,3.37 14.19,5.68 21.74,6.76 5.25,0.76 10.58,1.15 15.9,1.15 60.12,0 109.3,-47.97 110.8,-108.07 2.68,-66.48 3.56,-146.85 -5.16,-170.55 -16.04,-42.42 -164.49,-583.1 -164.49,-583.1 0,0 0,-267.32 -13.19,-275.69 -13.19,-8.38 -116.55,-44.92 -132.59,-26.38 -10.56,16.71 -16.7,35.88 -17.81,55.6l-53.47 164.31c4.13,18.82 11.31,36.93 21.21,53.46 6.06,7.21 15,11.37 24.41,11.37 2.46,0 4.92,-0.29 7.31,-0.85l26.55 -2.67c0,0 10.52,76.99 50.26,90.18z"/>
  </g>
  <line fill="none" fill-rule="nonzero" stroke="#263238" stroke-width="26.46" stroke-linecap="round" stroke-linejoin="round" stroke-miterlimit="22.9256" x1="7033.7" y1="10144.47" x2="6180.04" y2= "10144.47" />
  <line fill="none" fill-rule="nonzero" stroke="#263238" stroke-width="26.46" stroke-linecap="round" stroke-linejoin="round" stroke-miterlimit="22.9256" x1="11259.76" y1="10191.33" x2="10406.09" y2= "10191.33" />
  <line fill="none" fill-rule="nonzero" stroke="#263238" stroke-width="26.46" stroke-linecap="round" stroke-linejoin="round" stroke-miterlimit="22.9256" x1="8992.85" y1="10207.01" x2="7957.27" y2= "10207.01" />
  <line fill="none" fill-rule="nonzero" stroke="#263238" stroke-width="26.46" stroke-linecap="round" stroke-linejoin="round" stroke-miterlimit="22.9256" x1="9776.45" y1="10238.38" x2="9146.65" y2= "10238.38" />
  <line fill="none" fill-rule="nonzero" stroke="#263238" stroke-width="26.46" stroke-linecap="round" stroke-linejoin="round" stroke-miterlimit="22.9256" x1="2555.66" y1="10081.74" x2="4206.91" y2= "10081.74" />
  <line fill="none" fill-rule="nonzero" stroke="#263238" stroke-width="26.46" stroke-linecap="round" stroke-linejoin="round" stroke-miterlimit="22.9256" x1="1492.12" y1="10238.38" x2="3423.31" y2= "10238.38" />
  <line fill="none" fill-rule="nonzero" stroke="#263238" stroke-width="26.46" stroke-linecap="round" stroke-linejoin="round" stroke-miterlimit="22.9256" x1="4402.8" y1="10410.53" x2="6082.01" y2= "10410.53" />
  <line fill="none" fill-rule="nonzero" stroke="#263238" stroke-width="26.46" stroke-linecap="round" stroke-linejoin="round" stroke-miterlimit="22.9256" x1="162.62" y1="10332.3" x2="736.49" y2= "10332.3" />
 </g>
</svg>
