<?xml version="1.0" encoding="UTF-8"?>
<!DOCTYPE svg PUBLIC "-//W3C//DTD SVG 1.0//EN" "http://www.w3.org/TR/2001/REC-SVG-20010904/DTD/svg10.dtd">
<!-- Creator: CorelDRAW -->
<svg xmlns="http://www.w3.org/2000/svg" xml:space="preserve" width="115mm" height="115mm" version="1.0" shape-rendering="geometricPrecision" text-rendering="geometricPrecision" image-rendering="optimizeQuality" fill-rule="evenodd" clip-rule="evenodd"
viewBox="0 0 11500 11500"
 xmlns:xlink="http://www.w3.org/1999/xlink"
 xmlns:xodm="http://www.corel.com/coreldraw/odm/2003">
 <g id="Camada_x0020_1">
  <metadata id="CorelCorpID_0Corel-Layer"/>
  <g id="_1764636486256">
   <g id="freepik--background-simple--inject-2">
    <path fill="#6DA4FD" fill-rule="nonzero" d="M11463.26 5301.28c154.66,-1360.81 -305.51,-2727.43 -1271.35,-3698.57 -475.09,-477.36 -1124.53,-927.17 -1987.51,-1144.49 -2420.39,-609.27 -3988.92,-51.3 -4773.07,1431.81 -784.14,1483.12 -3034.45,1227.38 -3392.28,3784.49 -357.83,2557.1 1380.77,5369.18 4329.82,5523.08 2949.05,153.89 2569.48,-1314.06 4182.74,-1944.3 1233.7,-481.65 2680.68,-1921.05 2911.65,-3952.02z"/>
    <path fill="white" fill-rule="nonzero" fill-opacity="0.701961" d="M11463.26 5301.28c154.66,-1360.81 -305.51,-2727.43 -1271.35,-3698.57 -475.09,-477.36 -1124.53,-927.17 -1987.51,-1144.49 -2420.39,-609.27 -3988.92,-51.3 -4773.07,1431.81 -784.14,1483.12 -3034.45,1227.38 -3392.28,3784.49 -357.83,2557.1 1380.77,5369.18 4329.82,5523.08 2949.05,153.89 2569.48,-1314.06 4182.74,-1944.3 1233.7,-481.65 2680.68,-1921.05 2911.65,-3952.02z"/>
   </g>
   <g id="freepik--Plant--inject-2">
    <path fill="#263238" fill-rule="nonzero" d="M7709.61 9583.83c57.87,25.28 198.88,21.99 198.88,21.99 0,0 -30.33,-92.49 -32.86,-98.05 -31.08,-64.69 -128.88,-171.58 -208.48,-160.97 -45.76,7.8 -79.25,47.48 -79.25,93.9 0,8.56 1.17,17.13 3.44,25.37 12.89,55.09 69.5,96.28 118.27,117.76z"/>
    <path fill="#263238" fill-rule="nonzero" d="M7758.63 9992.45c59.9,8.6 185.74,-27.79 195.85,-30.83 20.48,71.77 45.78,142.61 75.74,211.23 17.19,40.18 35.89,79.86 55.34,119.53 -11.62,-16.67 -21.98,-31.58 -23.75,-33.61 -47,-54.33 -169.57,-131.4 -243.61,-101.07 -33.65,15.57 -55.27,49.36 -55.27,86.51 0,17.13 4.64,33.97 13.39,48.7 27.3,50.54 92.74,74.3 145.81,81.88 53.06,7.58 161.72,-20.97 190.03,-29.06 7.59,15.16 14.91,30.32 22.74,45.49 36.39,72.53 73.03,144.8 106.9,216.82 11.88,25.27 22.74,50.54 33.61,75.81 -10.11,-15.17 -18.95,-27.54 -20.47,-29.31 -47,-54.34 -169.57,-131.66 -243.61,-101.08 -33.8,15.44 -55.52,49.22 -55.52,86.41 0,17.08 4.62,33.85 13.33,48.52 27.54,50.54 92.74,74.54 145.8,82.13 53.07,7.58 151.62,-18.45 185.23,-27.8 10.37,26.54 20.73,52.82 29.82,78.85 5.56,17.94 12.38,34.62 16.94,52.81 4.55,18.2 10.1,35.89 14.9,53.58 8.34,34.36 16.94,69.75 25.28,103.35 5.05,23.5 9.6,45.98 14.15,68.48 -11.62,-25.27 -35.13,-75.82 -37.65,-78.6 -38.16,-60.65 -147.83,-155.66 -225.66,-135.96 -40.72,11.94 -68.69,49.28 -68.69,91.69 0,11.87 2.21,23.64 6.52,34.68 19.46,53.33 80.61,87.44 131.66,103.11 56.61,17.18 181.44,1.51 197.12,0 7.58,37.14 14.4,73.53 20.46,108.15 4.3,25.27 8.6,50.54 12.38,73.53l50.54 0.01c-4.81,-25.27 -10.11,-53.57 -15.67,-82.37 -7.58,-37.91 -16.17,-78.34 -25.27,-119.78 37.45,-14.63 74.43,-31.7 109.93,-50.62 41.2,44.48 146.57,96.53 160.22,103.35 -14.4,35.13 -28.81,69.24 -42.7,101.08 -7.33,16.93 -14.66,33.1 -21.73,49.02l53.05 0.09c4.04,-10.11 8.33,-19.96 12.63,-30.57 14.66,-35.64 29.57,-74.04 44.73,-113.72 15.17,3.04 138.74,28.05 196.35,15.17 52.31,-11.88 115.74,-41.44 138.98,-93 6.51,-13.16 9.92,-27.66 9.92,-42.33 0,-39.86 -24.83,-75.52 -62.22,-89.35 -75.81,-25.27 -192.55,61.16 -235.27,118.77 -2.53,3.53 -25.27,43.46 -39.67,68.98 6.06,-16.42 12.13,-32.09 18.19,-48.76 12.13,-33.11 23.25,-66.72 35.38,-102.6 5.39,-16.84 10.7,-34.53 15.91,-53.06 5.56,-17.68 9.35,-37.14 14.16,-55.84 10.61,-43.47 18.95,-87.95 25.27,-133.18 29.06,10.61 132.67,46.75 186.49,42.96 53.82,-3.79 120.54,-23.5 151.62,-71.01 11.28,-15.99 17.35,-35.09 17.35,-54.65 0,-34.6 -18.86,-66.45 -49.18,-83.09 -71.52,-36.89 -199.39,31.08 -250.43,81.63 -3.03,3.03 -35.63,43.46 -52.81,66.2 4.29,-27.29 8.59,-54.33 11.88,-81.88 10.1,-79.85 17.44,-160.72 25.27,-241.33 2.27,-25.27 5.05,-50.54 7.58,-74.04 10.37,3.79 132.68,49.27 192.82,44.99 53.32,-3.54 120.54,-23.25 151.62,-70.76 11.27,-16.01 17.34,-35.15 17.34,-54.74 0,-34.63 -18.87,-66.55 -49.2,-83.23 -71.52,-36.9 -199.39,31.08 -250.43,81.62 -3.79,3.79 -50.54,62.17 -61.4,77.58 5.81,-54.33 11.88,-108.41 20.22,-161.48 10.83,-71.53 26.46,-142.81 46.26,-212.22 4.81,2.03 132.42,50.55 193.83,45.74 53.57,-3.79 120.79,-23.5 151.62,-71.01 11.19,-16.06 17.21,-35.16 17.21,-54.71 0,-34.62 -18.8,-66.54 -49.08,-83.32 -71.52,-36.64 -199.63,31.08 -250.43,81.88 -4.04,3.79 -54.07,66.46 -62.41,78.59 1.26,-4.04 2.02,-8.33 3.28,-12.37 21.88,-69.74 50.08,-137.5 84.11,-202.11 18.19,-35.64 37.65,-68.74 57.36,-101.08 22.74,11.38 127.61,62.17 183.47,64.44 55.85,2.27 122.56,-10.1 158.44,-53.83 15.31,-17.4 23.73,-39.73 23.73,-62.83 0,-30.93 -15.07,-59.96 -40.36,-77.73 -66.96,-44.48 -202.16,8.84 -257.76,53.57 -3.04,2.53 -31.34,30.57 -50.55,50.54 9.11,-14.4 18.2,-29.31 27.04,-42.7 33.61,-50.54 67.73,-95.01 98.05,-133.93 17.44,-21.99 33.61,-41.44 49.03,-59.64 28.05,0 141.76,-4.04 191.54,-27.29 49.78,-23.26 104.12,-65.46 115.74,-120.8 1.81,-7.41 2.73,-15.02 2.73,-22.65 0,-47.65 -35.14,-88.02 -82.32,-94.6 -79.86,-8.6 -174.87,101.07 -203.94,166.53 -2.53,5.81 -31.84,98.8 -30.32,98.8l1.52 0.01c-14.91,17.18 -31.08,35.64 -48.02,56.35 -31.33,38.42 -66.2,82.13 -101.07,132.17 -38.18,53.4 -73.42,109.45 -104.95,166.96 -35.47,64.57 -65.72,132.4 -89.41,202.21l0 2.78c0,-23.75 0,-89.45 -1.26,-94.5 -9.35,-71.26 -68.98,-203.43 -148.09,-217.83 -4.85,-0.76 -9.8,-1.14 -14.73,-1.14 -50.77,0 -92.56,39.9 -94.91,90.61 -4.55,56.35 36.39,112.96 75.81,148.84 45.24,40.18 170.33,79.09 180.43,82.13 -22.43,71.32 -40.55,144.62 -53.18,218.33 -7.58,43.21 -13.89,86.67 -19.96,130.4 0,-20.47 0,-38.66 0,-41.2 -9.1,-71.01 -68.74,-202.16 -147.83,-217.83 -4.78,-0.77 -9.72,-1.15 -14.66,-1.15 -50.76,0 -92.56,39.9 -94.91,90.61 -4.54,56.61 36.39,113.21 75.82,148.84 39.42,35.64 146.57,71.77 174.87,80.61 -2.28,16.94 -4.3,33.61 -6.32,50.55 -9.85,80.86 -18.95,161.22 -30.57,240.06 -4.04,27.79 -9.1,54.83 -13.9,82.13 0,-18.2 0,-33.36 0,-35.64 -9.1,-71.26 -68.73,-203.42 -147.83,-217.82 -4.89,-0.77 -9.83,-1.15 -14.77,-1.15 -50.77,0 -92.56,39.9 -94.91,90.61 -4.8,56.35 36.39,112.96 75.82,148.84 39.42,35.89 136.2,67.98 169.81,78.85 -6.06,27.79 -11.88,55.59 -18.7,82.12 -5.31,17.95 -8.84,35.64 -15.17,53.58 -6.32,17.93 -11.37,35.37 -16.93,52.81 -12.13,33.11 -25.27,67.47 -36.9,99.57 -8.59,22.49 -17.18,43.47 -25.27,64.95 4.3,-27.55 11.63,-81.88 11.88,-86.43 -1.28,-63.19 -18.72,-125.08 -50.56,-179.67 0.03,-0.69 0.04,-1.39 0.04,-2.07 0,-6.33 -0.52,-12.67 -1.53,-18.91 -5.83,-47.52 -46.21,-83.25 -94.08,-83.25 -7.46,0 -14.92,0.91 -22.17,2.63 -77.59,20.73 -126.35,156.94 -130.65,227.44 0,4.04 2.53,50.55 4.8,79.35 -3.79,-16.93 -7.32,-33.36 -11.62,-50.54 -8.09,-34.37 -17.44,-68.48 -27.04,-105.13 -5.31,-17.69 -10.61,-35.38 -16.17,-53.32 -5.56,-17.95 -12.38,-35.89 -18.7,-54.08 -15.42,-42.21 -32.86,-83.9 -50.54,-126.35 30.07,-7.33 136.46,-34.36 179.16,-67.22 42.71,-32.86 87.69,-85.92 87.18,-142.78 0.02,-0.85 0.03,-1.74 0.03,-2.6 0,-52.46 -42.55,-95.01 -95.01,-95.01 -2.62,0 -5.25,0.12 -7.86,0.33 -79.86,8.59 -149.09,135.95 -163.75,206.2 0,4.3 -5.56,56.1 -7.59,84.4 -11.37,-25.27 -22.74,-50.54 -35.12,-75.81 -35.64,-72.03 -74.04,-143.79 -111.95,-215.31 -11.63,-21.99 -23,-43.97 -34.37,-65.96 10.62,-2.53 137.73,-32.09 185.74,-68.74 42.46,-32.6 87.44,-85.92 87.18,-142.78 0.02,-0.84 0.03,-1.72 0.03,-2.58 0,-52.47 -42.55,-95.02 -95.01,-95.02 -2.62,0 -5.25,0.12 -7.86,0.33 -79.86,8.59 -149.09,135.96 -163.75,206.2 0,5.31 -7.84,79.6 -8.6,98.56 -25.27,-48.52 -50.54,-97.04 -72.02,-145.81 -30.37,-65.49 -56.86,-133.26 -78.63,-202.07 5.06,0 137.98,-31.33 187,-68.98 42.46,-32.6 87.69,-85.92 87.18,-142.53 0.05,-0.83 0.06,-1.64 0.06,-2.4 0,-52.74 -42.78,-95.52 -95.52,-95.52 -2.44,0 -4.92,0.1 -7.35,0.28 -79.86,8.84 -149.09,135.96 -163.51,206.2 -1.26,5.56 -8.33,85.67 -8.59,101.08 0,-4.04 -3.04,-8.09 -4.3,-12.13 -19.84,-69.77 -33.51,-141.53 -40.64,-213.74 -4.55,-39.92 -6.57,-78.34 -7.58,-115.74 25.27,-3.04 140.75,-18.44 188.76,-47.5 48.02,-29.07 96.53,-75.82 101.08,-132.17 0.55,-4.31 0.86,-8.65 0.86,-12.97 0,-51.48 -40.92,-93.66 -92.37,-95.22 -80.36,0 -163.24,118.76 -185.48,186.99 0,3.8 -9.1,42.96 -14.66,71.52 0,-16.93 0,-34.36 0,-50.54 0,-60.9 4.04,-116.5 7.83,-165.78 2.28,-28.05 5.06,-53.32 7.84,-75.81 23.24,-15.93 116.24,-81.63 144.8,-128.63 28.56,-47 50.54,-111.7 29.82,-164.5 -13.55,-37.89 -49.46,-63.19 -89.71,-63.19 -14.25,0 -28.35,3.21 -41.19,9.36 -71.26,36.89 -90.22,180.68 -78.34,252.7 0,6.06 28.05,101.08 29.31,99.06l1.26 0c-3.03,22.49 -6.31,47 -9.1,73.53 -4.8,50.55 -9.85,105.13 -11.37,166.03 -0.55,18.8 -0.96,38.32 -0.96,57.22 0,46.51 2.08,93.65 5.82,139.96 5.42,73.14 17.78,146.25 36.4,217.29l0 2.53c-12.64,-19.71 -50.55,-74.04 -53.07,-78.09 -47,-54.07 -169.57,-131.4 -243.61,-101.07 -33.89,15.47 -55.59,49.32 -55.59,86.55 0,17.09 4.61,33.9 13.33,48.6 25.27,53.34 90.73,77.85 143.79,85.68z"/>
    <path fill="#263238" fill-rule="nonzero" d="M9136.88 9614.67c0,0 25.27,-93.76 25.27,-99.82 9.86,-71.01 -12.88,-214.3 -85.16,-249.17 -12.25,-5.51 -25.57,-8.37 -39,-8.37 -41.2,0 -77.7,26.55 -90.38,65.73 -19.46,53.33 5.05,118.52 34.36,163.76 35.38,52.81 154.91,127.87 154.91,127.87z"/>
   </g>
   <g id="freepik--Heart--inject-2">
    <path fill="none" fill-rule="nonzero" stroke="#263238" stroke-width="26.46" stroke-linecap="round" stroke-linejoin="round" stroke-miterlimit="22.9256" d="M10497.43 8334.47l-57.37 57.87 -365.41 365.41 -365.66 -365.41 -57.62 -57.87c-48.41,-48.42 -75.67,-114.19 -75.67,-182.71 0,-142.67 115.71,-258.38 258.38,-258.38 68.52,0 134.29,27.25 182.71,75.67l57.87 57.87 57.62 -57.87c48.39,-48.38 114.11,-75.59 182.57,-75.59 142.63,0 258.3,115.67 258.3,258.3 0,68.53 -27.25,134.28 -75.71,182.71l-0.01 0z"/>
   </g>
   <g id="freepik--Stars--inject-2">
    <polygon fill="none" fill-rule="nonzero" stroke="#263238" stroke-width="26.46" stroke-linecap="round" stroke-linejoin="round" stroke-miterlimit="22.9256" points="1213.87,8990.23 1267.95,9156.27 1442.82,9156.27 1301.3,9259.11 1355.38,9425.39 1213.87,9322.54 1072.6,9425.39 1126.68,9259.11 985.17,9156.27 1160.04,9156.27 "/>
    <polygon fill="none" fill-rule="nonzero" stroke="#263238" stroke-width="26.46" stroke-linecap="round" stroke-linejoin="round" stroke-miterlimit="22.9256" points="1758.19,8990.23 1812.27,9156.27 1986.89,9156.27 1845.62,9259.11 1899.45,9425.39 1758.19,9322.54 1616.67,9425.39 1670.75,9259.11 1529.49,9156.27 1704.11,9156.27 "/>
    <polygon fill="none" fill-rule="nonzero" stroke="#263238" stroke-width="26.46" stroke-linecap="round" stroke-linejoin="round" stroke-miterlimit="22.9256" points="2302.26,8990.23 2356.34,9156.27 2530.95,9156.27 2389.69,9259.11 2443.77,9425.39 2302.26,9322.54 2160.99,9425.39 2214.82,9259.11 2073.56,9156.27 2248.18,9156.27 "/>
    <polygon fill="none" fill-rule="nonzero" stroke="#263238" stroke-width="26.46" stroke-linecap="round" stroke-linejoin="round" stroke-miterlimit="22.9256" points="2846.58,8990.23 2900.4,9156.27 3075.28,9156.27 2933.77,9259.11 2987.84,9425.39 2846.58,9322.54 2705.07,9425.39 2759.14,9259.11 2617.64,9156.27 2792.51,9156.27 "/>
    <polygon fill="none" fill-rule="nonzero" stroke="#263238" stroke-width="26.46" stroke-linecap="round" stroke-linejoin="round" stroke-miterlimit="22.9256" points="3390.66,8990.23 3444.48,9156.27 3619.35,9156.27 3478.09,9259.11 3531.92,9425.39 3390.66,9322.54 3249.14,9425.39 3303.22,9259.11 3161.7,9156.27 3336.58,9156.27 "/>
   </g>
   <g id="freepik--speech-bubble-4--inject-2">
    <path fill="white" fill-rule="nonzero" stroke="#263238" stroke-width="26.46" stroke-linecap="round" stroke-linejoin="round" stroke-miterlimit="22.9256" d="M7941.33 943.91l-1301.17 0c-69.77,0 -126.35,56.58 -126.35,126.35l0 564.28c0,69.77 56.58,126.35 126.35,126.35l81.38 0 -105.89 277.98 294.65 -277.98 1031.03 0c69.77,0 126.35,-56.58 126.35,-126.35l0 -565.29c-0.54,-69.39 -56.95,-125.34 -126.34,-125.34 0,0 0,0 0,0l-0.01 0z"/>
    <circle fill="#263238" fill-rule="nonzero" cx="7017.96" cy="1361.62" r="50.79"/>
    <circle fill="#263238" fill-rule="nonzero" cx="7271.67" cy="1361.62" r="50.79"/>
    <circle fill="#263238" fill-rule="nonzero" cx="7525.39" cy="1361.62" r="50.79"/>
   </g>
   <g id="freepik--Character--inject-2">
    <path fill="#263238" fill-rule="nonzero" stroke="#263238" stroke-width="26.46" stroke-linecap="round" stroke-linejoin="round" stroke-miterlimit="22.9256" d="M4787.35 6812.18c0,0 109.92,2097.44 165.01,2522.49 55.09,425.05 165.01,1045.18 165.01,1045.18 0,0 -78.59,55.09 -94.26,110.18 -15.66,55.09 7.83,259.27 7.83,259.27l573.64 39.17c0,0 23.5,-141.26 23.5,-463.71l0 -480.14c0,-62.67 94.51,-2750.42 94.51,-2750.42l70.5 2758.5c0,0 -23.5,856.41 15.93,872.09 38.69,19.92 75.63,43.83 109.89,70.76l502.88 -15.66c21.14,-92.89 34.62,-187.59 39.44,-282.71 0,-110.18 -70.75,-322.2 -62.92,-440.21 7.83,-118.01 212.27,-1076.52 212.27,-1241.53l0.02 -2569.31 -1807.08 0 -16.17 566.05z"/>
    <path fill="white" fill-rule="nonzero" stroke="#263238" stroke-width="26.46" stroke-linecap="round" stroke-linejoin="round" stroke-miterlimit="22.9256" d="M5549.5 10749.3c0,0 -212.03,-180.68 -306.28,-165.01 -94.26,15.67 -180.94,70.76 -188.77,94.26 -7.83,23.51 -62.92,70.75 -78.6,117.76 -15.67,47.01 -267.1,283.03 -322.19,345.95 -55.09,62.92 -94.26,70.75 -47,109.92 29.25,23.89 64.01,40.13 101.08,47.24l896.85 0.02c0,0 31.58,-70.75 23.5,-212.27 -8.08,-141.52 -23.5,-298.7 -23.5,-298.7l-55.09 -39.17z"/>
    <path fill="white" fill-rule="nonzero" stroke="#263238" stroke-width="26.46" stroke-linecap="round" stroke-linejoin="round" stroke-miterlimit="22.9256" d="M4585.69 11220.6c0,9.1 5.55,18.44 20.97,31.33 29.25,23.89 64.01,40.13 101.08,47.24l896.85 0.01c9.58,-25.24 15.96,-51.76 18.96,-78.6l-1037.86 0.02z"/>
    <path fill="white" fill-rule="nonzero" stroke="#263238" stroke-width="26.46" stroke-linecap="round" stroke-linejoin="round" stroke-miterlimit="22.9256" d="M5922.23 10749.3c0,0 199.9,-180.68 288.84,-165.01 88.95,15.67 170.33,70.76 176.9,94.26 6.57,23.51 59.13,70.75 74.04,117.76 14.91,47.01 252.7,283.03 303.24,345.95 50.55,62.92 88.95,70.75 44.48,109.92 -27.39,23.89 -60.63,40.18 -96.27,47.24l-844.04 0.02c0,0 -29.57,-70.75 -22.24,-212.27 7.34,-141.52 22.24,-298.7 22.24,-298.7l52.81 -39.17z"/>
    <path fill="white" fill-rule="nonzero" stroke="#263238" stroke-width="26.46" stroke-linecap="round" stroke-linejoin="round" stroke-miterlimit="22.9256" d="M6830.45 11220.6c0,9.1 -5.31,18.44 -19.72,31.33 -27.38,23.89 -60.62,40.19 -96.26,47.24l-844.04 0.01c-8.97,-25.36 -15.06,-51.81 -17.96,-78.59l977.98 0.01z"/>
    <path fill="white" fill-rule="nonzero" stroke="#263238" stroke-width="26.46" stroke-linecap="round" stroke-linejoin="round" stroke-miterlimit="22.9256" d="M5449.68 3428.99l-227.44 193.07 40.94 2667.53 982.77 0c0,0 46.75,-2726.17 29.31,-2767.1 -17.44,-40.94 -122.82,-81.88 -122.82,-81.88l-702.76 -11.62z"/>
    <path fill="#6DA4FD" fill-rule="nonzero" stroke="#263238" stroke-width="26.46" stroke-linecap="round" stroke-linejoin="round" stroke-miterlimit="22.9256" d="M7116.51 4591.18l390.93 108.15c0,0 -395.98,-726.26 -468.01,-900.38 -56.35,-135.96 -126.35,-176.89 -155.41,-187.76 -149.86,-96.79 -731.32,-170.57 -731.32,-170.57l-45.49 1332 -69.5 2210.65 827.11 -0.01c0,0 -69.75,-780.6 -108.15,-1028l-54.34 -347.97c0,0 66.96,-530.68 126.35,-1038.86l287.83 22.75z"/>
    <path fill="none" fill-rule="nonzero" stroke="#263238" stroke-width="26.46" stroke-linecap="round" stroke-linejoin="round" stroke-miterlimit="22.9256" d="M6243.93 5116.29c-25.47,66.92 -57.79,131.05 -96.01,191.51"/>
    <path fill="none" fill-rule="nonzero" stroke="#263238" stroke-width="26.46" stroke-linecap="round" stroke-linejoin="round" stroke-miterlimit="22.9256" d="M6274.5 3522.49l137.47 306.02 -112.96 122.56 178.92 216.57c0,0 -69.75,471.8 -192.82,837.2"/>
    <path fill="white" fill-rule="nonzero" stroke="#263238" stroke-width="26.46" stroke-linecap="round" stroke-linejoin="round" stroke-miterlimit="22.9256" d="M5382.46 2782.08c0,0 -73.53,-101.08 -126.35,-28.56 -52.82,72.52 147.07,322.96 147.07,322.96l-20.72 -294.4z"/>
    <path fill="white" fill-rule="nonzero" stroke="#263238" stroke-width="26.46" stroke-linecap="round" stroke-linejoin="round" stroke-miterlimit="22.9256" d="M6232.81 2782.08c0,0 73.54,-101.08 126.35,-28.56 52.82,72.52 -147.07,322.96 -147.07,322.96l20.72 -294.4z"/>
    <path fill="white" fill-rule="nonzero" stroke="#263238" stroke-width="26.46" stroke-linecap="round" stroke-linejoin="round" stroke-miterlimit="22.9256" d="M5366.03 2724.96c0,0 44.99,470.03 53.32,551.91 8.34,81.87 36.64,257.5 69.5,318.66 32.85,61.15 257.5,290.36 318.66,265.84 61.15,-24.52 273.93,-245.38 331.29,-310.83 57.37,-65.45 36.64,-183.97 44.99,-212.52 8.35,-28.55 40.68,-310.57 40.68,-310.57l19.46 -297.68c0,0 8.34,-28.56 -4.04,-212.52 -12.38,-183.96 -12.13,-265.85 -32.6,-310.83 -20.47,-44.99 -73.53,-69.49 -167.79,-94.01 -94.26,-24.52 -318.66,-20.22 -457.64,49.27 -138.99,69.5 -208.48,167.55 -212.52,204.18 -4.04,36.64 -3.31,359.1 -3.31,359.1z"/>
    <path fill="none" fill-rule="nonzero" stroke="#263238" stroke-width="26.46" stroke-linecap="round" stroke-linejoin="round" stroke-miterlimit="22.9256" d="M5742.31 2590.02c0,0 -126.35,-81.88 -196.35,25.27"/>
    <path fill="none" fill-rule="nonzero" stroke="#263238" stroke-width="26.46" stroke-linecap="round" stroke-linejoin="round" stroke-miterlimit="22.9256" d="M5917.94 2598.11c21.94,-13.35 47.18,-20.41 72.86,-20.41 37.09,0 72.7,14.72 98.97,40.88"/>
    <path fill="none" fill-rule="nonzero" stroke="#263238" stroke-width="26.46" stroke-linecap="round" stroke-linejoin="round" stroke-miterlimit="22.9256" d="M5881.3 2639.04c16.56,30.47 25.27,64.67 25.27,99.38 0,0.55 0,1.15 0,1.7 4.04,73.53 -8.34,224.65 -8.34,224.65l-155.15 -16.43"/>
    <path fill="none" fill-rule="nonzero" stroke="#263238" stroke-width="26.46" stroke-linecap="round" stroke-linejoin="round" stroke-miterlimit="22.9256" d="M5660.43 3002.93c0,0 77.58,126.35 273.93,61.16"/>
    <path fill="#263238" fill-rule="nonzero" d="M5684.95 2710.56c0,23.75 -10.87,42.96 -25.27,42.96 -14.41,0 -25.28,-19.21 -25.28,-42.96 0,-23.75 11.12,-42.96 25.28,-42.96 14.15,0 25.27,19.21 25.27,42.96z"/>
    <path fill="#263238" fill-rule="nonzero" d="M6032.41 2710.56c0,23.75 -10.87,42.96 -25.27,42.96 -14.4,0 -25.27,-19.21 -25.27,-42.96 0,-23.75 10.87,-42.96 25.27,-42.96 14.4,0 25.27,19.21 25.27,42.96z"/>
    <path fill="none" fill-rule="nonzero" stroke="#263238" stroke-width="26.46" stroke-linecap="round" stroke-linejoin="round" stroke-miterlimit="22.9256" d="M5717.79 2765.9c-32.33,30.53 -71.66,52.97 -114.45,65.18"/>
    <path fill="none" fill-rule="nonzero" stroke="#263238" stroke-width="26.46" stroke-linecap="round" stroke-linejoin="round" stroke-miterlimit="22.9256" d="M5958.88 2765.9c0,0 49.03,57.11 106.39,65.19"/>
    <path fill="none" fill-rule="nonzero" stroke="#263238" stroke-width="26.46" stroke-linecap="round" stroke-linejoin="round" stroke-miterlimit="22.9256" d="M5664.48 3395.38c0,0 77.83,94.01 294.4,4.04"/>
    <path fill="#263238" fill-rule="nonzero" stroke="#263238" stroke-width="26.46" stroke-linecap="round" stroke-linejoin="round" stroke-miterlimit="22.9256" d="M5321.3 2340.6c0,0 12.13,412.92 25.28,421.01 13.14,8.09 49.02,16.43 57.11,-12.13 3.37,-30.46 5.18,-61.32 5.18,-91.97 0,-14.32 -0.4,-28.75 -1.1,-42.98 -0.7,-14.23 40.93,-4.04 49.02,-69.49 8.09,-65.45 -28.55,-179.92 -28.55,-179.92 0,0 147.07,-106.14 286.06,-147.08 138.98,-40.93 212.78,20.47 298.44,25.28 3.73,0.2 7.61,0.32 11.41,0.32 46.45,0 91.5,-16.02 127.53,-45.32 36.02,-29.3 -40.94,61.4 -40.94,89.96 0,28.56 53.32,179.92 44.99,224.91 -8.34,44.98 -16.17,94.01 8.33,110.18 24.51,16.17 53.07,36.89 53.07,36.89 0,0 0,110.43 16.43,118.52 16.43,8.09 44.98,-36.64 49.02,-98.05 4.04,-61.41 4.04,-208.48 25.27,-252.7 21.24,-44.22 53.07,-77.58 28.56,-143.02 -24.51,-65.45 -110.43,-122.56 -122.56,-126.35 -12.13,-3.8 -167.54,-204.19 -367.93,-252.71 -200.39,-48.51 -519.05,237.29 -551.9,327.26 -32.86,89.97 27.28,107.39 27.28,107.39z"/>
    <path fill="white" fill-rule="nonzero" stroke="#263238" stroke-width="26.46" stroke-linecap="round" stroke-linejoin="round" stroke-miterlimit="22.9256" d="M3517.51 3791.12c-22.98,-57.39 -42.05,-116.74 -56.39,-176.85 -8.84,-56.35 -78.33,-147.58 -147.58,-173.6 -74.74,-28.9 -141.73,-75.17 -195.28,-134.76 -60.9,-64.95 -95.52,-86.67 -104.36,-21.73 -8.85,64.95 34.87,95.52 78.34,134.69 43.46,39.17 86.67,73.79 86.67,73.79 -43.48,14.12 -88.8,22.65 -134.45,25.27 -13.98,0.63 -28.24,1.05 -42.3,1.05 -66.08,0 -132.17,-7.66 -196.46,-22.76 -65.2,-17.44 -290.87,-182.19 -269.13,-117.25 21.74,64.93 130.14,147.58 217.07,230.21 86.94,82.64 143.29,126.35 243.1,156.17 99.82,29.82 260.29,69.49 260.29,69.49l91.22 121.55 169.26 -165.27z"/>
    <g>
     <path fill="white" fill-rule="nonzero" d="M2844.82 3674.11c0,0 -138.99,-104.11 -160.73,-221.37 -21.74,-117.26 -12.88,-160.47 17.44,-143.29 30.33,17.19 104.12,186.75 104.12,186.75l130.14 143.29 -90.97 34.62zm0 0l0 0 0 0z"/>
     <path id="_1" fill="none" fill-rule="nonzero" stroke="#263238" stroke-width="26.46" stroke-linecap="round" stroke-linejoin="round" stroke-miterlimit="22.9256" d="M2844.82 3674.11c0,0 -138.99,-104.11 -160.73,-221.37 -21.74,-117.26 -12.88,-160.47 17.44,-143.29 30.33,17.19 104.12,186.75 104.12,186.75l130.14 143.29m-90.97 34.62l0 0 0 0z"/>
    </g>
    <g>
     <path fill="white" fill-rule="nonzero" d="M2961.82 3730.72c0,0 -130.15,-78.34 -143.03,-156.43 -12.88,-78.09 -43.47,-308.04 -13.14,-290.86 30.32,17.18 91.22,260.54 91.22,260.54l73.79 65.19 -8.84 121.56zm0 0l0 0 0 0z"/>
     <path id="_1_24" fill="none" fill-rule="nonzero" stroke="#263238" stroke-width="26.46" stroke-linecap="round" stroke-linejoin="round" stroke-miterlimit="22.9256" d="M2961.82 3730.72c0,0 -130.15,-78.34 -143.03,-156.43 -12.88,-78.09 -43.47,-308.04 -13.14,-290.86 30.32,17.18 91.22,260.54 91.22,260.54l73.79 65.19m-8.84 121.56l0 0 0 0z"/>
    </g>
    <g>
     <path fill="white" fill-rule="nonzero" d="M3034.6 3735.02c0,0 -78.09,-151.62 -95.52,-199.64 -17.43,-48.01 -56.36,-247.4 -17.19,-238.8 39.17,8.6 73.79,208.23 73.79,208.23l99.82 126.35c0,0 138.74,-43.47 176.9,-34.87 38.15,8.6 86.93,86.93 86.93,86.93l-324.73 51.8zm0 0l0 0 0 0z"/>
     <path id="_1_25" fill="none" fill-rule="nonzero" stroke="#263238" stroke-width="26.46" stroke-linecap="round" stroke-linejoin="round" stroke-miterlimit="22.9256" d="M3034.6 3735.02c0,0 -78.09,-151.62 -95.52,-199.64 -17.43,-48.01 -56.36,-247.4 -17.19,-238.8 39.17,8.6 73.79,208.23 73.79,208.23l99.82 126.35c0,0 138.74,-43.47 176.9,-34.87 38.15,8.6 86.93,86.93 86.93,86.93m-324.73 51.8l0 0 0 0z"/>
    </g>
    <polygon fill="white" fill-rule="nonzero" stroke="#263238" stroke-width="26.46" stroke-linecap="round" stroke-linejoin="round" stroke-miterlimit="22.9256" points="3620.62,3860.11 3516.75,3763.82 3260.26,4031.44 3335.57,4130.25 "/>
    <path fill="#6DA4FD" fill-rule="nonzero" stroke="#263238" stroke-width="26.46" stroke-linecap="round" stroke-linejoin="round" stroke-miterlimit="22.9256" d="M5449.68 3428.99c0,0 -87.95,695.95 -99.57,1093.96 -11.62,398 29.31,2486.35 29.31,2486.35l-778.07 -23.51c0,0 87.69,-737.13 151.62,-1006.26 33.91,-160.07 51.16,-324.22 51.16,-488.08 0,-47.71 -1.45,-96.3 -4.31,-143.73 -5.82,-35.13 -46.75,-356.81 -46.75,-356.81 0,0 -438.95,292.37 -491.51,286.56 -52.56,-5.8 -356.81,-227.43 -590.82,-520.56 -148.48,-191.7 -269.29,-405.35 -356.89,-631.59l276.69 -316.26 655.26 655.25c0,0 339.12,-684.32 374.25,-702.01 35.13,-17.68 829.63,-333.31 829.63,-333.31z"/>
    <path fill="none" fill-rule="nonzero" stroke="#263238" stroke-width="26.46" stroke-linecap="round" stroke-linejoin="round" stroke-miterlimit="22.9256" d="M5126.47 4631.87c42.57,226.14 103.63,450.19 182.28,666.48"/>
    <path fill="none" fill-rule="nonzero" stroke="#263238" stroke-width="26.46" stroke-linecap="round" stroke-linejoin="round" stroke-miterlimit="22.9256" d="M5300.33 3545.75l-141.52 358.07 113.21 94.26 -197.87 207.22c4.49,106.57 16.43,213.43 34.03,318.72"/>
    <g>
     <path fill="white" fill-rule="nonzero" d="M4735.79 4897.2c0,0 -117,-514.76 -151.62,-719.45l151.62 719.45zm0 0l0 0 0 0z"/>
     <path id="_1_26" fill="none" fill-rule="nonzero" stroke="#263238" stroke-width="26.46" stroke-linecap="round" stroke-linejoin="round" stroke-miterlimit="22.9256" d="M4735.79 4897.2c0,0 -117,-514.76 -151.62,-719.45m151.62 719.45l0 0 0 0z"/>
    </g>
    <g>
     <polygon fill="white" fill-rule="nonzero" points="5437.04,3826.5 5536.86,4119.38 5807.76,3861.37 6022.81,4139.34 6117.07,3889.42 "/>
     <path id="_1_27" fill="none" fill-rule="nonzero" stroke="#263238" stroke-width="26.46" stroke-linecap="round" stroke-linejoin="round" stroke-miterlimit="22.9256" d="M5437.04 3826.5l99.82 292.88 270.9 -258.01 215.05 277.97 94.26 -249.92m-680.03 -62.92z"/>
    </g>
    <polygon fill="#263238" fill-rule="nonzero" stroke="#263238" stroke-width="26.46" stroke-linecap="round" stroke-linejoin="round" stroke-miterlimit="22.9256" points="5911.87,4012.74 5789.57,4231.08 5649.07,4011.22 5807.76,3861.37 "/>
    <polygon fill="#263238" fill-rule="nonzero" stroke="#263238" stroke-width="26.46" stroke-linecap="round" stroke-linejoin="round" stroke-miterlimit="22.9256" points="5789.57,4231.08 5517.15,6055.09 5760,6250.42 5949.53,6049.27 "/>
    <circle fill="white" fill-rule="nonzero" stroke="#263238" stroke-width="26.46" stroke-linecap="round" stroke-linejoin="round" stroke-miterlimit="22.9256" transform="matrix(0.929214 -0.220856 0.220856 0.929213 6788.39 3138.72)" r="378.35"/>
    <path fill="white" fill-rule="nonzero" stroke="#263238" stroke-width="26.46" stroke-linecap="round" stroke-linejoin="round" stroke-miterlimit="22.9256" d="M6550.97 3603.62c0,0 -12.38,161.72 -3.04,192.81 9.34,31.09 75.81,155.41 75.81,155.41 0,0 -9.35,87.19 6.07,115.24 15.41,28.05 164.76,205.19 164.76,205.19l176.9 -155.66 -100.34 -199.14 -3.03 -258.01c0,0 -194.58,-167.54 -317.13,-55.84z"/>
    <path fill="white" fill-rule="nonzero" stroke="#263238" stroke-width="26.46" stroke-linecap="round" stroke-linejoin="round" stroke-miterlimit="22.9256" d="M6638.9 3425.2l54.59 448.56c5.78,43.7 43.07,76.36 87.17,76.36 3.28,0 6.6,-0.19 9.86,-0.55l0 -0.01c44.5,-4.97 78.15,-42.62 78.15,-87.39 0,-1.02 -0.02,-2.06 -0.06,-3.08l-15.66 -458.15c0,0 -134.95,-101.33 -214.05,24.26z"/>
    <path fill="white" fill-rule="nonzero" stroke="#263238" stroke-width="26.46" stroke-linecap="round" stroke-linejoin="round" stroke-miterlimit="22.9256" d="M6648.25 3523c0,0 -116.24,13.89 -116.24,50.54 0,36.65 41.7,204.69 78.84,214.04 37.14,9.35 65.2,9.35 65.2,-65.2 -3.74,-66.93 -13.2,-133.88 -27.76,-199.34l-0.04 -0.04z"/>
    <path fill="white" fill-rule="nonzero" stroke="#263238" stroke-width="26.46" stroke-linecap="round" stroke-linejoin="round" stroke-miterlimit="22.9256" d="M6922.69 3648.59c0,0 -269.89,23.25 -274.44,50.54 -4.54,27.3 4.55,97.8 23.25,97.8 18.7,0 260.28,1.76 265.09,-25.27 4.8,-27.04 18.7,-85.92 -13.9,-123.07z"/>
    <path fill="white" fill-rule="nonzero" stroke="#263238" stroke-width="26.46" stroke-linecap="round" stroke-linejoin="round" stroke-miterlimit="22.9256" d="M6914.35 3779.5c0,0 -240.32,13.39 -245.37,38.15 -5.05,24.77 1.52,86.94 18.19,87.44 16.68,0.51 231.22,8.6 236.28,-14.91 5.07,-23.5 18.95,-76.83 -9.1,-110.68z"/>
    <path fill="white" fill-rule="nonzero" stroke="#263238" stroke-width="26.46" stroke-linecap="round" stroke-linejoin="round" stroke-miterlimit="22.9256" d="M6881.5 3896.24c0,0 -199.13,11.12 -202.17,31.58 -3.04,20.47 1.26,72.03 15.17,72.53 13.9,0.51 191.3,7.08 195.34,-12.37 4.04,-19.46 14.9,-63.69 -8.34,-91.74z"/>
    <path fill="white" fill-rule="nonzero" stroke="#263238" stroke-width="26.46" stroke-linecap="round" stroke-linejoin="round" stroke-miterlimit="22.9256" d="M6903.99 3527.55c0,0 -269.89,23.25 -274.44,50.54 -4.54,27.3 4.55,97.55 23.25,97.55 18.7,0 260.28,2.02 265.09,-25.27 4.8,-27.3 18.7,-86.69 -13.9,-122.82z"/>
    <polygon fill="white" fill-rule="nonzero" stroke="#263238" stroke-width="26.46" stroke-linecap="round" stroke-linejoin="round" stroke-miterlimit="22.9256" points="6967.16,4028.16 6888.82,3987.98 6676.3,4248.51 6763.49,4364.75 "/>
    <path fill="#6DA4FD" fill-rule="nonzero" stroke="#263238" stroke-width="26.46" stroke-linecap="round" stroke-linejoin="round" stroke-miterlimit="22.9256" d="M6951.5 3982.16c0,0 -77.33,180.18 -135.2,244.62 -57.87,64.44 -122.56,122.31 -122.56,122.31 0,0 270.39,637.57 308.3,759.88 37.91,122.31 186.75,205.95 251.19,225.15 64.44,19.2 218.84,-32.09 277.97,-96.53 59.13,-64.44 141.52,-270.39 96.54,-386.13 -44.99,-115.74 -676.24,-869.3 -676.24,-869.3z"/>
    <circle fill="#6DA4FD" fill-rule="nonzero" stroke="#263238" stroke-width="26.46" stroke-linecap="round" stroke-linejoin="round" stroke-miterlimit="22.9256" transform="matrix(0.924636 -0.239299 0.239299 0.924635 7230.65 2985.24)" r="684.47"/>
    <circle fill="#263238" fill-rule="nonzero" stroke="#263238" stroke-width="26.46" stroke-linecap="round" stroke-linejoin="round" stroke-miterlimit="22.9256" transform="matrix(0.930545 -0.215175 0.215175 0.930545 7230.54 2985.01)" r="557.74"/>
    <circle fill="white" fill-rule="nonzero" stroke="#263238" stroke-width="26.46" stroke-linecap="round" stroke-linejoin="round" stroke-miterlimit="22.9256" cx="7179.18" cy="3011.27" r="216.06"/>
    <path fill="#6DA4FD" fill-rule="nonzero" stroke="#263238" stroke-width="26.46" stroke-linecap="round" stroke-linejoin="round" stroke-miterlimit="22.9256" d="M7349.75 2985.75c0,-0.07 0,-0.17 0,-0.25 0,-65.86 -53.41,-119.27 -119.27,-119.27 -65.86,0 -119.27,53.41 -119.27,119.27 0,65.87 53.41,119.28 119.27,119.28 0,0 0,0 0,0 65.76,0 119.14,-53.27 119.27,-119.03z"/>
   </g>
   <g id="freepik--Floor--inject-2">
    <line fill="none" fill-rule="nonzero" stroke="#263238" stroke-width="26.46" stroke-linecap="round" stroke-linejoin="round" stroke-miterlimit="22.9256" x1="10920.71" y1="11299.44" x2="11194.64" y2= "11299.44" />
    <line fill="none" fill-rule="nonzero" stroke="#263238" stroke-width="26.46" stroke-linecap="round" stroke-linejoin="round" stroke-miterlimit="22.9256" x1="649.07" y1="11299.44" x2="10732.7" y2= "11299.44" />
   </g>
  </g>
 </g>
</svg>
