<?xml version="1.0" encoding="UTF-8"?>
<!DOCTYPE svg PUBLIC "-//W3C//DTD SVG 1.0//EN" "http://www.w3.org/TR/2001/REC-SVG-20010904/DTD/svg10.dtd">
<!-- Creator: CorelDRAW -->
<svg xmlns="http://www.w3.org/2000/svg" xml:space="preserve" width="115mm" height="115mm" version="1.0" shape-rendering="geometricPrecision" text-rendering="geometricPrecision" image-rendering="optimizeQuality" fill-rule="evenodd" clip-rule="evenodd"
viewBox="0 0 11500 11500"
 xmlns:xlink="http://www.w3.org/1999/xlink"
 xmlns:xodm="http://www.corel.com/coreldraw/odm/2003">
 <g id="Camada_x0020_1">
  <metadata id="CorelCorpID_0Corel-Layer"/>
  <g id="freepik--background-simple--inject-147">
   <path fill="#6DA4FD" fill-rule="nonzero" d="M9772.61 1540.68c-178.02,73.89 -360.4,131.18 -543.84,171.42 -834.1,180.25 -2756.71,566.35 -3688.75,510.96 -1209.43,-71.71 -5043.03,-1991.63 -5332.56,-887.78 -289.53,1103.85 -204.47,9191.54 358.06,9359.55 562.54,168.02 2555.73,-1151.86 3731.36,-1200.09 1175.63,-48.22 3986.71,1248.09 5145.18,1321.02 1158.46,72.93 1260.85,-192.01 1533.53,-1607.89 272.68,-1415.87 562.22,-6072.68 511.18,-7152.53 -43.57,-918.07 -1281.05,-691.67 -1714.16,-514.66z"/>
   <path fill="white" fill-rule="nonzero" fill-opacity="0.701961" d="M9772.61 1540.68c-178.02,73.89 -360.4,131.18 -543.84,171.42 -834.1,180.25 -2756.71,566.35 -3688.75,510.96 -1209.43,-71.71 -5043.03,-1991.63 -5332.56,-887.78 -289.53,1103.85 -204.47,9191.54 358.06,9359.55 562.54,168.02 2555.73,-1151.86 3731.36,-1200.09 1175.63,-48.22 3986.71,1248.09 5145.18,1321.02 1158.46,72.93 1260.85,-192.01 1533.53,-1607.89 272.68,-1415.87 562.22,-6072.68 511.18,-7152.53 -43.57,-918.07 -1281.05,-691.67 -1714.16,-514.66z"/>
  </g>
  <g id="freepik--Plants--inject-147">
   <path fill="black" fill-rule="nonzero" fill-opacity="0.149020" d="M149.58 6781.71c196.05,46.59 443.76,11.45 519.76,-1.27 0,105.25 2.23,216.08 12.56,331.35 12.69,168.1 41.1,335.77 83.71,498.94 0,1.91 1.27,3.97 1.75,5.88 -28.85,-45.79 -114.23,-170.45 -121.07,-179.83 -107.64,-124.49 -388.91,-302.09 -558.56,-229.75 -122.27,52 -158.05,198.28 -96.68,309.89 62.65,114 212.74,170.44 333.9,188.25 137.22,19.88 425.96,-63.59 448.86,-70.59 46.85,165.29 106.35,328.67 174.81,485.91 39.76,91.9 82.68,183.32 127.2,274.28 -26.23,-38.48 -50.08,-72.82 -53.89,-77.28 -107.81,-124.49 -389.07,-302.09 -558.73,-229.59 -122.11,51.83 -157.88,198.27 -96.51,309.88 62.65,114.01 212.59,170.45 333.9,188.1 121.32,17.65 371.11,-47.71 436.45,-66.94 17.18,34.82 34.19,69.8 51.52,104.46 83.63,166.47 167.75,332.14 245.33,497.35 27.35,58.19 52.15,116.39 77.28,174.89 -23.54,-34.34 -43.57,-63.59 -47.71,-66.93 -107.64,-124.5 -388.9,-302.1 -558.55,-229.75 -122.11,51.99 -158.05,198.27 -96.68,309.88 63.6,114.16 212.74,170.44 333.9,188.26 117.82,17.17 346.93,-42.14 424.53,-63.6 23.85,60.42 47.7,120.84 68.21,180.46 13.04,41.02 28.46,79.5 39.11,121.64 10.66,42.13 22.9,82.2 34.35,122.58 18.76,78.71 38.79,159.95 55.33,237.23 11.92,53.58 22.1,104.94 32.75,156.77 -26.55,-58.35 -80.92,-171.24 -86.65,-180.14 -87.45,-139.29 -338.67,-357.11 -517.22,-311.48 -128.79,32.75 -186.35,171.87 -143.1,291.6 44.68,122.27 184.44,200.66 302.09,236.59 129.43,39.59 415.94,3.5 451.72,-1.27 17.17,85.54 33.07,169.01 46.74,248.04 11.28,64.85 21.8,127.12 31.55,186.8l116.23 0c-11.77,-65.61 -24.75,-134.51 -38.95,-206.7 -17.18,-87.13 -37.21,-179.66 -58.52,-274.59 86.15,-34.16 170.73,-74.56 252.11,-118.73 94.29,102.24 335.96,222.6 367.28,236.91 -32.91,80.92 -65.66,158.99 -97.78,232.77 -19.55,45.15 -38.8,88.24 -57.71,130.38l121.85 0.12c12.09,-28.78 24.17,-57.88 36.42,-87.92 33.7,-82.05 68.21,-170.29 102.71,-261.24 34.66,7.16 318,64.87 450.6,34.98 119.88,-27.03 265.05,-95.4 318,-213.53 52.46,-116.08 5.4,-259.17 -120.37,-302.1 -174.89,-58.67 -441.53,139.76 -539.16,272.21 -5.72,7.78 -58.83,99.53 -91.42,158.04 13.99,-37.2 27.82,-73.29 41.65,-111.3 27.83,-76 53.43,-152.64 81.25,-235.16 12.09,-40.28 24.27,-80.93 36.57,-121.95 13.04,-40.38 21.63,-84.91 32.75,-127.2 23.86,-99.69 43.09,-201.93 60.1,-305.43 66.62,24.17 304.49,107 427.71,98.26 123.22,-8.75 276.34,-53.58 347.41,-162.66 69.48,-106.69 44.68,-255.35 -73.3,-316.25 -163.93,-84.42 -457.59,71.23 -574.14,187.46 -7.31,7.15 -81.73,99.85 -121.47,151.52 9.7,-62.16 19.87,-124.33 27.66,-187.61 22.74,-182.7 39.91,-368.4 58.04,-553.64 5.4,-56.6 11.6,-113.04 17.65,-169.65 23.53,8.91 304,113.37 442.01,103.67 122.58,-8.59 276.5,-53.74 347.41,-162.65 70.91,-108.92 44.83,-255.52 -73.3,-316.25 -163.77,-84.59 -457.44,71.22 -574.14,187.3 -8.75,8.74 -115.44,143.1 -141.04,177.6 13.2,-124.5 27.51,-248.51 46.43,-369.99 24.3,-164.3 60.88,-327.54 106.39,-487.04 10.97,4.13 303.21,114.48 445.19,104.62 122.58,-8.58 276.5,-53.74 347.41,-162.81 69.48,-106.69 44.68,-255.35 -73.3,-316.09 -163.77,-84.58 -457.44,71.23 -574.14,187.3 -7.63,7.64 -89.04,109.24 -127.2,159l-9.38 -4.77c50.51,-159.09 115.36,-314.53 193.25,-462.09 41.98,-82.04 86.66,-158.04 131.81,-231.18 52.31,26.24 292.72,143.11 420.87,148.03 122.9,4.93 280.63,-22.89 363.31,-123.54 82.67,-100.64 72.5,-248.83 -38.16,-322.29 -153.6,-102.07 -462.53,20.51 -591.32,123.07 -4.77,3.97 -37.2,35.94 -72.03,70.91 0,-7.63 0,-15.9 0,-26.71 5.09,-7.95 10.34,-15.9 15.9,-23.85 77.12,-116.07 154.87,-217.67 224.35,-307.03 40.07,-50.56 77.28,-95.4 112.41,-137.05 64.72,-1.28 325.47,-9.07 439.63,-62.65 111.3,-52.31 238.5,-149.78 265.37,-276.97 26.39,-124.66 -50.4,-254.4 -182.37,-268.55 -183.33,-19.72 -401,231.34 -468.09,381.6 -5.73,13.04 -72.82,226.57 -69.48,226.57l4.05 0.06c-34.66,39.27 -71.39,81.89 -111.29,129.27 -71.23,87.61 -151.05,187.14 -230.39,301.3 -1.59,-177.28 -32.92,-545.36 -266.8,-567.62 -308.94,-29.41 -397.5,323.4 -205.9,514.68 134.03,134.03 311.15,152.32 405.28,151.37 -59.31,88.24 -118.77,183.32 -174.9,286.19 -81.6,147.35 -150.92,303.05 -205.27,462.26 0,1.74 -0.95,3.81 -1.59,5.72 0.96,-53.9 -1.43,-204.95 -3.02,-216.55 -21.15,-163.29 -157.89,-466.18 -339.15,-499.74 -130.53,-24.16 -241.19,78.24 -251.53,205.27 -10.65,129.59 83.31,259.33 174.9,341.37 103.35,92.22 390.34,181.74 413.39,188.73 -51.14,163.43 -92.48,332.1 -121.15,500.78 -17.65,98.74 -31.8,198.59 -45.79,298.92 0,-46.75 -1.59,-88.56 -2.38,-94.29 -21.15,-163.29 -158.05,-466.18 -339.15,-499.73 -130.7,-24.17 -241.2,78.07 -251.69,205.1 -10.66,129.75 83.47,259.49 174.89,341.37 91.42,81.89 336.12,164.24 400.68,184.92 -4.61,38.48 -9.86,76.95 -14.47,115.43 -22.11,185.08 -43.25,369.67 -69.8,550.29 -9.23,63.6 -20.67,125.93 -31.8,188.26 0,-41.5 -1.43,-76.48 -2.23,-81.73 -21.14,-163.29 -157.88,-466.18 -339.14,-499.73 -130.7,-24.01 -241.2,78.23 -251.7,205.26 -10.49,129.59 83.48,259.49 174.9,341.37 88.72,79.5 312.43,156.14 389.23,181.1 -13.52,63.6 -26.87,127.2 -42.77,188.09 -11.77,41.34 -20.19,82.05 -34.35,122.91l-39.11 121.15c-27.83,76.17 -55.81,154.86 -84.75,228.49 -19.71,51.2 -39.43,99.85 -59.15,148.82 10.02,-63.6 26.87,-187.46 27.19,-197.96 -2.11,-144.79 -41.31,-286.97 -113.69,-412.3 0.08,-2.46 0.14,-5.04 0.14,-7.57 0,-13.39 -1.07,-26.89 -3.12,-40.1 -20.35,-125.77 -138.48,-219.25 -266.79,-185.07 -178.08,47.7 -291.13,360.13 -299.56,524.69 0,9.7 5.88,115.44 10.97,182.21 -8.9,-38.79 -17.17,-76.47 -26.86,-116.22 -18.76,-79.5 -39.59,-156.93 -61.85,-241.05 -12.31,-40.16 -24.62,-80.76 -36.91,-121.78 -11.45,-41.02 -28.78,-82.84 -43.09,-124.65 -32.76,-98.9 -72.98,-194.3 -115.91,-289.7 69.01,-15.9 312.91,-79.5 410.85,-153.75 97.94,-74.25 200.97,-197.32 200.18,-327.38 -0.96,-127.2 -103.67,-237.7 -235.63,-222.6 -183.33,19.88 -342.33,311.8 -375.56,473.03 -2.07,10.01 -12.88,128.31 -17.65,193.5 -26.24,-57.4 -51.99,-114.64 -80.45,-171.88 -81.89,-164.88 -169.82,-329.28 -256.94,-492.89 -26.72,-50.25 -52.63,-100.81 -79.5,-151.21 24.64,-5.56 316.25,-73.29 425.95,-157.56 97.63,-74.73 200.97,-197.16 200.03,-327.38 -0.8,-127.2 -103.51,-237.55 -235.48,-222.6 -183.32,19.87 -342.33,311.79 -375.56,473.02 -2.54,12.08 -17.97,182.37 -19.71,225.93 -57.72,-111.3 -114.16,-222.6 -165.36,-333.89 -69.3,-150.73 -130.25,-306.86 -179.95,-464.85 11.45,-2.55 316.09,-71.71 429.3,-158.05 97.62,-74.73 200.97,-197.16 200.02,-327.38 0,-127.2 -103.5,-237.54 -235.48,-222.6 -183.32,19.88 -342.32,311.8 -375.55,473.02 -2.23,10.5 -13.99,140.4 -18.29,202.25l-10.33 1.11c-45.73,-160.57 -77.34,-326.52 -93.83,-492.8 -10.34,-91.59 -14.94,-179.67 -17.65,-265.37 58.03,-7.16 323.08,-42.45 432.8,-108.92 105.09,-63.59 221.48,-173.94 234.84,-303.37 13.04,-127.2 -76.96,-247.56 -209.72,-247.88 -184.28,0 -374.44,272.37 -425.17,429.3 -2.7,8.43 -21.14,98.1 -33.7,163.61 0,-38.63 -2.07,-78.7 -1.91,-115.75 0,-139.44 9.22,-267.12 17.8,-380 5.57,-63.6 11.77,-122.11 18.13,-176.33 53.42,-36.57 266.47,-187.14 332.14,-294.62 63.6,-104.94 116.23,-256.46 68.53,-377.46 -46.75,-118.62 -182.37,-184.44 -300.19,-123.39 -163.76,84.59 -206.69,413.4 -179.82,576.53 2.39,13.99 63.6,229.28 67.09,227.36l3.18 -2.22c-7.15,51.99 -14.31,107.8 -20.83,169.01 -11.29,112.89 -22.89,240.73 -26.23,380.64 0,25.76 -0.96,52.15 -1.28,79.5 -70.28,-108.27 -291.92,-411.96 -531.37,-347.57 -290.33,74.11 -223.87,330.73 10.81,386.54z"/>
   <path fill="black" fill-rule="nonzero" fill-opacity="0.149020" d="M10856.5 7467.47c-161.86,38.64 -365.7,9.55 -429.3,-0.95 0,86.97 -1.91,178.55 -10.49,273.79 -10.51,138.82 -33.8,277.1 -68.87,411.92 0,1.6 -1.11,3.18 -1.59,4.78 24.01,-37.53 94.44,-140.56 100.64,-147.87 89.04,-102.71 321.34,-249.15 461.1,-189.52 100.96,42.76 130.53,163.61 79.49,255.82 -51.03,92.21 -175.69,140.87 -276.17,155.5 -113.21,15.9 -351.71,-52.63 -370.63,-58.35 -38.95,135.87 -87.97,270.1 -144.77,400.04 -32.75,76 -68.22,151.53 -104.63,226.74 21.79,-31.81 41.5,-60.27 44.52,-63.6 89.04,-102.88 321.33,-249.15 461.09,-189.69 100.97,42.93 130.54,163.77 79.5,255.99 -51.04,92.22 -174.9,140.72 -276.18,155.34 -101.28,14.63 -306.38,-39.91 -360.29,-55.17 -14.31,28.62 -28.3,57.56 -42.61,86.17 -69.01,137.38 -138.65,274.43 -202.57,410.7 -22.73,47.7 -43.08,96.19 -63.59,144.37 19.23,-28.31 35.77,-52 38.63,-55.34 89.04,-102.87 321.33,-249.15 461.09,-189.68 100.97,42.93 130.54,163.76 79.5,255.98 -51.03,92.22 -174.89,140.72 -276.18,155.35 -97.31,14.15 -286.19,-34.82 -349.79,-52.63 -19.72,49.92 -39.59,99.85 -56.28,149.14 -10.81,33.86 -23.54,65.82 -31.8,100.32 -8.27,34.5 -18.93,67.9 -28.31,101.28 -15.9,65.03 -31.8,132.13 -45.79,195.89 -9.86,44.36 -18.29,86.81 -27.03,129.43 21.94,-47.71 66.78,-141.19 71.55,-148.67 72.34,-115.12 279.67,-294.94 427.23,-257.26 106.21,27.03 153.75,141.98 117.65,240.88 -36.09,98.89 -152.31,165.68 -249.46,195.41 -106.85,32.59 -343.59,2.86 -373.01,-1.12 -14.31,70.76 -27.35,139.6 -38.63,204.79 -9.55,53.74 -18.13,105.1 -25.92,154.39l-95.44 0.04c9.76,-54.37 20.36,-111.35 31.8,-170.92 14.16,-71.86 30.69,-148.35 47.71,-226.73 -70.78,-28.36 -141.11,-61.5 -208.1,-97.97 -77.91,84.43 -277.6,183.17 -303.52,195.73 27.18,66.78 54.38,131.49 80.77,192.23 15.9,37.2 31.8,72.82 47.7,107.64l-98.62 0.02c-9.86,-23.74 -19.88,-47.96 -30.05,-72.66 -27.82,-67.73 -56.28,-140.55 -84.75,-215.76 -28.77,6.04 -262.98,53.58 -372.21,28.94 -99.06,-22.43 -218.94,-78.39 -263.3,-176.33 -44.36,-97.94 -4.61,-214.01 99.37,-248.99 144.37,-48.5 364.58,115.43 445.19,224.82 4.77,6.52 47.71,82.2 75.37,130.53 -11.45,-30.84 -22.9,-60.58 -34.35,-92.37 -23.05,-62.81 -44.2,-126.08 -67.09,-194.14 -9.97,-33.17 -20.03,-66.78 -30.21,-100.8 -10.81,-33.39 -17.81,-70.12 -27.03,-105.42 -19.72,-82.36 -35.62,-166.79 -49.61,-252.33 -55.01,20.04 -251.53,88.41 -353.13,81.25 -101.6,-7.16 -228.32,-44.36 -286.2,-134.35 -57.88,-89.99 -37.05,-210.83 60.58,-261.23 135.15,-69.65 377.78,58.98 474.13,154.86 6.04,5.88 67.42,82.52 100.33,125.13 -8.11,-51.36 -15.9,-102.56 -22.89,-154.86 -18.77,-151.05 -33.07,-304.32 -47.71,-457.28 -4.61,-46.9 -9.7,-93.49 -14.62,-140.23 -19.4,7.47 -251.22,93.65 -365.7,85.7 -101.28,-7.16 -228.32,-44.36 -286.99,-134.35 -58.67,-90 -36.88,-210.99 60.58,-261.24 135.15,-69.8 377.78,58.83 474.14,154.71 7.31,7.31 95.4,117.65 116.54,146.75 -10.97,-102.87 -22.74,-205.27 -38.48,-305.59 -20.25,-135.44 -50.31,-270.54 -87.8,-402.12 -9.22,3.5 -250.58,94.61 -367.29,86.34 -101.28,-7 -228.32,-44.2 -286.98,-134.35 -58.67,-90.16 -36.86,-211.15 60.61,-262.03 135.3,-69.8 377.77,58.83 474.13,154.7 6.36,6.21 73.61,90.16 104.62,130.86l7.79 -3.97c-41.45,-131.48 -94.83,-259.55 -159.01,-381.65 -34.67,-67.73 -71.55,-130.54 -108.76,-190.8 -43.25,21.62 -241.84,117.98 -347.73,122.27 -101.44,3.97 -231.81,-19.08 -300.03,-102.08 -68.21,-82.99 -59.78,-205.59 31.8,-266.16 127.2,-84.27 381.6,17.01 488.45,101.6 3.97,3.18 30.68,29.57 59.46,58.51 0,-6.35 0,-13.67 0,-22.1l-12.72 -19.55c-63.6,-95.4 -127.2,-179.83 -185.39,-254.4 -33.07,-41.82 -63.6,-79.5 -92.86,-113.2 -53.42,-0.96 -268.86,-7.48 -362.99,-51.68 -94.12,-44.2 -197,-123.7 -219.26,-228.8 -22.26,-105.1 41.66,-210.19 150.74,-221.8 151.36,-15.9 331.19,190.8 386.52,315.3 4.77,10.65 60.1,187.13 57.39,187.13l-3.16 0.05c28.62,31.8 58.83,67.73 91.26,106.85 58.83,72.34 124.65,154.7 190.8,248.83 1.27,-146.28 27.19,-450.44 220.37,-468.89 254.39,-24.17 327.85,267.27 169.97,425.16 -111.3,111.3 -256.95,125.77 -334.69,124.97 48.97,72.98 98.1,151.53 143.89,236.59 67.51,121.53 124.86,249.94 169.66,381.48 0,1.43 0.8,3.18 1.43,4.77 -0.79,-44.68 1.11,-169.33 2.39,-178.87 17.49,-134.84 130.38,-385.1 280.16,-413.4 107.8,-19.87 199.22,64.55 207.81,169.49 8.58,104.94 -69.01,214.33 -144.69,281.91 -85.38,76.32 -322.45,150.09 -341.37,155.98 42.35,135.5 76.17,273.93 100.28,413.53 14.63,81.41 26.72,163.93 37.84,246.77 0,-38.64 1.28,-73.14 1.92,-77.92 17.48,-134.83 130.53,-384.93 280.15,-412.59 107.8,-20.04 199.23,64.55 207.81,169.33 8.75,107.16 -68.84,214.33 -144.68,281.9 -75.85,67.58 -277.61,135.79 -331.04,152.8 3.98,31.8 8.27,63.6 12.09,95.4 18.28,152.79 35.77,305.27 57.56,454.41 7.63,52.47 17.17,103.99 26.39,155.5 0,-34.34 1.27,-63.59 1.91,-67.57 17.49,-134.84 130.38,-384.94 280.16,-412.6 107.8,-20.04 199.22,64.55 207.81,169.33 8.58,104.78 -69.01,214.33 -144.69,282.06 -75.68,67.74 -258.06,128.95 -321.5,149.46 11.13,52.47 22.26,105.1 35.3,155.5 9.86,34.19 16.86,67.73 28.46,101.44l31.8 100.17c22.9,62.8 46.11,127.2 69.97,188.57 15.9,42.3 32.59,82.52 48.81,122.91 -8.27,-52.31 -22.1,-154.86 -22.42,-163.45 1.49,-119.53 33.86,-236.8 93.65,-340.32 -0.01,-1.83 -0.06,-3.85 -0.06,-5.76 0,-11.4 0.9,-22.86 2.62,-34.12 15.9,-103.83 114.32,-181.1 220.21,-152.8 147.23,39.12 240.41,297.33 247.4,433.12 0,7.95 -4.77,95.4 -9.06,150.41 7.48,-31.8 14.31,-63.6 22.26,-95.4 15.9,-65.19 32.75,-129.58 51.2,-199.06l30.37 -100.65c9.38,-33.87 23.69,-68.37 35.62,-102.87 29.09,-79.5 62.33,-159 97.78,-238.5 -56.92,-13.52 -258.53,-64.87 -339.46,-127.2 -80.94,-62.33 -167.12,-160.57 -167.12,-267.9 0,-107.32 85.55,-196.36 194.62,-184.44 151.36,15.91 282.7,257.42 310.2,390.66 1.59,8.27 10.66,105.89 14.47,159.8 21.62,-47.71 43.09,-95.4 66.46,-141.99 67.58,-136.1 140.4,-271.88 212.27,-407.67 22.1,-41.65 43.57,-83.31 65.19,-124.97 -20.36,-4.61 -261.08,-60.58 -351.71,-130.06 -80.61,-61.85 -165.99,-162.97 -165.19,-270.29 0.79,-107.32 85.54,-196.21 194.45,-184.44 151.37,15.9 282.7,257.58 310.21,390.65 2.06,10.02 14.79,150.74 15.9,186.67 47.7,-91.74 94.28,-183.64 136.58,-276.03 57.53,-123.95 107.85,-253.02 148.57,-383.63 -9.55,-2.07 -261.08,-59.31 -353.93,-130.54 -80.61,-61.69 -166,-162.81 -165.2,-270.29 0.8,-107.49 85.55,-196.37 194.62,-184.44 151.36,15.9 282.53,257.41 310.04,390.65 1.91,8.75 11.61,115.91 15.11,166.95l8.59 0.96c38.45,-132.79 65.22,-269.47 79.03,-406.98 8.58,-75.52 12.4,-148.35 14.62,-219.1 -47.7,-5.88 -266.79,-34.98 -357.42,-89.99 -86.81,-52.47 -182.85,-143.1 -193.98,-250.58 -11.13,-107.48 63.6,-204.47 173.15,-204.63 152.16,0 309.25,224.99 351.22,354.25 2.23,6.99 17.49,81.09 27.83,135.15 0,-31.8 1.59,-65.03 1.43,-95.4 0,-115.12 -7.48,-220.53 -14.63,-313.7 -4.45,-53.11 -9.7,-100.97 -14.94,-145.65 -44.05,-30.2 -220.06,-154.54 -274.28,-243.42 -54.22,-88.88 -95.4,-211.79 -56.6,-311.64 38.8,-99.84 150.57,-152.32 248.04,-101.92 135.15,69.8 170.76,342.01 148.34,477 -1.91,11.6 -52.94,189.37 -55.33,187.77l-2.7 -1.91c6.03,42.93 11.92,89.04 17.33,139.6 9.22,93.33 18.76,198.75 21.46,314.34 0,21.3 0.96,43.08 1.28,65.02 57.87,-89.51 241.04,-340.25 438.67,-286.19 238.89,62.72 183.72,274.04 -9.94,320.62z"/>
  </g>
  <g id="freepik--Calendar--inject-147">
   <g>
    <path fill="none" fill-rule="nonzero" fill-opacity="0.301961" stroke="black" stroke-width="26.46" stroke-linecap="round" stroke-linejoin="round" stroke-miterlimit="22.9256" stroke-opacity="0.301961" d="M10545.98 2809.11l0 1379.62 -1671.86 0 0 -1379.62 560.3 0 0 55.8c1.67,32.54 28.55,58.1 61.14,58.1 32.59,0 59.47,-25.56 61.13,-58.1l0 -55.8 306.71 0 0 55.8c-0.05,1.04 -0.08,2.09 -0.08,3.12 0,33.72 27.34,61.06 61.05,61.06 33.72,0 61.06,-27.34 61.06,-61.06 0,-1.03 -0.03,-2.08 -0.08,-3.11l0 -55.81 560.63 0z"/>
    <polygon fill="none" fill-rule="nonzero" fill-opacity="0.301961" stroke="black" stroke-width="26.46" stroke-linecap="round" stroke-linejoin="round" stroke-miterlimit="22.9256" stroke-opacity="0.301961" points="8975.08,3407.41 9185.11,3407.41 9185.11,3197.38 8975.08,3197.38 "/>
    <polygon fill="none" fill-rule="nonzero" fill-opacity="0.301961" stroke="black" stroke-width="26.46" stroke-linecap="round" stroke-linejoin="round" stroke-miterlimit="22.9256" stroke-opacity="0.301961" points="9290.06,3407.41 9500.09,3407.41 9500.09,3197.38 9290.06,3197.38 "/>
    <polygon fill="none" fill-rule="nonzero" fill-opacity="0.301961" stroke="black" stroke-width="26.46" stroke-linecap="round" stroke-linejoin="round" stroke-miterlimit="22.9256" stroke-opacity="0.301961" points="9605.03,3407.41 9815.06,3407.41 9815.06,3197.38 9605.03,3197.38 "/>
    <polygon fill="none" fill-rule="nonzero" fill-opacity="0.301961" stroke="black" stroke-width="26.46" stroke-linecap="round" stroke-linejoin="round" stroke-miterlimit="22.9256" stroke-opacity="0.301961" points="9920.01,3407.41 10130.04,3407.41 10130.04,3197.38 9920.01,3197.38 "/>
    <polygon fill="none" fill-rule="nonzero" fill-opacity="0.301961" stroke="black" stroke-width="26.46" stroke-linecap="round" stroke-linejoin="round" stroke-miterlimit="22.9256" stroke-opacity="0.301961" points="10234.98,3407.41 10445.01,3407.41 10445.01,3197.38 10234.98,3197.38 "/>
    <polygon fill="none" fill-rule="nonzero" fill-opacity="0.301961" stroke="black" stroke-width="26.46" stroke-linecap="round" stroke-linejoin="round" stroke-miterlimit="22.9256" stroke-opacity="0.301961" points="8975.08,3731.13 9185.11,3731.13 9185.11,3521.1 8975.08,3521.1 "/>
    <polygon fill="none" fill-rule="nonzero" fill-opacity="0.301961" stroke="black" stroke-width="26.46" stroke-linecap="round" stroke-linejoin="round" stroke-miterlimit="22.9256" stroke-opacity="0.301961" points="9290.06,3731.13 9500.09,3731.13 9500.09,3521.1 9290.06,3521.1 "/>
    <polygon fill="none" fill-rule="nonzero" fill-opacity="0.301961" stroke="black" stroke-width="26.46" stroke-linecap="round" stroke-linejoin="round" stroke-miterlimit="22.9256" stroke-opacity="0.301961" points="9605.03,3731.13 9815.06,3731.13 9815.06,3521.1 9605.03,3521.1 "/>
    <polygon fill="none" fill-rule="nonzero" fill-opacity="0.301961" stroke="black" stroke-width="26.46" stroke-linecap="round" stroke-linejoin="round" stroke-miterlimit="22.9256" stroke-opacity="0.301961" points="9920.01,3731.13 10130.04,3731.13 10130.04,3521.1 9920.01,3521.1 "/>
    <polygon fill="none" fill-rule="nonzero" fill-opacity="0.301961" stroke="black" stroke-width="26.46" stroke-linecap="round" stroke-linejoin="round" stroke-miterlimit="22.9256" stroke-opacity="0.301961" points="10234.98,3731.13 10445.01,3731.13 10445.01,3521.1 10234.98,3521.1 "/>
    <polygon fill="none" fill-rule="nonzero" fill-opacity="0.301961" stroke="black" stroke-width="26.46" stroke-linecap="round" stroke-linejoin="round" stroke-miterlimit="22.9256" stroke-opacity="0.301961" points="8975.08,4054.85 9185.11,4054.85 9185.11,3844.82 8975.08,3844.82 "/>
    <polygon fill="none" fill-rule="nonzero" fill-opacity="0.301961" stroke="black" stroke-width="26.46" stroke-linecap="round" stroke-linejoin="round" stroke-miterlimit="22.9256" stroke-opacity="0.301961" points="9290.06,4054.85 9500.09,4054.85 9500.09,3844.82 9290.06,3844.82 "/>
    <polygon fill="none" fill-rule="nonzero" fill-opacity="0.301961" stroke="black" stroke-width="26.46" stroke-linecap="round" stroke-linejoin="round" stroke-miterlimit="22.9256" stroke-opacity="0.301961" points="9605.03,4054.85 9815.06,4054.85 9815.06,3844.82 9605.03,3844.82 "/>
    <polygon fill="none" fill-rule="nonzero" fill-opacity="0.301961" stroke="black" stroke-width="26.46" stroke-linecap="round" stroke-linejoin="round" stroke-miterlimit="22.9256" stroke-opacity="0.301961" points="9920.01,4054.85 10130.04,4054.85 10130.04,3844.82 9920.01,3844.82 "/>
    <polygon fill="none" fill-rule="nonzero" fill-opacity="0.301961" stroke="black" stroke-width="26.46" stroke-linecap="round" stroke-linejoin="round" stroke-miterlimit="22.9256" stroke-opacity="0.301961" points="10234.98,4054.85 10445.01,4054.85 10445.01,3844.82 10234.98,3844.82 "/>
    <path fill="black" fill-rule="nonzero" fill-opacity="0.301961" stroke="black" stroke-width="26.46" stroke-linecap="round" stroke-linejoin="round" stroke-miterlimit="22.9256" stroke-opacity="0.301961" d="M9556.69 2654.88l0 210.03c-1.66,32.54 -28.54,58.1 -61.13,58.1 -32.59,0 -59.47,-25.56 -61.13,-58.1l-0.01 -210.03c1.67,-32.54 28.55,-58.09 61.14,-58.09 32.59,0 59.47,25.55 61.13,58.09l0 0z"/>
    <path fill="black" fill-rule="nonzero" fill-opacity="0.301961" stroke="black" stroke-width="26.46" stroke-linecap="round" stroke-linejoin="round" stroke-miterlimit="22.9256" stroke-opacity="0.301961" d="M9985.35 2654.88l0 210.03c0.05,1.04 0.08,2.09 0.08,3.12 0,33.72 -27.34,61.06 -61.06,61.06 -33.71,0 -61.05,-27.34 -61.05,-61.06 0,-1.03 0.03,-2.08 0.08,-3.11l0 -210.04c1.66,-32.46 28.47,-57.94 60.97,-57.94 32.51,0 59.32,25.48 60.98,57.93l0 0.01z"/>
   </g>
  </g>
  <g id="freepik--Chart--inject-147">
   <g>
    <polygon fill="none" fill-rule="nonzero" fill-opacity="0.301961" stroke="black" stroke-width="26.46" stroke-linecap="round" stroke-linejoin="round" stroke-miterlimit="22.9256" stroke-opacity="0.301961" points="5906.58,9268.24 6138.24,9268.24 6138.24,8731.78 5906.58,8731.78 "/>
    <polygon fill="none" fill-rule="nonzero" fill-opacity="0.301961" stroke="black" stroke-width="26.46" stroke-linecap="round" stroke-linejoin="round" stroke-miterlimit="22.9256" stroke-opacity="0.301961" points="6216.62,9268.24 6448.29,9268.24 6448.29,8457.51 6216.62,8457.51 "/>
    <polygon fill="none" fill-rule="nonzero" fill-opacity="0.301961" stroke="black" stroke-width="26.46" stroke-linecap="round" stroke-linejoin="round" stroke-miterlimit="22.9256" stroke-opacity="0.301961" points="6526.51,9268.24 6758.17,9268.24 6758.17,8111.85 6526.51,8111.85 "/>
    <polygon fill="none" fill-rule="nonzero" fill-opacity="0.301961" stroke="black" stroke-width="26.46" stroke-linecap="round" stroke-linejoin="round" stroke-miterlimit="22.9256" stroke-opacity="0.301961" points="6836.56,9268.24 7068.22,9268.24 7068.22,7873.35 6836.56,7873.35 "/>
   </g>
  </g>
  <g id="freepik--Target--inject-147">
   <g>
    <path fill="none" fill-rule="nonzero" fill-opacity="0.301961" stroke="black" stroke-width="26.46" stroke-miterlimit="22.9256" stroke-opacity="0.301961" d="M2836.37 947.79c-563.36,-256.26 -1227.81,-7.31 -1484.08,556.06 -256.26,563.37 -7.31,1227.81 556.06,1484.08 563.37,256.26 1227.81,7.31 1484.08,-556.06 256.26,-563.37 7.31,-1227.81 -556.06,-1484.08z"/>
    <path fill="none" fill-rule="nonzero" fill-opacity="0.301961" stroke="black" stroke-width="26.46" stroke-miterlimit="22.9256" stroke-opacity="0.301961" d="M3006.86 1333.17c-350.45,-350.45 -918.66,-350.45 -1269.11,0 -350.46,350.46 -350.46,918.66 0,1269.12 350.45,350.46 918.66,350.46 1269.11,0 350.46,-350.46 350.46,-918.66 0,-1269.12z"/>
    <path fill="none" fill-rule="nonzero" fill-opacity="0.301961" stroke="black" stroke-width="26.46" stroke-miterlimit="22.9256" stroke-opacity="0.301961" d="M2778.58 1561.45c-224.38,-224.38 -588.17,-224.38 -812.55,0 -224.39,224.38 -224.39,588.18 0,812.56 224.38,224.38 588.17,224.38 812.55,0 224.39,-224.38 224.39,-588.18 0,-812.56z"/>
    <path fill="none" fill-rule="nonzero" fill-opacity="0.301961" stroke="black" stroke-width="26.46" stroke-miterlimit="22.9256" stroke-opacity="0.301961" d="M2601.93 1738.11c-126.82,-126.81 -332.43,-126.81 -459.25,0 -126.81,126.81 -126.81,332.43 0,459.24 126.82,126.82 332.43,126.82 459.25,0 126.81,-126.81 126.81,-332.43 0,-459.24z"/>
    <path fill="none" fill-rule="nonzero" fill-opacity="0.301961" stroke="black" stroke-width="26.46" stroke-miterlimit="22.9256" stroke-opacity="0.301961" d="M2509.4 1967.56c-0.55,-75.32 -61.81,-136.09 -137.14,-136.09 -75.74,0 -137.15,61.42 -137.15,137.15 0,75.65 61.28,137.04 136.93,137.16 0.07,0 0.15,0 0.22,0 75.74,0 137.15,-61.42 137.15,-137.16 0,-0.35 0,-0.7 0,-1.05l-0.01 -0.01z"/>
   </g>
   <path fill="#B2B2B2" fill-rule="nonzero" d="M2345.24 1994.79l-1507.21 0 0 -54.23 1507.21 0c14.83,0.1 26.8,12.17 26.8,27 0,0 0,0 0,0l0 0c0,0.08 0,0.15 0,0.22 0,14.83 -11.97,26.9 -26.8,27.01z"/>
   <polygon fill="#B2B2B2" fill-rule="nonzero" points="704.05,1774.29 712.48,1784 869.89,1940.34 398.72,1940.34 230.12,1774.29 "/>
   <path fill="#B2B2B2" fill-rule="nonzero" d="M230.12 2154.52l168.81 -160.15 471.39 0c-61.72,46.62 -117.98,100.54 -167.34,160.13l-472.86 0.02z"/>
  </g>
  <g id="freepik--Floor--inject-147">
   <line fill="none" fill-rule="nonzero" stroke="#263238" stroke-width="26.46" stroke-linecap="round" stroke-linejoin="round" stroke-miterlimit="22.9256" x1="10966.69" y1="9394.49" x2="11415.22" y2= "9394.49" />
   <line fill="none" fill-rule="nonzero" stroke="#263238" stroke-width="26.46" stroke-linecap="round" stroke-linejoin="round" stroke-miterlimit="22.9256" x1="3551.82" y1="9394.49" x2="10784.47" y2= "9394.49" />
   <line fill="none" fill-rule="nonzero" stroke="#263238" stroke-width="26.46" stroke-linecap="round" stroke-linejoin="round" stroke-miterlimit="22.9256" x1="89.8" y1="9394.49" x2="3439.72" y2= "9394.49" />
  </g>
  <g id="freepik--character-3--inject-147">
   <path fill="gray" fill-rule="nonzero" stroke="#263238" stroke-width="26.46" stroke-linecap="round" stroke-linejoin="round" stroke-miterlimit="22.9256" d="M7692.28 8285.3l40.98 309.9c0,0 50.1,382.9 61.63,471.74 11.54,88.84 6.72,323.5 6.72,323.5l-175.44 0.01 -2.24 -330.39 4.48 -565.05 63.87 -209.71z"/>
   <path fill="white" fill-rule="nonzero" stroke="#263238" stroke-width="26.46" stroke-linecap="round" stroke-linejoin="round" stroke-miterlimit="22.9256" d="M7802.47 9295.07c0,54.4 -0.86,95.38 -0.86,95.38l-175.44 0 -0.86 -138.76 177.16 43.38z"/>
   <path fill="white" fill-rule="nonzero" stroke="#263238" stroke-width="26.46" stroke-linecap="round" stroke-linejoin="round" stroke-miterlimit="22.9256" d="M7802.12 9354.12c0,14.98 0,26.34 0,32.02l0 2.41 0 0 0 1.72 -175.95 0 0 -36.33 175.95 0.18z"/>
   <path fill="white" fill-rule="nonzero" stroke="#263238" stroke-width="26.46" stroke-linecap="round" stroke-linejoin="round" stroke-miterlimit="22.9256" d="M7432.48 9221.9c0,0 -66.11,66.11 -97.96,79.71 -31.86,13.6 -81.95,18.25 -88.85,34.43 -2.44,12.38 -3.69,25.04 -3.69,37.68 0,7.94 0.49,15.92 1.46,23.79l435.24 -0.01c4.85,-16.62 7.32,-33.88 7.32,-51.21 0,-4.97 -0.2,-9.94 -0.6,-14.89 -1.87,-14.1 -5.73,-27.93 -11.37,-40.98 -5.64,-13.06 -214.17,-70.76 -241.55,-68.52z"/>
   <path fill="white" fill-rule="nonzero" stroke="#263238" stroke-width="26.46" stroke-linecap="round" stroke-linejoin="round" stroke-miterlimit="22.9256" d="M7678.68 9397.33l-435.58 0c-0.91,-10.1 -1.43,-20.34 -1.43,-30.53 0,-1.99 0.04,-4.02 0.04,-5.97l443.86 0.01c-1.27,12.29 -3.61,24.57 -6.89,36.48l0 0.01z"/>
   <path fill="#A1A1A1" fill-rule="nonzero" stroke="#263238" stroke-width="26.46" stroke-linecap="round" stroke-linejoin="round" stroke-miterlimit="22.9256" d="M7804.02 7845.59c0,0 -2.41,138.94 -22.9,177.68 -20.49,38.74 -61.47,104.85 -61.47,104.85 0,0 -52.51,430.42 -43.39,471.74 9.13,41.32 38.74,148.06 36.5,223.81 -2.24,75.76 -40.97,391.86 -40.97,391.86 0,0 11.36,20.49 9.12,27.37 -2.24,6.89 -6.89,47.86 -6.89,47.86 0,0 -70.59,-11.36 -120.51,-25.14 -40.75,-12.13 -81.28,-26.84 -120.46,-43.2 -2.91,-8.2 -4.38,-16.86 -4.38,-25.54 0,-6 0.71,-12.02 2.09,-17.85 6.89,-15.84 25.14,-61.47 25.14,-61.47 0,0 -6.89,-268.92 -6.89,-314.38 0,-45.45 -36.49,-243.95 -36.49,-284.94 0,-40.98 -43.22,-421.46 -36.5,-464.85 6.71,-43.39 11.54,-109.33 11.54,-109.33l-11.54 -103.3 428 4.83z"/>
   <path fill="none" fill-rule="nonzero" stroke="#263238" stroke-width="26.46" stroke-linecap="round" stroke-linejoin="round" stroke-miterlimit="22.9256" d="M7565.91 8185.62c1.73,125.34 4.31,353.12 1.04,389.1"/>
   <path fill="none" fill-rule="nonzero" stroke="#263238" stroke-width="26.46" stroke-linecap="round" stroke-linejoin="round" stroke-miterlimit="22.9256" d="M7564.7 8102.98c0,0 0,15.49 0,40.63"/>
   <path fill="none" fill-rule="nonzero" stroke="#263238" stroke-width="26.46" stroke-linecap="round" stroke-linejoin="round" stroke-miterlimit="22.9256" d="M7571.6 8624.82c0,0 13.6,91.25 18.07,202.81 4.48,111.57 -15.84,348.64 -15.84,348.64 4.26,10.21 7.34,20.94 9.12,31.85 -3.08,13.37 -7.72,26.39 -13.76,38.72"/>
   <path fill="#6DA4FD" fill-rule="nonzero" stroke="#263238" stroke-width="26.46" stroke-linecap="round" stroke-linejoin="round" stroke-miterlimit="22.9256" d="M7742.38 7081.86c0,0 101.06,158.57 116.73,221.24 15.67,62.67 -41.83,378.76 -41.83,378.76 0,0 22.73,144.62 15.67,158.57 -5.21,9.45 -12.33,17.79 -20.84,24.44l-439.03 0c-9.43,-15.65 -16.54,-32.73 -21,-50.45 -1.45,-8.42 -2.18,-16.99 -2.18,-25.54 0,-13.76 1.91,-27.52 5.63,-40.75 8.78,-29.61 29.62,-369.47 50.62,-432.14 21.01,-62.66 112.42,-178.35 112.42,-178.35l223.81 -55.78z"/>
   <path fill="white" fill-rule="nonzero" stroke="#263238" stroke-width="26.46" stroke-linecap="round" stroke-linejoin="round" stroke-miterlimit="22.9256" d="M7439.37 6850.64c2.93,-21.35 36.84,-39.43 48.21,-55.79 11.36,-16.36 4.64,-31.68 13.77,-50.27 27.2,-54.58 47.69,-105.54 111.4,-120.52 79.19,-17.22 203.15,22.73 240,92.11 14.4,30 21.94,62.95 21.94,96.27 0,25.51 -4.39,50.87 -12.99,74.86 -9.08,27.32 -24.99,51.94 -46.15,71.45 -6.37,5.68 -76.78,38.56 -76.1,34.43l-7.06 55.79 -196.61 50.28 -8.78 -87.12c-19.25,-0.01 -38.58,-1.8 -57.51,-5.17 -22.55,-5.34 -29.61,-13.95 -24.44,-33.23 5.16,-19.28 21,-87.12 21,-87.12 -9.25,-6.12 -17.43,-13.84 -24.1,-22.72 -1.82,-3.18 -2.77,-6.78 -2.77,-10.44 0,-0.94 0.06,-1.89 0.18,-2.82l0.01 0.01z"/>
   <path fill="#263238" fill-rule="nonzero" d="M7517.19 6789c-3.44,10.67 -1.55,20.83 4.13,22.73 5.68,1.9 13.43,-5.17 17.22,-15.84 3.79,-10.67 1.72,-20.83 -4.13,-22.73 -5.86,-1.9 -13.61,5.17 -17.22,15.84z"/>
   <path fill="none" fill-rule="nonzero" stroke="#263238" stroke-width="26.46" stroke-linecap="round" stroke-linejoin="round" stroke-miterlimit="22.9256" d="M7564.19 6761.97c-4.07,-16.22 -18.67,-27.61 -35.4,-27.61 -1.8,0 -3.62,0.14 -5.41,0.4"/>
   <path fill="none" fill-rule="nonzero" stroke="#263238" stroke-width="26.46" stroke-linecap="round" stroke-linejoin="round" stroke-miterlimit="22.9256" d="M7474.32 6919.51c2.28,0.32 4.63,0.49 6.94,0.49 13.49,0 26.34,-5.69 35.41,-15.65"/>
   <path fill="#263238" fill-rule="nonzero" stroke="#263238" stroke-width="26.46" stroke-linecap="round" stroke-linejoin="round" stroke-miterlimit="22.9256" d="M7735.5 6927.43c17.21,-25.65 8.61,-74.21 -19.97,-86.09 -28.58,-11.87 -62.84,31.51 -71.28,28.58 -8.44,-2.92 19.97,-51.65 19.97,-51.65 -18.46,-10.73 -33.38,-26.68 -42.87,-45.8 -8.61,-25.65 51.65,-51.65 68.86,-54.23 17.21,-2.57 -77.13,-94.34 -77.13,-94.34 79.2,-17.22 203.16,22.73 240.01,92.11 14.41,29.99 21.94,62.94 21.94,96.26 0,25.52 -4.39,50.87 -12.98,74.87 -9.08,27.31 -24.99,51.93 -46.15,71.43 -23.1,13.66 -47.51,25.18 -72.67,34.42l-3.43 0.03 -49.59 -34.44c18.36,-4.57 34.46,-15.67 45.29,-31.17l0 0.02z"/>
   <polygon fill="#263238" fill-rule="nonzero" stroke="#263238" stroke-width="26.46" stroke-linecap="round" stroke-linejoin="round" stroke-miterlimit="22.9256" points="7503.76,7162.43 7436.1,7256.43 7413.54,7752.62 7375.5,7840.95 7327.12,7681.17 7427.49,7238.7 7496.35,7122.31 "/>
   <polygon fill="#6DA4FD" fill-rule="nonzero" stroke="#263238" stroke-width="26.46" stroke-linecap="round" stroke-linejoin="round" stroke-miterlimit="22.9256" points="7739.46,7027.8 7497.22,7108.03 7506,7205.48 7758.56,7088.74 "/>
   <polygon fill="#263238" fill-rule="nonzero" stroke="#263238" stroke-width="26.46" stroke-linecap="round" stroke-linejoin="round" stroke-miterlimit="22.9256" points="7526.83,7012.13 7573.83,7008.69 7535.61,7066.19 "/>
   <polygon fill="#DEDEDE" fill-rule="nonzero" stroke="#263238" stroke-width="26.46" stroke-linecap="round" stroke-linejoin="round" stroke-miterlimit="22.9256" points="6873.46,7214.25 7108.64,7041.74 7221.92,7496.61 7187.14,7534.83 "/>
   <path fill="white" fill-rule="nonzero" stroke="#263238" stroke-width="26.46" stroke-linecap="round" stroke-linejoin="round" stroke-miterlimit="22.9256" d="M6976.24 6977.36l222.95 530.27 214.35 245.68 -130.67 108.12 -194.72 -300.43c0,0 -249.12,-313.69 -256.18,-334.53 -7.06,-20.83 144.27,-249.11 144.27,-249.11z"/>
   <path fill="white" fill-rule="nonzero" stroke="#263238" stroke-width="26.46" stroke-linecap="round" stroke-linejoin="round" stroke-miterlimit="22.9256" d="M7387.2 7530.01l-128.6 -48.55c0,0 -37.19,-54.23 -42.87,-65.6 -5.68,-11.36 -68.87,-34.43 -77.13,-42.87 -8.26,-8.43 -37.02,-39.94 -39.94,-25.65 -2.92,14.29 -8.61,28.41 5.68,37.02 15.92,13.57 30.38,28.98 42.86,45.78 12.48,16.8 -68.87,-5.86 -74.21,11.36 -5.34,17.22 11.36,51.65 11.36,51.65 11.29,1.14 22.12,5.06 31.51,11.38 8.44,8.61 25.66,45.62 45.63,54.23 19.97,8.61 91.41,11.54 91.41,11.54l79.89 62.67 54.41 -102.96z"/>
   <path fill="#6DA4FD" fill-rule="nonzero" stroke="#263238" stroke-width="26.46" stroke-linecap="round" stroke-linejoin="round" stroke-miterlimit="22.9256" d="M7303.7 7494.89l-37.7 -14.12c0,0 -37.53,91.76 -34.43,92.79l38.73 11.88 33.4 -90.55z"/>
   <g>
    <path fill="#6DA4FD" fill-rule="nonzero" d="M7799.55 7297.24c3.98,12.86 6.03,26.31 6.03,39.78 0,0.33 0,0.69 0,1.02 -1.73,33.05 -94,423.36 -101.06,447.63 -7.06,24.28 -64.39,38.23 -81.79,33.06 -17.39,-5.17 -355,-211.59 -358.45,-220.38 -3.44,-8.78 22.56,-106.05 39.95,-111.39 17.38,-5.34 234.83,86.08 234.83,86.08 0,0 9.81,-244.99 24.79,-287.69l235.7 11.89zm0 0l0 0 0 0z"/>
    <path id="_1" fill="none" fill-rule="nonzero" stroke="#263238" stroke-width="26.46" stroke-linecap="round" stroke-linejoin="round" stroke-miterlimit="22.9256" d="M7799.55 7297.24c3.98,12.86 6.03,26.31 6.03,39.78 0,0.33 0,0.69 0,1.02 -1.73,33.05 -94,423.36 -101.06,447.63 -7.06,24.28 -64.39,38.23 -81.79,33.06 -17.39,-5.17 -355,-211.59 -358.45,-220.38 -3.44,-8.78 22.56,-106.05 39.95,-111.39 17.38,-5.34 234.83,86.08 234.83,86.08 0,0 9.81,-244.99 24.79,-287.69m235.7 11.89l0 0 0 0z"/>
   </g>
   <line fill="none" fill-rule="nonzero" stroke="#263238" stroke-width="26.46" stroke-linecap="round" stroke-linejoin="round" stroke-miterlimit="22.9256" x1="7549.56" y1="7576.67" x2="7627.89" y2= "7618.5" />
   <line fill="none" fill-rule="nonzero" stroke="#263238" stroke-width="26.46" stroke-linecap="round" stroke-linejoin="round" stroke-miterlimit="22.9256" x1="7629.61" y1="7592.34" x2="7577.45" y2= "7580.11" />
  </g>
  <g id="freepik--character-2--inject-147">
   <polygon fill="white" fill-rule="nonzero" stroke="#263238" stroke-width="26.46" stroke-linecap="round" stroke-linejoin="round" stroke-miterlimit="22.9256" points="3773.42,3790.21 3840.52,4090.08 4049.28,4035.7 4067.73,4096.44 3763.24,4282.15 3697.26,4132.53 "/>
   <polygon fill="white" fill-rule="nonzero" stroke="#263238" stroke-width="26.46" stroke-linecap="round" stroke-linejoin="round" stroke-miterlimit="22.9256" points="3469.1,3689.56 3262.09,3787.19 3314.4,4264.66 3657.2,4270.54 3752.91,4050.65 3773.42,3790.21 3618.72,3713.57 "/>
   <path fill="white" fill-rule="nonzero" stroke="#263238" stroke-width="26.46" stroke-linecap="round" stroke-linejoin="round" stroke-miterlimit="22.9256" d="M3411.7 3721.84l42.45 180.78 219.73 14.15 -14.15 -173.63 -41.02 -29.89c0,0 -175.21,-44.2 -207.01,8.59z"/>
   <path fill="white" fill-rule="nonzero" stroke="#263238" stroke-width="26.46" stroke-linecap="round" stroke-linejoin="round" stroke-miterlimit="22.9256" d="M3650.99 3337.38c45.95,6.2 88.56,28.94 106.21,67.41 28.78,62.33 4.78,124.82 14.47,139.13 9.27,16.99 17.34,34.81 24.01,52.97l-38.48 24.01c0,0 -40.55,75.36 -54.86,84.9 -14.3,9.55 -69.96,-17.8 -69.96,-17.8l-38.47 72.03 -124.82 -105.58 52.95 -100.8c0,0 -47.7,-91.27 -24.01,-148.83 22.43,-53.92 90.8,-75.71 152.96,-67.44z"/>
   <path fill="#263238" fill-rule="nonzero" d="M3749.73 3542.17c0,10.66 -4.14,19.4 -9.23,19.4 -5.09,0 -9.22,-8.74 -9.22,-19.4 0,-10.65 4.13,-19.39 9.22,-19.39 5.09,0 9.23,8.26 9.23,19.39z"/>
   <g>
    <path fill="white" fill-rule="nonzero" d="M3727.47 3639c-9.89,-1.96 -18.67,-7.66 -24.48,-15.9l24.48 15.9zm0 0l0 0 0 0z"/>
    <path id="_1_28" fill="none" fill-rule="nonzero" stroke="#263238" stroke-width="26.46" stroke-linecap="round" stroke-linejoin="round" stroke-miterlimit="22.9256" d="M3727.47 3639c-9.89,-1.96 -18.67,-7.66 -24.48,-15.9m24.48 15.9l0 0 0 0z"/>
   </g>
   <g>
    <path fill="white" fill-rule="nonzero" d="M3725.4 3498.29c0,0 22.42,-12.24 31.8,4.13l-31.8 -4.13zm0 0l0 0 0 0z"/>
    <path id="_1_29" fill="none" fill-rule="nonzero" stroke="#263238" stroke-width="26.46" stroke-linecap="round" stroke-linejoin="round" stroke-miterlimit="22.9256" d="M3725.4 3498.29c0,0 22.42,-12.24 31.8,4.13m-31.8 -4.13l0 0 0 0z"/>
   </g>
   <path fill="#263238" fill-rule="nonzero" stroke="#263238" stroke-width="26.46" stroke-linecap="round" stroke-linejoin="round" stroke-miterlimit="22.9256" d="M3314.24 4264.66c0,0 -96.68,101.12 -114.33,294.78 -17.65,193.66 -44.04,558.88 -44.04,558.88l-92.38 580.98 114.33 4.29 184.91 -567.62 123.22 -445.19 145.17 448.85 95.39 568.73 110.03 -13.2 -7.95 -696.25 -17.65 -113.2c-23.36,-149.84 -64.34,-296.8 -122.04,-436.93l-5.41 -13.2 -27.03 -165.68 -342.22 -5.24z"/>
   <path fill="#263238" fill-rule="nonzero" stroke="#263238" stroke-width="26.46" stroke-linecap="round" stroke-linejoin="round" stroke-miterlimit="22.9256" d="M3769.13 3407.66c0,0 11.6,47.7 -58.67,95.4l-70.44 47.7c0,0 -8.9,330.08 -17.65,347.73 -8.74,17.64 -220.05,-171.72 -206.7,-211.31 15.81,-57.03 25.89,-115.87 30.21,-174.94 0,-30.68 5.09,-116.07 57.88,-168.86 52.78,-52.78 281.59,-39.59 294.78,4.46 1.82,5.08 2.76,10.4 2.76,15.75 0,20.12 -13.01,37.94 -32.16,44.06l-0.01 0.01z"/>
   <path fill="white" fill-rule="nonzero" stroke="#263238" stroke-width="26.46" stroke-linecap="round" stroke-linejoin="round" stroke-miterlimit="22.9256" d="M3262.09 3787.19l-238.5 397.49 -59.79 360.93 63.6 4.92 119.09 -343.91 138.97 -169.96c0,0 8.11,-185.39 -23.37,-249.47z"/>
   <path fill="white" fill-rule="nonzero" stroke="#263238" stroke-width="26.46" stroke-linecap="round" stroke-linejoin="round" stroke-miterlimit="22.9256" d="M3088.46 4630.99c0,0 -26.24,-34.98 -29.1,-39.27 -2.86,-4.29 -31.8,-40.55 -31.8,-40.55 0,0 -55.81,-21.78 -63.6,-4.93 -7.79,16.86 -20.83,138.33 -22.26,148.51 -1.43,10.17 10.18,17.49 10.18,17.49l10.17 -49.46c0,0 4.29,50.89 4.29,65.35 0,14.46 14.47,11.6 14.47,11.6l4.45 -75.52c0,0 14.47,61.05 17.34,75.52 0.24,4.84 4.23,8.63 9.06,8.63 3.72,0 7.08,-2.28 8.43,-5.75 0,-4.29 2.86,-85.55 2.86,-85.55 0,0 13.05,49.29 15.91,60.9 2.86,11.61 15.9,-4.61 15.9,-4.61l-2.55 -79.5c0,0 6.84,3.5 25.76,10.82 18.92,7.31 10.49,-13.68 10.49,-13.68z"/>
   <line fill="none" fill-rule="nonzero" stroke="#263238" stroke-width="26.46" stroke-linecap="round" stroke-linejoin="round" stroke-miterlimit="22.9256" x1="3052.53" y1="4634.65" x2="3037.58" y2= "4591.72" />
   <path fill="white" fill-rule="nonzero" stroke="#263238" stroke-width="26.46" stroke-linecap="round" stroke-linejoin="round" stroke-miterlimit="22.9256" d="M4049.28 4035.7l24.81 -72.03 42.93 -36.41c0,0 2.07,-34.34 14.95,-36.41 12.87,-2.07 17.17,4.29 14.94,23.53 -2.28,13.75 -7.39,26.94 -14.94,38.65 -7.56,11.71 27.82,-19.4 34.18,-8.59 6.37,10.81 4.29,107 -2.06,119.89 -6.36,12.88 -96.36,31.8 -96.36,31.8l-18.45 -60.43z"/>
   <g>
    <path fill="white" fill-rule="nonzero" d="M4131.32 3953.02l-22.89 23.22c0,0 -8.59,87.76 0,87.76l55.65 0 -32.76 -110.98zm0 0l0 0 0 0z"/>
    <path id="_1_30" fill="none" fill-rule="nonzero" stroke="#263238" stroke-width="26.46" stroke-linecap="round" stroke-linejoin="round" stroke-miterlimit="22.9256" d="M4131.32 3953.02l-22.89 23.22c0,0 -8.59,87.76 0,87.76l55.65 0m-32.76 -110.98l0 0 0 0z"/>
   </g>
   <path fill="white" fill-rule="nonzero" stroke="#263238" stroke-width="26.46" stroke-linecap="round" stroke-linejoin="round" stroke-miterlimit="22.9256" d="M3063.49 5699.3l-31.8 89.36c-11.68,19.67 -20.09,41.21 -24.79,63.6 -3.5,28.31 106.37,14.15 124.02,14.15 1.9,0.15 3.83,0.24 5.75,0.24 14.78,0 29.13,-5.03 40.68,-14.24 10.65,-10.66 0,-148.83 0,-148.83l-113.86 -4.28z"/>
   <path fill="white" fill-rule="nonzero" stroke="#263238" stroke-width="26.46" stroke-linecap="round" stroke-linejoin="round" stroke-miterlimit="22.9256" d="M3837.18 5698.02l38.8 78.39c0,0 88.56,35.46 92.22,56.77 3.66,21.3 0,31.8 -21.3,35.29 -21.31,3.5 -248.2,0 -248.2,0l0 -70.75c0,-17.81 28.46,-86.49 28.46,-86.49l110.02 -13.21z"/>
   <polygon fill="white" fill-rule="nonzero" stroke="#263238" stroke-width="26.46" stroke-linecap="round" stroke-linejoin="round" stroke-miterlimit="22.9256" points="4287.46,7896.65 4239.61,7944.51 2330.68,6446.74 2378.37,6399.05 "/>
   <polygon fill="white" fill-rule="nonzero" stroke="#263238" stroke-width="26.46" stroke-linecap="round" stroke-linejoin="round" stroke-miterlimit="22.9256" points="2330.68,7896.65 2378.37,7944.51 4287.46,6446.74 4239.61,6399.05 "/>
   <rect fill="white" fill-rule="nonzero" stroke="#263238" stroke-width="26.46" stroke-linecap="round" stroke-linejoin="round" stroke-miterlimit="22.9256" x="4260.27" y="5957.67" width="67.58" height="3436.82"/>
   <rect fill="white" fill-rule="nonzero" stroke="#263238" stroke-width="26.46" stroke-linecap="round" stroke-linejoin="round" stroke-miterlimit="22.9256" x="2337.99" y="5957.67" width="67.58" height="3436.82"/>
   <rect fill="white" fill-rule="nonzero" stroke="#263238" stroke-width="26.46" stroke-linecap="round" stroke-linejoin="round" stroke-miterlimit="22.9256" transform="matrix(1.59155E-14 -0.600937 0.600937 1.59155E-14 2368.99 6445.48)" width="112.45" height="3145.63"/>
   <rect fill="white" fill-rule="nonzero" stroke="#263238" stroke-width="26.46" stroke-linecap="round" stroke-linejoin="round" stroke-miterlimit="22.9256" transform="matrix(1.59155E-14 -0.600937 0.600937 1.59155E-14 2368.84 7971.86)" width="112.45" height="3145.63"/>
   <polygon fill="white" fill-rule="nonzero" stroke="#263238" stroke-width="26.46" stroke-linecap="round" stroke-linejoin="round" stroke-miterlimit="22.9256" points="3990.77,7896.65 3942.91,7944.51 2033.99,6446.74 2081.85,6399.05 "/>
   <polygon fill="white" fill-rule="nonzero" stroke="#263238" stroke-width="26.46" stroke-linecap="round" stroke-linejoin="round" stroke-miterlimit="22.9256" points="2033.99,7896.65 2081.85,7944.51 3990.77,6446.74 3942.91,6399.05 "/>
   <rect fill="white" fill-rule="nonzero" stroke="#263238" stroke-width="26.46" stroke-linecap="round" stroke-linejoin="round" stroke-miterlimit="22.9256" transform="matrix(1.59155E-14 -0.600937 0.600937 1.59155E-14 2072.3 6445.47)" width="112.45" height="3145.63"/>
   <rect fill="white" fill-rule="nonzero" stroke="#263238" stroke-width="26.46" stroke-linecap="round" stroke-linejoin="round" stroke-miterlimit="22.9256" transform="matrix(1.59155E-14 -0.600937 0.600937 1.59155E-14 2072.3 7971.69)" width="112.45" height="3145.63"/>
   <rect fill="white" fill-rule="nonzero" stroke="#263238" stroke-width="26.46" stroke-linecap="round" stroke-linejoin="round" stroke-miterlimit="22.9256" x="2009.5" y="5957.67" width="67.58" height="2975.17"/>
   <rect fill="white" fill-rule="nonzero" stroke="#263238" stroke-width="26.46" stroke-linecap="round" stroke-linejoin="round" stroke-miterlimit="22.9256" x="3960.88" y="5957.67" width="67.58" height="3436.82"/>
   <rect fill="#263238" fill-rule="nonzero" stroke="#263238" stroke-width="26.46" stroke-linecap="round" stroke-linejoin="round" stroke-miterlimit="22.9256" x="1893.27" y="5873.24" width="2549.05" height="129.11"/>
  </g>
  <g id="freepik--Gears--inject-147">
   <line fill="none" fill-rule="nonzero" stroke="#263238" stroke-width="26.46" stroke-linecap="round" stroke-linejoin="round" stroke-miterlimit="22.9256" x1="4567.74" y1="4823.21" x2="4567.74" y2= "817.84" />
   <line fill="none" fill-rule="nonzero" stroke="#263238" stroke-width="26.46" stroke-linecap="round" stroke-linejoin="round" stroke-miterlimit="22.9256" x1="6928.22" y1="3214.07" x2="6928.22" y2= "817.84" />
   <path fill="#263238" fill-rule="nonzero" stroke="#263238" stroke-width="26.46" stroke-linecap="round" stroke-linejoin="round" stroke-miterlimit="22.9256" d="M6188.8 6747.8c0,-18.91 1.14,-37.82 0,-56.73 -9.15,-200.11 -59.09,-397.13 -145.84,-577.74l487.57 -427.39 -447.06 -509.09 -116.87 0 -10.22 111.39 0 0 -339.07 297.47c-176.75,-138.7 -383.37,-235.91 -602.92,-283.61l-30.07 -630.87 -116.84 -0.06 -530.64 638.25c-220.85,54.22 -426.79,159.01 -600.96,305.2l-508.94 -367.42 -116.86 0 16.45 75.65 32.33 18.91 -328.67 453.87 496.41 359.31c-85.07,190.38 -129.33,397.54 -129.33,606.33 0,15.6 0.36,31.74 0.72,47.16l-616.31 171.91 162.44 582.84 -97.39 69.6 116.89 0.06 608.18 -170.2c102.38,193.4 245.92,362.6 420.26,494.77l-257.57 607.43 498.11 211.42 8.7 53.14 116.83 -0.05 254.35 -596.08c93.32,18.44 188.97,27.9 284.28,27.9 118.33,0 236.64,-14.46 351.4,-42.84l257.38 475.24 -53.9 116.49 116.8 0 594.76 -323.57 -311.28 -574.71c164.91,-136.87 298.71,-308.31 391.96,-501.22l533.48 94.56 7 22.13 116.37 0.07 119.14 -667 -631.07 -112.52zm-1463.72 679.29c-10.23,0.39 -20.7,0.71 -31.01,0.71 -367.05,0 -664.72,-297.67 -664.72,-664.72 0,-367.06 297.67,-664.73 664.72,-664.73 354.8,0 647.2,278.76 664,633.16 0.48,10.39 0.73,21.1 0.73,31.57 0,355.04 -279.09,647.44 -633.73,663.99l0.01 0.02z"/>
   <path fill="#6DA4FD" fill-rule="nonzero" stroke="#263238" stroke-width="26.46" stroke-linecap="round" stroke-linejoin="round" stroke-miterlimit="22.9256" d="M5927.07 7410.07l657.35 117.44 119.14 -667 -631.44 -113.47c0,-18.91 0.95,-37.82 0,-56.73 -9.15,-200.11 -59.09,-397.12 -145.85,-577.74l487.34 -428.15 -447.06 -509.09 -466.11 410.38c-176.76,-138.7 -383.38,-235.91 -602.93,-283.61l-30.07 -630.87 -676.64 32.15 28.75 605.16c-221.02,54.44 -427.14,159.59 -601.31,306.14l-508.16 -367.48 -397.14 548.43 496.41 359.31c-85.06,190.38 -129.33,397.54 -129.33,606.33 0,15.6 0.37,31.74 0.72,47.16l-616.11 172.17 181.93 652.43 608.18 -170.2c102.14,193.56 245.86,363.12 420.2,495.48l-257.57 607.43 624.07 264.75 253.41 -597.22c93.32,18.44 188.98,27.9 284.28,27.9 118.33,0 236.65,-14.46 351.4,-42.84l320.35 591.73 595.89 -322.62 -311.72 -575.66c164.95,-137.16 298.92,-308.51 392.02,-501.68l0 -0.03zm-2014.41 -615.37c-0.5,-10.42 -0.74,-21.12 -0.74,-31.59 0,-367.06 297.67,-664.73 664.72,-664.73 367.06,0 664.73,297.67 664.73,664.73 0,354.8 -278.76,647.2 -633.16,663.99 -10.39,0.49 -21.09,0.73 -31.57,0.73 -354.8,0 -647.2,-278.76 -663.99,-633.15l0.01 0.02z"/>
   <path fill="#263238" fill-rule="nonzero" stroke="#263238" stroke-width="26.46" stroke-linecap="round" stroke-linejoin="round" stroke-miterlimit="22.9256" d="M8129.08 4556c74.02,-150.64 117.14,-315.37 126.13,-483.13l531.59 -117.63 -123.1 -555.65 -116.87 0 5.29 24.77 -397.13 87.94c-73.67,-173.52 -186.23,-328.79 -328.22,-452.78l232.98 -476 -510.11 -250.52 -116.87 0 94.56 46.14 -201.22 411.13c-105.22,-28.16 -214.22,-42.62 -323.23,-42.62 -81.15,0 -162.59,8.07 -242.06,23.75l-225.38 -474.71 -116.87 0 22.88 44.44 -419.82 199.89 220.13 464.27c-150.49,113.73 -273.63,260.32 -359.33,428.36l-522.7 -122.73 -116.86 -0.03 0 42.37 103.83 16.07 -116.31 494.9 515.51 121.22c0.01,6.41 -0.15,13.5 -0.15,20.12 0,176.93 37.42,352.03 109.33,513.57l-434.95 342.29 280.64 356.66 -45.95 90.02 116.62 -0.02 428.33 -337.18c137.62,115.45 299.3,199.51 472.81,245.81l-3.6 564.5 568.47 3.78 3.41 -548.42c176.56,-33.9 344.06,-105.61 490.69,-209.86l364.61 294.45 -45.77 56.74 116.89 -0.04 357.23 -441.95 -418.5 -338.32c7.76,-14.18 16.08,-27.42 23.07,-41.6zm-627.47 -306.92c-93.55,191.19 -288.01,312.52 -500.91,312.52 -307.95,0 -557.69,-249.74 -557.69,-557.69 0,-307.95 249.74,-557.69 557.69,-557.69 84.97,0 168.99,19.47 245.24,56.78 191.19,93.62 312.45,288.01 312.45,500.91 0,84.97 -19.47,168.92 -56.79,245.17l0.01 0z"/>
   <path fill="#6DA4FD" fill-rule="nonzero" stroke="#263238" stroke-width="26.46" stroke-linecap="round" stroke-linejoin="round" stroke-miterlimit="22.9256" d="M7615.08 5025.37l434.95 351.94 357.23 -441.95 -418.5 -338.32c7.38,-13.8 15.7,-26.86 22.7,-41.04 74.28,-150.74 117.4,-315.47 126.54,-483.23l531.59 -117.63 -123.11 -555.04 -508.14 113.47c-73.71,-173.47 -186.27,-328.74 -328.26,-452.73l232.99 -476 -510.3 -251.84 -223.71 457.27c-105.24,-28.16 -214.24,-42.62 -323.24,-42.62 -81.15,0 -162.59,8.07 -242.07,23.75l-225.18 -474.71 -513.81 244.33 220.13 464.27c-150.49,113.73 -273.63,260.32 -359.32,428.36l-522.71 -122.73 -129.92 553.34 515.52 121.22c0.01,6.38 -0.15,13.47 -0.15,20.09 0,176.93 37.42,352.03 109.34,513.57l-434.95 342.29 351.55 446.69 428.15 -337.19c137.55,115.43 299.23,199.49 472.74,245.79l-3.6 564.5 568.47 3.78 3.41 -548.42c177,-34.28 344.81,-106.44 491.59,-211.15l0.07 -0.06zm-1232.06 -1267.04c93.55,-191.2 288.01,-312.53 500.91,-312.53 307.95,0 557.69,249.74 557.69,557.69 0,307.95 -249.74,557.7 -557.69,557.7 -84.97,0 -168.99,-19.47 -245.24,-56.79 -191.11,-93.61 -312.3,-288 -312.3,-500.83 0,-84.84 19.41,-168.65 56.64,-244.84l-0.01 -0.4z"/>
  </g>
  <g id="freepik--character-4--inject-147">
   <path fill="white" fill-rule="nonzero" stroke="#263238" stroke-width="26.46" stroke-linecap="round" stroke-linejoin="round" stroke-miterlimit="22.9256" d="M9130.73 5207.42c0,0 -128.39,92.59 -136.57,94.68 -8.19,2.09 -66.61,13 -72.71,25.52 -5.25,8.66 -8.02,18.61 -8.02,28.75 0,5.08 0.71,10.17 2.08,15.06 6.42,12.36 410.05,-3.21 410.05,-3.21 3.42,-10.24 5.2,-21.01 5.2,-31.82 0,-5.47 -0.47,-10.95 -1.35,-16.33 -3.05,-26.07 -4.81,-52.59 -4.81,-78.94l-193.87 -33.71z"/>
   <path fill="white" fill-rule="nonzero" stroke="#263238" stroke-width="26.46" stroke-linecap="round" stroke-linejoin="round" stroke-miterlimit="22.9256" d="M9330.22 5345.28l-416.14 3.21c-0.84,3.03 -1.26,6.18 -1.26,9.34 0,4.67 0.92,9.29 2.7,13.6 6.42,12.35 410.05,-3.21 410.05,-3.21 2.53,-7.4 4.12,-15.14 4.66,-22.95l-0.01 0.01z"/>
   <path fill="white" fill-rule="nonzero" stroke="#263238" stroke-width="26.46" stroke-linecap="round" stroke-linejoin="round" stroke-miterlimit="22.9256" d="M10142.14 5182.86l-24.4 70.94 -93.08 82.01c0,0 -6.1,22.79 4.33,26.96 10.42,4.17 189.38,-1.44 189.38,-1.44 14.04,-6.94 27.32,-15.52 39.47,-25.36 10.27,-10.44 98.7,-140.11 96.3,-154.72 -2.41,-14.6 -56.66,-60.02 -56.66,-60.02l-155.34 61.63z"/>
   <path fill="white" fill-rule="nonzero" stroke="#263238" stroke-width="26.46" stroke-linecap="round" stroke-linejoin="round" stroke-miterlimit="22.9256" d="M10257.85 5335.97c10.27,-10.44 98.7,-140.11 96.29,-154.72 -3.97,-9.08 -9.9,-17.21 -17.33,-23.76 -32.1,53.93 -92.76,156.32 -106.56,164.19 -13.8,7.86 -153.43,13.8 -206.23,16.05 -1.12,5.13 -4.01,21.82 4.65,25.35 8.66,3.53 189.38,-1.44 189.38,-1.44 14.16,-7.05 27.57,-15.68 39.8,-25.68l0 0.01z"/>
   <path fill="#A1A1A1" fill-rule="nonzero" stroke="#263238" stroke-width="26.46" stroke-linecap="round" stroke-linejoin="round" stroke-miterlimit="22.9256" d="M9466 4159.9c-6.45,19.84 -11.89,40.09 -16.1,60.49 0,8.34 2.25,35.31 2.25,35.31 0,0 -268.02,322.74 -284.39,354.03 -16.37,31.3 -22.63,568.45 -22.63,568.45 0,0 -25.04,6.42 -24.87,14.77 -0.6,8.38 -1.96,16.76 -3.96,24.9 26.7,15.83 54.81,29.63 83.63,41.06 32.1,10.11 114.59,24.08 114.59,24.08 6.11,-13.07 9.58,-27.28 10.08,-41.72 0,-20.86 -6.73,-58.25 -6.73,-64.19 0,-5.94 81.68,-466.86 81.68,-466.86l262.08 -293.38c0,0 114.91,323.71 137.86,342.33 22.95,18.62 311.19,393.03 311.19,393.03 0,0 -20.7,12.68 -10.27,18.78 12.5,12.25 23.34,26.27 32.1,41.41 8.75,15.14 83.29,-13.16 116.35,-34.19 21.12,-14.28 38.23,-33.81 49.6,-56.65 -10.96,-19.12 -23.11,-38 -35.96,-55.87 -10.43,-12.36 -25.2,-33.06 -25.2,-33.06l-242.66 -418.56c0,0 -59.7,-469.91 -76.71,-513.56 -17.01,-43.66 -75.91,-112.35 -75.91,-112.35l-376.02 171.75z"/>
   <polygon fill="#263238" fill-rule="nonzero" stroke="#263238" stroke-width="26.46" stroke-linecap="round" stroke-linejoin="round" stroke-miterlimit="22.9256" points="9453.96,4201.63 9868.66,4017.38 9841.38,3988.5 9463.91,4143.37 "/>
   <path fill="none" fill-rule="nonzero" stroke="#263238" stroke-width="26.46" stroke-linecap="round" stroke-linejoin="round" stroke-miterlimit="22.9256" d="M9545.28 4180.12l10.75 33.22c0,0 -20.7,12.68 -16.05,22.96 9.13,13 19.97,24.84 32.09,35.13"/>
   <path fill="none" fill-rule="nonzero" stroke="#263238" stroke-width="26.46" stroke-linecap="round" stroke-linejoin="round" stroke-miterlimit="22.9256" d="M9578.5 4165.36l16.05 37.23c0,0 -20.55,16.05 -10.11,31.29 7.69,10.21 16.16,19.98 25.19,29.05"/>
   <line fill="none" fill-rule="nonzero" stroke="#263238" stroke-width="26.46" stroke-linecap="round" stroke-linejoin="round" stroke-miterlimit="22.9256" x1="9587.97" y1="4325.04" x2="9573.36" y2= "4306.91" />
   <line fill="none" fill-rule="nonzero" stroke="#263238" stroke-width="26.46" stroke-linecap="round" stroke-linejoin="round" stroke-miterlimit="22.9256" x1="9661.63" y1="4416.52" x2="9615.57" y2= "4359.39" />
   <line fill="none" fill-rule="nonzero" stroke="#263238" stroke-width="26.46" stroke-linecap="round" stroke-linejoin="round" stroke-miterlimit="22.9256" x1="10128.5" y1="4928.97" x2="10163.48" y2= "4989.15" />
   <path fill="none" fill-rule="nonzero" stroke="#263238" stroke-width="26.46" stroke-linecap="round" stroke-linejoin="round" stroke-miterlimit="22.9256" d="M9866.41 4246.24l81.86 359.5 -6.1 29.21c0,0 25.04,4.01 25.04,10.27l0 6.26 137.86 237.36"/>
   <line fill="none" fill-rule="nonzero" stroke="#263238" stroke-width="26.46" stroke-linecap="round" stroke-linejoin="round" stroke-miterlimit="22.9256" x1="9274.21" y1="5063.14" x2="9261.53" y2= "5162.64" />
   <path fill="none" fill-rule="nonzero" stroke="#263238" stroke-width="26.46" stroke-linecap="round" stroke-linejoin="round" stroke-miterlimit="22.9256" d="M9590.7 4402.56l-257.75 299.63c0,0 -41.73,-3.85 -35.47,6.42 5.74,8.66 12.15,17.03 18.95,24.88l-37.88 295.94"/>
   <path fill="white" fill-rule="nonzero" stroke="#263238" stroke-width="26.46" stroke-linecap="round" stroke-linejoin="round" stroke-miterlimit="22.9256" d="M9180.65 3645.05c0,0 22.31,204.94 40.12,226.93 17.82,21.99 189.7,184.41 189.7,184.41 0,0 34.66,101.59 36.1,108.97 1.45,7.38 -8.82,20.06 16.05,16.05 24.88,-4.01 370.74,-164.5 382.45,-176.54 10.5,-11.94 16.62,-27.13 17.33,-43.01 -2.31,-11.96 -7.86,-23.08 -16.05,-32.1 -10.69,-9.61 -22.14,-18.46 -34.18,-26.33 -12.04,-7.88 -162.9,-271.71 -198.68,-304.93 -35.79,-33.23 -166.27,-146.21 -225.49,-157.45 -35.89,-5.58 -72.44,-8.42 -108.82,-8.42 -9.4,0 -19.05,0.26 -28.37,0.6l-70.16 211.82z"/>
   <path fill="white" fill-rule="nonzero" stroke="#263238" stroke-width="26.46" stroke-linecap="round" stroke-linejoin="round" stroke-miterlimit="22.9256" d="M8703.35 3411.54c-12.28,-18.71 -25.79,-36.81 -40.26,-53.89 -8.51,-6.74 -104.48,-60.66 -104.48,-60.66 0,0 -32.1,6.74 -8.5,23.59 23.45,20.78 45.14,44 64.19,68.98 -14.81,-4.64 -30.08,-8.06 -45.43,-10.1 -11.87,0 -16.05,26.96 -3.37,30.33 10.26,2.79 20.43,6.18 30.31,10.09 9.89,3.91 26.96,43.81 40.45,50.55 12.39,4.76 25.45,7.59 38.69,8.36l542.93 224.52 28.57 -155.04 -543.1 -136.73z"/>
   <path fill="white" fill-rule="nonzero" stroke="#263238" stroke-width="26.46" stroke-linecap="round" stroke-linejoin="round" stroke-miterlimit="22.9256" d="M9105.53 3357.94c-22.33,-28.8 -48.25,-54.88 -76.89,-77.37 -47.19,-36.91 -203.66,16.05 -226.29,149.74 0,0 -20.06,64.19 12.04,98.53 24.6,24.89 52.23,46.95 82.03,65.34 29.79,18.38 53.44,61.63 59.38,58.57 9.86,-10.47 18.7,-21.95 26.31,-34.17 7.61,-12.22 85.86,46.54 94.69,39.16 14.06,-19.28 26.84,-39.71 37.91,-60.84l48.15 30.65 61.95 -189.38 -75.43 -16.05 -43.85 -64.18z"/>
   <polygon fill="white" fill-rule="nonzero" stroke="#263238" stroke-width="26.46" stroke-linecap="round" stroke-linejoin="round" stroke-miterlimit="22.9256" points="9211.46,3423.57 9143.73,3648.26 9206.17,3693.52 9267.47,3424.54 "/>
   <polygon fill="#6DA4FD" fill-rule="nonzero" stroke="#263238" stroke-width="26.46" stroke-linecap="round" stroke-linejoin="round" stroke-miterlimit="22.9256" points="9200.38,3807.15 9188.19,4218.16 9219.81,4279.62 9262.01,4205.96 9216.28,3782.43 "/>
   <g>
    <path fill="white" fill-rule="nonzero" d="M9357.98 3512.01c-15.12,-4.59 -30.87,-6.94 -46.68,-6.94 -3.59,0 -7.19,0.11 -10.76,0.35 -66.28,6.42 -159.53,154.71 -165.47,157.76 -5.93,3.05 -130.31,121.97 -130.31,121.97l-343.61 -48.15 -96.29 -117.32c-15.5,-6.3 -30.46,-14.12 -44.47,-23.25 -10.43,-8.83 -13.64,-29.37 -26.8,-18.94 -13.17,10.43 -20.38,23.75 -16.05,34.02 6.09,9.81 13.63,18.7 22.31,26.32l8.99 13.32c0,0 -104.97,-5.94 -112.35,0.8 -7.38,6.74 -10.27,19.41 -4.65,22.95 5.62,3.54 65.32,10.76 86.83,16.05 0,1.12 -110.1,3.21 -112.35,9.31 -2.25,6.1 -3.37,17.17 1.12,19.42 4.5,2.24 99.35,18.29 99.35,18.29 -25.38,3.12 -50.7,8.17 -75.42,14.79 -1.53,1.94 -2.36,4.36 -2.36,6.85 0,3.64 1.78,7.07 4.76,9.18 14.51,0.8 29.29,1.26 43.89,1.26 14.6,0 29.38,-0.46 43.89,-1.3 14.51,-0.84 -59.38,12.52 -54.72,19.42 4.66,6.89 6.9,9.14 11.39,10.27 4.5,1.12 172.37,25.03 172.37,25.03l0 -1.44 21.34 5.3c0,0 404.44,135.61 420.81,138.5 2.39,0.15 4.84,0.22 7.25,0.22 17.65,0 35.15,-3.23 51.64,-9.49 10.27,-4.49 184.73,-154.87 184.73,-154.87l1.6 -8.18 60.02 -281.5zm0 0l0 0 0 0z"/>
    <path id="_1_31" fill="none" fill-rule="nonzero" stroke="#263238" stroke-width="26.46" stroke-linecap="round" stroke-linejoin="round" stroke-miterlimit="22.9256" d="M9357.98 3512.01c-15.12,-4.59 -30.87,-6.94 -46.68,-6.94 -3.59,0 -7.19,0.11 -10.76,0.35 -66.28,6.42 -159.53,154.71 -165.47,157.76 -5.93,3.05 -130.31,121.97 -130.31,121.97l-343.61 -48.15 -96.29 -117.32c-15.5,-6.3 -30.46,-14.12 -44.47,-23.25 -10.43,-8.83 -13.64,-29.37 -26.8,-18.94 -13.17,10.43 -20.38,23.75 -16.05,34.02 6.09,9.81 13.63,18.7 22.31,26.32l8.99 13.32c0,0 -104.97,-5.94 -112.35,0.8 -7.38,6.74 -10.27,19.41 -4.65,22.95 5.62,3.54 65.32,10.76 86.83,16.05 0,1.12 -110.1,3.21 -112.35,9.31 -2.25,6.1 -3.37,17.17 1.12,19.42 4.5,2.24 99.35,18.29 99.35,18.29 -25.38,3.12 -50.7,8.17 -75.42,14.79 -1.53,1.94 -2.36,4.36 -2.36,6.85 0,3.64 1.78,7.07 4.76,9.18 14.51,0.8 29.29,1.26 43.89,1.26 14.6,0 29.38,-0.46 43.89,-1.3 14.51,-0.84 -59.38,12.52 -54.72,19.42 4.66,6.89 6.9,9.14 11.39,10.27 4.5,1.12 172.37,25.03 172.37,25.03l0 -1.44 21.34 5.3c0,0 404.44,135.61 420.81,138.5 2.39,0.15 4.84,0.22 7.25,0.22 17.65,0 35.15,-3.23 51.64,-9.49 10.27,-4.49 184.73,-154.87 184.73,-154.87l1.6 -8.18m60.02 -281.5l0 0 0 0z"/>
   </g>
   <line fill="none" fill-rule="nonzero" stroke="#263238" stroke-width="26.46" stroke-linecap="round" stroke-linejoin="round" stroke-miterlimit="22.9256" x1="9310.64" y1="3779.38" x2="9411.27" y2= "3710.69" />
   <line fill="none" fill-rule="nonzero" stroke="#263238" stroke-width="26.46" stroke-linecap="round" stroke-linejoin="round" stroke-miterlimit="22.9256" x1="9323.32" y1="3784.19" x2="9421.86" y2= "3745.04" />
   <path fill="#263238" fill-rule="nonzero" stroke="#263238" stroke-width="26.46" stroke-linecap="round" stroke-linejoin="round" stroke-miterlimit="22.9256" d="M8898.83 3453.59c0,0 9.47,47.02 22.46,47.34 13,0.32 54.57,-23.43 54.57,-23.43l33.06 12.67c0,0 17.34,-9.46 -1.61,-27.6 -18.94,-18.14 -29.69,-16.05 -27.92,-32.1 1.76,-16.05 39.16,-66.92 64.19,-36.91 16.22,22.32 27.22,48.1 32.1,75.26l73.02 -46.54c0,0 -57.77,-116.35 -84.25,-137.22 -26.49,-20.86 -96.3,-29.05 -145.57,-8.18 -49.27,20.87 -95.33,37.55 -118.6,105.12 -23.28,67.56 -25.04,128.39 -9.95,130.8 15.09,2.41 39.64,-84.42 46.06,-92.6 6.43,-8.18 62.44,33.39 62.44,33.39z"/>
   <path fill="#263238" fill-rule="nonzero" d="M8933.17 3553.09c8.03,6.26 11.88,14.44 8.83,18.46 -3.05,4.01 -12.04,2.08 -20.06,-4.18 -8.03,-6.26 -11.72,-14.28 -8.67,-18.29 3.04,-4.01 12.04,-2.09 19.9,4.01z"/>
   <path fill="none" fill-rule="nonzero" stroke="#263238" stroke-width="26.46" stroke-linecap="round" stroke-linejoin="round" stroke-miterlimit="22.9256" d="M8881.65 3555.66c0,0 -7.22,-28.73 19.91,-33.86"/>
   <path fill="none" fill-rule="nonzero" stroke="#263238" stroke-width="26.46" stroke-linecap="round" stroke-linejoin="round" stroke-miterlimit="22.9256" d="M9016.31 3611.51c8.35,-4.85 13.49,-13.8 13.49,-23.46 0,-5.89 -1.93,-11.64 -5.47,-16.34"/>
   <polygon fill="white" fill-rule="nonzero" stroke="#263238" stroke-width="26.46" stroke-linecap="round" stroke-linejoin="round" stroke-miterlimit="22.9256" points="8989.02,3768.46 9097.51,3975.66 9171.82,3931.37 9052.57,3742.31 "/>
   <path fill="none" fill-rule="nonzero" stroke="#263238" stroke-width="26.46" stroke-linecap="round" stroke-linejoin="round" stroke-miterlimit="22.9256" d="M9362.32 3931.85c96.76,42.7 201.57,65.47 307.33,66.72"/>
   <path fill="none" fill-rule="nonzero" stroke="#263238" stroke-width="26.46" stroke-linecap="round" stroke-linejoin="round" stroke-miterlimit="22.9256" d="M9467.44 4016.1c0,0 131.76,40.45 198.53,16.05"/>
   <polygon fill="white" fill-rule="nonzero" stroke="#263238" stroke-width="26.46" stroke-linecap="round" stroke-linejoin="round" stroke-miterlimit="22.9256" points="10950.52,7419.76 10902.21,7468.07 8975.22,5956.25 9023.53,5908.11 "/>
   <polygon fill="white" fill-rule="nonzero" stroke="#263238" stroke-width="26.46" stroke-linecap="round" stroke-linejoin="round" stroke-miterlimit="22.9256" points="8975.22,7419.76 9023.53,7468.07 10950.52,5956.25 10902.21,5908.11 "/>
   <rect fill="white" fill-rule="nonzero" stroke="#263238" stroke-width="26.46" stroke-linecap="round" stroke-linejoin="round" stroke-miterlimit="22.9256" x="10923.07" y="5462.6" width="68.21" height="3931.89"/>
   <rect fill="white" fill-rule="nonzero" stroke="#263238" stroke-width="26.46" stroke-linecap="round" stroke-linejoin="round" stroke-miterlimit="22.9256" x="8982.76" y="5462.6" width="68.21" height="3931.89"/>
   <rect fill="white" fill-rule="nonzero" stroke="#263238" stroke-width="26.46" stroke-linecap="round" stroke-linejoin="round" stroke-miterlimit="22.9256" transform="matrix(1.60648E-14 -0.606574 0.606573 1.60648E-14 9013.9 5954.98)" width="112.45" height="3145.63"/>
   <rect fill="white" fill-rule="nonzero" stroke="#263238" stroke-width="26.46" stroke-linecap="round" stroke-linejoin="round" stroke-miterlimit="22.9256" transform="matrix(1.60648E-14 -0.606574 0.606573 1.60648E-14 9013.9 7495.51)" width="112.45" height="3145.63"/>
   <polygon fill="white" fill-rule="nonzero" stroke="#263238" stroke-width="26.46" stroke-linecap="round" stroke-linejoin="round" stroke-miterlimit="22.9256" points="10651.05,7419.76 10602.74,7468.07 8675.9,5956.25 8724.21,5908.11 "/>
   <polygon fill="white" fill-rule="nonzero" stroke="#263238" stroke-width="26.46" stroke-linecap="round" stroke-linejoin="round" stroke-miterlimit="22.9256" points="8675.9,7419.76 8724.21,7468.07 10651.05,5956.25 10602.74,5908.11 "/>
   <rect fill="white" fill-rule="nonzero" stroke="#263238" stroke-width="26.46" stroke-linecap="round" stroke-linejoin="round" stroke-miterlimit="22.9256" transform="matrix(1.60648E-14 -0.606574 0.606573 1.60648E-14 8714.58 5954.97)" width="112.45" height="3145.63"/>
   <rect fill="white" fill-rule="nonzero" stroke="#263238" stroke-width="26.46" stroke-linecap="round" stroke-linejoin="round" stroke-miterlimit="22.9256" transform="matrix(1.60648E-14 -0.606574 0.606573 1.60648E-14 8714.43 7495.67)" width="112.45" height="3145.63"/>
   <rect fill="white" fill-rule="nonzero" stroke="#263238" stroke-width="26.46" stroke-linecap="round" stroke-linejoin="round" stroke-miterlimit="22.9256" x="8651.19" y="5462.6" width="68.21" height="3931.89"/>
   <rect fill="white" fill-rule="nonzero" stroke="#263238" stroke-width="26.46" stroke-linecap="round" stroke-linejoin="round" stroke-miterlimit="22.9256" x="10620.72" y="5462.6" width="68.21" height="3931.89"/>
   <rect fill="#263238" fill-rule="nonzero" stroke="#263238" stroke-width="26.46" stroke-linecap="round" stroke-linejoin="round" stroke-miterlimit="22.9256" x="8533.88" y="5377.37" width="2572.96" height="130.32"/>
  </g>
  <g id="freepik--character-1--inject-147">
   <polygon fill="white" fill-rule="nonzero" stroke="#263238" stroke-width="26.46" stroke-linecap="round" stroke-linejoin="round" stroke-miterlimit="22.9256" points="2156.35,7380.21 2500.65,7525 2863.29,7459.5 2870.2,7521.46 2511.08,7659.35 2118.46,7487.12 "/>
   <path fill="#263238" fill-rule="nonzero" stroke="#263238" stroke-width="26.46" stroke-linecap="round" stroke-linejoin="round" stroke-miterlimit="22.9256" d="M2456.2 7012c0,0 71.22,30.81 65.32,69.19 -5.89,38.38 -38.39,48.15 -53.87,69.19 -15.49,21.05 -13.48,9.77 -13.48,9.77l-13.47 -119.37c0,0 -1.84,-46.12 15.5,-28.78z"/>
   <path fill="#263238" fill-rule="nonzero" stroke="#263238" stroke-width="26.46" stroke-linecap="round" stroke-linejoin="round" stroke-miterlimit="22.9256" d="M2165.77 6923.44c-24.31,-26.1 -58.43,-40.96 -94.11,-40.96 -3.92,0 -7.89,0.19 -11.79,0.54 -71.04,3.87 -101.01,46.3 -101.01,96.3 0,50 7.74,34.51 -98.16,65.33 -105.89,30.81 -105.73,71.21 -107.75,92.26 -2.01,21.04 -26.93,21.21 -59.59,57.74 -32.67,36.54 -34.68,149.17 84.18,191.6 118.85,42.43 218.03,-26.09 239.24,-114.65 21.2,-88.56 0,-111.45 26.43,-136.54 26.43,-25.1 0,-63.48 11.45,-109.61 11.44,-46.12 75.08,-65.49 96.13,-69.19 21.05,-3.7 18.86,-15.48 14.98,-32.82z"/>
   <path fill="white" fill-rule="nonzero" stroke="#263238" stroke-width="26.46" stroke-linecap="round" stroke-linejoin="round" stroke-miterlimit="22.9256" d="M2099.94 7231.03c0,0 -209.27,116.17 -260.62,185.2 -51.36,69.03 -75.76,337.73 -75.76,337.73l252.54 161.79c0,0 170.89,-174.59 185.2,-225.94 14.31,-51.35 -18.19,-338.57 -18.19,-338.57l-83.17 -120.21z"/>
   <path fill="white" fill-rule="nonzero" stroke="#263238" stroke-width="26.46" stroke-linecap="round" stroke-linejoin="round" stroke-miterlimit="22.9256" d="M2409.9 6978.66c-115.83,-97.65 -286.22,-29.64 -299.85,35.69 -6.66,32.63 -10.06,66.14 -10.06,99.52 0,7.17 0.19,14.45 0.49,21.55l9.59 85.86 -10.1 9.77 -43.27 20.37 111.12 212.31 65.33 -155.57c0,0 79.46,46.13 92.26,46.13 12.79,0 84.18,-90.24 84.18,-90.24 0,0 22.39,15.66 29.46,13.97 7.07,-1.69 8.42,-92.43 8.42,-92.43 11.99,-37.07 19.57,-75.65 22.52,-114.53 2.54,-52.83 -60.09,-92.4 -60.09,-92.4z"/>
   <path fill="#263238" fill-rule="nonzero" d="M2386.49 7177.66c-2.35,10.95 0,20.88 5.73,21.89 5.73,1.02 11.79,-6.73 14.15,-17.67 2.36,-10.95 0,-20.88 -5.9,-21.89 -5.89,-1.02 -11.79,6.73 -13.98,17.67z"/>
   <path fill="none" fill-rule="nonzero" stroke="#263238" stroke-width="26.46" stroke-linecap="round" stroke-linejoin="round" stroke-miterlimit="22.9256" d="M2432.29 7142.81c-4.7,-10.92 -15.46,-18 -27.36,-18 -4.9,0 -9.74,1.21 -14.06,3.52"/>
   <path fill="none" fill-rule="nonzero" stroke="#263238" stroke-width="26.46" stroke-linecap="round" stroke-linejoin="round" stroke-miterlimit="22.9256" d="M2358.04 7287.1c-1.73,0.3 -3.5,0.46 -5.27,0.46 -16.09,0 -29.41,-12.52 -30.42,-28.58"/>
   <path fill="#263238" fill-rule="nonzero" stroke="#263238" stroke-width="26.46" stroke-linecap="round" stroke-linejoin="round" stroke-miterlimit="22.9256" d="M2475.39 7052.4c0,0 42.26,-36.53 -50.51,-94.28 -92.77,-57.76 -207.76,-67.34 -273.08,-23.07 -42.13,28.77 -67.34,76.49 -67.34,127.51 0,14.09 1.94,28.14 5.72,41.7 13.47,52.02 -1.85,86.54 25.09,103.88 26.93,17.34 101.85,-19.19 111.45,-53.88 9.59,-34.69 11.62,-51.85 40.41,-47.99 28.78,3.87 38.72,48.16 38.72,48.16 0,0 67.34,-55.9 107.41,-63.64 24.71,-4.78 46.81,-18.46 62.14,-38.39l-0.01 0z"/>
   <path fill="#263238" fill-rule="nonzero" stroke="#263238" stroke-width="26.46" stroke-linecap="round" stroke-linejoin="round" stroke-miterlimit="22.9256" d="M1763.56 7753.29c0,0 -252.55,195.98 -275.45,313.83 -22.89,117.84 -120.54,669.06 -120.54,669.06 0,0 -192.94,480.01 -192.94,493.48 0,13.46 80.98,30.3 80.98,30.3 0,0 289.75,-421.91 299.85,-435.38 10.1,-13.46 189.07,-465.35 189.07,-465.35l174.09 385.54 134.69 531.36 87.71 -16.84 8.93 -606.1 -172.24 -634.89 37.88 -103.21 -252.03 -161.8z"/>
   <path fill="white" fill-rule="nonzero" stroke="#263238" stroke-width="26.46" stroke-linecap="round" stroke-linejoin="round" stroke-miterlimit="22.9256" d="M1287.43 9226.96c0,0 33.67,94.29 42.6,102.37 8.92,8.08 56.4,45.8 53.7,59.26 -2.7,13.47 -129.14,8.08 -158.76,5.39 -29.63,-2.69 -94.29,-75.42 -102.37,-96.98 -8.08,-21.55 40.41,-91.58 64.65,-107.74 24.25,-16.17 100.18,37.7 100.18,37.7z"/>
   <path fill="white" fill-rule="nonzero" stroke="#263238" stroke-width="26.46" stroke-linecap="round" stroke-linejoin="round" stroke-miterlimit="22.9256" d="M2146.08 9229.66l69.53 62.96c0,0 119.37,46.3 119.37,56.4 0,10.11 -23.57,27.62 -94.29,37.72 -21.17,2.31 -42.54,3.46 -63.83,3.46 -46.55,0 -93.02,-5.53 -138.2,-16.4 -26.94,-10.27 16.84,-97.82 16.84,-97.82l90.58 -46.32z"/>
   <g>
    <path fill="white" fill-rule="nonzero" d="M1946.06 7515.74c8.58,37.38 16.84,29.97 48.99,50.51 64.49,41.76 461.48,171.4 461.48,171.4l408.11 -169.55 81.15 -16.84 27.11 6.23c1.57,0.18 3.17,0.28 4.76,0.28 8.85,0 17.46,-3.02 24.37,-8.54 8.25,-6.23 -35.35,-25.09 -35.35,-25.09 7.37,0.42 14.93,0.62 22.33,0.62 15.47,0 30.99,-0.95 46.35,-2.66 16.83,-4.2 18.69,-20.7 10.27,-20.7 -8.42,0 -76.94,-8.42 -76.94,-8.42 0,0 87.38,-24.92 91.59,-31.15 4.2,-6.23 -8.42,-20.88 -20.88,-20.88 -12.46,0 -91.42,12.46 -91.42,12.46l24.92 -18.69c22.55,-6.08 44.29,-15.19 64.49,-26.9 3.5,-2.11 5.64,-5.89 5.64,-9.97 0,-4.88 -3.07,-9.25 -7.66,-10.92l-50.51 6.23 -76.94 29.13 8.25 -20.71c11.74,-9.49 19.84,-22.77 22.9,-37.55 2.19,-20.7 -20.71,0 -20.71,0l-68.69 64.49 -18.69 67.34 -365.02 99.85 -370.39 -222.58 -12.46 -4.21 -137.05 146.82zm0 0l0 0 0 0z"/>
    <path id="_1_32" fill="none" fill-rule="nonzero" stroke="#263238" stroke-width="26.46" stroke-linecap="round" stroke-linejoin="round" stroke-miterlimit="22.9256" d="M1946.06 7515.74c8.58,37.38 16.84,29.97 48.99,50.51 64.49,41.76 461.48,171.4 461.48,171.4l408.11 -169.55 81.15 -16.84 27.11 6.23c1.57,0.18 3.17,0.28 4.76,0.28 8.85,0 17.46,-3.02 24.37,-8.54 8.25,-6.23 -35.35,-25.09 -35.35,-25.09 7.37,0.42 14.93,0.62 22.33,0.62 15.47,0 30.99,-0.95 46.35,-2.66 16.83,-4.2 18.69,-20.7 10.27,-20.7 -8.42,0 -76.94,-8.42 -76.94,-8.42 0,0 87.38,-24.92 91.59,-31.15 4.2,-6.23 -8.42,-20.88 -20.88,-20.88 -12.46,0 -91.42,12.46 -91.42,12.46l24.92 -18.69c22.55,-6.08 44.29,-15.19 64.49,-26.9 3.5,-2.11 5.64,-5.89 5.64,-9.97 0,-4.88 -3.07,-9.25 -7.66,-10.92l-50.51 6.23 -76.94 29.13 8.25 -20.71c11.74,-9.49 19.84,-22.77 22.9,-37.55 2.19,-20.7 -20.71,0 -20.71,0l-68.69 64.49 -18.69 67.34 -365.02 99.85 -370.39 -222.58 -12.46 -4.21m-137.05 146.82l0 0 0 0z"/>
   </g>
   <g>
    <path fill="white" fill-rule="nonzero" d="M1918.79 7564.39l131.15 81.15 153.04 -213.99c0,0 -134.69,-90.24 -149,-92.26 -14.31,-2.02 -64.48,-12.46 -93.61,33.68l-41.58 191.42zm0 0l0 0 0 0z"/>
    <path id="_1_33" fill="none" fill-rule="nonzero" stroke="#263238" stroke-width="26.46" stroke-linecap="round" stroke-linejoin="round" stroke-miterlimit="22.9256" d="M1918.79 7564.39l131.15 81.15 153.04 -213.99c0,0 -134.69,-90.24 -149,-92.26 -14.31,-2.02 -64.48,-12.46 -93.61,33.68m-41.58 191.42l0 0 0 0z"/>
   </g>
  </g>
 </g>
</svg>
