<?xml version="1.0" encoding="UTF-8"?>
<!DOCTYPE svg PUBLIC "-//W3C//DTD SVG 1.0//EN" "http://www.w3.org/TR/2001/REC-SVG-20010904/DTD/svg10.dtd">
<!-- Creator: CorelDRAW -->
<svg xmlns="http://www.w3.org/2000/svg" xml:space="preserve" width="115mm" height="115mm" version="1.0" shape-rendering="geometricPrecision" text-rendering="geometricPrecision" image-rendering="optimizeQuality" fill-rule="evenodd" clip-rule="evenodd"
viewBox="0 0 11500 11500"
 xmlns:xlink="http://www.w3.org/1999/xlink"
 xmlns:xodm="http://www.corel.com/coreldraw/odm/2003">
 <g id="Camada_x0020_1">
  <metadata id="CorelCorpID_0Corel-Layer"/>
  <g id="_1765055660576">
   <g id="freepik--background-complete--inject-3">
    <rect fill="#EBEBEB" fill-rule="nonzero" x="1680.08" y="10505.65" width="9408.77" height="7.23"/>
    <rect fill="#EBEBEB" fill-rule="nonzero" x="10460.76" y="10971.36" width="809.49" height="7.23"/>
    <rect fill="#EBEBEB" fill-rule="nonzero" x="7410.99" y="11050.09" width="958.59" height="7.23"/>
    <rect fill="#EBEBEB" fill-rule="nonzero" x="9042.69" y="10702.76" width="1393.63" height="7.23"/>
    <rect fill="#EBEBEB" fill-rule="nonzero" x="4538.66" y="10751.39" width="1677.4" height="7.23"/>
    <rect fill="#EBEBEB" fill-rule="nonzero" x="6433.59" y="10751.39" width="154.71" height="7.23"/>
    <rect fill="#EBEBEB" fill-rule="nonzero" x="2677.48" y="10873.54" width="3099.38" height="7.23"/>
    <path fill="#EBEBEB" fill-rule="nonzero" d="M6066.73 9214.76l-4719.34 0c-76.96,-0.16 -139.3,-74.13 -139.3,-165.29 0,0 0,0 0,0l-0.01 -7856.21c0.66,-90.6 62.82,-163.69 139.32,-163.83l4719.33 0c77.08,0 139.57,74.01 139.57,165.27l-0.01 7854.78c0.01,91.26 -62.48,165.26 -139.55,165.26l-0.01 0.02zm-4719.34 -8179.53c-73.58,0.15 -133.19,70.89 -133.19,158.03 0,0 0,0 0,0l-0.02 7856.22c0.02,-0.01 0.02,-0.01 0.02,-0.01 0,87.15 59.61,157.88 133.21,158.03l4719.32 0.02c73.66,-0.16 133.33,-70.83 133.46,-158.04l-0.01 -7856.22c-0.12,-87.22 -59.79,-157.89 -133.43,-158.04l-4719.36 0.01z"/>
    <path fill="#EBEBEB" fill-rule="nonzero" d="M11353.59 9214.76l-4719.58 0c-77,-0.16 -139.44,-74.1 -139.56,-165.29l0 -7856.21c0.8,-90.63 63.03,-163.67 139.56,-163.82l4719.58 -0.01c76.39,0.31 138.42,73.35 139.08,163.82l-0.01 7856.23c0,0 0,0 0,0 0,91.04 -62.19,164.97 -139.06,165.28l-0.01 0zm-4719.58 -8179.53c-73.65,0.14 -133.33,70.81 -133.46,158.02l0.01 7856.23c0.12,87.21 59.8,157.88 133.44,158.03l4719.59 0.01c73.65,-0.16 133.33,-70.83 133.45,-158.04l0 -7856.22c-0.12,-87.22 -59.8,-157.89 -133.44,-158.04l-4719.59 0.01z"/>
    <rect fill="#EBEBEB" fill-rule="nonzero" transform="matrix(2.44653E-14 1.09394 -0.923759 2.89725E-14 7378.49 1777.93)" width="4334.93" height="5813.69"/>
    <rect fill="#E0E0E0" fill-rule="nonzero" transform="matrix(2.44653E-14 1.09394 -0.923759 2.89725E-14 7410.99 1777.93)" width="4334.93" height="35.19"/>
    <rect fill="whitesmoke" fill-rule="nonzero" x="2273.71" y="2092.26" width="4838.86" height="4112.63"/>
    <rect fill="white" fill-rule="nonzero" x="5825.75" y="4998.51" width="860.81" height="1426.94"/>
    <polygon fill="white" fill-rule="nonzero" points="4563.11,5923.26 5423.68,5923.26 5485.52,4496.33 4624.94,4496.33 "/>
    <rect fill="white" fill-rule="nonzero" x="4024.19" y="4998.51" width="860.81" height="1426.94"/>
    <polygon fill="white" fill-rule="nonzero" points="2761.55,5923.26 3622.37,5923.26 3684.21,4496.33 2823.64,4496.33 "/>
    <polygon fill="white" fill-rule="nonzero" points="3489.41,4141.47 4661.12,4240.47 4862.52,2305.28 3690.56,2206.29 "/>
    <polygon fill="white" fill-rule="nonzero" points="6306.01,3384.3 7166.58,3384.3 7228.66,1957.38 6367.85,1957.38 "/>
    <rect fill="white" fill-rule="nonzero" transform="matrix(-0.922873 -0.0479078 0.0404549 -1.09289 6035.13 4245.76)" width="931.86" height="1304.4"/>
    <rect fill="white" fill-rule="nonzero" transform="matrix(-0.923372 0.0316897 -0.0267598 -1.09348 3020.73 3774.97)" width="931.86" height="1304.4"/>
    <rect fill="#E0E0E0" fill-rule="nonzero" x="8501.31" y="2179.96" width="2186.5" height="3807.85"/>
    <rect fill="whitesmoke" fill-rule="nonzero" x="8369.58" y="2179.96" width="2258.6" height="3807.85"/>
    <rect fill="white" fill-rule="nonzero" transform="matrix(2.44653E-14 -1.09394 0.923759 2.89725E-14 8558.75 5687.95)" width="2932.38" height="2035.44"/>
    <path fill="whitesmoke" fill-rule="nonzero" d="M9732.9 4239.02l0 243.99 0 0c-0.07,0 -0.19,0 -0.24,0 -258.32,0 -467.8,-248.07 -467.8,-553.98 0,0 0,0 0,0l0 -244.29 -0.01 0c258.45,0 468.05,248.22 468.05,554.28z"/>
    <path fill="whitesmoke" fill-rule="nonzero" d="M9732.9 3415.28l0 244.29 0 -0.01c-258.45,0.01 -468.05,-248.2 -468.05,-554.27l0 -243.99 0 -0.01c0.07,0.01 0.19,0.01 0.25,0.01 258.32,0 467.8,248.07 467.8,553.98 0,0 0,0 0,0z"/>
    <path fill="whitesmoke" fill-rule="nonzero" d="M9732.9 5062.47l0 244.29 0 0c-258.45,0 -468.05,-248.21 -468.05,-554.28l0 -244.28 0 0c258.45,0 468.05,248.21 468.05,554.27z"/>
    <rect fill="#F0F0F0" fill-rule="nonzero" x="6631.81" y="7292.02" width="686.07" height="3022.02"/>
    <rect fill="#F0F0F0" fill-rule="nonzero" x="2494.66" y="10314.04" width="4602.02" height="191.6"/>
    <rect fill="whitesmoke" fill-rule="nonzero" x="2273.96" y="7292.31" width="4357.85" height="3022.02"/>
    <rect fill="#F0F0F0" fill-rule="nonzero" x="2726.36" y="7664.24" width="3453.04" height="991.03"/>
    <rect fill="#F0F0F0" fill-rule="nonzero" x="2726.36" y="8951.08" width="3453.04" height="991.03"/>
    <path fill="whitesmoke" fill-rule="nonzero" d="M4970.55 8687.98l-1035.33 0c-27.95,0.01 -50.6,-26.82 -50.6,-59.9l0 -16.23c0,-33.07 22.65,-59.9 50.59,-59.9l1035.34 0c27.93,0 50.58,26.83 50.58,59.91l0 16.2c0,33.1 -22.65,59.93 -50.59,59.93z"/>
    <path fill="whitesmoke" fill-rule="nonzero" d="M4970.55 9975.11l-1035.33 0c-27.95,0.01 -50.6,-26.82 -50.6,-59.9l0 -16.22c0,-33.07 22.65,-59.9 50.59,-59.9l1035.34 -0.01c27.93,0.01 50.58,26.84 50.58,59.92l0 16.19c0,33.1 -22.65,59.93 -50.59,59.93z"/>
    <path fill="#E6E6E6" fill-rule="nonzero" d="M9637.1 9760.64c1.71,-700.15 16.37,-1655.01 115.6,-2000.6l135.9 -65.41c0,0 -33.5,64.83 -106.82,1138.94 -69.17,1002.9 -76.74,823.74 -71.61,926.21 0,14.18 -16.61,26.05 -37.64,25.47l0 0c-19.79,-0.58 -35.43,-11.29 -35.43,-24.61z"/>
    <path fill="#E6E6E6" fill-rule="nonzero" d="M9559.12 7601.72c-196.75,-193.64 -625.94,-338.64 -1077.61,-349.07 -177.44,-4.04 336.55,457.61 684.35,680.18 258.34,165.56 543.33,315.78 613.47,492.05 -18.32,-368.75 -21.99,-629.82 -220.21,-823.16z"/>
    <path fill="#E6E6E6" fill-rule="nonzero" d="M9588.45 8563.23c-137.11,-134.89 -436.27,-235.9 -751.07,-243.13 -123.67,-2.9 234.63,318.38 476.84,474.1 179.89,115.77 378.6,219.97 427.48,343.56 -12.47,-257.6 -15.89,-438.21 -153.25,-574.53z"/>
    <path fill="#E6E6E6" fill-rule="nonzero" d="M9963.38 8091.74c225.35,-214.48 708.79,-371.93 1216.19,-378.59 198.95,-2.32 -251.25,470.92 -727.61,689.15 -330.44,152.54 -672.62,413.04 -755.48,611.59 29.33,-413.9 41.56,-706.53 266.9,-922.15z"/>
    <path fill="#E6E6E6" fill-rule="nonzero" d="M9840.44 7415.9c147.87,-179.16 480.28,-347.32 835.16,-409.84 139.31,-24.61 -45.95,299.86 -476.36,570.48 -227.06,142.4 -454.12,376.27 -503,527.07 1.22,-298.7 -3.91,-508.84 144.2,-687.71z"/>
    <path fill="#F0F0F0" fill-rule="nonzero" d="M9295.16 9642.84l35.92 826.92c0.92,20.02 14.85,35.76 31.78,35.88l789.45 0.01c16.95,-0.13 30.87,-15.87 31.77,-35.9l35.93 -826.92 -924.85 0.01z"/>
    <polygon fill="#F0F0F0" fill-rule="nonzero" points="10279.89,9818.24 9235.28,9818.24 9205.46,9497.25 10309.95,9497.25 "/>
   </g>
   <g id="freepik--Shadow--inject-3">
    <ellipse id="freepik--path--inject-3" fill="whitesmoke" fill-rule="nonzero" cx="5604.58" cy="10986.77" rx="5611.91" ry="327.65"/>
   </g>
   <g id="freepik--Icons--inject-3">
    <path fill="#407BFF" fill-rule="nonzero" d="M9406.93 1023.13l-27.5 -9.26c17.01,-51.09 25.76,-104.73 25.76,-158.61l28.95 0c0,57.04 -9.28,113.75 -27.19,167.84l-0.02 0.03z"/>
    <path fill="#407BFF" fill-rule="nonzero" d="M9384.07 709.96c-46.75,-154.86 -164.04,-278.79 -316.05,-334.01l9.84 -27.21c160.71,58.33 284.55,189.36 333.71,353.1l-27.5 8.12z"/>
    <path fill="#407BFF" fill-rule="nonzero" d="M9332.84 855.55c0,-0.08 0,-0.29 0,-0.4 0,-241.65 -195.98,-437.63 -437.63,-437.63 -241.66,0 -437.64,195.98 -437.64,437.63 0,184.75 116.1,349.69 290.01,411.99l300.44 115.77 -57.01 -99.29c199.71,-44.78 341.83,-222.26 341.83,-427.01 0,-0.31 0,-0.74 0,-1.07l0 0.01z"/>
    <path fill="#263238" fill-rule="nonzero" d="M8219.37 1135.44c-0.01,-0.09 -0.01,-0.21 -0.01,-0.29 0,-177.08 143.61,-320.7 320.7,-320.7 177.09,0 320.7,143.62 320.7,320.7 0,135.36 -85.08,256.21 -212.45,301.87l-220.26 86.83 41.97 -75.53c-146.33,-32.93 -250.42,-162.88 -250.66,-312.87l0.01 -0.01z"/>
    <path fill="#407BFF" fill-rule="nonzero" d="M9924.16 2076.98c-121.28,107.1 -378.88,186.4 -527.08,173.66 -75.54,485.68 330.54,872.37 330.54,872.37 0,0 518.96,-212.74 624.61,-692.92 -142.69,-41.67 -353.97,-209.26 -428.07,-353.11z"/>
    <path fill="white" fill-rule="nonzero" fill-opacity="0.301961" d="M9461.34 2322.71c-22.86,335.76 197.11,617.08 282.79,712.89 115.77,-57.89 421.41,-240.52 520.98,-561.51 -141.11,-68.55 -264.6,-169 -360.34,-293.22 -134.78,80.85 -286.68,129.57 -443.4,141.85l-0.03 -0.01z"/>
    <polygon fill="#407BFF" fill-rule="nonzero" points="4520.64,749.04 4916.59,328.2 5441.04,569.87 "/>
    <path fill="#407BFF" fill-rule="nonzero" d="M4520.69 749.17l920.52 -179.1c42.21,-8.21 83.09,19.36 91.31,61.56l99.09 509.41c8.21,42.19 -19.35,83.07 -61.53,91.29l-920.54 179.1c-42.19,8.2 -83.07,-19.35 -91.28,-61.56l-99.13 -509.41c-8.19,-42.2 19.38,-83.08 61.57,-91.28z"/>
    <polygon fill="black" fill-rule="nonzero" fill-opacity="0.400000" points="4520.64,749.04 5045.38,990.42 5441.04,569.87 "/>
    <polygon fill="#407BFF" fill-rule="nonzero" points="4530.19,428.05 4661.87,813.87 5045.38,990.42 5354.5,661.91 5196.76,200.26 "/>
    <g>
     <polygon fill="white" fill-rule="nonzero" fill-opacity="0.701961" points="4530.19,428.05 4661.87,813.87 5045.38,990.42 5354.5,661.91 5196.76,200.26 "/>
    </g>
    <path fill="#407BFF" fill-rule="nonzero" d="M4470.27 2102.45l-52.1 -2.9 0 0.01c-10.79,-16.76 -23.33,-32.45 -37.32,-46.61l8.69 -51.53 -127.64 -70.33 -38.78 34.74 -0.04 0.01c-19.56,-4.08 -39.62,-6.36 -59.6,-6.67l-0.02 0 -28.94 -42.54 -140.09 40.52 -2.9 52.39c-16.89,10.65 -32.63,23.26 -46.86,37.35l-51.23 -8.97 -70.33 127.93 34.45 38.5 -0.04 -0.02c-4.1,19.65 -6.36,39.82 -6.64,59.91l-0.01 0 -42.26 28.95 40.52 140.09 51.81 2.9 0 0c10.9,16.77 23.45,32.53 37.35,46.87l-0.01 0.01 -8.69 51.23 127.94 70.33 38.49 -34.73c19.72,4.1 39.86,6.39 59.92,6.65l0 0.01 28.94 42.54 140.09 -40.52 2.61 -52.1 0 0.01c16.72,-11.04 32.5,-23.76 46.91,-37.64l-0.03 0.01 51.23 8.69 70.33 -127.65 -35.01 -38.78c4.24,-18.99 6.59,-38.45 6.94,-57.88l0 -0.01 42.55 -28.94 -40.23 -141.83zm-270.91 305.07c-12.99,3.73 -26.47,5.63 -39.99,5.63 -79.91,0 -144.71,-64.81 -144.71,-144.72 0,-79.91 64.8,-144.72 144.71,-144.72 64.37,0 121.03,42.55 138.98,104.36 3.79,13.1 5.74,26.71 5.74,40.36 0,64.52 -42.74,121.28 -104.73,139.09z"/>
    <path fill="#263238" fill-rule="nonzero" d="M3786.03 2028.06l-31.83 -1.74 0 0.01c-6.5,-10.42 -14.21,-20.19 -22.85,-28.95l5.5 -31.55 -78.15 -43.13 -24.02 21.42 -0.02 0c-11.83,-2.65 -24.01,-4 -36.16,-4.05l-0.02 0 -18.52 -26.04 -86.84 24.89 -1.74 31.83c-10.4,6.51 -20.17,14.22 -28.93,22.86l-31.55 -5.5 -43.13 78.15 21.13 23.74 0 0c-2.37,12.1 -3.77,24.44 -4.05,36.76l0 0.01 -25.76 18.23 24.6 86.84 31.83 1.74 0 -0.01c6.82,10.31 14.61,20.04 23.16,28.94l0 0 -5.5 31.27 78.15 43.12 23.74 -21.12c12.08,2.34 24.46,3.74 36.76,4.03l0 0 18.23 26.05 86.84 -24.89 1.74 -31.83 -0.01 0c10.3,-6.71 20.03,-14.4 28.95,-22.87l-0.01 0.01 31.27 5.2 43.12 -78.15 -21.42 -23.74c2.61,-11.94 4.09,-24.22 4.36,-36.45l-0.03 -0.01 25.77 -18.52 -24.61 -86.55zm-149.64 239.66c-13.15,3.82 -26.78,5.78 -40.47,5.78 -79.91,0 -144.72,-64.81 -144.72,-144.72 0,-79.91 64.81,-144.72 144.72,-144.72 64.65,0 121.48,42.9 139.18,105.07 3.66,12.88 5.53,26.26 5.53,39.65 0,64.32 -42.48,120.96 -104.24,138.94z"/>
   </g>
   <g id="freepik--Character--inject-3">
    <path fill="#263238" fill-rule="nonzero" d="M6873.77 1439.35c-134.31,-25.19 -191.32,57.89 -186.98,176.56 4.34,118.67 -88.56,289.43 28.95,312.31 117.51,22.87 303.03,-461.95 158.03,-488.87z"/>
    <path fill="#263238" fill-rule="nonzero" d="M6379.12 7506.56c402.32,-1149.08 707.1,-2643.73 707.1,-2643.73l-1101.89 -17.94c0,0 -169.62,1888.57 -263.98,2690.61 -98.7,833.87 -436.19,2683.68 -436.19,2683.68l483.66 136.61c0,0 543.28,-1811.6 611.3,-2849.23z"/>
    <path fill="black" fill-rule="nonzero" fill-opacity="0.200000" d="M6588.67 5692.94c0,0 -32.13,882.49 -71.49,1393.06 103.61,-331.41 197.68,-672.07 278.14,-984.08l-206.65 -408.98z"/>
    <path fill="#407BFF" fill-rule="nonzero" d="M5607.48 10717.3l-41.4 235.6c-4.21,20.24 -22.07,34.76 -42.77,34.76 -3.83,0 -7.65,-0.5 -11.33,-1.5 -71.49,-20.25 -101.02,-41.09 -225.19,-78.15 -144.72,-43.7 -274.1,-59.91 -444.29,-110.86 -103.04,-30.97 -57.9,-156.58 28.94,-155.72 183.51,2.03 287.41,-62.52 383.22,-90.3 46.02,-75.84 107.38,-360.94 107.38,-360.94l389.59 139.22c0,0 -113.76,267.19 -144.15,387.89z"/>
    <path fill="#263238" fill-rule="nonzero" d="M5286.2 10289.8l442.55 132.56c3.45,0.96 7.05,1.46 10.63,1.46 15.28,0 29.14,-8.97 35.38,-22.89l65.42 -142.69c2.41,-4.99 3.66,-10.46 3.66,-16 0,-15.9 -10.23,-30.02 -25.36,-34.95l-479.6 -151.96c-3.59,-1.04 -7.32,-1.57 -11.06,-1.57 -19,0 -35.29,13.57 -38.71,32.26l-28.95 162.09c-0.37,2.1 -0.56,4.23 -0.56,6.35 0,16.39 10.86,30.81 26.61,35.32l-0.01 0.02z"/>
    <path fill="white" fill-rule="nonzero" fill-opacity="0.101961" d="M5286.2 10289.8l442.55 132.56c3.45,0.96 7.05,1.46 10.63,1.46 15.28,0 29.14,-8.97 35.38,-22.89l65.42 -142.69c2.41,-4.99 3.66,-10.46 3.66,-16 0,-15.9 -10.23,-30.02 -25.36,-34.95l-479.6 -151.96c-3.59,-1.04 -7.32,-1.57 -11.06,-1.57 -19,0 -35.29,13.57 -38.71,32.26l-28.95 162.09c-0.37,2.1 -0.56,4.23 -0.56,6.35 0,16.39 10.86,30.81 26.61,35.32l-0.01 0.02z"/>
    <path fill="#407BFF" fill-rule="nonzero" d="M7608.66 10904.85l-45.16 -202.61c-13.9,-123.29 -4.63,-408.98 -4.63,-408.98l-389.01 9.85c0,0 28.95,260.5 27.51,352.25 -74.68,52.39 -149.64,125.61 -311.44,173.66 -76.12,22.28 -68.88,154.27 31.84,156.01 167,2.9 285.38,-16.5 427.78,-13.9 121.57,2.03 135.75,13.9 205.5,13.9 33.57,-0.23 60.67,-27.52 60.67,-61.09 0,-6.49 -1.04,-12.94 -3.06,-19.1l0 0.01z"/>
    <path fill="#263238" fill-rule="nonzero" d="M7472.33 7437.67c-33.57,-1188.72 99.85,-1872.66 -75.25,-2569.05l-1002.33 -15.05c0,0 268.31,1885.98 400,2671.51 131.69,785.52 318.38,2769.06 318.38,2769.06l492.05 6.08c0,0 57.01,-1942.72 -132.85,-2862.55z"/>
    <path fill="#263238" fill-rule="nonzero" d="M7124.13 10382.42l465.41 7.23c0.57,0.02 1.15,0.03 1.72,0.03 20.12,0 37.06,-15.07 39.39,-35.06l15.92 -153.98c0.18,-1.44 0.26,-2.9 0.26,-4.35 0,-19.48 -15.53,-35.4 -34.99,-35.89l-506.81 -15.63c-0.32,0 -0.65,0 -0.97,0 -21.73,0 -39.36,17.62 -39.36,39.36 0,1.84 0.14,3.69 0.4,5.51l25.18 162.09c2.45,17 16.67,29.88 33.85,30.67l0 0.02z"/>
    <path fill="white" fill-rule="nonzero" fill-opacity="0.101961" d="M7124.13 10382.42l465.41 7.23c0.57,0.02 1.15,0.03 1.72,0.03 20.12,0 37.06,-15.07 39.39,-35.06l15.92 -153.98c0.18,-1.44 0.26,-2.9 0.26,-4.35 0,-19.48 -15.53,-35.4 -34.99,-35.89l-506.81 -15.63c-0.32,0 -0.65,0 -0.97,0 -21.73,0 -39.36,17.62 -39.36,39.36 0,1.84 0.14,3.69 0.4,5.51l25.18 162.09c2.45,17 16.67,29.88 33.85,30.67l0 0.02z"/>
    <path fill="#FF8B7B" fill-rule="nonzero" d="M6331.64 2674.38l-3.46 0 -469.47 -35.59c-131.98,-10.81 -263.3,-23.36 -393.93,-37.64 -16.36,-28.94 -31.12,-59.07 -43.94,-89.7 -26.18,-63.06 -48.09,-128.27 -65.12,-194.21 -18.24,-68.02 -33.29,-138.64 -46.02,-210.13 -12.74,-71.49 -23.45,-144.72 -32.42,-215.63l0 -5.79c-6.59,-49.84 -49.08,-87.07 -99.33,-87.07 -48.12,0 -89.46,34.26 -98.4,81.54 -13.81,80.05 -22.39,161.8 -24.97,242.91 -0.95,26.48 -1.64,53.51 -1.64,80.32 0,54.75 2.74,109.96 7.33,164.48 7.37,84.45 22.27,168.61 43.91,250.59 23.32,88.85 59.39,174.39 106.44,253.28 23.54,38.57 61.86,65.79 105.97,75.29l14.17 2.89c81.04,17.38 162.38,34.16 243.71,47.19 81.34,13.02 162.67,26.34 244.29,36.75 81.62,10.42 163.25,19.1 245.15,26.34 81.91,7.25 162.67,12.45 248.05,14.76 0.57,0.01 1.14,0.01 1.7,0.01 110.76,0 200.58,-89.82 200.58,-200.58 0,-103.59 -78.9,-190.15 -182.02,-199.73l-0.58 -0.28z"/>
    <path fill="#407BFF" fill-rule="nonzero" d="M6626.88 2701.87c-253.47,-47.85 -510.96,-79.67 -768.45,-93.11 -22.84,94.81 -34.66,192.58 -34.66,290.36 0,112.58 15.7,225.01 46.2,333.25 30.5,108.23 114.33,57.89 438.79,17.94 362.68,-46.83 623.47,-486.2 318.12,-548.44z"/>
    <path fill="#407BFF" fill-rule="nonzero" d="M7472.61 2809.25c-270.9,-64.22 -550.05,-101.32 -828.7,-109.34 -302.18,-6.08 -538.65,143.28 -596.24,440.24 -77.72,408.78 -117.37,825.52 -117.37,1242.26 0,187.73 8.9,375.47 24.27,562.39 2.32,107.38 1363.84,98.12 1476.14,0 48.91,-383.5 -4.92,-794.51 246.61,-1652.99 51.15,-176.33 -27.57,-440.3 -204.71,-482.56z"/>
    <path fill="white" fill-rule="nonzero" d="M6657.55 3107.09c-5.79,24.89 -21.12,42.54 -34.45,39.36 -13.32,-3.18 -19.1,-25.76 -13.31,-50.65 5.79,-24.89 21.12,-42.54 34.45,-39.36 13.32,3.18 19.11,26.91 13.31,50.65z"/>
    <path fill="#FF8B7B" fill-rule="nonzero" d="M8995.64 2399.7c6.85,-65.01 10.62,-130.72 10.62,-196.22 0,-20.64 -0.45,-41.74 -1.1,-62.16 -2.3,-56.82 -49.02,-101.64 -105.81,-101.64 -47.45,0 -89.13,31.57 -101.98,77.24l-1.73 6.08c-19.98,71.21 -41.97,148.48 -66.57,220.85 -24.6,72.36 -50.65,144.72 -80.46,213.02 -27.83,66.61 -60.71,131.81 -97.46,193.93 -18.29,29.96 -38.35,59.18 -59.96,86.85 -138.96,-4.84 -278.48,-11.7 -418.57,-20.57l-497.25 -34.16 -2.61 0c-6.45,-0.6 -13.04,-0.9 -19.53,-0.9 -117.18,0 -212.2,95.01 -212.2,212.19 0,109.6 83.55,201.21 192.66,211.28 89.72,10.71 173.66,17.08 261.94,22.58 88.28,5.5 173.66,8.39 260.5,9.55 86.84,1.16 173.66,0 260.5,0 86.84,0 175.11,-6.66 262.81,-12.45l15.63 0c47.58,-3.23 91.78,-25.98 122.13,-62.8 61.28,-75.52 111.83,-159.6 149.64,-249.21 35.31,-82.26 63.78,-168.39 84.45,-255.67 20.24,-84.26 35.45,-171.11 44.37,-257.72l-0.02 -0.07z"/>
    <path fill="#407BFF" fill-rule="nonzero" d="M7259.59 2764.11c86.51,-3.47 177.05,-5.71 264.6,-5.71 184.83,0 371.17,8.98 554.5,25.44 3.63,40.67 5.69,82.39 5.69,123.78 0,181.85 -38.39,361.79 -112.49,527.69 -74.11,165.89 -128.8,43.7 -463.1,-48.05 -372.5,-102.74 -578.87,-603.19 -249.2,-623.15z"/>
    <path fill="#FF8B7B" fill-rule="nonzero" d="M8953.96 2267.72l226.92 -167 -263.39 -213.6c0,0 -186.98,177.99 -112.01,293.76l148.48 86.84z"/>
    <path fill="#FF8B7B" fill-rule="nonzero" d="M9230.38 1804.61l-104.48 -57.89c-14.19,-7.93 -30.19,-12.11 -46.43,-12.11 -30.08,0 -58.42,14.28 -76.3,38.45l-86.84 113.47 263.39 213.6 86.83 -157.45c8.87,-15.4 13.56,-32.92 13.56,-50.71 0,-35.84 -18.92,-69.07 -49.74,-87.37l0.01 0.01z"/>
    <path fill="#FF8B7B" fill-rule="nonzero" d="M9254.11 3484.81c-14.93,-38.75 -52.2,-64.33 -93.72,-64.33 -12.08,0 -24.08,2.2 -35.38,6.43l-3.48 0c-68.3,25.77 -140.37,53.26 -210.42,77.86 -70.04,24.6 -140.95,49.21 -211.29,70.63 -70.34,21.41 -140.38,40.23 -209.26,57.89 -39.08,8.68 -77.86,15.91 -115.77,21.42 -96.48,-89.35 -192.95,-180.61 -289.44,-273.81l-334.88 -331.7 -2.02 -2.02c-37.22,-35.27 -86.65,-54.99 -137.96,-54.99 -110.76,0 -200.58,89.83 -200.58,200.59 0,49.05 17.99,96.43 50.54,133.12 57.89,62.8 115.77,119.83 173.66,177.43 57.89,57.59 118.96,113.16 180.9,167.58 61.93,54.41 123.87,107.96 187.84,160.05 63.96,52.1 129.66,103.04 195.94,152.83l12.74 9.84c27.8,20.49 61.49,31.57 96.03,31.57 9.72,0 19.46,-0.88 29.01,-2.62 85.2,-15.79 169.09,-39.3 250.34,-69.21 76.8,-28.53 153.12,-62.11 226.39,-98.74 72.36,-36.61 142.49,-76.13 210.41,-118.59 68.56,-42.01 135.24,-88.08 198.79,-137.03 24.1,-18.91 38.13,-47.92 38.13,-78.6 0,-12.16 -2.22,-24.23 -6.52,-35.59l0 -0.01z"/>
    <path fill="#407BFF" fill-rule="nonzero" d="M7558.57 2843.12c202.15,159.51 395.48,333.01 574.63,517.83 -121.81,172.79 -286.75,311.28 -477.68,401.38 -190.93,90.1 -119.25,-48.05 -301.6,-318.38 -204.03,-304.15 -43.97,-789.54 204.65,-600.83z"/>
    <path fill="#FF8B7B" fill-rule="nonzero" d="M9211.56 3605.22l252.68 -86.84 -187.56 -260.5c0,0 -214.47,115.77 -173.66,241.68l108.54 105.66z"/>
    <path fill="#FF8B7B" fill-rule="nonzero" d="M9575.97 3264.26l-80.76 -79.31c-16.72,-16.42 -39.23,-25.62 -62.66,-25.62 -20.12,0 -39.66,6.79 -55.44,19.25l-106.22 82.49 192.48 256.45 113.16 -118.68c17.46,-17.94 27.22,-41.98 27.22,-67 0,-25.3 -10,-49.6 -27.78,-67.58z"/>
    <path fill="white" fill-rule="nonzero" d="M6704.45 2952.24c40.59,48.78 63.01,110.18 63.38,173.67 268.89,-46.03 492.04,-179.45 520.99,-357.76 -45.44,-42.83 -75.55,-35.31 -75.55,-35.31 0,0 -184.94,159.49 -508.82,219.4z"/>
    <path fill="white" fill-rule="nonzero" d="M6704.45 2952.24c-72.37,12.47 -138.59,49.2 -187.57,103.92 -103.33,-100.44 31.27,-315.78 113.75,-356.3 24,-6.92 48.9,-10.45 73.88,-10.45 12.45,0 24.96,0.88 37.27,2.61 12.32,1.72 -114.32,61.08 -37.33,260.22z"/>
    <path fill="#FF8B7B" fill-rule="nonzero" d="M7260.17 2106.79c-51.81,164.4 -117.23,452.1 -51.23,617.38 4.53,11.31 6.88,23.41 6.88,35.61 0,30.91 -14.99,59.93 -40.17,77.84 -107.96,82.1 -240.06,126.54 -375.72,126.54 -16.84,0 -33.9,-0.68 -50.66,-2.05 -171.93,-14.18 -182.64,-103.33 -148.2,-178.87 18.5,-38.58 53.41,-66.78 94.99,-76.73 173.66,-42.54 181.47,-189 162.37,-330.25l401.74 -269.47z"/>
    <path fill="black" fill-rule="nonzero" fill-opacity="0.200000" d="M7096.34 2216.78l-237.62 159.48c4.43,31.03 6.81,62.52 6.81,93.94 0,4.61 -0.08,9.46 -0.16,14 83.07,-2.02 205.79,-78.73 224.02,-163.25 5.88,-23.07 8.9,-46.98 8.9,-70.85 0,-11.12 -0.67,-22.3 -1.93,-33.3l-0.02 -0.02z"/>
    <path fill="#FF8B7B" fill-rule="nonzero" d="M7411.54 1862.5c-82.5,250.94 -118.09,401.74 -280.47,501.31 -244.28,149.93 -526.77,-42.26 -520.99,-310.85 5.79,-241.97 139.51,-611.3 414.48,-652.69 18.75,-3.04 37.78,-4.63 56.76,-4.63 193.39,0 350.23,156.84 350.23,350.23 0,39.72 -6.8,79.23 -20.01,116.64l0 -0.01z"/>
    <path fill="#263238" fill-rule="nonzero" d="M6704.45 1912.29c-11.52,-0.06 -22.99,-2.04 -33.87,-5.79 -38.43,-15.66 -66.5,-49.6 -74.66,-90.3 -4.08,-18.8 -6.18,-38.04 -6.18,-57.27 0,-81.61 37.13,-158.92 100.81,-209.9 20.99,-19.14 48.41,-29.76 76.83,-29.76 56.36,0 104.3,41.2 112.75,96.92 4.58,19.13 6.89,38.83 6.89,58.52 0,30.32 -5.49,60.43 -16.15,88.8 -30.39,88.86 -99.86,148.78 -166.42,148.78zm66.56 -378.01c-26.17,0.8 -51.42,9.94 -72.05,26.04 -60.23,48.12 -95.33,121.05 -95.33,198.13 0,18.23 1.98,36.46 5.89,54.26 6.95,36.17 31.64,66.44 65.68,80.48 65.99,23.44 147.9,-36.76 182.63,-134.59l0.02 0c10.09,-26.89 15.24,-55.42 15.24,-84.16 0,-18.33 -2.11,-36.64 -6.27,-54.49 -7.15,-36.22 -31.94,-66.51 -66,-80.75 -9.19,-3.24 -18.9,-4.91 -28.65,-4.92l-1.16 0z"/>
    <path fill="#263238" fill-rule="nonzero" d="M7000.54 2016.77c-0.28,0.01 -0.56,0.01 -0.85,0.01 -11.24,0 -22.45,-1.97 -33.01,-5.79 -73.23,-26.04 -102.76,-132.56 -65.42,-237.34 15.8,-47.64 45.57,-89.55 85.4,-120.12 21,-18.13 47.86,-28.12 75.63,-28.12 56.03,0 104.02,40.13 113.94,95.26 4.57,19.15 6.88,38.84 6.88,58.53 0,30.32 -5.48,60.43 -16.14,88.81 -31.55,89.14 -101.3,148.76 -166.43,148.76zm66.57 -378c-26.22,0.99 -51.52,10.1 -72.35,26.06 -37.46,28.98 -65.52,68.52 -80.48,113.44 -34.45,97.54 -8.97,196.24 57.89,219.68 66.86,23.45 147.9,-37.05 182.63,-134.58l0.01 0.01c10.02,-26.75 15.18,-55.14 15.18,-83.7 0,-18.57 -2.21,-37.18 -6.5,-55.23 -7.06,-36.19 -31.72,-66.49 -65.69,-80.77 -9.7,-3.24 -19.89,-4.91 -30.13,-4.91 -0.19,0 -0.37,0 -0.56,0z"/>
    <path fill="#263238" fill-rule="nonzero" d="M6907.06 1782.91c-1.96,-0.1 -3.83,-0.92 -5.21,-2.32 -6.47,-8.53 -16.56,-13.55 -27.26,-13.55 -2.52,0 -5.03,0.28 -7.48,0.83 -0.59,0.15 -1.22,0.23 -1.84,0.23 -3.09,0 -5.83,-1.96 -6.84,-4.87 -0.22,-0.71 -0.34,-1.46 -0.34,-2.2 0,-3.01 1.87,-5.71 4.68,-6.77 3.73,-0.9 7.56,-1.35 11.4,-1.35 14.92,0 29.05,6.78 38.38,18.42 1.23,1.35 1.92,3.1 1.92,4.93 0,1.82 -0.69,3.57 -1.92,4.91 -1.23,1.17 -2.86,1.81 -4.55,1.81 -0.32,0 -0.64,-0.02 -0.94,-0.06l0 -0.01z"/>
    <path fill="#263238" fill-rule="nonzero" d="M7361.76 2004.62c-0.66,0.2 -1.34,0.3 -2.03,0.3 -0.69,0 -1.37,-0.1 -2.02,-0.3 -147.04,-106.22 -202.61,-118.67 -202.61,-118.67 -3.35,-0.63 -5.77,-3.55 -5.77,-6.95 0,-3.91 3.16,-7.07 7.07,-7.07 0.44,0 0.87,0.05 1.3,0.12 2.32,0 57.89,12.16 208.68,121.28 1.86,1.37 2.95,3.53 2.95,5.83 0,1.42 -0.42,2.82 -1.21,4 -1.32,1.07 -2.98,1.65 -4.68,1.65 -0.57,0 -1.13,-0.06 -1.69,-0.18l0.01 -0.01z"/>
    <path fill="#263238" fill-rule="nonzero" d="M7243.96 2075.24c-98.41,-91.75 -3.48,-194.22 57.89,-231.55 67.44,-41.68 -34.15,-90.02 48.62,-191.32 -335.75,8.1 -263.96,-147.32 -441.11,-129.09 -96.67,9.85 -193.34,-75.54 -181.18,-211.87 22.86,-257.6 391.32,-315.78 449.78,-219.11 -138.65,24.61 -109.41,109.7 -48.63,115.78 158.03,13.02 127.65,93.48 211.58,169.03 119.25,107.1 265.99,14.47 247.47,238.21 234.45,57.89 104.49,318.38 -44.28,387.84 -95.72,38.95 -197.06,63.47 -300.16,72.1l0.02 -0.02z"/>
    <path fill="#263238" fill-rule="nonzero" d="M7507.64 1610.98c0.67,-0.01 1.39,0.02 2.08,0.02 91.27,0 165.27,-74.02 165.27,-165.28 0,-6.68 -0.4,-13.35 -1.21,-19.97 87.98,164.97 -18.82,216.78 -166.14,185.23z"/>
    <path fill="#FF8B7B" fill-rule="nonzero" d="M7437.3 2133.71c-44.15,45.34 -103.57,72.79 -166.72,76.98 -79.01,2.9 -88.56,-76.99 -41.39,-144.71 42.54,-61.94 135.17,-138.07 202.61,-108.25 67.44,29.82 62.81,118.38 5.5,175.98z"/>
    <path fill="#263238" fill-rule="nonzero" d="M7430.07 2165.26c-38.21,37.92 -93.49,44.86 -123.01,15.05 -29.53,-29.81 -22.29,-84.51 16.21,-122.71 38.49,-38.2 93.49,-45.16 123.01,-15.34 29.53,29.82 22.29,84.79 -16.21,123z"/>
    <path fill="#263238" fill-rule="nonzero" d="M6840.19 2256.72c-13.16,-9.64 -20.93,-24.99 -20.93,-41.31 0,-28.29 22.94,-51.23 51.23,-51.23 28.29,0 51.23,22.94 51.23,51.23 0,6.52 -1.25,12.97 -3.67,19.02 -10.28,18.08 -29.5,29.27 -50.31,29.27 -9.62,0 -19.09,-2.41 -27.55,-6.98z"/>
    <path fill="#263238" fill-rule="nonzero" d="M7017.33 2240.22c-1.8,0.03 -3.77,0.03 -5.56,0.03 -47.92,0 -95.83,-5.23 -142.61,-15.37 -6.76,-1.55 -11.54,-7.56 -11.54,-14.47 0,-8.19 6.65,-14.85 14.85,-14.85 1.11,0 2.24,0.14 3.32,0.38 142.12,33.86 371.93,11.29 455,-68.31 2.72,-2.73 6.41,-4.28 10.28,-4.28 3.86,0 7.56,1.55 10.27,4.28 2.72,2.67 4.25,6.32 4.25,10.13 0,3.81 -1.53,7.46 -4.25,10.13 -63.96,61.94 -204.35,92.33 -334.01,92.33z"/>
    <path fill="#263238" fill-rule="nonzero" d="M7011.25 1833.56c-6.94,20.26 -23.15,33.29 -36.47,28.94 -13.31,-4.34 -18.23,-24.02 -11.29,-44.28 6.95,-20.26 23.45,-33.29 36.47,-28.95 13.03,4.35 18.23,22.58 11.29,44.29z"/>
    <path fill="#263238" fill-rule="nonzero" d="M6762.33 1746.73c-6.95,20.26 -23.16,33.29 -36.47,28.95 -13.32,-4.35 -18.24,-24.03 -11.29,-44.29 6.94,-20.26 23.44,-33.28 36.47,-28.94 13.03,4.34 19.39,24.02 11.29,44.28z"/>
    <path fill="#FF5652" fill-rule="nonzero" d="M6853.51 1814.17c-62.16,32.24 -123.43,68.92 -181.59,108.05 14.48,48.91 90.59,66.28 90.59,66.28l91 -174.33z"/>
    <path fill="#263238" fill-rule="nonzero" d="M6791.27 2078.72c17.63,5.66 36.14,8.58 54.68,8.58 29.49,0 58.59,-7.37 84.54,-21.33 1.97,-1.13 3.17,-3.23 3.17,-5.5 0,-1.11 -0.29,-2.21 -0.85,-3.18 -1.16,-1.83 -3.2,-2.94 -5.37,-2.94 -1.17,0 -2.31,0.31 -3.31,0.93 -24.15,12.64 -51.11,19.28 -78.41,19.28 -25.8,0 -51.26,-5.9 -74.42,-17.25 -0.84,-0.41 -1.76,-0.62 -2.7,-0.62 -2.41,0 -4.61,1.36 -5.69,3.5 -0.51,0.91 -0.77,1.91 -0.77,2.95 0,2.31 1.3,4.42 3.37,5.45 8.33,3.87 17.01,7.31 25.75,10.14l0.01 -0.01z"/>
    <path fill="#263238" fill-rule="nonzero" d="M7132.81 1797.38c1.03,0.3 2.11,0.44 3.19,0.44 1.07,0 2.15,-0.14 3.18,-0.44 5.21,-1.61 8.77,-6.43 8.77,-11.89 0,-1.37 -0.23,-2.74 -0.66,-4.03 -11.6,-38.24 -41.43,-68.29 -79.6,-80.16 -1.01,-0.26 -2.03,-0.38 -3.06,-0.38 -5.89,0 -11.04,3.95 -12.58,9.62 -0.24,0.99 -0.36,2.01 -0.36,3.01 0,5.68 3.84,10.65 9.34,12.06l0 -0.01c30.15,9.82 53.54,33.85 62.54,64.25 1.57,3.93 5.08,6.77 9.24,7.53z"/>
    <path fill="#263238" fill-rule="nonzero" d="M6715.44 1634.43c1.82,0.98 3.86,1.51 5.93,1.51 2.07,0 4.11,-0.53 5.94,-1.51 15.13,-8.76 32.32,-13.39 49.81,-13.39 14.06,0 27.97,3 40.78,8.76 1.83,0.94 3.85,1.43 5.9,1.43 4.66,0 8.96,-2.55 11.19,-6.65 1.16,-1.87 1.77,-4.03 1.77,-6.24 0,-4.43 -2.47,-8.5 -6.41,-10.55 -16.69,-7.96 -35.01,-12.14 -53.52,-12.14 -21.86,0 -43.36,5.81 -62.26,16.79 -4.07,2.14 -6.62,6.39 -6.62,10.99 0,4.61 2.55,8.85 6.62,11.01l0.87 -0.01z"/>
    <path fill="#FF8B7B" fill-rule="nonzero" d="M5126.43 1978.27l-200.59 -173.66 264.55 -180.32c0,0 162.67,181.19 82.78,286.54l-146.74 67.44z"/>
    <path fill="#FF8B7B" fill-rule="nonzero" d="M4902.4 1521.84l102.75 -47.47c11.68,-5.3 24.39,-8.05 37.21,-8.05 30.99,0 59.82,15.95 76.27,42.21l71.78 113.74 -264.55 180.33 -69.74 -154.56c-5.7,-12.46 -8.67,-26.03 -8.67,-39.72 0,-37.03 21.43,-70.76 54.96,-86.48l-0.01 0z"/>
    <path fill="#FF8B7B" fill-rule="nonzero" d="M6301.83 3179.45c-31.96,-69.03 -101.19,-113.25 -177.27,-113.25 -28.76,0 -57.19,6.37 -83.22,18.61l-8.97 4.04 -43.99 20.56 -47.77 21.7c-32.41,13.9 -65.12,28.95 -98.11,41.4 -65.7,28.94 -132.56,51.81 -199.71,75.25 -67.15,23.44 -135.17,44 -202.61,62.23 -59.62,16.22 -119.53,28.95 -179.74,40.52 -52.11,-13.31 -107.1,-30.97 -162.09,-50.94 -69.18,-25.18 -139.51,-54.41 -209.56,-85.1 -70.04,-30.68 -140.67,-63.1 -211,-96.09l-211 -100.43 -2.02 0c-12.99,-6.09 -27.19,-9.26 -41.53,-9.26 -54.02,0 -97.83,43.81 -97.83,97.83 0,27.55 11.62,53.82 31.99,72.35 61.94,55.86 125.04,105.65 190.16,155.15 65.12,49.5 132.27,95.8 202.61,140.37 69.75,45.39 142.48,87.65 216.42,125.67 78.42,40.98 160.86,75.5 245.03,102.72 13.24,3.92 27.12,5.93 41.03,5.93 3.85,0 7.73,-0.16 11.57,-0.46l12.15 0c82.32,-5.83 164.86,-16.9 245.82,-31.93 40.82,-6.94 80.18,-16.49 120.41,-25.18 40.24,-8.69 79.02,-19.98 118.09,-31.83 78.44,-22.29 155.15,-48.91 231.56,-78.73 37.63,-15.06 75.55,-28.95 112.59,-47.77 18.52,-8.68 37.33,-17.07 55.85,-26.34 18.52,-9.26 35.9,-18.23 57.9,-30.68 63.01,-34.07 102.38,-100.14 102.38,-171.95 0,-29.19 -6.54,-58.07 -19.14,-84.4l0 0.01z"/>
    <path fill="#407BFF" fill-rule="nonzero" d="M6282.15 2933.43c-236.99,82.38 -470.99,182.08 -694.59,295.61 57.66,197.58 165.67,377.27 313.12,520.92 147.44,143.64 125.32,-6.37 379.73,-198.55 284.81,-212.77 291.18,-712.34 1.74,-617.98z"/>
    <path fill="#FF8B7B" fill-rule="nonzero" d="M4413.54 3205.21l-258.47 -24.89 107.39 -293.49c0,0 231.55,51.52 228.37,180.61l-77.29 137.77z"/>
    <path fill="#FF8B7B" fill-rule="nonzero" d="M3976.77 2970.76l54.71 -95.8c15.39,-27.29 44.32,-44.18 75.65,-44.18 11.59,0 23.1,2.33 33.78,6.84l121.57 49.21 -107.38 293.49 -142.43 -83.08c-29.32,-16.56 -47.48,-47.67 -47.48,-81.37 0,-15.77 3.99,-31.3 11.59,-45.1l-0.01 -0.01z"/>
   </g>
   <g id="freepik--Desk--inject-3">
    <path fill="#407BFF" fill-rule="nonzero" d="M10203.76 5639.67l-9198.36 0c-41.22,0 -74.66,-33.44 -74.66,-74.67l-0.01 0c0.01,-0.09 0.01,-0.2 0.01,-0.28 0,-41.24 33.44,-74.68 74.67,-74.68 0,0 0,0 0,0l9198.35 -0.01c0,0.01 0,0.01 0,0.01 41.23,0 74.67,33.44 74.67,74.68 0,0.08 0,0.19 0,0.29l0 -0.01c0,41.23 -33.44,74.67 -74.67,74.67z"/>
    <path fill="#407BFF" fill-rule="nonzero" d="M8244.26 4935.47l362.66 0c21.1,0 38.21,17.11 38.21,38.21l0 478.44c0,21.1 -17.11,38.21 -38.21,38.21l-362.66 0c-21.11,0 -38.21,-17.11 -38.21,-38.21l0.01 -478.44c-0.01,-21.1 17.09,-38.21 38.2,-38.21z"/>
    <path fill="#407BFF" fill-rule="nonzero" d="M8645.13 5411.89c-0.08,-0.01 -0.22,-0.01 -0.29,-0.01 -109.97,0 -199.13,-89.17 -199.13,-199.13 0,-109.96 89.16,-199.13 199.13,-199.13 109.96,0 199.13,89.17 199.13,199.13 -0.14,109.79 -89.05,198.82 -198.84,199.14zm0 -340.09c-0.09,0 -0.21,0 -0.29,0 -78,0 -141.25,63.25 -141.25,141.25 0,77.99 63.25,141.25 141.25,141.25 77.99,0 141.25,-63.26 141.25,-141.25 0,-0.09 0,-0.21 0,-0.3 -0.16,-77.77 -63.19,-140.8 -140.96,-140.95z"/>
    <path fill="black" fill-rule="nonzero" fill-opacity="0.301961" d="M10203.76 5639.67l-2556.62 0c0,0.01 0,0.01 0,0.01 -41.29,0 -74.81,-33.38 -74.97,-74.67l0.01 -0.01c-0.01,-41.39 33.57,-74.97 74.96,-74.97l2556.62 0c0,0.01 0,0.01 0,0.01 41.23,0 74.67,33.44 74.67,74.68 0,0.08 0,0.19 0,0.29l0 -0.01c0,41.23 -33.44,74.67 -74.67,74.67z"/>
    <rect fill="#263238" fill-rule="nonzero" x="8784.35" y="5639.68" width="282.2" height="2257.62"/>
    <path fill="#263238" fill-rule="nonzero" d="M9351.94 5639.67l538.36 0 0 53.84c-0.01,34.21 -27.74,61.95 -61.95,61.95l-414.47 0c-34.2,0 -61.94,-27.74 -61.94,-61.94l0 -53.85z"/>
    <rect fill="#263238" fill-rule="nonzero" x="8714.6" y="7337.81" width="421.71" height="2257.62"/>
    <rect fill="#263238" fill-rule="nonzero" x="8643.69" y="8729.14" width="563.53" height="2257.62"/>
    <path fill="#263238" fill-rule="nonzero" d="M9534.87 10986.77l-1218.83 0c0,-69.53 56.38,-125.92 125.9,-125.92l967.01 0c69.52,0 125.9,56.39 125.9,125.91l0.02 0.01z"/>
    <rect fill="#263238" fill-rule="nonzero" x="2142.6" y="5639.68" width="282.2" height="2257.62"/>
    <rect fill="#263238" fill-rule="nonzero" x="2072.85" y="7337.81" width="421.71" height="2257.62"/>
    <rect fill="#263238" fill-rule="nonzero" x="2001.94" y="8729.14" width="563.53" height="2257.62"/>
    <path fill="#263238" fill-rule="nonzero" d="M2893.12 10986.77l-1218.83 0c0.02,-69.53 56.4,-125.92 125.92,-125.92l967.87 0c69.53,0 125.91,56.39 125.91,125.91l-0.87 0.01z"/>
    <path fill="#407BFF" fill-rule="nonzero" d="M5786.05 5400.02l-3466.89 0c-24.81,0.16 -44.85,20.33 -44.85,45.15 0,0 0,0 0,0l-0.01 0c0.16,24.71 20.17,44.72 44.88,44.87l3466.87 -0.01c0,0.01 0,0.01 0,0.01 24.82,0 45,-20.04 45.16,-44.86l0 -0.01c0,-24.93 -20.23,-45.16 -45.16,-45.16l0 0.01z"/>
    <path fill="black" fill-rule="nonzero" fill-opacity="0.301961" d="M5786.05 5400.02l-3466.89 0c-24.81,0.16 -44.85,20.33 -44.85,45.15 0,0 0,0 0,0l-0.01 0c0.16,24.71 20.17,44.72 44.88,44.87l3466.87 -0.01c0,0.01 0,0.01 0,0.01 24.82,0 45,-20.04 45.16,-44.86l0 -0.01c0,-24.93 -20.23,-45.16 -45.16,-45.16l0 0.01z"/>
    <path fill="#407BFF" fill-rule="nonzero" d="M4575.63 3783.51l-2460.23 0c-0.84,-0.03 -1.74,-0.04 -2.6,-0.04 -60.26,0 -109.12,48.87 -109.12,109.12 0,6.5 0.6,13.03 1.75,19.43l202.61 1404.64c12.19,72.32 73.7,126.11 147.02,128.52l2460.22 -0.01c0.86,0.02 1.76,0.03 2.62,0.03 60.26,0 109.12,-48.86 109.12,-109.12 0,-6.5 -0.6,-13.03 -1.75,-19.43l-202.6 -1404.64c-12.2,-72.31 -73.71,-126.1 -147.03,-128.5l-0.01 0z"/>
    <path fill="white" fill-rule="nonzero" fill-opacity="0.200000" d="M3812.38 3977.43c11.57,-19.72 17.68,-42.25 17.68,-65.12 0,-71.13 -57.68,-128.8 -128.8,-128.8 0,0 -0.01,0 -0.01,0l-1585.85 0c-0.84,-0.03 -1.74,-0.04 -2.6,-0.04 -60.26,0 -109.12,48.87 -109.12,109.12 0,6.5 0.6,13.03 1.75,19.43l202.61 1404.64c12.19,72.32 73.7,126.11 147.02,128.52l457.3 -0.01c87.56,-0.02 168.58,-46.57 212.75,-122.14l787.27 -1345.6z"/>
   </g>
  </g>
 </g>
</svg>
